<svg width="200" height="200" viewBox="0 0 200 200" fill="none" xmlns="http://www.w3.org/2000/svg">
<circle cx="100" cy="100" r="99" stroke="#9F9F9F" stroke-width="2"/>
<circle cx="100" cy="100" r="93" stroke="#9F9F9F" stroke-width="2"/>
<line x1="101" y1="6" x2="101" y2="194" stroke="#9F9F9F" stroke-width="2"/>
<line x1="6" y1="99" x2="194" y2="99" stroke="#9F9F9F" stroke-width="2"/>
<path d="M41.9478 58.3838C40.2988 59.1276 38.9321 60.4994 38.2433 62.3217C36.8646 65.9659 38.7076 70.052 42.3519 71.4307C45.9967 72.8109 50.0826 70.9671 51.4609 67.3222C52.8396 63.678 50.9966 59.5918 47.3524 58.2131C45.5294 57.5228 43.5976 57.6397 41.9478 58.3838ZM46.0969 67.5826C45.3897 67.9016 44.5611 67.9512 43.7795 67.6555C42.2171 67.0638 41.4268 65.3118 42.0175 63.7489C42.6092 62.1865 44.3612 61.3962 45.9241 61.9869C47.4865 62.5786 48.2768 64.3306 47.6861 65.8935C47.3901 66.6743 46.804 67.2637 46.0969 67.5826Z" fill="#9F9F9F"/>
<path d="M27.4416 49.8917C25.7918 50.6358 24.4259 52.0073 23.7364 53.8299C23.0679 55.5952 23.1281 57.5154 23.9038 59.235C24.6801 60.9562 26.0799 62.2712 27.8449 62.939C31.4895 64.3166 35.576 62.4743 36.9536 58.8297C37.6217 57.0655 37.5622 55.145 36.7862 53.4246C36.0103 51.7041 34.6111 50.3888 32.8454 49.7214C31.0235 49.0315 29.0906 49.1479 27.4416 49.8917ZM31.5906 59.0905C30.8835 59.4095 30.0549 59.4591 29.2733 59.1634C28.5162 58.877 27.9166 58.3133 27.5837 57.5752C27.2512 56.8379 27.2252 56.0146 27.5116 55.2575C28.1029 53.6962 29.8546 52.9052 31.4182 53.4955C32.1752 53.7819 32.7752 54.3464 33.1077 55.0837C33.4406 55.8218 33.4663 56.6444 33.1796 57.4007C32.8842 58.183 32.2978 58.7716 31.5906 59.0905Z" fill="#9F9F9F"/>
<path d="M42.7248 48.169C41.6513 48.4696 41.0251 49.5831 41.3258 50.6565C41.6265 51.73 42.7399 52.3562 43.8134 52.0556C45.4224 51.6049 47.0981 52.5473 47.5488 54.1563C47.8494 55.2298 48.9629 55.856 50.0364 55.5553C51.1098 55.2546 51.736 54.1412 51.4354 53.0677C50.3844 49.3156 46.4777 47.1178 42.7248 48.169Z" fill="#9F9F9F"/>
<path d="M63.9291 81.7989C62.0622 82.6409 60.5257 84.2177 59.7674 86.3284C58.2496 90.5494 60.406 95.3305 64.5746 96.9866C68.744 98.6445 73.3696 96.5571 74.8871 92.3353C76.4049 88.1143 74.2485 83.3333 70.0798 81.6771C67.9945 80.848 65.7968 80.9564 63.9291 81.7989ZM68.7837 92.562C67.9831 92.9231 67.0404 92.9691 66.1463 92.6139C64.3591 91.9031 63.4344 89.8531 64.0847 88.0429C64.7361 86.2332 66.7196 85.3386 68.5074 86.0481C70.2947 86.7589 71.2193 88.8089 70.5691 90.6191C70.2431 91.5235 69.5842 92.201 68.7837 92.562Z" fill="#9F9F9F"/>
<path d="M47.2926 71.7107C45.4249 72.5531 43.8893 74.1296 43.1301 76.2407C42.3942 78.2853 42.49 80.5206 43.3976 82.5327C44.3059 84.5466 45.9184 86.0967 47.9374 86.8988C52.1064 88.5537 56.7328 86.4681 58.2494 82.2467C58.9849 80.2032 58.8899 77.9676 57.9819 75.9546C57.074 73.9416 55.4623 72.3911 53.4425 71.5894C51.3585 70.7607 49.1595 70.8687 47.2926 71.7107ZM52.1472 82.4739C51.3467 82.835 50.4039 82.881 49.5099 82.5257C48.6439 82.1817 47.9532 81.5172 47.5637 80.6536C47.1746 79.7909 47.1333 78.8325 47.4486 77.9556C48.0996 76.1472 50.0827 75.2517 51.8713 75.9608C52.7373 76.3049 53.4284 76.9702 53.8175 77.8329C54.207 78.6965 54.2479 79.6541 53.9322 80.5301C53.6071 81.4362 52.9478 82.1128 52.1472 82.4739Z" fill="#9F9F9F"/>
<path d="M64.6683 69.9235C63.4504 70.2581 62.7533 71.5448 63.1109 72.7983C63.4685 74.0517 64.7451 74.7962 65.963 74.4616C67.7885 73.9601 69.7097 75.0805 70.2457 76.9593C70.6033 78.2127 71.8799 78.9572 73.0978 78.6226C74.3157 78.288 75.0128 77.0012 74.6552 75.7478C73.4053 71.3667 68.9261 68.7537 64.6683 69.9235Z" fill="#9F9F9F"/>
<path d="M58.8265 33.8033C57.8258 34.2546 57.0023 35.0998 56.5958 36.2312C55.7822 38.4938 56.9381 41.0565 59.1726 41.9443C61.4075 42.8329 63.8869 41.7141 64.7003 39.4511C65.5139 37.1885 64.358 34.6258 62.1235 33.738C61.0057 33.2936 59.8277 33.3517 58.8265 33.8033ZM61.4287 39.5726C60.9996 39.7662 60.4943 39.7908 60.0151 39.6004C59.057 39.2194 58.5614 38.1206 58.9099 37.1502C59.2591 36.1802 60.3224 35.7007 61.2806 36.081C62.2387 36.462 62.7343 37.5608 62.3857 38.5311C62.211 39.0159 61.8579 39.3791 61.4287 39.5726Z" fill="#9F9F9F"/>
<path d="M49.909 28.3958C48.9078 28.8473 48.0847 29.6924 47.6778 30.824C47.2833 31.92 47.3347 33.1181 47.8212 34.1966C48.308 35.2761 49.1724 36.107 50.2546 36.537C52.4893 37.4241 54.9691 36.3061 55.7821 34.0433C56.1763 32.948 56.1254 31.7496 55.6387 30.6706C55.1521 29.5916 54.2882 28.7605 53.2055 28.3307C52.0884 27.8865 50.9097 27.9444 49.909 28.3958ZM52.5112 34.1651C52.0821 34.3587 51.5767 34.3833 51.0975 34.1929C50.6333 34.0085 50.2631 33.6523 50.0543 33.1894C49.8457 32.727 49.8236 32.2132 49.9926 31.7432C50.3416 30.7738 51.4046 30.2938 52.3633 30.674C52.8275 30.8584 53.1979 31.215 53.4065 31.6775C53.6153 32.1403 53.6372 32.6536 53.468 33.1232C53.2937 33.6089 52.9403 33.9716 52.5112 34.1651Z" fill="#9F9F9F"/>
<path d="M59.2228 27.4378C58.57 27.6172 58.1963 28.3069 58.388 28.9788C58.5797 29.6506 59.2639 30.0497 59.9168 29.8703C60.8953 29.6015 61.9251 30.2021 62.2124 31.2092C62.4041 31.881 63.0884 32.2801 63.7412 32.1007C64.394 31.9214 64.7677 31.2317 64.576 30.5598C63.906 28.2114 61.5051 26.8108 59.2228 27.4378Z" fill="#9F9F9F"/>
<path d="M74.8265 55.8033C73.8258 56.2546 73.0023 57.0998 72.5958 58.2312C71.7822 60.4938 72.9381 63.0565 75.1726 63.9443C77.4075 64.8329 79.8869 63.7141 80.7003 61.4511C81.5139 59.1885 80.358 56.6258 78.1235 55.738C77.0057 55.2936 75.8277 55.3517 74.8265 55.8033ZM77.4287 61.5726C76.9996 61.7662 76.4943 61.7908 76.0151 61.6004C75.057 61.2194 74.5614 60.1206 74.9099 59.1502C75.2591 58.1802 76.3224 57.7007 77.2806 58.081C78.2387 58.462 78.7343 59.5608 78.3857 60.5311C78.211 61.0159 77.8579 61.3791 77.4287 61.5726Z" fill="#9F9F9F"/>
<path d="M65.909 50.3958C64.9078 50.8473 64.0847 51.6924 63.6778 52.824C63.2833 53.92 63.3347 55.1181 63.8212 56.1966C64.308 57.2761 65.1724 58.107 66.2546 58.537C68.4893 59.4241 70.9691 58.3061 71.7821 56.0433C72.1763 54.948 72.1254 53.7496 71.6387 52.6706C71.1521 51.5916 70.2882 50.7605 69.2055 50.3307C68.0884 49.8865 66.9097 49.9444 65.909 50.3958ZM68.5112 56.1651C68.0821 56.3587 67.5767 56.3833 67.0975 56.1929C66.6333 56.0085 66.2631 55.6523 66.0543 55.1894C65.8457 54.727 65.8236 54.2132 65.9926 53.7432C66.3416 52.7738 67.4046 52.2938 68.3633 52.674C68.8275 52.8584 69.1979 53.215 69.4065 53.6775C69.6153 54.1403 69.6372 54.6536 69.468 55.1232C69.2937 55.6089 68.9403 55.9716 68.5112 56.1651Z" fill="#9F9F9F"/>
<path d="M75.2228 49.4378C74.57 49.6172 74.1963 50.3069 74.388 50.9788C74.5797 51.6506 75.2639 52.0497 75.9168 51.8703C76.8953 51.6015 77.9251 52.2021 78.2124 53.2092C78.4041 53.881 79.0884 54.2801 79.7412 54.1007C80.394 53.9214 80.7677 53.2317 80.576 52.5598C79.906 50.2114 77.5051 48.8108 75.2228 49.4378Z" fill="#9F9F9F"/>
<path d="M91.8265 49.8033C90.8258 50.2546 90.0023 51.0998 89.5958 52.2312C88.7822 54.4938 89.9381 57.0565 92.1726 57.9443C94.4075 58.8329 96.8869 57.7141 97.7003 55.4511C98.5139 53.1885 97.358 50.6258 95.1235 49.738C94.0057 49.2936 92.8277 49.3517 91.8265 49.8033ZM94.4287 55.5726C93.9996 55.7662 93.4943 55.7908 93.0151 55.6004C92.057 55.2194 91.5614 54.1206 91.9099 53.1502C92.2591 52.1802 93.3224 51.7007 94.2806 52.081C95.2387 52.462 95.7343 53.5608 95.3857 54.5311C95.211 55.0159 94.8579 55.3791 94.4287 55.5726Z" fill="#9F9F9F"/>
<path d="M82.909 44.3958C81.9078 44.8473 81.0847 45.6924 80.6778 46.824C80.2833 47.92 80.3347 49.1181 80.8212 50.1966C81.308 51.2761 82.1724 52.107 83.2546 52.537C85.4893 53.4241 87.9691 52.3061 88.7821 50.0433C89.1763 48.948 89.1254 47.7496 88.6387 46.6706C88.1521 45.5916 87.2882 44.7605 86.2055 44.3307C85.0884 43.8865 83.9097 43.9444 82.909 44.3958ZM85.5112 50.1651C85.0821 50.3587 84.5767 50.3833 84.0975 50.1929C83.6333 50.0085 83.2631 49.6523 83.0543 49.1894C82.8457 48.727 82.8236 48.2132 82.9926 47.7432C83.3416 46.7738 84.4046 46.2938 85.3633 46.674C85.8275 46.8584 86.1979 47.215 86.4065 47.6775C86.6153 48.1403 86.6372 48.6536 86.468 49.1232C86.2937 49.6089 85.9403 49.9716 85.5112 50.1651Z" fill="#9F9F9F"/>
<path d="M92.2228 43.4378C91.57 43.6172 91.1963 44.3069 91.388 44.9788C91.5797 45.6506 92.2639 46.0497 92.9168 45.8703C93.8953 45.6015 94.9251 46.2021 95.2124 47.2092C95.4041 47.881 96.0884 48.2801 96.7412 48.1007C97.394 47.9214 97.7677 47.2317 97.576 46.5598C96.906 44.2114 94.5051 42.8108 92.2228 43.4378Z" fill="#9F9F9F"/>
<path d="M130.827 47.8033C129.826 48.2546 129.002 49.0998 128.596 50.2312C127.782 52.4938 128.938 55.0565 131.173 55.9443C133.407 56.8329 135.887 55.7141 136.7 53.4511C137.514 51.1885 136.358 48.6258 134.124 47.738C133.006 47.2936 131.828 47.3517 130.827 47.8033ZM133.429 53.5726C133 53.7662 132.494 53.7908 132.015 53.6004C131.057 53.2194 130.561 52.1206 130.91 51.1502C131.259 50.1802 132.322 49.7007 133.281 50.081C134.239 50.462 134.734 51.5608 134.386 52.5311C134.211 53.0159 133.858 53.3791 133.429 53.5726Z" fill="#9F9F9F"/>
<path d="M121.909 42.3958C120.908 42.8473 120.085 43.6924 119.678 44.824C119.283 45.92 119.335 47.1181 119.821 48.1966C120.308 49.2761 121.172 50.107 122.255 50.537C124.489 51.4241 126.969 50.3061 127.782 48.0433C128.176 46.948 128.125 45.7496 127.639 44.6706C127.152 43.5916 126.288 42.7605 125.206 42.3307C124.088 41.8865 122.91 41.9444 121.909 42.3958ZM124.511 48.1651C124.082 48.3587 123.577 48.3833 123.098 48.1929C122.633 48.0085 122.263 47.6523 122.054 47.1894C121.846 46.727 121.824 46.2132 121.993 45.7432C122.342 44.7738 123.405 44.2938 124.363 44.674C124.827 44.8584 125.198 45.215 125.406 45.6775C125.615 46.1403 125.637 46.6536 125.468 47.1232C125.294 47.6089 124.94 47.9716 124.511 48.1651Z" fill="#9F9F9F"/>
<path d="M131.223 41.4378C130.57 41.6172 130.196 42.3069 130.388 42.9788C130.58 43.6506 131.264 44.0497 131.917 43.8703C132.895 43.6015 133.925 44.2021 134.212 45.2092C134.404 45.881 135.088 46.2801 135.741 46.1007C136.394 45.9214 136.768 45.2317 136.576 44.5598C135.906 42.2114 133.505 40.8108 131.223 41.4378Z" fill="#9F9F9F"/>
<path d="M145.305 161.262C144.651 162.143 144.343 163.283 144.539 164.469C144.931 166.841 147.189 168.516 149.573 168.203C151.957 167.891 153.578 165.706 153.186 163.333C152.794 160.961 150.537 159.286 148.153 159.599C146.96 159.755 145.959 160.38 145.305 161.262ZM150.388 165.033C150.107 165.411 149.678 165.679 149.167 165.746C148.144 165.88 147.176 165.162 147.008 164.144C146.841 163.127 147.536 162.19 148.558 162.056C149.58 161.922 150.548 162.64 150.716 163.657C150.8 164.166 150.668 164.655 150.388 165.033Z" fill="#9F9F9F"/>
<path d="M134.883 160.883C134.229 161.765 133.921 162.904 134.117 164.09C134.306 165.239 134.935 166.261 135.885 166.966C136.836 167.671 137.996 167.976 139.15 167.825C141.534 167.511 143.155 165.327 142.763 162.954C142.574 161.806 141.946 160.784 140.995 160.079C140.044 159.373 138.885 159.068 137.73 159.22C136.538 159.376 135.537 160.001 134.883 160.883ZM139.966 164.654C139.685 165.032 139.256 165.3 138.745 165.367C138.249 165.432 137.753 165.301 137.345 164.998C136.937 164.696 136.668 164.258 136.586 163.765C136.419 162.749 137.114 161.812 138.136 161.677C138.631 161.612 139.129 161.743 139.536 162.045C139.944 162.348 140.213 162.785 140.294 163.278C140.378 163.787 140.246 164.276 139.966 164.654Z" fill="#9F9F9F"/>
<path d="M142.551 155.509C142.068 155.984 142.077 156.768 142.572 157.262C143.067 157.755 143.859 157.771 144.342 157.296C145.065 156.585 146.257 156.607 146.999 157.347C147.493 157.84 148.285 157.856 148.768 157.381C149.251 156.906 149.241 156.122 148.747 155.629C147.018 153.904 144.238 153.85 142.551 155.509Z" fill="#9F9F9F"/>
<path d="M124.906 152.192C125.06 152.945 125.51 153.637 126.22 154.088C127.639 154.991 129.566 154.596 130.516 153.207C131.466 151.818 131.083 149.954 129.663 149.051C128.244 148.148 126.317 148.543 125.368 149.932C124.893 150.626 124.751 151.439 124.906 152.192ZM129.244 151.303C129.31 151.625 129.249 151.974 129.045 152.272C128.638 152.867 127.812 153.037 127.203 152.65C126.595 152.262 126.431 151.463 126.838 150.867C127.245 150.272 128.071 150.102 128.68 150.489C128.984 150.683 129.177 150.98 129.244 151.303Z" fill="#9F9F9F"/>
<path d="M119.844 157.448C119.999 158.201 120.449 158.892 121.159 159.344C121.846 159.782 122.672 159.931 123.483 159.764C124.294 159.598 124.994 159.136 125.454 158.463C126.403 157.074 126.021 155.21 124.602 154.307C123.915 153.87 123.089 153.72 122.278 153.887C121.466 154.053 120.766 154.515 120.307 155.188C119.832 155.882 119.69 156.695 119.844 157.448ZM124.182 156.558C124.248 156.881 124.187 157.23 123.984 157.528C123.787 157.816 123.487 158.014 123.139 158.085C122.791 158.157 122.437 158.093 122.142 157.905C121.534 157.518 121.37 156.719 121.777 156.123C121.974 155.834 122.274 155.636 122.622 155.565C122.97 155.494 123.324 155.557 123.618 155.745C123.923 155.939 124.116 156.236 124.182 156.558Z" fill="#9F9F9F"/>
<path d="M120.622 150.943C120.644 151.417 121.057 151.778 121.545 151.75C122.033 151.722 122.411 151.317 122.389 150.844C122.356 150.134 122.924 149.524 123.656 149.482C124.144 149.455 124.521 149.049 124.499 148.576C124.477 148.103 124.064 147.742 123.576 147.769C121.87 147.866 120.545 149.289 120.622 150.943Z" fill="#9F9F9F"/>
<path d="M89.9773 180.919C89.3231 181.8 89.0155 182.94 89.2116 184.126C89.6031 186.498 91.8609 188.173 94.2448 187.86C96.6295 187.548 98.2499 185.363 97.8581 182.99C97.4666 180.618 95.2088 178.943 92.8249 179.256C91.6322 179.412 90.6317 180.037 89.9773 180.919ZM95.06 184.69C94.7795 185.068 94.3502 185.336 93.8389 185.403C92.8166 185.537 91.8485 184.818 91.6803 183.801C91.5128 182.784 92.2078 181.847 93.23 181.712C94.2522 181.579 95.2203 182.297 95.3885 183.314C95.4721 183.823 95.3405 184.312 95.06 184.69Z" fill="#9F9F9F"/>
<path d="M79.5552 180.539C78.9007 181.421 78.5934 182.56 78.7892 183.747C78.9785 184.896 79.607 185.918 80.5572 186.623C81.5082 187.328 82.6678 187.633 83.8224 187.481C86.2062 187.168 87.8274 184.983 87.4353 182.611C87.2461 181.462 86.6179 180.441 85.6673 179.735C84.7167 179.03 83.5574 178.725 82.4025 178.877C81.2105 179.033 80.2093 179.658 79.5552 180.539ZM84.6379 184.311C84.3574 184.689 83.9281 184.956 83.4168 185.023C82.9216 185.089 82.4247 184.958 82.0169 184.655C81.6095 184.353 81.34 183.915 81.2586 183.422C81.0912 182.406 81.7858 181.469 82.8083 181.334C83.3035 181.269 83.8007 181.4 84.2081 181.702C84.616 182.005 84.8851 182.442 84.966 182.935C85.0504 183.444 84.9184 183.933 84.6379 184.311Z" fill="#9F9F9F"/>
<path d="M87.2229 175.166C86.7401 175.641 86.7497 176.425 87.2443 176.919C87.739 177.412 88.531 177.427 89.0138 176.953C89.7375 176.241 90.9294 176.264 91.6708 177.004C92.1655 177.497 92.9575 177.512 93.4402 177.038C93.923 176.563 93.9134 175.779 93.4188 175.285C91.6898 173.561 88.9107 173.507 87.2229 175.166Z" fill="#9F9F9F"/>
<path d="M46.5728 138.689C46.2919 139.067 46.1598 139.557 46.244 140.066C46.4121 141.085 47.3816 141.804 48.4053 141.67C49.4294 141.535 50.1253 140.597 49.957 139.578C49.7889 138.56 48.8193 137.84 47.7956 137.975C47.2834 138.042 46.8538 138.31 46.5728 138.689ZM48.7554 140.308C48.635 140.471 48.4506 140.585 48.2311 140.614C47.7921 140.672 47.3763 140.363 47.3041 139.927C47.2322 139.49 47.5306 139.087 47.9696 139.03C48.4086 138.972 48.8243 139.281 48.8965 139.717C48.9324 139.936 48.8759 140.146 48.7554 140.308Z" fill="#9F9F9F"/>
<path d="M42.0973 138.526C41.8163 138.905 41.6843 139.394 41.7684 139.903C41.8497 140.397 42.1196 140.835 42.5276 141.138C42.936 141.441 43.4339 141.572 43.9297 141.507C44.9534 141.372 45.6496 140.434 45.4812 139.416C45.4 138.922 45.1302 138.483 44.722 138.181C44.3138 137.878 43.816 137.747 43.32 137.812C42.8082 137.879 42.3782 138.147 42.0973 138.526ZM44.28 140.145C44.1595 140.308 43.9751 140.423 43.7556 140.451C43.5429 140.479 43.3296 140.423 43.1544 140.293C42.9795 140.164 42.8637 139.975 42.8288 139.764C42.7569 139.327 43.0552 138.925 43.4943 138.867C43.7069 138.839 43.9205 138.895 44.0954 139.025C44.2705 139.155 44.3861 139.343 44.4209 139.554C44.4571 139.773 44.4004 139.983 44.28 140.145Z" fill="#9F9F9F"/>
<path d="M45.39 136.219C45.1827 136.422 45.1868 136.759 45.3992 136.971C45.6116 137.183 45.9517 137.189 46.1591 136.986C46.4698 136.68 46.9817 136.69 47.3 137.008C47.5125 137.219 47.8526 137.226 48.0599 137.022C48.2672 136.818 48.2631 136.482 48.0507 136.27C47.3082 135.529 46.1148 135.506 45.39 136.219Z" fill="#9F9F9F"/>
<path d="M43.5728 104.689C43.2919 105.067 43.1598 105.557 43.244 106.066C43.4121 107.085 44.3816 107.804 45.4053 107.67C46.4294 107.535 47.1253 106.597 46.957 105.578C46.7889 104.56 45.8193 103.84 44.7956 103.975C44.2834 104.042 43.8538 104.31 43.5728 104.689ZM45.7554 106.308C45.635 106.471 45.4506 106.585 45.2311 106.614C44.7921 106.672 44.3763 106.363 44.3041 105.927C44.2322 105.49 44.5306 105.087 44.9696 105.03C45.4086 104.972 45.8243 105.281 45.8965 105.717C45.9324 105.936 45.8759 106.146 45.7554 106.308Z" fill="#9F9F9F"/>
<path d="M39.0973 104.526C38.8163 104.905 38.6843 105.394 38.7684 105.903C38.8497 106.397 39.1196 106.835 39.5276 107.138C39.936 107.441 40.4339 107.572 40.9297 107.507C41.9534 107.372 42.6496 106.434 42.4812 105.416C42.4 104.922 42.1302 104.483 41.722 104.181C41.3138 103.878 40.816 103.747 40.32 103.812C39.8082 103.879 39.3782 104.147 39.0973 104.526ZM41.28 106.145C41.1595 106.308 40.9751 106.423 40.7556 106.451C40.5429 106.479 40.3296 106.423 40.1544 106.293C39.9795 106.164 39.8637 105.975 39.8288 105.764C39.7569 105.327 40.0552 104.925 40.4943 104.867C40.7069 104.839 40.9205 104.895 41.0954 105.025C41.2705 105.155 41.3861 105.343 41.4209 105.554C41.4571 105.773 41.4004 105.983 41.28 106.145Z" fill="#9F9F9F"/>
<path d="M42.39 102.219C42.1827 102.422 42.1868 102.759 42.3992 102.971C42.6116 103.183 42.9517 103.189 43.1591 102.986C43.4698 102.68 43.9817 102.69 44.3 103.008C44.5125 103.219 44.8526 103.226 45.0599 103.022C45.2672 102.818 45.2631 102.482 45.0507 102.27C44.3082 101.529 43.1148 101.506 42.39 102.219Z" fill="#9F9F9F"/>
<path d="M115.573 104.689C115.292 105.067 115.16 105.557 115.244 106.066C115.412 107.085 116.382 107.804 117.405 107.67C118.429 107.535 119.125 106.597 118.957 105.578C118.789 104.56 117.819 103.84 116.796 103.975C116.283 104.042 115.854 104.31 115.573 104.689ZM117.755 106.308C117.635 106.471 117.451 106.585 117.231 106.614C116.792 106.672 116.376 106.363 116.304 105.927C116.232 105.49 116.531 105.087 116.97 105.03C117.409 104.972 117.824 105.281 117.897 105.717C117.932 105.936 117.876 106.146 117.755 106.308Z" fill="#9F9F9F"/>
<path d="M111.097 104.526C110.816 104.905 110.684 105.394 110.768 105.903C110.85 106.397 111.12 106.835 111.528 107.138C111.936 107.441 112.434 107.572 112.93 107.507C113.953 107.372 114.65 106.434 114.481 105.416C114.4 104.922 114.13 104.483 113.722 104.181C113.314 103.878 112.816 103.747 112.32 103.812C111.808 103.879 111.378 104.147 111.097 104.526ZM113.28 106.145C113.16 106.308 112.975 106.423 112.756 106.451C112.543 106.479 112.33 106.423 112.154 106.293C111.979 106.164 111.864 105.975 111.829 105.764C111.757 105.327 112.055 104.925 112.494 104.867C112.707 104.839 112.92 104.895 113.095 105.025C113.271 105.155 113.386 105.343 113.421 105.554C113.457 105.773 113.4 105.983 113.28 106.145Z" fill="#9F9F9F"/>
<path d="M114.39 102.219C114.183 102.422 114.187 102.759 114.399 102.971C114.612 103.183 114.952 103.189 115.159 102.986C115.47 102.68 115.982 102.69 116.3 103.008C116.512 103.219 116.853 103.226 117.06 103.022C117.267 102.818 117.263 102.482 117.051 102.27C116.308 101.529 115.115 101.506 114.39 102.219Z" fill="#9F9F9F"/>
<path d="M156.573 130.689C156.292 131.067 156.16 131.557 156.244 132.066C156.412 133.085 157.382 133.804 158.405 133.67C159.429 133.535 160.125 132.597 159.957 131.578C159.789 130.56 158.819 129.84 157.796 129.975C157.283 130.042 156.854 130.31 156.573 130.689ZM158.755 132.308C158.635 132.471 158.451 132.585 158.231 132.614C157.792 132.672 157.376 132.363 157.304 131.927C157.232 131.49 157.531 131.087 157.97 131.03C158.409 130.972 158.824 131.281 158.897 131.717C158.932 131.936 158.876 132.146 158.755 132.308Z" fill="#9F9F9F"/>
<path d="M152.097 130.526C151.816 130.905 151.684 131.394 151.768 131.903C151.85 132.397 152.12 132.835 152.528 133.138C152.936 133.441 153.434 133.572 153.93 133.507C154.953 133.372 155.65 132.434 155.481 131.416C155.4 130.922 155.13 130.483 154.722 130.181C154.314 129.878 153.816 129.747 153.32 129.812C152.808 129.879 152.378 130.147 152.097 130.526ZM154.28 132.145C154.16 132.308 153.975 132.423 153.756 132.451C153.543 132.479 153.33 132.423 153.154 132.293C152.979 132.164 152.864 131.975 152.829 131.764C152.757 131.327 153.055 130.925 153.494 130.867C153.707 130.839 153.92 130.895 154.095 131.025C154.271 131.155 154.386 131.343 154.421 131.554C154.457 131.773 154.4 131.983 154.28 132.145Z" fill="#9F9F9F"/>
<path d="M155.39 128.219C155.183 128.422 155.187 128.759 155.399 128.971C155.612 129.183 155.952 129.189 156.159 128.986C156.47 128.68 156.982 128.69 157.3 129.008C157.512 129.219 157.853 129.226 158.06 129.022C158.267 128.818 158.263 128.482 158.051 128.27C157.308 127.529 156.115 127.506 155.39 128.219Z" fill="#9F9F9F"/>
<path d="M144.573 45.6887C144.292 46.0673 144.16 46.5565 144.244 47.0659C144.412 48.0846 145.382 48.804 146.405 48.6695C147.429 48.5354 148.125 47.5971 147.957 46.5783C147.789 45.5596 146.819 44.8402 145.796 44.9746C145.283 45.0417 144.854 45.3099 144.573 45.6887ZM146.755 47.3082C146.635 47.4705 146.451 47.5854 146.231 47.6143C145.792 47.6718 145.376 47.3633 145.304 46.9265C145.232 46.4897 145.531 46.0874 145.97 46.0296C146.409 45.9721 146.824 46.2806 146.897 46.7174C146.932 46.9358 146.876 47.1458 146.755 47.3082Z" fill="#9F9F9F"/>
<path d="M140.097 45.5259C139.816 45.9046 139.684 46.3937 139.768 46.9032C139.85 47.3968 140.12 47.8354 140.528 48.1382C140.936 48.4412 141.434 48.572 141.93 48.5069C142.953 48.3722 143.65 47.4342 143.481 46.4155C143.4 45.9223 143.13 45.4835 142.722 45.1806C142.314 44.8777 141.816 44.7467 141.32 44.812C140.808 44.8791 140.378 45.1473 140.097 45.5259ZM142.28 47.1454C142.16 47.3077 141.975 47.4226 141.756 47.4515C141.543 47.4794 141.33 47.4232 141.154 47.2933C140.979 47.1635 140.864 46.9755 140.829 46.7638C140.757 46.3273 141.055 45.9249 141.494 45.867C141.707 45.839 141.92 45.8953 142.095 46.0251C142.271 46.1551 142.386 46.343 142.421 46.5545C142.457 46.7731 142.4 46.983 142.28 47.1454Z" fill="#9F9F9F"/>
<path d="M143.39 43.2185C143.183 43.4223 143.187 43.7592 143.399 43.971C143.612 44.1829 143.952 44.1895 144.159 43.9857C144.47 43.6802 144.982 43.69 145.3 44.0076C145.512 44.2195 145.853 44.226 146.06 44.0222C146.267 43.8184 146.263 43.4816 146.051 43.2697C145.308 42.5291 144.115 42.506 143.39 43.2185Z" fill="#9F9F9F"/>
<path d="M89.5728 63.6887C89.2919 64.0673 89.1598 64.5565 89.244 65.0659C89.4121 66.0846 90.3816 66.804 91.4053 66.6695C92.4294 66.5354 93.1253 65.5971 92.957 64.5783C92.7889 63.5596 91.8193 62.8402 90.7956 62.9746C90.2834 63.0417 89.8538 63.3099 89.5728 63.6887ZM91.7554 65.3082C91.635 65.4705 91.4506 65.5854 91.2311 65.6143C90.7921 65.6718 90.3763 65.3633 90.3041 64.9265C90.2322 64.4897 90.5306 64.0874 90.9696 64.0296C91.4086 63.9721 91.8243 64.2806 91.8965 64.7174C91.9324 64.9358 91.8759 65.1458 91.7554 65.3082Z" fill="#9F9F9F"/>
<path d="M85.0973 63.5259C84.8163 63.9046 84.6843 64.3937 84.7684 64.9032C84.8497 65.3968 85.1196 65.8354 85.5276 66.1382C85.936 66.4412 86.4339 66.572 86.9297 66.5069C87.9534 66.3722 88.6496 65.4342 88.4812 64.4155C88.4 63.9223 88.1302 63.4835 87.722 63.1806C87.3138 62.8777 86.816 62.7467 86.32 62.812C85.8082 62.8791 85.3782 63.1473 85.0973 63.5259ZM87.28 65.1454C87.1595 65.3077 86.9751 65.4226 86.7556 65.4515C86.5429 65.4794 86.3296 65.4232 86.1544 65.2933C85.9795 65.1635 85.8637 64.9755 85.8288 64.7638C85.7569 64.3273 86.0552 63.9249 86.4943 63.867C86.7069 63.839 86.9205 63.8953 87.0954 64.0251C87.2705 64.1551 87.3861 64.343 87.4209 64.5545C87.4571 64.7731 87.4004 64.983 87.28 65.1454Z" fill="#9F9F9F"/>
<path d="M88.39 61.2185C88.1827 61.4223 88.1868 61.7592 88.3992 61.971C88.6116 62.1829 88.9517 62.1895 89.1591 61.9857C89.4698 61.6802 89.9817 61.69 90.3 62.0076C90.5125 62.2195 90.8526 62.226 91.0599 62.0222C91.2672 61.8184 91.2631 61.4816 91.0507 61.2697C90.3082 60.5291 89.1148 60.506 88.39 61.2185Z" fill="#9F9F9F"/>
<path d="M38.5728 91.6887C38.2919 92.0673 38.1598 92.5565 38.244 93.0659C38.4121 94.0846 39.3816 94.804 40.4053 94.6695C41.4294 94.5354 42.1253 93.5971 41.957 92.5783C41.7889 91.5596 40.8193 90.8402 39.7956 90.9746C39.2834 91.0417 38.8538 91.3099 38.5728 91.6887ZM40.7554 93.3082C40.635 93.4705 40.4506 93.5854 40.2311 93.6143C39.7921 93.6718 39.3763 93.3633 39.3041 92.9265C39.2322 92.4897 39.5306 92.0874 39.9696 92.0296C40.4086 91.9721 40.8243 92.2806 40.8965 92.7174C40.9324 92.9358 40.8759 93.1458 40.7554 93.3082Z" fill="#9F9F9F"/>
<path d="M34.0973 91.5259C33.8163 91.9046 33.6843 92.3937 33.7684 92.9032C33.8497 93.3968 34.1196 93.8354 34.5276 94.1382C34.936 94.4412 35.4339 94.572 35.9297 94.5069C36.9534 94.3722 37.6496 93.4342 37.4812 92.4155C37.4 91.9223 37.1302 91.4835 36.722 91.1806C36.3138 90.8777 35.816 90.7467 35.32 90.812C34.8082 90.8791 34.3782 91.1473 34.0973 91.5259ZM36.28 93.1454C36.1595 93.3077 35.9751 93.4226 35.7556 93.4515C35.5429 93.4794 35.3296 93.4232 35.1544 93.2933C34.9795 93.1635 34.8637 92.9755 34.8288 92.7638C34.7569 92.3273 35.0552 91.9249 35.4943 91.867C35.7069 91.839 35.9205 91.8953 36.0954 92.0251C36.2705 92.155 36.3861 92.343 36.4209 92.5545C36.4571 92.7731 36.4004 92.983 36.28 93.1454Z" fill="#9F9F9F"/>
<path d="M37.39 89.2185C37.1827 89.4223 37.1868 89.7592 37.3992 89.971C37.6116 90.1829 37.9517 90.1895 38.1591 89.9857C38.4698 89.6802 38.9817 89.69 39.3 90.0076C39.5125 90.2195 39.8526 90.226 40.0599 90.0222C40.2672 89.8184 40.2631 89.4816 40.0507 89.2697C39.3082 88.5291 38.1148 88.506 37.39 89.2185Z" fill="#9F9F9F"/>
<path d="M107.573 113.689C107.292 114.067 107.16 114.557 107.244 115.066C107.412 116.085 108.382 116.804 109.405 116.67C110.429 116.535 111.125 115.597 110.957 114.578C110.789 113.56 109.819 112.84 108.796 112.975C108.283 113.042 107.854 113.31 107.573 113.689ZM109.755 115.308C109.635 115.471 109.451 115.585 109.231 115.614C108.792 115.672 108.376 115.363 108.304 114.927C108.232 114.49 108.531 114.087 108.97 114.03C109.409 113.972 109.824 114.281 109.897 114.717C109.932 114.936 109.876 115.146 109.755 115.308Z" fill="#9F9F9F"/>
<path d="M103.097 113.526C102.816 113.905 102.684 114.394 102.768 114.903C102.85 115.397 103.12 115.835 103.528 116.138C103.936 116.441 104.434 116.572 104.93 116.507C105.953 116.372 106.65 115.434 106.481 114.416C106.4 113.922 106.13 113.483 105.722 113.181C105.314 112.878 104.816 112.747 104.32 112.812C103.808 112.879 103.378 113.147 103.097 113.526ZM105.28 115.145C105.16 115.308 104.975 115.423 104.756 115.451C104.543 115.479 104.33 115.423 104.154 115.293C103.979 115.164 103.864 114.975 103.829 114.764C103.757 114.327 104.055 113.925 104.494 113.867C104.707 113.839 104.92 113.895 105.095 114.025C105.271 114.155 105.386 114.343 105.421 114.554C105.457 114.773 105.4 114.983 105.28 115.145Z" fill="#9F9F9F"/>
<path d="M106.39 111.219C106.183 111.422 106.187 111.759 106.399 111.971C106.612 112.183 106.952 112.189 107.159 111.986C107.47 111.68 107.982 111.69 108.3 112.008C108.512 112.219 108.853 112.226 109.06 112.022C109.267 111.818 109.263 111.482 109.051 111.27C108.308 110.529 107.115 110.506 106.39 111.219Z" fill="#9F9F9F"/>
<path d="M111.573 181.689C111.292 182.067 111.16 182.557 111.244 183.066C111.412 184.085 112.382 184.804 113.405 184.67C114.429 184.535 115.125 183.597 114.957 182.578C114.789 181.56 113.819 180.84 112.796 180.975C112.283 181.042 111.854 181.31 111.573 181.689ZM113.755 183.308C113.635 183.471 113.451 183.586 113.231 183.614C112.792 183.672 112.376 183.363 112.304 182.927C112.232 182.49 112.531 182.087 112.97 182.03C113.409 181.972 113.824 182.281 113.897 182.717C113.932 182.936 113.876 183.146 113.755 183.308Z" fill="#9F9F9F"/>
<path d="M107.097 181.526C106.816 181.905 106.684 182.394 106.768 182.903C106.85 183.397 107.12 183.835 107.528 184.138C107.936 184.441 108.434 184.572 108.93 184.507C109.953 184.372 110.65 183.434 110.481 182.416C110.4 181.922 110.13 181.484 109.722 181.181C109.314 180.878 108.816 180.747 108.32 180.812C107.808 180.879 107.378 181.147 107.097 181.526ZM109.28 183.145C109.16 183.308 108.975 183.423 108.756 183.452C108.543 183.479 108.33 183.423 108.154 183.293C107.979 183.164 107.864 182.976 107.829 182.764C107.757 182.327 108.055 181.925 108.494 181.867C108.707 181.839 108.92 181.895 109.095 182.025C109.271 182.155 109.386 182.343 109.421 182.555C109.457 182.773 109.4 182.983 109.28 183.145Z" fill="#9F9F9F"/>
<path d="M110.39 179.219C110.183 179.422 110.187 179.759 110.399 179.971C110.612 180.183 110.952 180.19 111.159 179.986C111.47 179.68 111.982 179.69 112.3 180.008C112.512 180.22 112.853 180.226 113.06 180.022C113.267 179.818 113.263 179.482 113.051 179.27C112.308 178.529 111.115 178.506 110.39 179.219Z" fill="#9F9F9F"/>
<path d="M38.5728 44.6887C38.2919 45.0673 38.1598 45.5565 38.244 46.0659C38.4121 47.0846 39.3816 47.804 40.4053 47.6695C41.4294 47.5354 42.1253 46.5971 41.957 45.5783C41.7889 44.5596 40.8193 43.8402 39.7956 43.9746C39.2834 44.0417 38.8538 44.3099 38.5728 44.6887ZM40.7554 46.3082C40.635 46.4705 40.4506 46.5854 40.2311 46.6143C39.7921 46.6718 39.3763 46.3633 39.3041 45.9265C39.2322 45.4897 39.5306 45.0874 39.9696 45.0296C40.4086 44.9721 40.8243 45.2806 40.8965 45.7174C40.9324 45.9358 40.8759 46.1458 40.7554 46.3082Z" fill="#9F9F9F"/>
<path d="M34.0973 44.5259C33.8163 44.9046 33.6843 45.3937 33.7684 45.9032C33.8497 46.3968 34.1196 46.8354 34.5276 47.1382C34.936 47.4412 35.4339 47.572 35.9297 47.5069C36.9534 47.3722 37.6496 46.4342 37.4812 45.4155C37.4 44.9223 37.1302 44.4835 36.722 44.1806C36.3138 43.8777 35.816 43.7467 35.32 43.812C34.8082 43.8791 34.3782 44.1473 34.0973 44.5259ZM36.28 46.1454C36.1595 46.3077 35.9751 46.4226 35.7556 46.4515C35.5429 46.4794 35.3296 46.4232 35.1544 46.2933C34.9795 46.1635 34.8637 45.9755 34.8288 45.7638C34.7569 45.3273 35.0552 44.9249 35.4943 44.867C35.7069 44.839 35.9205 44.8953 36.0954 45.0251C36.2705 45.1551 36.3861 45.343 36.4209 45.5545C36.4571 45.7731 36.4004 45.983 36.28 46.1454Z" fill="#9F9F9F"/>
<path d="M37.39 42.2185C37.1827 42.4223 37.1868 42.7592 37.3992 42.971C37.6116 43.1829 37.9517 43.1895 38.1591 42.9857C38.4698 42.6802 38.9817 42.69 39.3 43.0076C39.5125 43.2195 39.8526 43.226 40.0599 43.0222C40.2672 42.8184 40.2631 42.4816 40.0507 42.2697C39.3082 41.5291 38.1148 41.506 37.39 42.2185Z" fill="#9F9F9F"/>
<path d="M30.748 77.1061C29.4413 77.6954 28.366 78.799 27.8352 80.2763C26.7729 83.2306 28.2822 86.5768 31.1998 87.7359C34.1179 88.8963 37.3554 87.4353 38.4174 84.4805C39.4798 81.5263 37.9705 78.18 35.0529 77.0209C33.5934 76.4406 32.0552 76.5165 30.748 77.1061ZM34.1457 84.6392C33.5854 84.8919 32.9256 84.9241 32.2998 84.6755C31.0489 84.178 30.4018 82.7432 30.8569 81.4763C31.3128 80.2097 32.7011 79.5835 33.9523 80.0801C35.2032 80.5776 35.8504 82.0124 35.3953 83.2793C35.1672 83.9123 34.706 84.3865 34.1457 84.6392Z" fill="#9F9F9F"/>
<path d="M19.1041 70.0454C17.7969 70.635 16.7221 71.7384 16.1908 73.2159C15.6757 74.647 15.7428 76.2114 16.378 77.6197C17.0137 79.0292 18.1423 80.1141 19.5554 80.6755C22.4733 81.8338 25.7113 80.3741 26.7727 77.4195C27.2875 75.9893 27.221 74.4246 26.5855 73.0157C25.9501 71.6068 24.8221 70.5216 23.4084 69.9605C21.9498 69.3805 20.4107 69.4561 19.1041 70.0454ZM22.5018 77.5785C21.9415 77.8313 21.2817 77.8634 20.656 77.6148C20.0499 77.374 19.5665 76.909 19.2938 76.3045C19.0215 75.7007 18.9926 75.0299 19.2133 74.4162C19.6689 73.1505 21.0569 72.5237 22.3087 73.0201C22.9148 73.2609 23.3985 73.7265 23.6708 74.3304C23.9435 74.9348 23.9721 75.605 23.7511 76.2181C23.5236 76.8523 23.0622 77.3258 22.5018 77.5785Z" fill="#9F9F9F"/>
<path d="M31.2653 68.7946C30.4129 69.0287 29.925 69.9293 30.1753 70.8066C30.4256 71.6839 31.3191 72.205 32.1715 71.9708C33.4492 71.6197 34.7938 72.4039 35.1689 73.7189C35.4192 74.5961 36.3127 75.1172 37.1651 74.883C38.0175 74.6489 38.5054 73.7483 38.2551 72.871C37.3803 69.8047 34.2454 67.9758 31.2653 68.7946Z" fill="#9F9F9F"/>
<path d="M33.2802 144.501C32.4001 144.898 31.6758 145.641 31.3184 146.636C30.6029 148.626 31.6194 150.88 33.5845 151.66C35.55 152.442 37.7305 151.458 38.4458 149.468C39.1613 147.478 38.1448 145.224 36.1797 144.444C35.1967 144.053 34.1606 144.104 33.2802 144.501ZM35.5687 149.575C35.1913 149.745 34.7469 149.767 34.3254 149.599C33.4829 149.264 33.047 148.298 33.3535 147.444C33.6606 146.591 34.5957 146.17 35.4384 146.504C36.281 146.839 36.7168 147.805 36.4103 148.659C36.2567 149.085 35.9461 149.404 35.5687 149.575Z" fill="#9F9F9F"/>
<path d="M25.4378 139.745C24.5573 140.142 23.8334 140.886 23.4756 141.881C23.1286 142.845 23.1738 143.898 23.6016 144.847C24.0298 145.796 24.79 146.527 25.7417 146.905C27.707 147.685 29.8879 146.702 30.6028 144.712C30.9495 143.749 30.9047 142.695 30.4767 141.746C30.0487 140.797 29.289 140.066 28.3369 139.688C27.3544 139.297 26.3178 139.348 25.4378 139.745ZM27.7262 144.819C27.3488 144.989 26.9045 145.011 26.483 144.844C26.0748 144.681 25.7492 144.368 25.5656 143.961C25.3821 143.554 25.3627 143.103 25.5113 142.689C25.8182 141.837 26.753 141.415 27.5962 141.749C28.0044 141.911 28.3302 142.225 28.5136 142.631C28.6972 143.038 28.7165 143.49 28.5677 143.903C28.4144 144.33 28.1036 144.649 27.7262 144.819Z" fill="#9F9F9F"/>
<path d="M33.6287 138.903C33.0546 139.061 32.726 139.667 32.8945 140.258C33.0631 140.849 33.6649 141.2 34.239 141.042C35.0996 140.806 36.0052 141.334 36.2579 142.219C36.4265 142.81 37.0282 143.161 37.6024 143.004C38.1765 142.846 38.5051 142.239 38.3365 141.648C37.7473 139.583 35.6359 138.351 33.6287 138.903Z" fill="#9F9F9F"/>
<path d="M26.0445 105.618C25.3389 105.936 24.7582 106.532 24.4715 107.33C23.8978 108.925 24.7129 110.732 26.2885 111.358C27.8645 111.985 29.6128 111.196 30.1864 109.6C30.7601 108.005 29.945 106.198 28.3694 105.572C27.5812 105.258 26.7505 105.299 26.0445 105.618ZM27.8794 109.686C27.5768 109.823 27.2205 109.84 26.8826 109.706C26.2071 109.437 25.8576 108.662 26.1033 107.978C26.3496 107.294 27.0993 106.956 27.775 107.224C28.4506 107.493 28.8 108.267 28.5543 108.952C28.4311 109.294 28.182 109.55 27.8794 109.686Z" fill="#9F9F9F"/>
<path d="M19.7564 101.805C19.0505 102.123 18.47 102.719 18.1831 103.517C17.9049 104.29 17.9412 105.135 18.2842 105.895C18.6275 106.656 19.237 107.242 20.0001 107.545C21.5759 108.171 23.3245 107.383 23.8978 105.787C24.1758 105.015 24.1399 104.17 23.7967 103.409C23.4535 102.648 22.8443 102.062 22.0809 101.759C21.2932 101.446 20.462 101.487 19.7564 101.805ZM21.5913 105.873C21.2887 106.009 20.9324 106.027 20.5945 105.893C20.2672 105.763 20.0061 105.511 19.8589 105.185C19.7118 104.859 19.6962 104.497 19.8154 104.165C20.0614 103.482 20.811 103.143 21.487 103.411C21.8143 103.541 22.0756 103.793 22.2226 104.119C22.3699 104.445 22.3853 104.807 22.266 105.138C22.1431 105.481 21.8939 105.736 21.5913 105.873Z" fill="#9F9F9F"/>
<path d="M26.324 101.129C25.8636 101.256 25.6002 101.742 25.7353 102.216C25.8705 102.69 26.353 102.971 26.8133 102.845C27.5033 102.655 28.2295 103.078 28.4321 103.789C28.5672 104.262 29.0497 104.544 29.5101 104.417C29.9704 104.291 30.2339 103.804 30.0987 103.331C29.6263 101.675 27.9333 100.687 26.324 101.129Z" fill="#9F9F9F"/>
<path d="M82.0445 105.618C81.3389 105.936 80.7582 106.532 80.4715 107.33C79.8978 108.925 80.7129 110.732 82.2885 111.358C83.8645 111.985 85.6128 111.196 86.1864 109.6C86.7601 108.005 85.945 106.198 84.3694 105.572C83.5812 105.258 82.7505 105.299 82.0445 105.618ZM83.8794 109.686C83.5768 109.823 83.2205 109.84 82.8826 109.706C82.2071 109.437 81.8576 108.662 82.1033 107.978C82.3496 107.294 83.0993 106.956 83.775 107.224C84.4506 107.493 84.8 108.267 84.5543 108.952C84.4311 109.294 84.182 109.55 83.8794 109.686Z" fill="#9F9F9F"/>
<path d="M75.7564 101.805C75.0505 102.123 74.47 102.719 74.1831 103.517C73.9049 104.29 73.9412 105.135 74.2842 105.895C74.6275 106.656 75.237 107.242 76.0001 107.545C77.5759 108.171 79.3245 107.383 79.8978 105.787C80.1758 105.015 80.1399 104.17 79.7967 103.409C79.4535 102.648 78.8443 102.062 78.0809 101.759C77.2932 101.446 76.462 101.487 75.7564 101.805ZM77.5913 105.873C77.2887 106.009 76.9324 106.027 76.5945 105.893C76.2672 105.763 76.0061 105.511 75.8589 105.185C75.7118 104.859 75.6962 104.497 75.8154 104.165C76.0614 103.482 76.811 103.143 77.487 103.411C77.8143 103.541 78.0756 103.793 78.2226 104.119C78.3699 104.445 78.3853 104.807 78.266 105.138C78.1431 105.481 77.8939 105.736 77.5913 105.873Z" fill="#9F9F9F"/>
<path d="M82.324 101.129C81.8636 101.256 81.6002 101.742 81.7353 102.216C81.8705 102.69 82.353 102.971 82.8133 102.845C83.5033 102.655 84.2295 103.078 84.4321 103.789C84.5672 104.262 85.0497 104.544 85.5101 104.417C85.9704 104.291 86.2339 103.804 86.0987 103.331C85.6263 101.675 83.9333 100.687 82.324 101.129Z" fill="#9F9F9F"/>
<path d="M74.0445 176.618C73.3389 176.936 72.7582 177.532 72.4715 178.33C71.8978 179.925 72.7129 181.733 74.2885 182.358C75.8645 182.985 77.6128 182.196 78.1864 180.6C78.7601 179.005 77.945 177.198 76.3694 176.572C75.5812 176.259 74.7505 176.3 74.0445 176.618ZM75.8794 180.686C75.5768 180.823 75.2205 180.84 74.8826 180.706C74.2071 180.437 73.8576 179.662 74.1033 178.978C74.3496 178.294 75.0993 177.956 75.775 178.224C76.4506 178.493 76.8 179.268 76.5543 179.952C76.4311 180.294 76.182 180.55 75.8794 180.686Z" fill="#9F9F9F"/>
<path d="M67.7564 172.805C67.0505 173.123 66.47 173.719 66.1831 174.517C65.9049 175.29 65.9412 176.135 66.2842 176.895C66.6275 177.656 67.237 178.242 68.0001 178.546C69.5759 179.171 71.3245 178.383 71.8978 176.787C72.1758 176.015 72.1399 175.17 71.7967 174.409C71.4535 173.648 70.8443 173.062 70.0809 172.759C69.2932 172.446 68.462 172.487 67.7564 172.805ZM69.5913 176.873C69.2887 177.01 68.9324 177.027 68.5945 176.893C68.2672 176.763 68.0061 176.511 67.8589 176.185C67.7118 175.859 67.6962 175.497 67.8154 175.165C68.0614 174.482 68.811 174.143 69.487 174.411C69.8143 174.541 70.0756 174.793 70.2226 175.119C70.3699 175.445 70.3853 175.807 70.266 176.138C70.1431 176.481 69.8939 176.737 69.5913 176.873Z" fill="#9F9F9F"/>
<path d="M74.324 172.129C73.8636 172.256 73.6002 172.742 73.7353 173.216C73.8705 173.69 74.353 173.971 74.8133 173.845C75.5033 173.655 76.2295 174.079 76.4321 174.789C76.5672 175.262 77.0497 175.544 77.5101 175.417C77.9704 175.291 78.2339 174.805 78.0987 174.331C77.6263 172.675 75.9333 171.687 74.324 172.129Z" fill="#9F9F9F"/>
<path d="M108.739 125.69C108.301 125.888 107.94 126.258 107.762 126.754C107.405 127.745 107.912 128.869 108.891 129.258C109.87 129.647 110.957 129.157 111.313 128.165C111.67 127.173 111.163 126.05 110.184 125.661C109.694 125.466 109.178 125.492 108.739 125.69ZM109.88 128.218C109.692 128.303 109.47 128.314 109.26 128.23C108.84 128.063 108.623 127.582 108.776 127.157C108.929 126.732 109.395 126.521 109.815 126.688C110.235 126.855 110.452 127.337 110.299 127.762C110.222 127.974 110.068 128.133 109.88 128.218Z" fill="#9F9F9F"/>
<path d="M104.831 123.32C104.392 123.518 104.032 123.888 103.853 124.384C103.681 124.864 103.703 125.39 103.916 125.862C104.13 126.335 104.508 126.699 104.983 126.888C105.962 127.277 107.049 126.787 107.405 125.795C107.578 125.315 107.556 124.79 107.342 124.317C107.129 123.844 106.75 123.48 106.276 123.292C105.786 123.097 105.27 123.122 104.831 123.32ZM105.972 125.848C105.784 125.933 105.562 125.944 105.352 125.861C105.149 125.78 104.986 125.624 104.895 125.421C104.803 125.218 104.794 124.993 104.868 124.787C105.021 124.362 105.487 124.152 105.907 124.318C106.11 124.399 106.273 124.556 106.364 124.758C106.455 124.961 106.465 125.186 106.391 125.392C106.315 125.605 106.16 125.764 105.972 125.848Z" fill="#9F9F9F"/>
<path d="M108.913 122.9C108.627 122.979 108.463 123.281 108.547 123.575C108.631 123.87 108.931 124.045 109.217 123.966C109.646 123.848 110.097 124.112 110.223 124.553C110.307 124.847 110.607 125.022 110.893 124.944C111.179 124.865 111.343 124.563 111.259 124.268C110.965 123.239 109.913 122.625 108.913 122.9Z" fill="#9F9F9F"/>
<path d="M146.045 134.618C145.339 134.936 144.758 135.532 144.472 136.33C143.898 137.925 144.713 139.732 146.289 140.358C147.864 140.985 149.613 140.196 150.186 138.6C150.76 137.005 149.945 135.198 148.369 134.572C147.581 134.258 146.75 134.299 146.045 134.618ZM147.879 138.686C147.577 138.823 147.221 138.84 146.883 138.706C146.207 138.437 145.858 137.662 146.103 136.978C146.35 136.294 147.099 135.956 147.775 136.224C148.451 136.493 148.8 137.267 148.554 137.952C148.431 138.294 148.182 138.55 147.879 138.686Z" fill="#9F9F9F"/>
<path d="M139.756 130.805C139.05 131.123 138.47 131.719 138.183 132.517C137.905 133.29 137.941 134.135 138.284 134.895C138.628 135.656 139.237 136.242 140 136.545C141.576 137.171 143.325 136.383 143.898 134.787C144.176 134.015 144.14 133.17 143.797 132.409C143.454 131.648 142.844 131.062 142.081 130.759C141.293 130.446 140.462 130.487 139.756 130.805ZM141.591 134.873C141.289 135.009 140.932 135.027 140.594 134.893C140.267 134.763 140.006 134.511 139.859 134.185C139.712 133.859 139.696 133.497 139.815 133.165C140.061 132.482 140.811 132.143 141.487 132.411C141.814 132.541 142.076 132.793 142.223 133.119C142.37 133.445 142.385 133.807 142.266 134.138C142.143 134.481 141.894 134.736 141.591 134.873Z" fill="#9F9F9F"/>
<path d="M146.324 130.129C145.864 130.256 145.6 130.742 145.735 131.216C145.87 131.69 146.353 131.971 146.813 131.845C147.503 131.655 148.229 132.078 148.432 132.789C148.567 133.262 149.05 133.544 149.51 133.417C149.97 133.291 150.234 132.804 150.099 132.331C149.626 130.675 147.933 129.687 146.324 130.129Z" fill="#9F9F9F"/>
<path d="M164.045 89.6179C163.339 89.9361 162.758 90.5321 162.472 91.3299C161.898 92.9253 162.713 94.7325 164.289 95.3584C165.864 95.9851 167.613 95.1961 168.186 93.6004C168.76 92.005 167.945 90.1978 166.369 89.5719C165.581 89.2585 164.75 89.2995 164.045 89.6179ZM165.879 93.6861C165.577 93.8226 165.221 93.8399 164.883 93.7057C164.207 93.437 163.858 92.6622 164.103 91.978C164.35 91.2939 165.099 90.9558 165.775 91.224C166.451 91.4926 166.8 92.2675 166.554 92.9517C166.431 93.2935 166.182 93.5496 165.879 93.6861Z" fill="#9F9F9F"/>
<path d="M157.756 85.8048C157.05 86.1232 156.47 86.719 156.183 87.517C155.905 88.2898 155.941 89.1347 156.284 89.8952C156.628 90.6564 157.237 91.2423 158 91.5455C159.576 92.171 161.325 91.3827 161.898 89.7871C162.176 89.0147 162.14 88.1697 161.797 87.4089C161.454 86.648 160.844 86.0619 160.081 85.7589C159.293 85.4457 158.462 85.4865 157.756 85.8048ZM159.591 89.873C159.289 90.0095 158.932 90.0268 158.594 89.8926C158.267 89.7625 158.006 89.5114 157.859 89.185C157.712 88.8589 157.696 88.4966 157.815 88.1652C158.061 87.4816 158.811 87.1432 159.487 87.4112C159.814 87.5412 160.076 87.7927 160.223 88.1188C160.37 88.4452 160.385 88.8072 160.266 89.1383C160.143 89.4808 159.894 89.7365 159.591 89.873Z" fill="#9F9F9F"/>
<path d="M164.324 85.1293C163.864 85.2557 163.6 85.7421 163.735 86.2158C163.87 86.6896 164.353 86.971 164.813 86.8445C165.503 86.655 166.229 87.0785 166.432 87.7886C166.567 88.2623 167.05 88.5438 167.51 88.4173C167.97 88.2908 168.234 87.8045 168.099 87.3307C167.626 85.6748 165.933 84.6871 164.324 85.1293Z" fill="#9F9F9F"/>
<path d="M152.045 35.6179C151.339 35.9361 150.758 36.5321 150.472 37.3299C149.898 38.9253 150.713 40.7325 152.289 41.3584C153.864 41.9851 155.613 41.1961 156.186 39.6004C156.76 38.005 155.945 36.1978 154.369 35.5719C153.581 35.2585 152.75 35.2995 152.045 35.6179ZM153.879 39.6861C153.577 39.8225 153.221 39.8399 152.883 39.7057C152.207 39.437 151.858 38.6622 152.103 37.978C152.35 37.2939 153.099 36.9558 153.775 37.224C154.451 37.4926 154.8 38.2675 154.554 38.9517C154.431 39.2935 154.182 39.5496 153.879 39.6861Z" fill="#9F9F9F"/>
<path d="M145.756 31.8048C145.05 32.1232 144.47 32.719 144.183 33.517C143.905 34.2898 143.941 35.1347 144.284 35.8952C144.628 36.6564 145.237 37.2423 146 37.5455C147.576 38.171 149.325 37.3827 149.898 35.7871C150.176 35.0147 150.14 34.1697 149.797 33.4089C149.454 32.648 148.844 32.0619 148.081 31.7589C147.293 31.4457 146.462 31.4865 145.756 31.8048ZM147.591 35.873C147.289 36.0095 146.932 36.0268 146.594 35.8926C146.267 35.7625 146.006 35.5114 145.859 35.185C145.712 34.8589 145.696 34.4966 145.815 34.1652C146.061 33.4816 146.811 33.1432 147.487 33.4112C147.814 33.5412 148.076 33.7927 148.223 34.1188C148.37 34.4452 148.385 34.8072 148.266 35.1383C148.143 35.4808 147.894 35.7365 147.591 35.873Z" fill="#9F9F9F"/>
<path d="M152.324 31.1293C151.864 31.2557 151.6 31.7421 151.735 32.2158C151.87 32.6896 152.353 32.971 152.813 32.8445C153.503 32.655 154.229 33.0785 154.432 33.7886C154.567 34.2624 155.05 34.5438 155.51 34.4173C155.97 34.2908 156.234 33.8045 156.099 33.3307C155.626 31.6748 153.933 30.6871 152.324 31.1293Z" fill="#9F9F9F"/>
<path d="M136.158 25.3468C135.417 25.1241 134.587 25.193 133.848 25.6071C132.368 26.4349 131.798 28.3335 132.576 29.8396C133.355 31.3464 135.192 31.8978 136.672 31.0697C138.151 30.2419 138.721 28.3432 137.943 26.8372C137.554 26.0836 136.9 25.5696 136.158 25.3468ZM134.874 29.621C134.556 29.5255 134.276 29.3049 134.109 28.9819C133.775 28.3359 134.02 27.5218 134.654 27.1667C135.289 26.8119 136.076 27.0485 136.411 27.6942C136.744 28.3401 136.5 29.1542 135.865 29.5094C135.548 29.6866 135.192 29.7165 134.874 29.621Z" fill="#9F9F9F"/>
<path d="M133.913 18.3438C133.172 18.121 132.343 18.19 131.603 18.604C130.886 19.0048 130.359 19.6663 130.119 20.4653C129.879 21.265 129.954 22.1071 130.331 22.8365C131.11 24.3423 132.947 24.8945 134.427 24.0662C135.143 23.6657 135.671 23.0043 135.911 22.2049C136.151 21.4055 136.075 20.5636 135.698 19.8341C135.309 19.0809 134.655 18.5665 133.913 18.3438ZM132.63 22.618C132.312 22.5225 132.031 22.3019 131.864 21.9789C131.703 21.666 131.67 21.3052 131.773 20.9622C131.876 20.6196 132.102 20.336 132.41 20.164C133.044 19.8095 133.831 20.0458 134.166 20.6916C134.328 21.0044 134.36 21.3656 134.257 21.7082C134.154 22.0511 133.928 22.3345 133.621 22.5061C133.303 22.684 132.948 22.7135 132.63 22.618Z" fill="#9F9F9F"/>
<path d="M139.314 22.1423C138.883 21.9358 138.365 22.13 138.156 22.5762C137.948 23.0225 138.127 23.5514 138.558 23.7579C139.203 24.0675 139.473 24.8635 139.16 25.5324C138.951 25.9786 139.131 26.5075 139.561 26.714C139.992 26.9206 140.51 26.7263 140.718 26.2801C141.448 24.7204 140.818 22.8643 139.314 22.1423Z" fill="#9F9F9F"/>
<path d="M123.946 91.2311C123.376 91.488 122.907 91.9692 122.676 92.6133C122.213 93.9014 122.871 95.3603 124.143 95.8657C125.415 96.3716 126.827 95.7347 127.29 94.4463C127.753 93.1583 127.095 91.6993 125.823 91.1939C125.186 90.9409 124.516 90.974 123.946 91.2311ZM125.427 94.5155C125.183 94.6257 124.895 94.6398 124.622 94.5314C124.077 94.3145 123.795 93.6889 123.993 93.1365C124.192 92.5843 124.797 92.3112 125.343 92.5278C125.888 92.7447 126.17 93.3702 125.972 93.9226C125.872 94.1986 125.671 94.4053 125.427 94.5155Z" fill="#9F9F9F"/>
<path d="M118.869 88.1526C118.299 88.4096 117.83 88.8907 117.599 89.5349C117.374 90.1589 117.403 90.841 117.68 91.455C117.958 92.0695 118.45 92.5426 119.066 92.7873C120.338 93.2923 121.75 92.6559 122.213 91.3677C122.437 90.7441 122.408 90.0619 122.131 89.4476C121.854 88.8334 121.362 88.3602 120.746 88.1156C120.11 87.8627 119.439 87.8956 118.869 88.1526ZM120.35 91.437C120.106 91.5472 119.818 91.5613 119.546 91.4529C119.281 91.3479 119.071 91.1451 118.952 90.8816C118.833 90.6183 118.82 90.3258 118.917 90.0583C119.115 89.5064 119.72 89.2331 120.266 89.4495C120.53 89.5545 120.741 89.7576 120.86 90.0208C120.979 90.2844 120.991 90.5766 120.895 90.8439C120.796 91.1204 120.595 91.3269 120.35 91.437Z" fill="#9F9F9F"/>
<path d="M124.171 87.6072C123.8 87.7093 123.587 88.1019 123.696 88.4844C123.805 88.8669 124.195 89.0941 124.566 88.992C125.123 88.839 125.71 89.1809 125.873 89.7542C125.982 90.1367 126.372 90.3639 126.744 90.2618C127.115 90.1596 127.328 89.767 127.219 89.3845C126.837 88.0476 125.471 87.2502 124.171 87.6072Z" fill="#9F9F9F"/>
<path d="M176.44 133.409C176.398 134.182 176.66 134.972 177.237 135.593C178.39 136.836 180.37 136.943 181.65 135.831C182.931 134.719 183.034 132.804 181.88 131.561C180.727 130.318 178.748 130.212 177.468 131.323C176.827 131.879 176.481 132.636 176.44 133.409ZM180.896 133.649C180.878 133.981 180.73 134.305 180.455 134.544C179.906 135.02 179.057 134.974 178.563 134.442C178.068 133.908 178.113 133.087 178.662 132.61C179.211 132.134 180.059 132.18 180.554 132.713C180.801 132.979 180.914 133.318 180.896 133.649Z" fill="#9F9F9F"/>
<path d="M170.163 137.241C170.121 138.014 170.384 138.803 170.96 139.425C171.519 140.027 172.286 140.383 173.119 140.428C173.953 140.473 174.753 140.201 175.373 139.663C176.653 138.551 176.757 136.636 175.603 135.393C175.045 134.791 174.278 134.435 173.445 134.39C172.611 134.345 171.811 134.616 171.191 135.155C170.55 135.711 170.205 136.468 170.163 137.241ZM174.619 137.481C174.601 137.813 174.453 138.137 174.178 138.375C173.913 138.606 173.569 138.723 173.212 138.703C172.855 138.684 172.526 138.531 172.286 138.273C171.792 137.741 171.836 136.919 172.385 136.442C172.651 136.211 172.994 136.095 173.352 136.114C173.709 136.133 174.038 136.286 174.277 136.544C174.525 136.811 174.637 137.15 174.619 137.481Z" fill="#9F9F9F"/>
<path d="M172.582 131.098C172.483 131.564 172.793 132.022 173.276 132.12C173.759 132.218 174.231 131.918 174.33 131.451C174.479 130.751 175.189 130.301 175.913 130.448C176.395 130.545 176.867 130.246 176.966 129.779C177.066 129.312 176.755 128.855 176.272 128.757C174.584 128.415 172.929 129.465 172.582 131.098Z" fill="#9F9F9F"/>
<path d="M88.442 162.099C88.1304 162.808 88.0974 163.639 88.418 164.424C89.0588 165.994 90.8735 166.792 92.4635 166.203C94.054 165.615 94.8259 163.859 94.1848 162.289C93.544 160.719 91.7293 159.921 90.1394 160.51C89.3438 160.804 88.7538 161.39 88.442 162.099ZM92.5273 163.896C92.3937 164.2 92.1405 164.451 91.7995 164.577C91.1176 164.829 90.3395 164.487 90.0645 163.814C89.79 163.141 90.121 162.388 90.8027 162.135C91.4846 161.883 92.2627 162.225 92.5377 162.898C92.6748 163.235 92.6609 163.592 92.5273 163.896Z" fill="#9F9F9F"/>
<path d="M81.2172 163.471C80.9055 164.18 80.8726 165.011 81.1931 165.796C81.5033 166.557 82.0954 167.161 82.8591 167.496C83.6235 167.833 84.4685 167.86 85.2385 167.575C86.8283 166.986 87.6007 165.23 86.9595 163.661C86.6495 162.901 86.0575 162.297 85.2935 161.961C84.5294 161.625 83.6846 161.597 82.9144 161.882C82.1194 162.176 81.5288 162.762 81.2172 163.471ZM85.3025 165.268C85.1689 165.572 84.9156 165.823 84.5746 165.949C84.2444 166.071 83.8823 166.059 83.5545 165.915C83.2271 165.771 82.9731 165.512 82.84 165.186C82.5657 164.514 82.8964 163.76 83.5782 163.508C83.9085 163.385 84.2709 163.397 84.5984 163.541C84.9261 163.686 85.1798 163.944 85.3125 164.27C85.4503 164.607 85.4361 164.964 85.3025 165.268Z" fill="#9F9F9F"/>
<path d="M85.6472 158.576C85.3896 158.978 85.5191 159.515 85.9365 159.777C86.3538 160.039 86.9007 159.925 87.1583 159.523C87.5444 158.921 88.3675 158.75 88.9931 159.142C89.4105 159.404 89.9574 159.29 90.215 158.889C90.4725 158.487 90.343 157.949 89.9257 157.687C88.4668 156.772 86.5477 157.171 85.6472 158.576Z" fill="#9F9F9F"/>
<path d="M91.442 119.099C91.1304 119.808 91.0974 120.639 91.418 121.424C92.0588 122.994 93.8735 123.792 95.4635 123.203C97.054 122.615 97.8259 120.859 97.1848 119.289C96.544 117.719 94.7293 116.921 93.1394 117.51C92.3438 117.804 91.7538 118.39 91.442 119.099ZM95.5273 120.896C95.3937 121.2 95.1405 121.451 94.7995 121.577C94.1176 121.829 93.3395 121.487 93.0645 120.814C92.79 120.141 93.121 119.388 93.8027 119.135C94.4846 118.883 95.2627 119.225 95.5377 119.898C95.6748 120.235 95.6609 120.592 95.5273 120.896Z" fill="#9F9F9F"/>
<path d="M84.2172 120.471C83.9055 121.18 83.8726 122.011 84.1931 122.796C84.5033 123.557 85.0954 124.161 85.8591 124.496C86.6235 124.833 87.4685 124.86 88.2385 124.575C89.8283 123.986 90.6007 122.23 89.9595 120.661C89.6495 119.901 89.0575 119.297 88.2935 118.961C87.5294 118.625 86.6846 118.597 85.9144 118.882C85.1194 119.176 84.5288 119.762 84.2172 120.471ZM88.3025 122.268C88.1689 122.572 87.9156 122.823 87.5746 122.949C87.2444 123.071 86.8823 123.059 86.5545 122.915C86.2271 122.771 85.9731 122.512 85.84 122.186C85.5657 121.514 85.8964 120.76 86.5782 120.508C86.9085 120.385 87.2709 120.397 87.5984 120.541C87.9261 120.686 88.1798 120.944 88.3125 121.27C88.4503 121.607 88.4361 121.964 88.3025 122.268Z" fill="#9F9F9F"/>
<path d="M88.6472 115.576C88.3896 115.978 88.5191 116.515 88.9365 116.777C89.3538 117.039 89.9007 116.925 90.1583 116.523C90.5444 115.921 91.3675 115.75 91.9931 116.142C92.4105 116.404 92.9574 116.29 93.215 115.889C93.4725 115.487 93.343 114.949 92.9257 114.687C91.4668 113.772 89.5477 114.171 88.6472 115.576Z" fill="#9F9F9F"/>
<path d="M91.7918 75.4064C91.0615 75.6632 90.432 76.2074 90.0782 76.9778C89.3702 78.5183 90.0279 80.3885 91.5442 81.1468C93.0608 81.9059 94.8702 81.2692 95.5781 79.7284C96.286 78.1878 95.6284 76.3177 94.112 75.5593C93.3535 75.1797 92.5224 75.1495 91.7918 75.4064ZM93.2723 79.6166C92.9591 79.7267 92.6026 79.7135 92.2774 79.5509C91.6273 79.2255 91.3453 78.4236 91.6487 77.7629C91.9525 77.1024 92.7283 76.8296 93.3787 77.1546C94.0288 77.48 94.3107 78.2819 94.0074 78.9426C93.8554 79.2726 93.5854 79.5065 93.2723 79.6166Z" fill="#9F9F9F"/>
<path d="M85.8526 71.0698C85.122 71.3267 84.4928 71.8708 84.1387 72.6413C83.7955 73.3875 83.7594 74.2324 84.0362 75.0194C84.3132 75.8072 84.8703 76.443 85.6047 76.8103C87.1213 77.5682 88.9309 76.9323 89.6385 75.3915C89.9815 74.6457 90.0179 73.8008 89.741 73.0134C89.4641 72.226 88.9073 71.59 88.1725 71.2228C87.4145 70.8434 86.5829 70.813 85.8526 71.0698ZM87.3331 75.28C87.0199 75.3901 86.6634 75.3769 86.3382 75.2143C86.0232 75.0567 85.7846 74.7842 85.6658 74.4464C85.5471 74.1089 85.5625 73.7466 85.7096 73.4266C86.0132 72.7666 86.789 72.4934 87.4396 72.8183C87.7546 72.9758 87.9934 73.2487 88.112 73.5862C88.2308 73.924 88.2153 74.2859 88.0681 74.6056C87.9164 74.9363 87.6462 75.1698 87.3331 75.28Z" fill="#9F9F9F"/>
<path d="M92.4539 70.9581C91.9844 71.0448 91.6803 71.5068 91.7745 71.9904C91.8687 72.474 92.3254 72.7956 92.7948 72.7089C93.4985 72.5791 94.1858 73.0631 94.327 73.7879C94.4211 74.2715 94.8778 74.5931 95.3473 74.5064C95.8167 74.4198 96.1208 73.9577 96.0267 73.4741C95.6975 71.7839 94.0951 70.6551 92.4539 70.9581Z" fill="#9F9F9F"/>
<path d="M82.4847 89.4051C81.7115 89.3673 80.9231 89.6336 80.3048 90.2135C79.0678 91.3729 78.9709 93.353 80.0889 94.6275C81.2069 95.9028 83.1227 95.9962 84.3598 94.8364C85.5968 93.677 85.6936 91.6969 84.5756 90.4224C84.0165 89.7845 83.2582 89.4429 82.4847 89.4051ZM82.2667 93.8626C81.9351 93.8464 81.61 93.6997 81.3702 93.4263C80.891 92.8796 80.9325 92.0306 81.4628 91.5333C81.9934 91.0363 82.8148 91.0765 83.2944 91.6229C83.7736 92.1696 83.7321 93.0186 83.2018 93.5159C82.9365 93.7642 82.5982 93.8789 82.2667 93.8626Z" fill="#9F9F9F"/>
<path d="M78.6214 83.1477C77.8479 83.1098 77.0599 83.3762 76.4412 83.9561C75.8417 84.5176 75.4894 85.2863 75.4487 86.1197C75.4079 86.9537 75.6839 87.7528 76.2253 88.3701C77.3437 89.6443 79.2595 89.7384 80.4962 88.5786C81.0953 88.0174 81.448 87.2487 81.4887 86.415C81.5295 85.5814 81.2539 84.7822 80.712 84.1649C80.1532 83.5275 79.3946 83.1855 78.6214 83.1477ZM78.4034 87.6052C78.0719 87.589 77.7467 87.4423 77.5069 87.1689C77.2747 86.9041 77.1566 86.5617 77.1741 86.204C77.1915 85.8467 77.3425 85.5171 77.5995 85.2762C78.1297 84.7796 78.9512 84.8194 79.4311 85.3658C79.6634 85.6306 79.7815 85.9734 79.764 86.3307C79.7465 86.6883 79.5956 87.0176 79.3386 87.2581C79.0733 87.5072 78.735 87.6214 78.4034 87.6052Z" fill="#9F9F9F"/>
<path d="M84.7766 85.5356C84.3092 85.4387 83.8532 85.7518 83.7579 86.2352C83.6626 86.7185 83.9641 87.1887 84.4316 87.2857C85.1323 87.431 85.586 88.1386 85.4432 88.8631C85.3479 89.3464 85.6494 89.8166 86.1169 89.9136C86.5843 90.0105 87.0403 89.6974 87.1356 89.214C87.4687 87.5245 86.4108 85.8745 84.7766 85.5356Z" fill="#9F9F9F"/>
<path d="M18.4847 89.4051C17.7115 89.3673 16.9231 89.6336 16.3048 90.2135C15.0678 91.3729 14.9709 93.353 16.0889 94.6275C17.2069 95.9028 19.1227 95.9962 20.3598 94.8364C21.5968 93.677 21.6936 91.6969 20.5756 90.4224C20.0165 89.7845 19.2582 89.4429 18.4847 89.4051ZM18.2667 93.8626C17.9351 93.8464 17.61 93.6997 17.3702 93.4263C16.891 92.8796 16.9325 92.0306 17.4628 91.5333C17.9934 91.0363 18.8148 91.0765 19.2944 91.6229C19.7736 92.1696 19.7321 93.0186 19.2018 93.5159C18.9365 93.7642 18.5982 93.8789 18.2667 93.8626Z" fill="#9F9F9F"/>
<path d="M14.6214 83.1477C13.8479 83.1098 13.0599 83.3762 12.4412 83.9561C11.8417 84.5176 11.4894 85.2863 11.4487 86.1197C11.4079 86.9537 11.6839 87.7528 12.2253 88.3701C13.3437 89.6443 15.2595 89.7384 16.4962 88.5786C17.0953 88.0174 17.448 87.2487 17.4887 86.415C17.5295 85.5814 17.2539 84.7822 16.712 84.1649C16.1532 83.5275 15.3946 83.1855 14.6214 83.1477ZM14.4034 87.6052C14.0719 87.589 13.7467 87.4423 13.5069 87.1689C13.2747 86.9041 13.1566 86.5617 13.1741 86.204C13.1915 85.8467 13.3425 85.5171 13.5995 85.2762C14.1297 84.7796 14.9512 84.8194 15.4311 85.3658C15.6634 85.6306 15.7815 85.9734 15.764 86.3307C15.7465 86.6883 15.5956 87.0176 15.3386 87.2581C15.0733 87.5072 14.735 87.6214 14.4034 87.6052Z" fill="#9F9F9F"/>
<path d="M20.7766 85.5356C20.3092 85.4387 19.8532 85.7518 19.7579 86.2352C19.6626 86.7185 19.9641 87.1887 20.4316 87.2857C21.1323 87.431 21.586 88.1386 21.4432 88.8631C21.3479 89.3464 21.6494 89.8166 22.1169 89.9136C22.5843 90.0105 23.0403 89.6974 23.1356 89.214C23.4687 87.5245 22.4108 85.8745 20.7766 85.5356Z" fill="#9F9F9F"/>
<path d="M61.7122 115.036C61.6383 117.083 62.3695 119.159 63.9244 120.776C67.0333 124.009 72.2748 124.198 75.6089 121.198C78.9449 118.197 79.1272 113.126 76.0173 109.892C72.9084 106.659 67.6669 106.469 64.3328 109.47C62.6643 110.971 61.7862 112.988 61.7122 115.036ZM73.5119 115.462C73.4802 116.34 73.103 117.205 72.3879 117.849C70.9578 119.135 68.7104 119.054 67.3768 117.668C66.0441 116.281 66.1227 114.106 67.5519 112.819C68.9821 111.533 71.2295 111.614 72.5631 113C73.2289 113.694 73.5436 114.585 73.5119 115.462Z" fill="#9F9F9F"/>
<path d="M45.2888 125.467C45.2148 127.515 45.946 129.591 47.5009 131.208C49.0066 132.775 51.0522 133.681 53.2581 133.761C55.4659 133.84 57.5706 133.083 59.1854 131.63C62.5187 128.628 62.7028 123.557 59.5929 120.324C58.0881 118.758 56.0426 117.851 53.8357 117.772C51.6289 117.692 49.5242 118.448 47.9094 119.902C46.2418 121.402 45.3627 123.421 45.2888 125.467ZM57.0884 125.894C57.0567 126.771 56.6796 127.636 55.9645 128.28C55.2719 128.903 54.3698 129.227 53.4231 129.193C52.4773 129.159 51.6001 128.771 50.9543 128.099C49.6226 126.713 49.7002 124.539 51.1294 123.25C51.8221 122.627 52.725 122.303 53.6708 122.337C54.6175 122.371 55.4938 122.76 56.1387 123.431C56.8064 124.125 57.1201 125.016 57.0884 125.894Z" fill="#9F9F9F"/>
<path d="M51.3984 109.103C51.1578 110.343 52.0015 111.539 53.2834 111.775C54.5654 112.011 55.7991 111.197 56.0397 109.957C56.4005 108.099 58.2571 106.874 60.1786 107.228C61.4605 107.464 62.6942 106.65 62.9349 105.41C63.1755 104.17 62.3318 102.974 61.0499 102.739C56.5692 101.914 52.2398 104.769 51.3984 109.103Z" fill="#9F9F9F"/>
<path d="M63.7122 157.036C63.6383 159.083 64.3695 161.159 65.9244 162.776C69.0333 166.009 74.2748 166.198 77.6089 163.198C80.9449 160.197 81.1272 155.126 78.0173 151.892C74.9084 148.659 69.6669 148.469 66.3328 151.47C64.6643 152.971 63.7862 154.988 63.7122 157.036ZM75.5119 157.462C75.4802 158.34 75.103 159.205 74.3879 159.849C72.9578 161.135 70.7104 161.054 69.3768 159.668C68.0441 158.281 68.1227 156.106 69.5519 154.819C70.9821 153.533 73.2295 153.614 74.5631 155C75.2289 155.694 75.5436 156.585 75.5119 157.462Z" fill="#9F9F9F"/>
<path d="M47.2888 167.467C47.2148 169.515 47.946 171.591 49.5009 173.208C51.0066 174.775 53.0522 175.681 55.2581 175.761C57.4659 175.84 59.5706 175.083 61.1854 173.63C64.5187 170.628 64.7028 165.557 61.5929 162.324C60.0881 160.758 58.0426 159.851 55.8357 159.772C53.6289 159.692 51.5242 160.448 49.9094 161.902C48.2418 163.402 47.3627 165.421 47.2888 167.467ZM59.0884 167.894C59.0567 168.771 58.6796 169.636 57.9645 170.28C57.2719 170.903 56.3698 171.227 55.4231 171.193C54.4773 171.159 53.6001 170.771 52.9543 170.099C51.6226 168.713 51.7002 166.539 53.1294 165.25C53.8221 164.627 54.725 164.303 55.6708 164.337C56.6175 164.371 57.4938 164.76 58.1387 165.431C58.8064 166.125 59.1201 167.016 59.0884 167.894Z" fill="#9F9F9F"/>
<path d="M53.3984 151.103C53.1578 152.343 54.0015 153.539 55.2834 153.775C56.5654 154.011 57.7991 153.197 58.0397 151.957C58.4005 150.099 60.2571 148.874 62.1786 149.228C63.4605 149.464 64.6942 148.65 64.9349 147.41C65.1755 146.17 64.3318 144.974 63.0499 144.739C58.5692 143.914 54.2398 146.769 53.3984 151.103Z" fill="#9F9F9F"/>
<path d="M118.899 139.28C118.83 141.178 119.508 143.105 120.951 144.604C123.835 147.604 128.698 147.78 131.791 144.996C134.886 142.212 135.055 137.507 132.17 134.507C129.286 131.508 124.423 131.332 121.33 134.116C119.782 135.508 118.967 137.38 118.899 139.28ZM129.846 139.675C129.816 140.489 129.466 141.292 128.803 141.889C127.476 143.082 125.391 143.007 124.154 141.721C122.918 140.434 122.99 138.417 124.316 137.223C125.643 136.03 127.728 136.105 128.965 137.391C129.583 138.034 129.875 138.861 129.846 139.675Z" fill="#9F9F9F"/>
<path d="M103.662 148.957C103.593 150.857 104.272 152.782 105.714 154.283C107.111 155.736 109.009 156.577 111.055 156.651C113.104 156.725 115.056 156.023 116.554 154.674C119.647 151.89 119.818 147.185 116.932 144.186C115.536 142.733 113.639 141.892 111.591 141.818C109.544 141.744 107.591 142.445 106.093 143.794C104.546 145.186 103.731 147.058 103.662 148.957ZM114.609 149.353C114.58 150.167 114.23 150.97 113.566 151.567C112.924 152.145 112.087 152.445 111.209 152.414C110.331 152.382 109.517 152.022 108.918 151.399C107.683 150.113 107.755 148.095 109.081 146.9C109.723 146.322 110.561 146.022 111.438 146.053C112.317 146.085 113.13 146.445 113.728 147.068C114.347 147.712 114.638 148.538 114.609 149.353Z" fill="#9F9F9F"/>
<path d="M109.33 133.776C109.107 134.926 109.89 136.035 111.079 136.254C112.268 136.473 113.413 135.718 113.636 134.568C113.971 132.844 115.693 131.708 117.476 132.036C118.665 132.254 119.81 131.5 120.033 130.349C120.256 129.199 119.474 128.09 118.284 127.871C114.127 127.106 110.111 129.754 109.33 133.776Z" fill="#9F9F9F"/>
<path d="M140.82 112.896C139.169 114.108 137.995 115.97 137.692 118.192C137.086 122.637 140.19 126.864 144.612 127.616C149.036 128.37 153.125 125.366 153.731 120.921C154.337 116.476 151.233 112.249 146.811 111.497C144.599 111.119 142.472 111.683 140.82 112.896ZM147.808 122.413C147.101 122.933 146.188 123.174 145.24 123.012C143.344 122.689 142.013 120.877 142.272 118.971C142.532 117.065 144.286 115.777 146.183 116.099C148.079 116.422 149.41 118.235 149.15 120.141C149.02 121.093 148.516 121.893 147.808 122.413Z" fill="#9F9F9F"/>
<path d="M122.448 106.491C120.797 107.704 119.623 109.565 119.32 111.788C119.025 113.941 119.584 116.107 120.891 117.887C122.198 119.667 124.098 120.848 126.24 121.212C130.662 121.963 134.753 118.96 135.358 114.516C135.652 112.364 135.094 110.197 133.787 108.417C132.48 106.637 130.581 105.456 128.438 105.092C126.227 104.715 124.099 105.279 122.448 106.491ZM129.437 116.008C128.729 116.528 127.816 116.769 126.868 116.608C125.949 116.451 125.135 115.945 124.575 115.182C124.015 114.419 123.775 113.49 123.901 112.567C124.161 110.662 125.914 109.374 127.811 109.695C128.73 109.851 129.544 110.358 130.104 111.121C130.665 111.885 130.905 112.813 130.778 113.735C130.649 114.689 130.145 115.488 129.437 116.008Z" fill="#9F9F9F"/>
<path d="M139.072 101.127C137.95 101.707 137.536 103.111 138.147 104.262C138.757 105.414 140.161 105.877 141.282 105.296C142.964 104.425 145.076 105.121 145.991 106.847C146.602 107.999 148.005 108.462 149.127 107.881C150.249 107.3 150.663 105.896 150.052 104.745C147.918 100.72 142.993 99.0962 139.072 101.127Z" fill="#9F9F9F"/>
<path d="M143.629 83.3668C142.257 84.3743 141.28 85.9219 141.029 87.7689C140.525 91.4628 143.105 94.9764 146.78 95.6016C150.457 96.2281 153.856 93.7311 154.359 90.0367C154.863 86.3428 152.283 82.8292 148.608 82.2039C146.769 81.8906 145.001 82.3589 143.629 83.3668ZM149.437 91.2767C148.848 91.7087 148.09 91.9092 147.302 91.7751C145.726 91.5064 144.62 89.9999 144.835 88.4159C145.052 86.832 146.509 85.7616 148.085 86.0292C149.661 86.2979 150.768 87.8044 150.552 89.3884C150.444 90.18 150.025 90.8447 149.437 91.2767Z" fill="#9F9F9F"/>
<path d="M128.359 78.0437C126.987 79.0516 126.011 80.5987 125.759 82.4462C125.515 84.2357 125.979 86.0362 127.065 87.5149C128.152 88.9949 129.731 89.9761 131.511 90.2789C135.186 90.9031 138.586 88.4074 139.089 84.7133C139.333 82.9249 138.869 81.124 137.783 79.6446C136.697 78.1653 135.118 77.1836 133.338 76.8812C131.5 76.5681 129.731 77.0362 128.359 78.0437ZM134.168 85.9536C133.579 86.3856 132.821 86.586 132.033 86.4519C131.269 86.322 130.593 85.9013 130.127 85.2667C129.661 84.6327 129.462 83.8607 129.566 83.0933C129.783 81.5106 131.24 80.4396 132.817 80.7067C133.58 80.8366 134.257 81.2579 134.723 81.8919C135.189 82.5266 135.388 83.2979 135.282 84.0646C135.175 84.8575 134.756 85.5216 134.168 85.9536Z" fill="#9F9F9F"/>
<path d="M142.175 73.5852C141.243 74.0679 140.899 75.2345 141.407 76.1916C141.914 77.1487 143.081 77.5331 144.013 77.0504C145.41 76.3269 147.166 76.9054 147.926 78.34C148.434 79.2971 149.6 79.6815 150.533 79.1988C151.465 78.7161 151.809 77.5495 151.301 76.5925C149.527 73.2472 145.434 71.8978 142.175 73.5852Z" fill="#9F9F9F"/>
<path d="M116.743 31.9011C115.546 30.3367 113.733 29.2425 111.59 28.994C107.304 28.4957 103.297 31.5615 102.658 35.8285C102.017 40.0965 104.984 43.9725 109.271 44.4703C113.557 44.9685 117.563 41.9027 118.202 37.6357C118.523 35.5011 117.94 33.4663 116.743 31.9011ZM107.723 38.803C107.21 38.1321 106.961 37.2592 107.098 36.344C107.372 34.5144 109.09 33.1998 110.928 33.4129C112.766 33.6272 114.038 35.2894 113.764 37.1191C113.489 38.9487 111.772 40.2633 109.934 40.0502C109.015 39.9428 108.237 39.4739 107.723 38.803Z" fill="#9F9F9F"/>
<path d="M122.552 14.1112C121.355 12.5461 119.542 11.4526 117.399 11.2033C115.323 10.9613 113.25 11.5401 111.564 12.8304C109.876 14.1218 108.777 15.9713 108.467 18.0378C107.829 22.3049 110.795 26.182 115.081 26.6791C117.156 26.921 119.229 26.3429 120.916 25.052C122.603 23.7612 123.702 21.9124 124.012 19.8451C124.332 17.7117 123.75 15.6756 122.552 14.1112ZM113.533 21.0131C113.02 20.3422 112.77 19.4692 112.907 18.5541C113.04 17.6677 113.511 16.8753 114.235 16.3216C114.958 15.7684 115.847 15.52 116.737 15.6235C118.573 15.8377 119.846 17.4993 119.573 19.3297C119.44 20.2161 118.968 21.009 118.245 21.5622C117.522 22.116 116.634 22.3638 115.744 22.2597C114.824 22.1534 114.046 21.6839 113.533 21.0131Z" fill="#9F9F9F"/>
<path d="M128.028 29.9956C127.448 28.928 126.09 28.5566 124.994 29.1657C123.899 29.7749 123.48 31.1335 124.06 32.2011C124.929 33.8013 124.3 35.8459 122.658 36.759C121.562 37.3681 121.144 38.7267 121.724 39.7943C122.304 40.8619 123.661 41.2333 124.757 40.6242C128.587 38.495 130.055 33.7278 128.028 29.9956Z" fill="#9F9F9F"/>
<path d="M31.9478 121.384C30.2988 122.128 28.9321 123.499 28.2433 125.322C26.8646 128.966 28.7076 133.052 32.3519 134.431C35.9967 135.811 40.0826 133.967 41.4609 130.322C42.8396 126.678 40.9966 122.592 37.3524 121.213C35.5294 120.523 33.5976 120.64 31.9478 121.384ZM36.0969 130.583C35.3897 130.902 34.5611 130.951 33.7795 130.656C32.2171 130.064 31.4268 128.312 32.0175 126.749C32.6092 125.186 34.3612 124.396 35.9241 124.987C37.4865 125.579 38.2768 127.331 37.6861 128.893C37.3901 129.674 36.804 130.264 36.0969 130.583Z" fill="#9F9F9F"/>
<path d="M17.4416 112.892C15.7918 113.636 14.4259 115.007 13.7364 116.83C13.0679 118.595 13.1281 120.515 13.9038 122.235C14.6801 123.956 16.0799 125.271 17.8449 125.939C21.4895 127.317 25.576 125.474 26.9536 121.83C27.6217 120.065 27.5622 118.145 26.7862 116.425C26.0103 114.704 24.6111 113.389 22.8454 112.721C21.0235 112.031 19.0906 112.148 17.4416 112.892ZM21.5906 122.091C20.8835 122.409 20.0549 122.459 19.2733 122.163C18.5162 121.877 17.9166 121.313 17.5837 120.575C17.2512 119.838 17.2252 119.015 17.5116 118.258C18.1029 116.696 19.8546 115.905 21.4182 116.496C22.1752 116.782 22.7752 117.346 23.1077 118.084C23.4406 118.822 23.4663 119.644 23.1796 120.401C22.8842 121.183 22.2978 121.772 21.5906 122.091Z" fill="#9F9F9F"/>
<path d="M32.7248 111.169C31.6513 111.47 31.0251 112.583 31.3258 113.657C31.6265 114.73 32.7399 115.356 33.8134 115.056C35.4224 114.605 37.0981 115.547 37.5488 117.156C37.8494 118.23 38.9629 118.856 40.0364 118.555C41.1098 118.255 41.736 117.141 41.4354 116.068C40.3844 112.316 36.4777 110.118 32.7248 111.169Z" fill="#9F9F9F"/>
<path d="M86.9478 138.384C85.2988 139.128 83.9321 140.499 83.2433 142.322C81.8646 145.966 83.7076 150.052 87.3519 151.431C90.9967 152.811 95.0826 150.967 96.4609 147.322C97.8396 143.678 95.9966 139.592 92.3524 138.213C90.5294 137.523 88.5976 137.64 86.9478 138.384ZM91.0969 147.583C90.3897 147.902 89.5611 147.951 88.7795 147.656C87.2171 147.064 86.4268 145.312 87.0175 143.749C87.6092 142.186 89.3612 141.396 90.9241 141.987C92.4865 142.579 93.2768 144.331 92.6861 145.893C92.3901 146.674 91.804 147.264 91.0969 147.583Z" fill="#9F9F9F"/>
<path d="M72.4416 129.892C70.7918 130.636 69.4259 132.007 68.7364 133.83C68.0679 135.595 68.1281 137.515 68.9038 139.235C69.6801 140.956 71.0799 142.271 72.8449 142.939C76.4895 144.317 80.576 142.474 81.9536 138.83C82.6217 137.065 82.5622 135.145 81.7862 133.425C81.0103 131.704 79.6111 130.389 77.8454 129.721C76.0235 129.031 74.0906 129.148 72.4416 129.892ZM76.5906 139.091C75.8835 139.409 75.0549 139.459 74.2733 139.163C73.5162 138.877 72.9166 138.313 72.5837 137.575C72.2512 136.838 72.2252 136.015 72.5116 135.258C73.1029 133.696 74.8546 132.905 76.4182 133.496C77.1752 133.782 77.7752 134.346 78.1077 135.084C78.4406 135.822 78.4663 136.644 78.1796 137.401C77.8842 138.183 77.2978 138.772 76.5906 139.091Z" fill="#9F9F9F"/>
<path d="M87.7248 128.169C86.6513 128.47 86.0251 129.583 86.3258 130.657C86.6265 131.73 87.7399 132.356 88.8134 132.056C90.4224 131.605 92.0981 132.547 92.5488 134.156C92.8494 135.23 93.9629 135.856 95.0364 135.555C96.1098 135.255 96.736 134.141 96.4354 133.068C95.3844 129.316 91.4777 127.118 87.7248 128.169Z" fill="#9F9F9F"/>
<path d="M123.948 171.384C122.299 172.128 120.932 173.499 120.243 175.322C118.865 178.966 120.708 183.052 124.352 184.431C127.997 185.811 132.083 183.967 133.461 180.322C134.84 176.678 132.997 172.592 129.352 171.213C127.529 170.523 125.598 170.64 123.948 171.384ZM128.097 180.583C127.39 180.902 126.561 180.951 125.779 180.656C124.217 180.064 123.427 178.312 124.017 176.749C124.609 175.186 126.361 174.396 127.924 174.987C129.487 175.579 130.277 177.331 129.686 178.893C129.39 179.674 128.804 180.264 128.097 180.583Z" fill="#9F9F9F"/>
<path d="M109.442 162.892C107.792 163.636 106.426 165.007 105.736 166.83C105.068 168.595 105.128 170.515 105.904 172.235C106.68 173.956 108.08 175.271 109.845 175.939C113.49 177.317 117.576 175.474 118.954 171.83C119.622 170.065 119.562 168.145 118.786 166.425C118.01 164.704 116.611 163.389 114.845 162.721C113.024 162.031 111.091 162.148 109.442 162.892ZM113.591 172.091C112.883 172.409 112.055 172.459 111.273 172.163C110.516 171.877 109.917 171.313 109.584 170.575C109.251 169.838 109.225 169.015 109.512 168.258C110.103 166.696 111.855 165.905 113.418 166.496C114.175 166.782 114.775 167.346 115.108 168.084C115.441 168.822 115.466 169.644 115.18 170.401C114.884 171.183 114.298 171.772 113.591 172.091Z" fill="#9F9F9F"/>
<path d="M124.725 161.169C123.651 161.47 123.025 162.583 123.326 163.657C123.626 164.73 124.74 165.356 125.813 165.056C127.422 164.605 129.098 165.547 129.549 167.156C129.849 168.23 130.963 168.856 132.036 168.555C133.11 168.255 133.736 167.141 133.435 166.068C132.384 162.316 128.478 160.118 124.725 161.169Z" fill="#9F9F9F"/>
<path d="M164.263 145.836C163.14 146.343 162.21 147.277 161.741 148.517C160.802 150.999 162.057 153.781 164.538 154.719C167.02 155.659 169.802 154.404 170.74 151.922C171.679 149.441 170.424 146.659 167.943 145.72C166.701 145.25 165.386 145.33 164.263 145.836ZM167.088 152.099C166.606 152.317 166.042 152.35 165.51 152.149C164.446 151.746 163.908 150.553 164.31 149.489C164.713 148.425 165.906 147.887 166.97 148.289C168.034 148.692 168.572 149.885 168.17 150.949C167.968 151.481 167.569 151.882 167.088 152.099Z" fill="#9F9F9F"/>
<path d="M154.386 140.054C153.263 140.561 152.333 141.495 151.863 142.736C151.408 143.937 151.449 145.245 151.977 146.416C152.506 147.588 153.459 148.483 154.661 148.938C157.142 149.876 159.924 148.621 160.862 146.14C161.317 144.939 161.277 143.631 160.748 142.46C160.22 141.288 159.267 140.393 158.065 139.938C156.825 139.468 155.509 139.548 154.386 140.054ZM157.211 146.317C156.729 146.535 156.165 146.568 155.633 146.367C155.118 146.172 154.709 145.788 154.483 145.286C154.256 144.784 154.239 144.223 154.434 143.708C154.836 142.644 156.029 142.106 157.093 142.508C157.609 142.703 158.017 143.087 158.244 143.589C158.471 144.092 158.488 144.652 158.293 145.167C158.092 145.699 157.692 146.1 157.211 146.317Z" fill="#9F9F9F"/>
<path d="M164.792 138.881C164.061 139.086 163.635 139.844 163.839 140.575C164.044 141.306 164.802 141.732 165.533 141.527C166.629 141.221 167.77 141.862 168.076 142.958C168.281 143.689 169.039 144.115 169.77 143.91C170.501 143.706 170.927 142.948 170.723 142.217C170.007 139.662 167.347 138.165 164.792 138.881Z" fill="#9F9F9F"/>
<path d="M170.415 115.313C172.15 114.8 173.69 113.626 174.619 111.914C176.479 108.49 175.206 104.192 171.783 102.332C168.358 100.471 164.06 101.744 162.201 105.168C160.341 108.592 161.613 112.89 165.037 114.75C166.75 115.681 168.68 115.827 170.415 115.313ZM167.551 105.637C168.295 105.417 169.122 105.48 169.857 105.879C171.324 106.677 171.87 108.52 171.073 109.988C170.275 111.456 168.432 112.002 166.964 111.205C165.496 110.407 164.95 108.564 165.747 107.095C166.146 106.362 166.807 105.857 167.551 105.637Z" fill="#9F9F9F"/>
<path d="M183.637 125.693C185.372 125.179 186.911 124.006 187.841 122.293C188.743 120.635 188.943 118.724 188.408 116.915C187.872 115.105 186.663 113.612 185.005 112.711C181.581 110.853 177.282 112.124 175.424 115.548C174.523 117.206 174.321 119.117 174.857 120.926C175.393 122.736 176.601 124.229 178.26 125.129C179.971 126.06 181.902 126.206 183.637 125.693ZM180.772 116.017C181.516 115.797 182.344 115.86 183.078 116.259C183.789 116.645 184.307 117.285 184.537 118.061C184.767 118.837 184.681 119.656 184.294 120.367C183.497 121.834 181.654 122.38 180.185 121.584C179.474 121.197 178.956 120.557 178.726 119.781C178.496 119.005 178.583 118.186 178.969 117.476C179.368 116.741 180.029 116.237 180.772 116.017Z" fill="#9F9F9F"/>
<path d="M168.261 125.329C169.365 125.176 170.137 124.158 169.984 123.054C169.832 121.949 168.813 121.178 167.709 121.33C166.054 121.559 164.521 120.398 164.293 118.743C164.14 117.639 163.122 116.867 162.018 117.02C160.913 117.172 160.142 118.19 160.295 119.295C160.827 123.155 164.4 125.862 168.261 125.329Z" fill="#9F9F9F"/>
<path d="M176.601 81.5937C177.793 81.2406 178.852 80.4333 179.491 79.2559C180.77 76.9015 179.896 73.9457 177.541 72.6667C175.186 71.3867 172.231 72.2622 170.952 74.6171C169.673 76.9716 170.548 79.9274 172.902 81.2063C174.08 81.8465 175.407 81.9469 176.601 81.5937ZM174.631 74.9396C175.142 74.7882 175.712 74.8316 176.217 75.1059C177.226 75.6546 177.601 76.922 177.053 77.9318C176.504 78.9412 175.237 79.3163 174.227 78.7682C173.218 78.2195 172.843 76.9521 173.391 75.9423C173.665 75.4379 174.119 75.091 174.631 74.9396Z" fill="#9F9F9F"/>
<path d="M185.693 88.7315C186.886 88.3782 187.944 87.5711 188.584 86.3935C189.204 85.2531 189.342 83.9392 188.974 82.6952C188.605 81.4502 187.774 80.4238 186.634 79.8044C184.279 78.5261 181.323 79.4005 180.045 81.7553C179.425 82.8951 179.287 84.2091 179.655 85.4536C180.023 86.6981 180.854 87.7247 181.995 88.3439C183.172 88.9838 184.5 89.0846 185.693 88.7315ZM183.723 82.0774C184.235 81.9259 184.804 81.9694 185.309 82.2437C185.798 82.5093 186.154 82.9493 186.312 83.4832C186.47 84.0165 186.411 84.5799 186.145 85.069C185.597 86.0777 184.329 86.4534 183.319 85.9055C182.83 85.6398 182.474 85.1993 182.316 84.666C182.158 84.1321 182.217 83.5692 182.483 83.0807C182.757 82.5752 183.211 82.2288 183.723 82.0774Z" fill="#9F9F9F"/>
<path d="M175.119 88.481C175.879 88.3762 176.409 87.6759 176.304 86.9165C176.199 86.1571 175.499 85.6266 174.74 85.7315C173.601 85.8886 172.548 85.0903 172.39 83.9521C172.286 83.1926 171.585 82.6622 170.826 82.767C170.067 82.8719 169.536 83.5721 169.641 84.3315C170.007 86.9859 172.464 88.8474 175.119 88.481Z" fill="#9F9F9F"/>
<path d="M164.021 58.7566C164.427 60.5196 165.503 62.1292 167.154 63.1627C170.457 65.2307 174.825 64.2267 176.893 60.9245C178.963 57.6219 177.958 53.2534 174.655 51.1856C171.353 49.1176 166.984 50.1217 164.916 53.4239C163.881 55.0756 163.616 56.9927 164.021 58.7566ZM173.856 56.4962C174.03 57.2523 173.916 58.0745 173.472 58.7827C172.585 60.1984 170.712 60.6289 169.296 59.7427C167.88 58.8554 167.449 56.9822 168.336 55.566C169.223 54.1503 171.096 53.7197 172.512 54.606C173.22 55.0497 173.682 55.7402 173.856 56.4962Z" fill="#9F9F9F"/>
<path d="M152.844 71.3111C153.249 73.0749 154.326 74.6837 155.977 75.718C157.577 76.7203 159.471 77.0387 161.31 76.6161C163.15 76.1932 164.715 75.079 165.716 73.4797C167.783 70.1769 166.78 65.808 163.477 63.741C161.879 62.7393 159.984 62.4202 158.144 62.8429C156.305 63.2657 154.74 64.379 153.739 65.9791C152.705 67.6299 152.439 69.548 152.844 71.3111ZM162.679 69.0507C162.853 69.8067 162.739 70.629 162.295 71.3372C161.865 72.0232 161.195 72.5003 160.406 72.6817C159.617 72.8629 158.805 72.7266 158.119 72.297C156.704 71.4103 156.273 69.5373 157.159 68.1202C157.589 67.4343 158.26 66.9569 159.048 66.7758C159.837 66.5944 160.649 66.7309 161.334 67.1607C162.043 67.604 162.505 68.2947 162.679 69.0507Z" fill="#9F9F9F"/>
<path d="M154.158 55.9873C154.242 57.099 155.211 57.9318 156.323 57.8479C157.434 57.7641 158.267 56.7954 158.183 55.6838C158.058 54.0175 159.311 52.5598 160.977 52.4341C162.089 52.3502 162.921 51.3816 162.838 50.2699C162.754 49.1583 161.785 48.3255 160.673 48.4093C156.788 48.7024 153.865 52.101 154.158 55.9873Z" fill="#9F9F9F"/>
<path d="M116.021 66.7566C116.427 68.5196 117.503 70.1292 119.154 71.1627C122.457 73.2307 126.825 72.2267 128.893 68.9245C130.963 65.6219 129.958 61.2534 126.655 59.1856C123.353 57.1176 118.984 58.1217 116.916 61.4239C115.881 63.0756 115.616 64.9927 116.021 66.7566ZM125.856 64.4962C126.03 65.2523 125.916 66.0745 125.472 66.7827C124.585 68.1984 122.712 68.6289 121.296 67.7427C119.88 66.8554 119.449 64.9822 120.336 63.566C121.223 62.1503 123.096 61.7197 124.512 62.606C125.22 63.0497 125.682 63.7402 125.856 64.4962Z" fill="#9F9F9F"/>
<path d="M104.844 79.3111C105.249 81.0749 106.326 82.6837 107.977 83.718C109.577 84.7203 111.471 85.0387 113.31 84.6161C115.15 84.1932 116.715 83.079 117.716 81.4797C119.783 78.1769 118.78 73.808 115.477 71.741C113.879 70.7393 111.984 70.4202 110.144 70.8429C108.305 71.2657 106.74 72.379 105.739 73.9791C104.705 75.6299 104.439 77.548 104.844 79.3111ZM114.679 77.0507C114.853 77.8067 114.739 78.629 114.295 79.3372C113.865 80.0232 113.195 80.5003 112.406 80.6817C111.617 80.8629 110.805 80.7266 110.119 80.297C108.704 79.4103 108.273 77.5373 109.159 76.1202C109.589 75.4343 110.26 74.9569 111.048 74.7758C111.837 74.5944 112.649 74.7309 113.334 75.1607C114.043 75.604 114.505 76.2947 114.679 77.0507Z" fill="#9F9F9F"/>
<path d="M106.158 63.9873C106.242 65.099 107.211 65.9318 108.323 65.8479C109.434 65.7641 110.267 64.7954 110.183 63.6838C110.058 62.0175 111.311 60.5598 112.977 60.4341C114.089 60.3502 114.921 59.3816 114.838 58.2699C114.754 57.1583 113.785 56.3255 112.673 56.4093C108.788 56.7024 105.865 60.101 106.158 63.9873Z" fill="#9F9F9F"/>
<path d="M82.0214 25.7566C82.4266 27.5196 83.5031 29.1292 85.1545 30.1627C88.4567 32.2307 92.8253 31.2267 94.8933 27.9245C96.9629 24.6219 95.958 20.2534 92.655 18.1856C89.3528 16.1176 84.9841 17.1217 82.9162 20.4239C81.8811 22.0756 81.616 23.9927 82.0214 25.7566ZM91.8562 23.4962C92.03 24.2523 91.9158 25.0745 91.4723 25.7827C90.585 27.1984 88.7119 27.6289 87.2956 26.7427C85.8799 25.8554 85.4494 23.9822 86.3356 22.566C87.2229 21.1503 89.096 20.7197 90.5123 21.606C91.2198 22.0497 91.6825 22.7402 91.8562 23.4962Z" fill="#9F9F9F"/>
<path d="M70.8441 38.3111C71.2495 40.0749 72.3258 41.6837 73.9774 42.718C75.5769 43.7203 77.4714 44.0387 79.31 43.6161C81.1501 43.1932 82.7146 42.079 83.7162 40.4797C85.7832 37.1769 84.7799 32.808 81.4771 30.741C79.8786 29.7393 77.9839 29.4202 76.1445 29.8429C74.3051 30.2657 72.7405 31.379 71.7391 32.9791C70.7046 34.6299 70.4389 36.548 70.8441 38.3111ZM80.6789 36.0507C80.8527 36.8067 80.7385 37.629 80.295 38.3372C79.8654 39.0232 79.1948 39.5003 78.4058 39.6817C77.6175 39.8629 76.8051 39.7266 76.1191 39.297C74.7044 38.4103 74.2731 36.5373 75.1591 35.1202C75.5887 34.4343 76.2601 33.9569 77.0484 33.7758C77.8375 33.5944 78.6491 33.7309 79.3343 34.1607C80.0433 34.604 80.5052 35.2947 80.6789 36.0507Z" fill="#9F9F9F"/>
<path d="M72.1584 22.9873C72.2423 24.099 73.211 24.9318 74.3226 24.8479C75.4342 24.7641 76.267 23.7954 76.1832 22.6838C76.0575 21.0175 77.3108 19.5598 78.977 19.4341C80.0887 19.3502 80.9215 18.3816 80.8376 17.2699C80.7538 16.1583 79.7851 15.3255 78.6735 15.4093C74.788 15.7024 71.8653 19.101 72.1584 22.9873Z" fill="#9F9F9F"/>
<path d="M167.778 35.7239L32.5 165" stroke="#9F9F9F" stroke-width="2"/>
<line x1="35.8701" y1="31.266" x2="165.578" y2="167.354" stroke="#9F9F9F" stroke-width="2"/>
</svg>
