<svg width="174" height="174" viewBox="0 0 174 174" fill="none" xmlns="http://www.w3.org/2000/svg">
<path d="M44.4634 47.0467C43.5009 46.662 42.3915 46.6435 41.3657 47.0838C39.3139 47.9639 38.3607 50.3489 39.2407 52.4007C40.1204 54.4534 42.5057 55.4062 44.5577 54.5257C46.6095 53.6457 47.5627 51.2606 46.6827 49.2088C46.2427 48.1822 45.4264 47.4315 44.4634 47.0467ZM42.3175 52.416C41.9047 52.251 41.5548 51.9289 41.3661 51.4888C40.989 50.6089 41.3977 49.5862 42.2774 49.2085C43.1574 48.8315 44.18 49.2402 44.5577 50.1199C44.9348 50.9998 44.526 52.0225 43.6463 52.4002C43.2065 52.5885 42.7303 52.581 42.3175 52.416Z" fill="#9F9F9F"/>
<path d="M42.1998 37.6849C41.2368 37.3001 40.1278 37.2818 39.1016 37.7219C38.1075 38.148 37.3391 38.9363 36.9379 39.94C36.5364 40.9447 36.5504 42.0451 36.9766 43.0388C37.8573 45.0904 40.2422 46.0441 42.2937 45.1634C43.2873 44.7376 44.0561 43.9495 44.4574 42.9453C44.8588 41.9411 44.8452 40.8408 44.4186 39.8469C43.9788 38.8209 43.1623 38.0696 42.1998 37.6849ZM40.0538 43.0543C39.6411 42.8893 39.2911 42.5671 39.1024 42.1271C38.9196 41.7009 38.9138 41.2293 39.0859 40.7985C39.2579 40.3681 39.5873 40.03 40.0136 39.8472C40.8929 39.4704 41.9157 39.8787 42.2938 40.7586C42.4767 41.1848 42.4823 41.6568 42.3103 42.0872C42.1381 42.518 41.8089 42.8556 41.3828 43.038C40.9426 43.2272 40.4666 43.2192 40.0538 43.0543Z" fill="#9F9F9F"/>
<path d="M48.9872 43.306C48.4363 42.9826 47.7279 43.1669 47.4045 43.7178C47.0811 44.2686 47.2654 44.977 47.8163 45.3004C48.642 45.7852 48.9194 46.8512 48.4347 47.6769C48.1113 48.2278 48.2956 48.9362 48.8465 49.2596C49.3973 49.583 50.1057 49.3986 50.4291 48.8478C51.5595 46.9223 50.913 44.4365 48.9872 43.306Z" fill="#9F9F9F"/>
<path d="M59.4271 57.0112C59.0083 57.4049 58.7391 57.9581 58.7201 58.5768C58.6818 59.8141 59.6572 60.8519 60.8945 60.8902C62.1322 60.929 63.1698 59.9534 63.208 58.7158C63.2463 57.4785 62.2709 56.4407 61.0336 56.4024C60.4146 56.383 59.8461 56.6174 59.4271 57.0112ZM61.6229 59.3475C61.4433 59.5163 61.1994 59.6167 60.9341 59.6085C60.4035 59.5919 59.9853 59.1469 60.0015 58.6163C60.0181 58.0857 60.4631 57.6675 60.9937 57.6838C61.5243 57.7004 61.9425 58.1454 61.9262 58.6759C61.9178 58.9411 61.8025 59.1787 61.6229 59.3475Z" fill="#9F9F9F"/>
<path d="M54.1918 55.9559C53.7728 56.3497 53.5038 56.9028 53.4846 57.5216C53.4659 58.1211 53.6821 58.6919 54.0926 59.1286C54.5034 59.5658 55.0598 59.8165 55.659 59.8351C56.8964 59.8731 57.9343 58.8979 57.9723 57.6605C57.9911 57.0614 57.7751 56.4904 57.3644 56.0535C56.9537 55.6165 56.3976 55.3656 55.7981 55.3472C55.1794 55.3279 54.6106 55.5623 54.1918 55.9559ZM56.3876 58.2922C56.208 58.461 55.9641 58.5614 55.6988 58.5532C55.4417 58.5452 55.2034 58.4377 55.0272 58.2502C54.8512 58.0629 54.7584 57.8182 54.7664 57.5612C54.783 57.031 55.2278 56.6125 55.7586 56.6286C56.0156 56.6366 56.2541 56.7443 56.4301 56.9316C56.6063 57.119 56.6989 57.3636 56.6908 57.6204C56.6827 57.886 56.5672 58.1234 56.3876 58.2922Z" fill="#9F9F9F"/>
<path d="M58.6068 53.8615C58.3152 54.0626 58.2419 54.4618 58.443 54.7533C58.6441 55.0449 59.0433 55.1182 59.3349 54.9171C59.7719 54.6157 60.3727 54.726 60.6741 55.163C60.8752 55.4546 61.2744 55.5279 61.566 55.3268C61.8575 55.1257 61.9308 54.7265 61.7297 54.4349C61.0268 53.4158 59.6261 53.1584 58.6068 53.8615Z" fill="#9F9F9F"/>
<path d="M59.1695 84.4757C58.2262 85.3624 57.6199 86.6084 57.5771 88.0019C57.4908 90.7889 59.6878 93.1264 62.4747 93.2127C65.2625 93.2999 67.5996 91.1025 67.6855 88.3152C67.7719 85.5282 65.5749 83.1907 62.788 83.1043C61.3937 83.0607 60.1133 83.5887 59.1695 84.4757ZM64.1154 89.7379C63.7108 90.1181 63.1615 90.3442 62.5638 90.3257C61.3687 90.2883 60.4267 89.286 60.4633 88.091C60.5008 86.8959 61.503 85.9539 62.6981 85.9905C63.8932 86.028 64.8352 87.0302 64.7985 88.2253C64.7796 88.8226 64.5199 89.3577 64.1154 89.7379Z" fill="#9F9F9F"/>
<path d="M47.3776 82.0987C46.4339 82.9857 45.828 84.2314 45.7848 85.6253C45.7426 86.9755 46.2295 88.2611 47.1541 89.2449C48.0795 90.2294 49.3326 90.7942 50.6824 90.8361C53.4694 90.9216 55.8073 88.7251 55.8928 85.9381C55.935 84.5887 55.4485 83.3026 54.5235 82.3185C53.5985 81.3343 52.3459 80.7691 50.9956 80.7277C49.6022 80.6841 48.3209 81.212 47.3776 82.0987ZM52.3235 87.3608C51.9189 87.741 51.3696 87.9672 50.7719 87.9487C50.1929 87.9307 49.6561 87.6885 49.2593 87.2663C48.8628 86.8445 48.6539 86.2933 48.6718 85.7143C48.7093 84.5201 49.7111 83.5777 50.9066 83.6139C51.4856 83.6318 52.0228 83.8745 52.4192 84.2962C52.8161 84.7184 53.0246 85.2693 53.0063 85.8478C52.9881 86.446 52.728 86.9806 52.3235 87.3608Z" fill="#9F9F9F"/>
<path d="M57.3218 77.3812C56.6651 77.8342 56.5 78.7333 56.9529 79.3901C57.4059 80.0468 58.305 80.2119 58.9618 79.7589C59.9461 79.08 61.2993 79.3285 61.9782 80.3128C62.4312 80.9696 63.3303 81.1347 63.987 80.6817C64.6438 80.2288 64.8089 79.3296 64.3559 78.6729C62.7727 76.3775 59.6177 75.7977 57.3218 77.3812Z" fill="#9F9F9F"/>
<path d="M103.439 107.568C102.495 108.455 101.889 109.701 101.846 111.094C101.76 113.881 103.957 116.219 106.744 116.305C109.532 116.392 111.869 114.195 111.955 111.407C112.041 108.62 109.844 106.283 107.057 106.197C105.663 106.153 104.382 106.681 103.439 107.568ZM108.384 112.83C107.98 113.21 107.431 113.436 106.833 113.418C105.638 113.381 104.696 112.378 104.732 111.183C104.77 109.988 105.772 109.046 106.967 109.083C108.162 109.12 109.104 110.122 109.068 111.317C109.049 111.915 108.789 112.45 108.384 112.83Z" fill="#9F9F9F"/>
<path d="M91.6467 105.191C90.7029 106.078 90.0971 107.324 90.0539 108.717C90.0116 110.068 90.4986 111.353 91.4232 112.337C92.3486 113.322 93.6017 113.886 94.9515 113.928C97.7385 114.014 100.076 111.817 100.162 109.03C100.204 107.681 99.7176 106.395 98.7926 105.411C97.8676 104.427 96.6149 103.861 95.2647 103.82C93.8712 103.776 92.59 104.304 91.6467 105.191ZM96.5925 110.453C96.188 110.833 95.6387 111.059 95.0409 111.041C94.462 111.023 93.9251 110.781 93.5283 110.358C93.1319 109.937 92.9229 109.385 92.9409 108.807C92.9783 107.612 93.9802 106.67 95.1757 106.706C95.7546 106.724 96.2919 106.967 96.6883 107.388C97.0851 107.811 97.2936 108.361 97.2753 108.94C97.2572 109.538 96.997 110.073 96.5925 110.453Z" fill="#9F9F9F"/>
<path d="M101.591 100.473C100.934 100.926 100.769 101.826 101.222 102.482C101.675 103.139 102.574 103.304 103.231 102.851C104.215 102.172 105.568 102.421 106.247 103.405C106.7 104.062 107.599 104.227 108.256 103.774C108.913 103.321 109.078 102.422 108.625 101.765C107.042 99.4697 103.887 98.8899 101.591 100.473Z" fill="#9F9F9F"/>
<path d="M69.7544 145.77C68.8111 146.656 68.2048 147.902 68.1621 149.296C68.0757 152.083 70.2727 154.42 73.0597 154.507C75.8474 154.594 78.1845 152.397 78.2705 149.609C78.3568 146.822 76.1599 144.485 73.3729 144.398C71.9786 144.355 70.6982 144.883 69.7544 145.77ZM74.7003 151.032C74.2958 151.412 73.7464 151.638 73.1487 151.62C71.9537 151.582 71.0116 150.58 71.0483 149.385C71.0857 148.19 72.088 147.248 73.283 147.285C74.4781 147.322 75.4201 148.324 75.3835 149.519C75.3646 150.117 75.1048 150.652 74.7003 151.032Z" fill="#9F9F9F"/>
<path d="M57.9625 143.393C57.0188 144.28 56.4129 145.525 56.3698 146.919C56.3275 148.269 56.8145 149.555 57.7391 150.539C58.6645 151.523 59.9175 152.088 61.2673 152.13C64.0543 152.216 66.3922 150.019 66.4778 147.232C66.52 145.883 66.0334 144.597 65.1085 143.612C64.1835 142.628 62.9308 142.063 61.5806 142.022C60.1871 141.978 58.9059 142.506 57.9625 143.393ZM62.9084 148.655C62.5039 149.035 61.9545 149.261 61.3568 149.243C60.7779 149.225 60.241 148.982 59.8442 148.56C59.4478 148.139 59.2388 147.587 59.2568 147.008C59.2942 145.814 60.2961 144.872 61.4915 144.908C62.0705 144.926 62.6077 145.168 63.0042 145.59C63.401 146.012 63.6095 146.563 63.5912 147.142C63.5731 147.74 63.3129 148.275 62.9084 148.655Z" fill="#9F9F9F"/>
<path d="M67.9067 138.675C67.25 139.128 67.0849 140.027 67.5378 140.684C67.9908 141.341 68.89 141.506 69.5467 141.053C70.5311 140.374 71.8842 140.622 72.5631 141.607C73.0161 142.264 73.9153 142.429 74.572 141.976C75.2287 141.523 75.3938 140.624 74.9409 139.967C73.3576 137.671 70.2026 137.092 67.9067 138.675Z" fill="#9F9F9F"/>
<path d="M107.25 38.9423C106.306 39.829 105.7 41.075 105.657 42.4685C105.571 45.2555 107.768 47.593 110.555 47.6793C113.343 47.7665 115.68 45.5691 115.766 42.7818C115.852 39.9948 113.655 37.6573 110.868 37.5709C109.474 37.5273 108.193 38.0553 107.25 38.9423ZM112.196 44.2045C111.791 44.5847 111.242 44.8108 110.644 44.7923C109.449 44.7549 108.507 43.7526 108.544 42.5576C108.581 41.3625 109.583 40.4205 110.778 40.4571C111.973 40.4946 112.915 41.4968 112.879 42.6919C112.86 43.2892 112.6 43.8243 112.196 44.2045Z" fill="#9F9F9F"/>
<path d="M95.4578 36.5653C94.5141 37.4523 93.9083 38.698 93.8651 40.0919C93.8228 41.4421 94.3098 42.7277 95.2344 43.7115C96.1598 44.696 97.4128 45.2608 98.7626 45.3027C101.55 45.3882 103.888 43.1917 103.973 40.4047C104.015 39.0553 103.529 37.7692 102.604 36.7851C101.679 35.8009 100.426 35.2357 99.0759 35.1943C97.6824 35.1507 96.4012 35.6786 95.4578 36.5653ZM100.404 41.8274C99.9992 42.2076 99.4498 42.4338 98.8521 42.4153C98.2732 42.3973 97.7363 42.1551 97.3395 41.7329C96.9431 41.3111 96.7341 40.7599 96.7521 40.1809C96.7895 38.9867 97.7914 38.0442 98.9868 38.0805C99.5658 38.0984 100.103 38.3411 100.499 38.7628C100.896 39.185 101.105 39.7359 101.086 40.3144C101.068 40.9126 100.808 41.4472 100.404 41.8274Z" fill="#9F9F9F"/>
<path d="M105.402 31.8478C104.745 32.3008 104.58 33.1999 105.033 33.8567C105.486 34.5134 106.385 34.6785 107.042 34.2255C108.026 33.5466 109.38 33.7951 110.058 34.7794C110.511 35.4362 111.411 35.6013 112.067 35.1483C112.724 34.6954 112.889 33.7962 112.436 33.1395C110.853 30.844 107.698 30.2643 105.402 31.8478Z" fill="#9F9F9F"/>
<path d="M146.529 74.3917C146.142 73.1564 145.284 72.068 144.048 71.4226C141.577 70.1312 138.516 71.0909 137.225 73.5621C135.932 76.0337 136.892 79.0945 139.364 80.3857C141.835 81.6772 144.896 80.7174 146.188 78.2462C146.834 77.0101 146.916 75.6275 146.529 74.3917ZM139.638 76.5523C139.472 76.0226 139.508 75.4296 139.785 74.8996C140.339 73.8401 141.651 73.4286 142.711 73.982C143.771 74.5361 144.182 75.8486 143.629 76.9084C143.075 77.9679 141.762 78.3794 140.702 77.826C140.173 77.5489 139.804 77.082 139.638 76.5523Z" fill="#9F9F9F"/>
<path d="M153.804 64.8119C153.416 63.576 152.559 62.4882 151.323 61.8423C150.126 61.2162 148.757 61.0947 147.468 61.4986C146.179 61.9029 145.125 62.7849 144.499 63.9818C143.209 66.4534 144.168 69.5145 146.64 70.8052C147.836 71.4308 149.205 71.5529 150.494 71.1489C151.783 70.7448 152.837 69.8633 153.463 68.6658C154.109 67.4304 154.191 66.0472 153.804 64.8119ZM146.913 66.9725C146.747 66.4428 146.783 65.8498 147.06 65.3198C147.328 64.8064 147.78 64.4286 148.333 64.2553C148.885 64.0821 149.472 64.1341 149.986 64.4024C151.044 64.9561 151.456 66.2684 150.903 67.3288C150.635 67.8422 150.182 68.2201 149.63 68.3933C149.077 68.5667 148.491 68.5145 147.978 68.246C147.447 67.9692 147.079 67.5022 146.913 66.9725Z" fill="#9F9F9F"/>
<path d="M153.72 75.818C153.598 75.0295 152.861 74.4893 152.072 74.6111C151.284 74.7328 150.744 75.4703 150.865 76.2588C151.048 77.4406 150.235 78.5505 149.053 78.7329C148.265 78.8547 147.725 79.5922 147.846 80.3806C147.968 81.1691 148.706 81.7093 149.494 81.5875C152.25 81.162 154.146 78.5743 153.72 75.818Z" fill="#9F9F9F"/>
<path d="M131.141 48.6776C130.754 47.4423 129.896 46.3539 128.66 45.7085C126.189 44.4171 123.128 45.3768 121.837 47.8481C120.544 50.3196 121.504 53.3804 123.976 54.6716C126.447 55.9631 129.508 55.0033 130.8 52.5321C131.446 51.296 131.529 49.9134 131.141 48.6776ZM124.25 50.8382C124.084 50.3085 124.12 49.7155 124.397 49.1855C124.951 48.126 126.263 47.7145 127.323 48.2679C128.383 48.822 128.794 50.1345 128.241 51.1943C127.687 52.2538 126.374 52.6653 125.314 52.1119C124.785 51.8348 124.416 51.3679 124.25 50.8382Z" fill="#9F9F9F"/>
<path d="M138.416 39.0978C138.029 37.8619 137.171 36.7741 135.935 36.1282C134.738 35.5021 133.369 35.3806 132.081 35.7845C130.791 36.1888 129.737 37.0708 129.112 38.2677C127.821 40.7393 128.78 43.8004 131.252 45.0911C132.448 45.7167 133.818 45.8389 135.106 45.4348C136.395 45.0307 137.449 44.1492 138.075 42.9517C138.721 41.7163 138.803 40.3331 138.416 39.0978ZM131.525 41.2584C131.359 40.7287 131.395 40.1357 131.672 39.6057C131.94 39.0923 132.392 38.7145 132.945 38.5412C133.497 38.368 134.084 38.42 134.598 38.6883C135.657 39.242 136.069 40.5543 135.515 41.6147C135.247 42.1281 134.795 42.506 134.242 42.6792C133.689 42.8526 133.103 42.8004 132.59 42.5319C132.059 42.2551 131.691 41.7881 131.525 41.2584Z" fill="#9F9F9F"/>
<path d="M138.332 50.1039C138.21 49.3154 137.473 48.7752 136.685 48.897C135.896 49.0187 135.356 49.7562 135.478 50.5447C135.66 51.7265 134.847 52.8364 133.665 53.0189C132.877 53.1406 132.337 53.8781 132.458 54.6665C132.58 55.455 133.318 55.9952 134.106 55.8734C136.862 55.4479 138.758 52.8602 138.332 50.1039Z" fill="#9F9F9F"/>
<path d="M111.022 129.063C112.258 130.384 113.997 131.236 115.944 131.301C119.838 131.432 123.112 128.371 123.243 124.477C123.376 120.582 120.314 117.308 116.419 117.177C112.525 117.046 109.251 120.107 109.12 124.001C109.053 125.95 109.786 127.741 111.022 129.063ZM118.394 122.171C118.924 122.738 119.238 123.507 119.21 124.342C119.153 126.012 117.749 127.324 116.079 127.268C114.409 127.212 113.097 125.808 113.152 124.138C113.209 122.468 114.613 121.156 116.283 121.211C117.118 121.24 117.864 121.605 118.394 122.171Z" fill="#9F9F9F"/>
<path d="M107.657 145.532C108.892 146.854 110.631 147.705 112.578 147.77C114.465 147.835 116.263 147.159 117.642 145.871C119.021 144.581 119.815 142.832 119.878 140.946C120.008 137.052 116.948 133.777 113.053 133.647C111.168 133.583 109.369 134.258 107.99 135.547C106.612 136.836 105.817 138.584 105.754 140.471C105.688 142.418 106.421 144.21 107.657 145.532ZM115.028 138.64C115.558 139.207 115.872 139.975 115.844 140.81C115.817 141.619 115.476 142.369 114.885 142.922C114.294 143.474 113.523 143.764 112.714 143.737C111.045 143.68 109.732 142.276 109.787 140.606C109.814 139.797 110.155 139.047 110.746 138.495C111.338 137.942 112.108 137.653 112.917 137.68C113.752 137.708 114.498 138.073 115.028 138.64Z" fill="#9F9F9F"/>
<path d="M101.102 131.618C101.732 132.538 102.988 132.772 103.908 132.141C104.827 131.511 105.061 130.255 104.43 129.336C103.485 127.958 103.838 126.068 105.216 125.123C106.135 124.492 106.369 123.236 105.739 122.317C105.108 121.398 103.852 121.163 102.933 121.794C99.7196 123.998 98.8976 128.404 101.102 131.618Z" fill="#9F9F9F"/>
<path d="M63.9485 121.896C63.8624 123.703 64.4641 125.543 65.7749 126.984C68.3957 129.867 72.8732 130.081 75.7563 127.46C78.641 124.839 78.8536 120.362 76.2319 117.478C73.6111 114.595 69.1336 114.382 66.2505 117.003C64.8077 118.314 64.0346 120.088 63.9485 121.896ZM74.0283 122.376C73.9914 123.151 73.6594 123.912 73.041 124.474C71.8043 125.597 69.8845 125.506 68.7603 124.27C67.6369 123.033 67.7283 121.113 68.9642 119.989C70.2009 118.866 72.1207 118.957 73.245 120.193C73.8063 120.811 74.0652 121.601 74.0283 122.376Z" fill="#9F9F9F"/>
<path d="M49.7955 130.964C49.7093 132.772 50.311 134.612 51.6218 136.054C52.8911 137.451 54.6293 138.269 56.5136 138.359C58.3996 138.449 60.2069 137.799 61.6033 136.529C64.4856 133.908 64.6997 129.43 62.0781 126.548C60.8095 125.151 59.0714 124.332 57.1863 124.243C55.3011 124.153 53.4938 124.802 52.0974 126.072C50.6555 127.382 49.8816 129.157 49.7955 130.964ZM59.8753 131.444C59.8384 132.219 59.5063 132.98 58.888 133.542C58.2891 134.087 57.5145 134.365 56.7058 134.326C55.8978 134.288 55.1525 133.937 54.608 133.338C53.4854 132.102 53.5761 130.183 54.812 129.058C55.4109 128.513 56.1863 128.235 56.9942 128.273C57.8029 128.312 58.5475 128.663 59.0911 129.261C59.6541 129.88 59.9122 130.67 59.8753 131.444Z" fill="#9F9F9F"/>
<path d="M55.2003 116.565C54.9807 117.658 55.6884 118.722 56.7814 118.941C57.8743 119.161 58.9378 118.453 59.1574 117.36C59.4865 115.722 61.087 114.657 62.7252 114.986C63.8182 115.205 64.8817 114.498 65.1012 113.405C65.3208 112.312 64.6131 111.248 63.5201 111.029C59.6999 110.261 55.9678 112.744 55.2003 116.565Z" fill="#9F9F9F"/>
<path d="M139.311 99.7064C137.736 100.596 136.499 102.086 135.978 103.963C134.934 107.717 137.139 111.62 140.893 112.663C144.648 113.708 148.55 111.503 149.593 107.748C150.637 103.994 148.432 100.091 144.678 99.0478C142.8 98.5252 140.887 98.8162 139.311 99.7064ZM144.275 108.492C143.599 108.874 142.778 108.998 141.973 108.775C140.364 108.327 139.418 106.653 139.865 105.043C140.313 103.434 141.987 102.488 143.597 102.935C145.206 103.383 146.152 105.057 145.705 106.667C145.48 107.471 144.95 108.111 144.275 108.492Z" fill="#9F9F9F"/>
<path d="M124.096 92.5606C122.521 93.4508 121.284 94.9402 120.762 96.8177C120.256 98.6362 120.49 100.543 121.418 102.186C122.346 103.829 123.859 105.013 125.678 105.518C129.432 106.56 133.335 104.356 134.377 100.602C134.883 98.7846 134.65 96.8774 133.722 95.2341C132.794 93.5909 131.281 92.4074 129.463 91.9024C127.586 91.3801 125.671 91.6708 124.096 92.5606ZM129.06 101.347C128.385 101.728 127.564 101.853 126.759 101.629C125.979 101.412 125.331 100.905 124.932 100.2C124.535 99.4956 124.434 98.678 124.651 97.8982C125.099 96.2897 126.772 95.3436 128.382 95.7901C129.162 96.0069 129.811 96.5148 130.209 97.2191C130.607 97.924 130.707 98.7409 130.49 99.52C130.266 100.326 129.735 100.965 129.06 101.347Z" fill="#9F9F9F"/>
<path d="M139.161 89.4632C138.119 89.8597 137.596 91.0252 137.993 92.0671C138.389 93.109 139.555 93.6319 140.597 93.2354C142.158 92.6411 143.912 93.4281 144.507 94.9899C144.903 96.0318 146.069 96.5547 147.111 96.1582C148.152 95.7617 148.675 94.5962 148.279 93.5543C146.893 89.9126 142.804 88.077 139.161 89.4632Z" fill="#9F9F9F"/>
<path d="M105.512 59.8838C105.426 61.6908 106.028 63.5314 107.339 64.9725C109.959 67.8556 114.437 68.069 117.32 65.4481C120.205 62.8274 120.417 58.3498 117.796 55.4667C115.175 52.5836 110.697 52.3702 107.814 54.9911C106.371 56.3018 105.598 58.0761 105.512 59.8838ZM115.592 60.3641C115.555 61.139 115.223 61.8998 114.605 62.4619C113.368 63.5853 111.448 63.4938 110.324 62.258C109.201 61.0213 109.292 59.1014 110.528 57.9772C111.765 56.8538 113.684 56.9453 114.809 58.1812C115.37 58.7995 115.629 59.5893 115.592 60.3641Z" fill="#9F9F9F"/>
<path d="M91.3592 68.9524C91.2731 70.7601 91.8748 72.5999 93.1856 74.0419C94.4549 75.439 96.193 76.2572 98.0774 76.347C99.9634 76.4369 101.771 75.7868 103.167 74.5175C106.049 71.8958 106.263 67.4183 103.642 64.536C102.373 63.1397 100.635 62.3206 98.75 62.2308C96.8648 62.141 95.0576 62.7903 93.6612 64.0604C92.2193 65.3704 91.4453 67.1454 91.3592 68.9524ZM101.439 69.4327C101.402 70.2075 101.07 70.9684 100.452 71.5305C99.8528 72.0749 99.0783 72.3532 98.2695 72.3146C97.4616 72.2761 96.7162 71.9254 96.1718 71.3265C95.0492 70.0907 95.1398 68.1708 96.3758 67.0458C96.9747 66.5013 97.75 66.2231 98.558 66.2616C99.3667 66.3001 100.111 66.6508 100.655 67.2497C101.218 67.8681 101.476 68.6578 101.439 69.4327Z" fill="#9F9F9F"/>
<path d="M96.764 54.5533C96.5445 55.6463 97.2522 56.7098 98.3451 56.9293C99.4381 57.1489 100.502 56.4412 100.721 55.3482C101.05 53.71 102.651 52.645 104.289 52.974C105.382 53.1936 106.445 52.4859 106.665 51.3929C106.885 50.3 106.177 49.2365 105.084 49.0169C101.264 48.2495 97.5316 50.7323 96.764 54.5533Z" fill="#9F9F9F"/>
<path d="M34.2592 71.3729C34.1731 73.1798 34.7747 75.0204 36.0856 76.4615C38.7064 79.3446 43.1839 79.558 46.067 76.9372C48.9517 74.3164 49.1643 69.8388 46.5426 66.9557C43.9218 64.0726 39.4443 63.8593 36.5612 66.4801C35.1184 67.7909 34.3453 69.5651 34.2592 71.3729ZM44.339 71.8532C44.3021 72.628 43.97 73.3889 43.3517 73.951C42.115 75.0744 40.1952 74.9829 39.0709 73.747C37.9475 72.5103 38.039 70.5905 39.2749 69.4662C40.5116 68.3428 42.4314 68.4343 43.5556 69.6702C44.1169 70.2885 44.3759 71.0783 44.339 71.8532Z" fill="#9F9F9F"/>
<path d="M20.1062 80.4414C20.02 82.2492 20.6217 84.0889 21.9325 85.5309C23.2018 86.928 24.9399 87.7463 26.8243 87.8361C28.7103 87.9259 30.5176 87.2758 31.9139 86.0065C34.7963 83.3848 35.0104 78.9073 32.3887 76.025C31.1202 74.6287 29.3821 73.8097 27.4969 73.7198C25.6118 73.63 23.8045 74.2793 22.4081 75.5495C20.9662 76.8595 20.1922 78.6344 20.1062 80.4414ZM30.1859 80.9217C30.149 81.6966 29.817 82.4574 29.1986 83.0195C28.5997 83.5639 27.8252 83.8422 27.0164 83.8037C26.2085 83.7652 25.4631 83.4145 24.9187 82.8156C23.7961 81.5797 23.8867 79.6599 25.1227 78.5348C25.7216 77.9904 26.4969 77.7121 27.3049 77.7506C28.1136 77.7892 28.8582 78.1398 29.4018 78.7387C29.9647 79.3571 30.2229 80.1468 30.1859 80.9217Z" fill="#9F9F9F"/>
<path d="M25.5109 66.0424C25.2914 67.1353 25.9991 68.1988 27.092 68.4184C28.185 68.6379 29.2485 67.9302 29.4681 66.8373C29.7971 65.199 31.3976 64.134 33.0359 64.4631C34.1288 64.6826 35.1923 63.9749 35.4119 62.882C35.6314 61.789 34.9237 60.7255 33.8308 60.5059C30.0106 59.7385 26.2785 62.2214 25.5109 66.0424Z" fill="#9F9F9F"/>
<path d="M27.2906 105.231C26.8717 105.625 26.6026 106.178 26.5836 106.797C26.5452 108.034 27.5206 109.072 28.758 109.11C29.9957 109.149 31.0333 108.173 31.0715 106.936C31.1098 105.699 30.1344 104.661 28.8971 104.622C28.278 104.603 27.7096 104.837 27.2906 105.231ZM29.4864 107.568C29.3068 107.736 29.0629 107.837 28.7975 107.829C28.267 107.812 27.8487 107.367 27.865 106.836C27.8816 106.306 28.3266 105.888 28.8572 105.904C29.3877 105.92 29.806 106.365 29.7897 106.896C29.7813 107.161 29.666 107.399 29.4864 107.568Z" fill="#9F9F9F"/>
<path d="M22.0552 104.176C21.6362 104.57 21.3673 105.123 21.3481 105.742C21.3293 106.341 21.5455 106.912 21.956 107.349C22.3669 107.786 22.9232 108.037 23.5225 108.055C24.7599 108.093 25.7978 107.118 25.8358 105.881C25.8545 105.281 25.6385 104.71 25.2279 104.274C24.8172 103.837 24.261 103.586 23.6616 103.567C23.0429 103.548 22.4741 103.782 22.0552 104.176ZM24.2511 106.512C24.0715 106.681 23.8276 106.781 23.5622 106.773C23.3052 106.765 23.0668 106.658 22.8906 106.47C22.7146 106.283 22.6219 106.038 22.6299 105.781C22.6465 105.251 23.0913 104.833 23.622 104.849C23.8791 104.857 24.1176 104.964 24.2936 105.152C24.4698 105.339 24.5624 105.584 24.5542 105.84C24.5462 106.106 24.4307 106.343 24.2511 106.512Z" fill="#9F9F9F"/>
<path d="M26.4702 102.082C26.1786 102.283 26.1053 102.682 26.3064 102.973C26.5075 103.265 26.9068 103.338 27.1983 103.137C27.6354 102.836 28.2361 102.946 28.5376 103.383C28.7387 103.675 29.1379 103.748 29.4294 103.547C29.721 103.346 29.7943 102.947 29.5932 102.655C28.8903 101.636 27.4895 101.378 26.4702 102.082Z" fill="#9F9F9F"/>
<path d="M51.8251 110.033C51.4063 110.426 51.1371 110.98 51.1182 111.598C51.0798 112.836 52.0552 113.873 53.2926 113.912C54.5303 113.951 55.5679 112.975 55.606 111.737C55.6444 110.5 54.669 109.462 53.4316 109.424C52.8126 109.405 52.2441 109.639 51.8251 110.033ZM54.021 112.369C53.8414 112.538 53.5975 112.638 53.3321 112.63C52.8015 112.613 52.3833 112.168 52.3996 111.638C52.4162 111.107 52.8612 110.689 53.3917 110.705C53.9223 110.722 54.3405 111.167 54.3243 111.697C54.3159 111.963 54.2006 112.2 54.021 112.369Z" fill="#9F9F9F"/>
<path d="M46.5898 108.977C46.1708 109.371 45.9018 109.924 45.8827 110.543C45.8639 111.143 46.0801 111.713 46.4906 112.15C46.9015 112.587 47.4578 112.838 48.0571 112.857C49.2944 112.895 50.3324 111.919 50.3704 110.682C50.3891 110.083 50.1731 109.512 49.7624 109.075C49.3518 108.638 48.7956 108.387 48.1961 108.369C47.5775 108.349 47.0086 108.584 46.5898 108.977ZM48.7857 111.314C48.6061 111.483 48.3622 111.583 48.0968 111.575C47.8398 111.567 47.6014 111.459 47.4252 111.272C47.2492 111.085 47.1565 110.84 47.1644 110.583C47.181 110.053 47.6258 109.634 48.1566 109.65C48.4137 109.658 48.6522 109.766 48.8282 109.953C49.0044 110.141 49.0969 110.385 49.0888 110.642C49.0808 110.908 48.9653 111.145 48.7857 111.314Z" fill="#9F9F9F"/>
<path d="M51.0048 106.883C50.7132 107.084 50.6399 107.483 50.841 107.775C51.0421 108.066 51.4413 108.14 51.7329 107.939C52.1699 107.637 52.7707 107.748 53.0721 108.185C53.2732 108.476 53.6724 108.549 53.964 108.348C54.2556 108.147 54.3289 107.748 54.1278 107.456C53.4249 106.437 52.0241 106.18 51.0048 106.883Z" fill="#9F9F9F"/>
<path d="M99.4575 26.3838C99.0387 26.7774 98.7695 27.3307 98.7505 27.9493C98.7122 29.1867 99.6876 30.2245 100.925 30.2628C102.163 30.3015 103.2 29.3259 103.238 28.0884C103.277 26.851 102.301 25.8133 101.064 25.7749C100.445 25.7556 99.8765 25.99 99.4575 26.3838ZM101.653 28.7201C101.474 28.8889 101.23 28.9893 100.964 28.981C100.434 28.9644 100.016 28.5194 100.032 27.9889C100.049 27.4583 100.494 27.0401 101.024 27.0563C101.555 27.0729 101.973 27.5179 101.957 28.0485C101.948 28.3137 101.833 28.5513 101.653 28.7201Z" fill="#9F9F9F"/>
<path d="M94.2222 25.3285C93.8032 25.7223 93.5342 26.2753 93.515 26.8942C93.4963 27.4936 93.7125 28.0644 94.123 28.5012C94.5338 28.9383 95.0902 29.1891 95.6895 29.2077C96.9268 29.2456 97.9648 28.2704 98.0028 27.0331C98.0215 26.434 97.8055 25.863 97.3948 25.426C96.9841 24.9891 96.428 24.7382 95.8285 24.7198C95.2098 24.7004 94.641 24.9348 94.2222 25.3285ZM96.418 27.6647C96.2384 27.8335 95.9946 27.9339 95.7292 27.9257C95.4721 27.9178 95.2338 27.8102 95.0576 27.6228C94.8816 27.4355 94.7888 27.1908 94.7968 26.9337C94.8134 26.4035 95.2582 25.9851 95.789 26.0012C96.046 26.0091 96.2846 26.1169 96.4606 26.3041C96.6367 26.4916 96.7293 26.7361 96.7212 26.993C96.7131 27.2586 96.5976 27.4959 96.418 27.6647Z" fill="#9F9F9F"/>
<path d="M98.6372 23.234C98.3456 23.4351 98.2723 23.8343 98.4734 24.1259C98.6745 24.4175 99.0737 24.4908 99.3653 24.2897C99.8023 23.9882 100.403 24.0985 100.705 24.5356C100.906 24.8271 101.305 24.9004 101.596 24.6993C101.888 24.4982 101.961 24.099 101.76 23.8075C101.057 22.7884 99.6565 22.531 98.6372 23.234Z" fill="#9F9F9F"/>
<path d="M67.7652 64.4048C67.3464 64.7984 67.0772 65.3516 67.0582 65.9703C67.0199 67.2077 67.9953 68.2455 69.2326 68.2838C70.4703 68.3225 71.5079 67.3469 71.5461 66.1094C71.5844 64.872 70.609 63.8343 69.3717 63.7959C68.7527 63.7766 68.1842 64.011 67.7652 64.4048ZM69.961 66.741C69.7814 66.9099 69.5375 67.0103 69.2722 67.002C68.7416 66.9854 68.3234 66.5404 68.3396 66.0099C68.3562 65.4793 68.8012 65.061 69.3318 65.0773C69.8624 65.0939 70.2806 65.5389 70.2643 66.0695C70.256 66.3347 70.1406 66.5722 69.961 66.741Z" fill="#9F9F9F"/>
<path d="M62.5299 63.3495C62.1109 63.7433 61.8419 64.2963 61.8227 64.9152C61.804 65.5146 62.0202 66.0854 62.4307 66.5222C62.8415 66.9593 63.3979 67.2101 63.9971 67.2287C65.2345 67.2666 66.2725 66.2914 66.3104 65.0541C66.3292 64.455 66.1132 63.884 65.7025 63.447C65.2918 63.0101 64.7357 62.7592 64.1362 62.7408C63.5175 62.7214 62.9487 62.9558 62.5299 63.3495ZM64.7257 65.6857C64.5461 65.8545 64.3022 65.9549 64.0369 65.9467C63.7798 65.9388 63.5415 65.8312 63.3653 65.6438C63.1893 65.4565 63.0965 65.2118 63.1045 64.9547C63.1211 64.4245 63.5659 64.0061 64.0967 64.0222C64.3537 64.0301 64.5922 64.1379 64.7682 64.3251C64.9444 64.5126 65.037 64.7571 65.0289 65.014C65.0208 65.2796 64.9053 65.5169 64.7257 65.6857Z" fill="#9F9F9F"/>
<path d="M66.9449 61.255C66.6533 61.4561 66.58 61.8553 66.7811 62.1469C66.9822 62.4384 67.3814 62.5118 67.673 62.3107C68.11 62.0092 68.7108 62.1195 69.0122 62.5566C69.2133 62.8481 69.6125 62.9214 69.9041 62.7203C70.1956 62.5192 70.2689 62.12 70.0678 61.8285C69.3649 60.8093 67.9642 60.552 66.9449 61.255Z" fill="#9F9F9F"/>
<path d="M57.7199 31.1769C57.3011 31.5705 57.032 32.1238 57.013 32.7424C56.9746 33.9798 57.95 35.0176 59.1874 35.0559C60.4251 35.0946 61.4627 34.119 61.5008 32.8815C61.5392 31.6441 60.5638 30.6064 59.3264 30.568C58.7074 30.5487 58.1389 30.7831 57.7199 31.1769ZM59.9158 33.5132C59.7362 33.682 59.4923 33.7824 59.2269 33.7741C58.6963 33.7575 58.2781 33.3125 58.2944 32.782C58.311 32.2514 58.756 31.8332 59.2865 31.8494C59.8171 31.866 60.2354 32.311 60.2191 32.8416C60.2107 33.1068 60.0954 33.3444 59.9158 33.5132Z" fill="#9F9F9F"/>
<path d="M52.4846 30.1216C52.0656 30.5154 51.7966 31.0684 51.7775 31.6873C51.7587 32.2867 51.9749 32.8576 52.3854 33.2943C52.7963 33.7314 53.3526 33.9822 53.9519 34.0008C55.1892 34.0387 56.2272 33.0635 56.2652 31.8262C56.2839 31.2271 56.0679 30.6561 55.6572 30.2191C55.2466 29.7822 54.6904 29.5313 54.0909 29.5129C53.4723 29.4935 52.9034 29.7279 52.4846 30.1216ZM54.6805 32.4578C54.5009 32.6266 54.257 32.727 53.9916 32.7188C53.7346 32.7109 53.4962 32.6033 53.32 32.4159C53.144 32.2286 53.0513 31.9839 53.0592 31.7268C53.0758 31.1966 53.5206 30.7782 54.0514 30.7943C54.3085 30.8023 54.547 30.91 54.723 31.0972C54.8992 31.2847 54.9917 31.5292 54.9836 31.7861C54.9756 32.0517 54.8601 32.289 54.6805 32.4578Z" fill="#9F9F9F"/>
<path d="M56.8996 28.0271C56.608 28.2282 56.5347 28.6274 56.7358 28.919C56.9369 29.2106 57.3361 29.2839 57.6277 29.0828C58.0647 28.7813 58.6655 28.8916 58.9669 29.3287C59.168 29.6202 59.5672 29.6936 59.8588 29.4925C60.1504 29.2913 60.2237 28.8921 60.0226 28.6006C59.3197 27.5815 57.9189 27.3241 56.8996 28.0271Z" fill="#9F9F9F"/>
<path d="M59.4271 57.0112C59.0083 57.4049 58.7391 57.9581 58.7201 58.5768C58.6818 59.8141 59.6572 60.8519 60.8945 60.8902C62.1322 60.929 63.1698 59.9534 63.208 58.7158C63.2463 57.4785 62.2709 56.4407 61.0336 56.4024C60.4146 56.383 59.8461 56.6174 59.4271 57.0112ZM61.6229 59.3475C61.4433 59.5163 61.1994 59.6167 60.9341 59.6085C60.4035 59.5919 59.9853 59.1469 60.0015 58.6163C60.0181 58.0857 60.4631 57.6675 60.9937 57.6838C61.5243 57.7004 61.9425 58.1454 61.9262 58.6759C61.9178 58.9411 61.8025 59.1787 61.6229 59.3475Z" fill="#9F9F9F"/>
<path d="M54.1918 55.9559C53.7728 56.3497 53.5038 56.9028 53.4846 57.5216C53.4659 58.1211 53.6821 58.6919 54.0926 59.1286C54.5034 59.5658 55.0598 59.8165 55.659 59.8351C56.8964 59.8731 57.9343 58.8979 57.9723 57.6605C57.9911 57.0614 57.7751 56.4904 57.3644 56.0535C56.9537 55.6165 56.3976 55.3656 55.7981 55.3472C55.1794 55.3279 54.6106 55.5623 54.1918 55.9559ZM56.3876 58.2922C56.208 58.461 55.9641 58.5614 55.6988 58.5532C55.4417 58.5452 55.2034 58.4377 55.0272 58.2502C54.8512 58.0629 54.7584 57.8182 54.7664 57.5612C54.783 57.031 55.2278 56.6125 55.7586 56.6286C56.0156 56.6366 56.2541 56.7443 56.4301 56.9316C56.6063 57.119 56.6989 57.3636 56.6908 57.6204C56.6827 57.886 56.5672 58.1234 56.3876 58.2922Z" fill="#9F9F9F"/>
<path d="M58.6068 53.8615C58.3152 54.0626 58.2419 54.4618 58.443 54.7533C58.6441 55.0449 59.0433 55.1182 59.3349 54.9171C59.7719 54.6157 60.3727 54.726 60.6741 55.163C60.8752 55.4546 61.2744 55.5279 61.566 55.3268C61.8575 55.1257 61.9308 54.7265 61.7297 54.4349C61.0268 53.4158 59.6261 53.1584 58.6068 53.8615Z" fill="#9F9F9F"/>
<path d="M70.2049 102.34C69.786 102.733 69.5169 103.286 69.4979 103.905C69.4595 105.142 70.4349 106.18 71.6723 106.219C72.91 106.257 73.9476 105.282 73.9858 104.044C74.0241 102.807 73.0487 101.769 71.8114 101.731C71.1923 101.711 70.6239 101.946 70.2049 102.34ZM72.4007 104.676C72.2211 104.845 71.9772 104.945 71.7118 104.937C71.1813 104.92 70.763 104.475 70.7793 103.945C70.7959 103.414 71.2409 102.996 71.7715 103.012C72.302 103.029 72.7203 103.474 72.704 104.004C72.6956 104.269 72.5803 104.507 72.4007 104.676Z" fill="#9F9F9F"/>
<path d="M64.9696 101.284C64.5506 101.678 64.2816 102.231 64.2624 102.85C64.2436 103.449 64.4598 104.02 64.8703 104.457C65.2812 104.894 65.8375 105.145 66.4368 105.163C67.6742 105.201 68.7121 104.226 68.7501 102.989C68.7688 102.39 68.5528 101.819 68.1422 101.382C67.7315 100.945 67.1753 100.694 66.5759 100.676C65.9572 100.656 65.3884 100.891 64.9696 101.284ZM67.1654 103.621C66.9858 103.789 66.7419 103.89 66.4765 103.881C66.2195 103.874 65.9811 103.766 65.805 103.579C65.6289 103.391 65.5362 103.147 65.5442 102.89C65.5608 102.359 66.0056 101.941 66.5363 101.957C66.7934 101.965 67.0319 102.073 67.2079 102.26C67.3841 102.447 67.4767 102.692 67.4685 102.949C67.4605 103.214 67.345 103.452 67.1654 103.621Z" fill="#9F9F9F"/>
<path d="M69.3845 99.1898C69.093 99.3909 69.0197 99.7901 69.2208 100.082C69.4219 100.373 69.8211 100.447 70.1126 100.245C70.5497 99.944 71.1504 100.054 71.4519 100.491C71.653 100.783 72.0522 100.856 72.3437 100.655C72.6353 100.454 72.7086 100.055 72.5075 99.7633C71.8046 98.7441 70.4039 98.4867 69.3845 99.1898Z" fill="#9F9F9F"/>
<path d="M80.7968 108.407C80.378 108.8 80.1088 109.354 80.0898 109.972C80.0515 111.21 81.0269 112.247 82.2642 112.286C83.5019 112.325 84.5395 111.349 84.5777 110.111C84.616 108.874 83.6406 107.836 82.4033 107.798C81.7842 107.779 81.2158 108.013 80.7968 108.407ZM82.9926 110.743C82.813 110.912 82.5691 111.012 82.3038 111.004C81.7732 110.987 81.355 110.542 81.3712 110.012C81.3878 109.481 81.8328 109.063 82.3634 109.079C82.894 109.096 83.3122 109.541 83.2959 110.072C83.2875 110.337 83.1722 110.574 82.9926 110.743Z" fill="#9F9F9F"/>
<path d="M75.5615 107.351C75.1425 107.745 74.8735 108.298 74.8543 108.917C74.8356 109.517 75.0518 110.087 75.4623 110.524C75.8731 110.961 76.4294 111.212 77.0287 111.231C78.2661 111.269 79.304 110.293 79.342 109.056C79.3608 108.457 79.1448 107.886 78.7341 107.449C78.3234 107.012 77.7672 106.761 77.1678 106.743C76.5491 106.723 75.9803 106.958 75.5615 107.351ZM77.7573 109.688C77.5777 109.857 77.3338 109.957 77.0684 109.949C76.8114 109.941 76.5731 109.833 76.3969 109.646C76.2209 109.459 76.1281 109.214 76.1361 108.957C76.1527 108.427 76.5975 108.008 77.1283 108.024C77.3853 108.032 77.6238 108.14 77.7998 108.327C77.976 108.515 78.0686 108.759 78.0605 109.016C78.0524 109.282 77.9369 109.519 77.7573 109.688Z" fill="#9F9F9F"/>
<path d="M79.9764 105.257C79.6849 105.458 79.6116 105.857 79.8127 106.149C80.0138 106.44 80.413 106.514 80.7045 106.313C81.1416 106.011 81.7423 106.122 82.0438 106.559C82.2449 106.85 82.6441 106.923 82.9357 106.722C83.2272 106.521 83.3005 106.122 83.0994 105.83C82.3965 104.811 80.9958 104.554 79.9764 105.257Z" fill="#9F9F9F"/>
<path d="M80.7968 108.407C80.378 108.8 80.1088 109.354 80.0898 109.972C80.0515 111.21 81.0269 112.247 82.2642 112.286C83.5019 112.325 84.5395 111.349 84.5777 110.111C84.616 108.874 83.6406 107.836 82.4033 107.798C81.7842 107.779 81.2158 108.013 80.7968 108.407ZM82.9926 110.743C82.813 110.912 82.5691 111.012 82.3038 111.004C81.7732 110.987 81.355 110.542 81.3712 110.012C81.3878 109.481 81.8328 109.063 82.3634 109.079C82.894 109.096 83.3122 109.541 83.2959 110.072C83.2875 110.337 83.1722 110.574 82.9926 110.743Z" fill="#9F9F9F"/>
<path d="M75.5615 107.351C75.1425 107.745 74.8735 108.298 74.8543 108.917C74.8356 109.517 75.0518 110.087 75.4623 110.524C75.8731 110.961 76.4294 111.212 77.0287 111.231C78.2661 111.269 79.304 110.293 79.342 109.056C79.3608 108.457 79.1448 107.886 78.7341 107.449C78.3234 107.012 77.7672 106.761 77.1678 106.743C76.5491 106.723 75.9803 106.958 75.5615 107.351ZM77.7573 109.688C77.5777 109.857 77.3338 109.957 77.0684 109.949C76.8114 109.941 76.5731 109.833 76.3969 109.646C76.2209 109.459 76.1281 109.214 76.1361 108.957C76.1527 108.427 76.5975 108.008 77.1283 108.024C77.3853 108.032 77.6238 108.14 77.7998 108.327C77.976 108.515 78.0686 108.759 78.0605 109.016C78.0524 109.282 77.9369 109.519 77.7573 109.688Z" fill="#9F9F9F"/>
<path d="M79.9764 105.257C79.6849 105.458 79.6116 105.857 79.8127 106.149C80.0138 106.44 80.413 106.514 80.7045 106.313C81.1416 106.011 81.7423 106.122 82.0438 106.559C82.2449 106.85 82.6441 106.923 82.9357 106.722C83.2272 106.521 83.3005 106.122 83.0994 105.83C82.3965 104.811 80.9958 104.554 79.9764 105.257Z" fill="#9F9F9F"/>
<path d="M119.278 78.8065C118.859 79.2001 118.59 79.7534 118.571 80.372C118.533 81.6094 119.508 82.6472 120.746 82.6855C121.983 82.7242 123.021 81.7486 123.059 80.5111C123.097 79.2737 122.122 78.236 120.885 78.1976C120.266 78.1783 119.697 78.4127 119.278 78.8065ZM121.474 81.1428C121.294 81.3116 121.051 81.412 120.785 81.4037C120.255 81.3871 119.836 80.9421 119.853 80.4116C119.869 79.881 120.314 79.4628 120.845 79.479C121.375 79.4956 121.794 79.9406 121.777 80.4712C121.769 80.7364 121.654 80.9739 121.474 81.1428Z" fill="#9F9F9F"/>
<path d="M114.043 77.7512C113.624 78.145 113.355 78.698 113.336 79.3169C113.317 79.9163 113.533 80.4871 113.944 80.9239C114.355 81.361 114.911 81.6118 115.51 81.6304C116.748 81.6683 117.785 80.6931 117.823 79.4558C117.842 78.8567 117.626 78.2857 117.216 77.8487C116.805 77.4118 116.249 77.1609 115.649 77.1425C115.031 77.1231 114.462 77.3575 114.043 77.7512ZM116.239 80.0874C116.059 80.2562 115.815 80.3566 115.55 80.3484C115.293 80.3405 115.054 80.2329 114.878 80.0455C114.702 79.8582 114.61 79.6135 114.618 79.3564C114.634 78.8262 115.079 78.4078 115.61 78.4239C115.867 78.4318 116.105 78.5396 116.281 78.7268C116.457 78.9143 116.55 79.1588 116.542 79.4157C116.534 79.6813 116.418 79.9186 116.239 80.0874Z" fill="#9F9F9F"/>
<path d="M118.458 75.6567C118.166 75.8578 118.093 76.257 118.294 76.5486C118.495 76.8402 118.894 76.9135 119.186 76.7124C119.623 76.4109 120.224 76.5212 120.525 76.9583C120.726 77.2498 121.126 77.3231 121.417 77.122C121.709 76.9209 121.782 76.5217 121.581 76.2302C120.878 75.2111 119.477 74.9537 118.458 75.6567Z" fill="#9F9F9F"/>
<path d="M77.9871 132.761C77.5683 133.154 77.2991 133.707 77.2801 134.326C77.2418 135.563 78.2172 136.601 79.4545 136.64C80.6922 136.678 81.7298 135.703 81.768 134.465C81.8063 133.228 80.8309 132.19 79.5936 132.152C78.9746 132.132 78.4061 132.367 77.9871 132.761ZM80.1829 135.097C80.0033 135.266 79.7594 135.366 79.4941 135.358C78.9635 135.341 78.5453 134.896 78.5615 134.366C78.5781 133.835 79.0231 133.417 79.5537 133.433C80.0843 133.45 80.5025 133.895 80.4862 134.425C80.4778 134.69 80.3625 134.928 80.1829 135.097Z" fill="#9F9F9F"/>
<path d="M72.7518 131.705C72.3328 132.099 72.0638 132.652 72.0446 133.271C72.0259 133.87 72.2421 134.441 72.6526 134.878C73.0634 135.315 73.6198 135.566 74.219 135.584C75.4564 135.622 76.4943 134.647 76.5323 133.41C76.5511 132.811 76.3351 132.24 75.9244 131.803C75.5137 131.366 74.9576 131.115 74.3581 131.097C73.7394 131.077 73.1706 131.312 72.7518 131.705ZM74.9476 134.042C74.768 134.21 74.5241 134.311 74.2588 134.303C74.0017 134.295 73.7634 134.187 73.5872 134C73.4112 133.812 73.3184 133.568 73.3264 133.311C73.343 132.78 73.7878 132.362 74.3186 132.378C74.5756 132.386 74.8141 132.494 74.9901 132.681C75.1663 132.868 75.2589 133.113 75.2508 133.37C75.2427 133.635 75.1272 133.873 74.9476 134.042Z" fill="#9F9F9F"/>
<path d="M77.1668 129.611C76.8752 129.812 76.8019 130.211 77.003 130.503C77.2041 130.794 77.6033 130.868 77.8949 130.666C78.3319 130.365 78.9327 130.475 79.2341 130.912C79.4352 131.204 79.8344 131.277 80.126 131.076C80.4175 130.875 80.4908 130.476 80.2897 130.184C79.5868 129.165 78.1861 128.908 77.1668 129.611Z" fill="#9F9F9F"/>
<path d="M79.6215 95.46C79.2026 95.8537 78.9335 96.4069 78.9145 97.0256C78.8761 98.2629 79.8515 99.3007 81.0889 99.3391C82.3266 99.3778 83.3642 98.4022 83.4024 97.1647C83.4407 95.9273 82.4653 94.8895 81.228 94.8512C80.6089 94.8318 80.0405 95.0662 79.6215 95.46ZM81.8173 97.7963C81.6377 97.9651 81.3938 98.0655 81.1284 98.0573C80.5979 98.0407 80.1796 97.5957 80.1959 97.0651C80.2125 96.5345 80.6575 96.1163 81.1881 96.1326C81.7186 96.1492 82.1369 96.5942 82.1206 97.1248C82.1122 97.3899 81.9969 97.6275 81.8173 97.7963Z" fill="#9F9F9F"/>
<path d="M74.3861 94.4047C73.9671 94.7985 73.6982 95.3516 73.679 95.9705C73.6602 96.5699 73.8764 97.1407 74.2869 97.5775C74.6978 98.0146 75.2541 98.2654 75.8534 98.2839C77.0908 98.3219 78.1287 97.3467 78.1667 96.1093C78.1854 95.5102 77.9694 94.9392 77.5588 94.5023C77.1481 94.0654 76.5919 93.8144 75.9925 93.796C75.3738 93.7767 74.805 94.0111 74.3861 94.4047ZM76.582 96.741C76.4024 96.9098 76.1585 97.0102 75.8931 97.002C75.6361 96.994 75.3977 96.8865 75.2215 96.699C75.0455 96.5118 74.9528 96.267 74.9608 96.01C74.9774 95.4798 75.4222 95.0614 75.9529 95.0774C76.21 95.0854 76.4485 95.1931 76.6245 95.3804C76.8007 95.5678 76.8933 95.8124 76.8851 96.0693C76.8771 96.3348 76.7616 96.5722 76.582 96.741Z" fill="#9F9F9F"/>
<path d="M78.8011 92.3103C78.5096 92.5114 78.4362 92.9106 78.6373 93.2021C78.8385 93.4937 79.2377 93.567 79.5292 93.3659C79.9663 93.0645 80.567 93.1748 80.8685 93.6118C81.0696 93.9034 81.4688 93.9767 81.7603 93.7756C82.0519 93.5745 82.1252 93.1753 81.9241 92.8837C81.2212 91.8646 79.8205 91.6072 78.8011 92.3103Z" fill="#9F9F9F"/>
<path d="M68.4002 42.1706C67.3699 43.209 66.7343 44.6401 66.7409 46.2154C66.7531 49.3661 69.3261 51.9192 72.4768 51.907C75.6284 51.8957 78.1811 49.3222 78.1684 46.171C78.1562 43.0204 75.5832 40.4672 72.4325 40.4794C70.8562 40.4851 69.4311 41.1318 68.4002 42.1706ZM74.1927 47.9183C73.7509 48.3636 73.1394 48.6406 72.4637 48.6432C71.1127 48.648 70.0094 47.5533 70.0037 46.2023C69.9989 44.8513 71.0937 43.748 72.4447 43.7423C73.7957 43.7375 74.899 44.8322 74.9047 46.1832C74.9068 46.8585 74.6346 47.473 74.1927 47.9183Z" fill="#9F9F9F"/>
<path d="M54.9903 39.9507C53.9595 40.9896 53.3243 42.4201 53.3305 43.9959C53.3359 45.5224 53.9365 46.9551 55.0193 48.0296C56.1031 49.105 57.5405 49.6935 59.0664 49.6876C62.2171 49.6744 64.7707 47.1018 64.7576 43.9511C64.7521 42.4256 64.152 40.9925 63.0687 39.9175C61.9854 38.8425 60.5485 38.2536 59.0221 38.26C57.4467 38.2656 56.0207 38.9123 54.9903 39.9507ZM60.7828 45.6984C60.3409 46.1437 59.7295 46.4207 59.0537 46.4233C58.3992 46.4259 57.7834 46.1735 57.3187 45.7123C56.8544 45.2516 56.5968 44.6373 56.5942 43.9828C56.5894 42.6327 57.6837 41.529 59.0352 41.5228C59.6897 41.5203 60.306 41.7732 60.7703 42.2339C61.235 42.695 61.4922 43.3088 61.4943 43.9629C61.4973 44.6391 61.2246 45.2531 60.7828 45.6984Z" fill="#9F9F9F"/>
<path d="M66.0343 34.2317C65.3105 34.7691 65.1595 35.791 65.6969 36.5148C66.2342 37.2386 67.2561 37.3896 67.9799 36.8522C69.0648 36.0467 70.6027 36.2741 71.4082 37.359C71.9456 38.0827 72.9675 38.2338 73.6913 37.6964C74.415 37.159 74.5661 36.1371 74.0287 35.4133C72.1504 32.8835 68.5647 32.353 66.0343 34.2317Z" fill="#9F9F9F"/>
<path d="M77.8582 23.4185C77.4167 24.3563 77.3319 25.4626 77.7102 26.5129C78.466 28.6136 80.7899 29.7077 82.8906 28.9518C84.9922 28.1963 86.0858 25.8722 85.3295 23.7713C84.5737 21.6706 82.2498 20.5765 80.1491 21.3324C79.098 21.7103 78.2999 22.4803 77.8582 23.4185ZM83.0897 25.8814C82.9004 26.2836 82.5579 26.6137 82.1073 26.7758C81.2064 27.0996 80.21 26.6305 79.8856 25.7298C79.5618 24.8289 80.0309 23.8325 80.9315 23.508C81.8324 23.1842 82.8289 23.6533 83.1533 24.554C83.315 25.0044 83.279 25.4793 83.0897 25.8814Z" fill="#9F9F9F"/>
<path d="M68.3779 25.1188C67.9362 26.057 67.8516 27.1629 68.2297 28.2136C68.5956 29.2314 69.3366 30.0455 70.3146 30.5059C71.2934 30.9668 72.3927 31.0186 73.4102 30.6525C75.5107 29.896 76.6051 27.5723 75.8486 25.4718C75.483 24.4546 74.7422 23.6401 73.7638 23.1795C72.7853 22.7188 71.6862 22.6666 70.6686 23.0331C69.6181 23.4107 68.8194 24.1809 68.3779 25.1188ZM73.6094 27.5817C73.4201 27.9839 73.0776 28.3139 72.627 28.476C72.1906 28.6331 71.7196 28.6107 71.2998 28.4131C70.8805 28.2157 70.5627 27.8667 70.4057 27.4303C70.0821 26.53 70.5508 25.5334 71.4517 25.2085C71.8881 25.0515 72.3595 25.0741 72.7789 25.2715C73.1986 25.4691 73.516 25.8179 73.6726 26.2541C73.8351 26.7048 73.7988 27.1795 73.6094 27.5817Z" fill="#9F9F9F"/>
<path d="M74.3945 18.6794C74.0387 19.2099 74.1804 19.9281 74.711 20.2838C75.2415 20.6395 75.9597 20.4979 76.3154 19.9673C76.8486 19.172 77.9293 18.9588 78.7246 19.4921C79.2552 19.8478 79.9733 19.7061 80.329 19.1756C80.6848 18.645 80.5431 17.9268 80.0125 17.5711C78.1581 16.3278 75.6381 16.8245 74.3945 18.6794Z" fill="#9F9F9F"/>
<path d="M79.3173 65.973C78.3548 65.5884 77.2454 65.5699 76.2196 66.0102C74.1678 66.8902 73.2145 69.2753 74.0946 71.3271C74.9743 73.3798 77.3596 74.3326 79.4115 73.4521C81.4633 72.5721 82.4166 70.187 81.5365 68.1352C81.0965 67.1086 80.2803 66.3579 79.3173 65.973ZM77.1714 71.3424C76.7586 71.1774 76.4087 70.8552 76.2199 70.4152C75.8428 69.5352 76.2516 68.5126 77.1313 68.1349C78.0112 67.7578 79.0339 68.1666 79.4115 69.0463C79.7886 69.9262 79.3799 70.9489 78.5002 71.3265C78.0603 71.5149 77.5841 71.5074 77.1714 71.3424Z" fill="#9F9F9F"/>
<path d="M77.0536 56.6113C76.0906 56.2265 74.9817 56.2081 73.9555 56.6483C72.9613 57.0743 72.193 57.8626 71.7918 58.8664C71.3903 59.871 71.4043 60.9715 71.8305 61.9652C72.7111 64.0168 75.096 64.9704 77.1476 64.0898C78.1412 63.664 78.9099 62.8759 79.3113 61.8717C79.7126 60.8675 79.6991 59.7672 79.2724 58.7733C78.8327 57.7472 78.0161 56.996 77.0536 56.6113ZM74.9077 61.9807C74.4949 61.8157 74.145 61.4935 73.9562 61.0535C73.7734 60.6272 73.7676 60.1557 73.9398 59.7249C74.1118 59.2945 74.4412 58.9564 74.8674 58.7736C75.7468 58.3968 76.7696 58.8051 77.1477 59.685C77.3305 60.1112 77.3361 60.5832 77.1641 61.0135C76.992 61.4443 76.6627 61.782 76.2367 61.9644C75.7965 62.1536 75.3204 62.1456 74.9077 61.9807Z" fill="#9F9F9F"/>
<path d="M83.841 62.2323C83.2901 61.909 82.5817 62.0933 82.2584 62.6441C81.935 63.195 82.1193 63.9034 82.6702 64.2268C83.4959 64.7115 83.7733 65.7776 83.2885 66.6033C82.9651 67.1542 83.1495 67.8626 83.7003 68.186C84.2512 68.5093 84.9596 68.325 85.283 67.7742C86.4133 65.8487 85.7668 63.3629 83.841 62.2323Z" fill="#9F9F9F"/>
<path d="M42.4618 124.545C41.4993 124.16 40.3899 124.142 39.3641 124.582C37.3123 125.462 36.3591 127.847 37.2391 129.899C38.1188 131.952 40.5041 132.905 42.5561 132.024C44.6079 131.144 45.5611 128.759 44.6811 126.707C44.2411 125.681 43.4248 124.93 42.4618 124.545ZM40.3159 129.914C39.9031 129.749 39.5532 129.427 39.3644 128.987C38.9874 128.107 39.3961 127.085 40.2758 126.707C41.1557 126.33 42.1784 126.739 42.5561 127.618C42.9331 128.498 42.5244 129.521 41.6447 129.899C41.2048 130.087 40.7287 130.079 40.3159 129.914Z" fill="#9F9F9F"/>
<path d="M40.1981 115.183C39.2352 114.798 38.1262 114.78 37.1 115.22C36.1058 115.646 35.3375 116.435 34.9363 117.438C34.5348 118.443 34.5488 119.543 34.975 120.537C35.8557 122.589 38.2406 123.542 40.2921 122.662C41.2857 122.236 42.0545 121.448 42.4558 120.444C42.8571 119.439 42.8436 118.339 42.4169 117.345C41.9772 116.319 41.1607 115.568 40.1981 115.183ZM38.0522 120.553C37.6394 120.388 37.2895 120.065 37.1008 119.625C36.9179 119.199 36.9121 118.728 37.0843 118.297C37.2563 117.866 37.5857 117.528 38.0119 117.346C38.8913 116.969 39.9141 117.377 40.2922 118.257C40.475 118.683 40.4807 119.155 40.3087 119.586C40.1365 120.016 39.8073 120.354 39.3812 120.536C38.941 120.726 38.465 120.718 38.0522 120.553Z" fill="#9F9F9F"/>
<path d="M46.9855 120.804C46.4347 120.481 45.7263 120.665 45.4029 121.216C45.0795 121.767 45.2638 122.475 45.8147 122.799C46.6404 123.283 46.9178 124.35 46.4331 125.175C46.1097 125.726 46.294 126.435 46.8449 126.758C47.3957 127.081 48.1041 126.897 48.4275 126.346C49.5578 124.421 48.9114 121.935 46.9855 120.804Z" fill="#9F9F9F"/>
<path d="M108.336 85.453C107.651 86.2311 107.262 87.2702 107.333 88.3842C107.475 90.6123 109.403 92.3094 111.631 92.1675C113.86 92.0262 115.557 90.0979 115.415 87.8696C115.273 85.6415 113.345 83.9444 111.117 84.0863C110.002 84.157 109.021 84.6746 108.336 85.453ZM112.676 89.2736C112.383 89.6073 111.962 89.8291 111.484 89.8595C110.528 89.92 109.702 89.1923 109.641 88.237C109.58 87.2815 110.308 86.4549 111.263 86.3937C112.219 86.3332 113.045 87.0609 113.106 88.0162C113.137 88.4938 112.97 88.94 112.676 89.2736Z" fill="#9F9F9F"/>
<path d="M98.7568 84.45C98.0716 85.2284 97.6829 86.2671 97.7538 87.3815C97.8222 88.461 98.3076 89.449 99.119 90.1632C99.9311 90.878 100.973 91.2335 102.052 91.1648C104.28 91.0222 105.977 89.0946 105.835 86.8665C105.766 85.7877 105.281 84.7994 104.47 84.0848C103.658 83.3703 102.617 83.0145 101.537 83.0836C100.423 83.1542 99.4417 83.6719 98.7568 84.45ZM103.097 88.2705C102.803 88.6042 102.383 88.826 101.905 88.8564C101.442 88.8859 100.996 88.7334 100.647 88.4269C100.3 88.1206 100.091 87.697 100.062 87.2342C100.001 86.2794 100.729 85.4524 101.684 85.3909C102.147 85.3614 102.594 85.5142 102.942 85.8205C103.29 86.127 103.498 86.5503 103.527 87.0129C103.558 87.491 103.391 87.9369 103.097 88.2705Z" fill="#9F9F9F"/>
<path d="M106.327 79.9376C105.837 80.3484 105.774 81.0776 106.185 81.5668C106.595 82.056 107.324 82.1196 107.814 81.7089C108.547 81.0933 109.644 81.1891 110.26 81.9224C110.671 82.4116 111.4 82.4752 111.889 82.0645C112.378 81.6538 112.442 80.9246 112.031 80.4354C110.596 78.7253 108.037 78.5018 106.327 79.9376Z" fill="#9F9F9F"/>
<path d="M121.918 32.8895C121.439 33.4339 121.167 34.1609 121.217 34.9403C121.316 36.4992 122.665 37.6865 124.224 37.5872C125.783 37.4884 126.97 36.1393 126.871 34.5802C126.772 33.0214 125.423 31.834 123.864 31.9333C123.084 31.9827 122.398 32.3449 121.918 32.8895ZM124.955 35.5626C124.75 35.796 124.455 35.9512 124.121 35.9725C123.452 36.0148 122.874 35.5057 122.831 34.8373C122.789 34.1688 123.298 33.5904 123.966 33.5476C124.635 33.5053 125.213 34.0144 125.256 34.6828C125.277 35.017 125.161 35.3291 124.955 35.5626Z" fill="#9F9F9F"/>
<path d="M115.216 32.1877C114.737 32.7323 114.465 33.4591 114.515 34.2388C114.563 34.994 114.902 35.6852 115.47 36.1849C116.038 36.6851 116.767 36.9338 117.522 36.8857C119.081 36.786 120.268 35.4373 120.168 33.8785C120.121 33.1237 119.781 32.4322 119.213 31.9323C118.645 31.4324 117.917 31.1834 117.162 31.2317C116.382 31.2812 115.696 31.6434 115.216 32.1877ZM118.253 34.8608C118.048 35.0942 117.753 35.2494 117.419 35.2707C117.095 35.2913 116.783 35.1846 116.539 34.9701C116.296 34.7559 116.15 34.4595 116.129 34.1357C116.087 33.4677 116.596 32.8891 117.265 32.8461C117.589 32.8254 117.901 32.9323 118.144 33.1466C118.388 33.3611 118.533 33.6572 118.554 33.9808C118.575 34.3154 118.459 34.6273 118.253 34.8608Z" fill="#9F9F9F"/>
<path d="M120.513 29.0308C120.17 29.3181 120.126 29.8283 120.413 30.1706C120.701 30.5129 121.211 30.5574 121.553 30.27C122.066 29.8393 122.834 29.9063 123.265 30.4194C123.552 30.7616 124.062 30.8062 124.404 30.5188C124.747 30.2314 124.791 29.7213 124.504 29.379C123.499 28.1826 121.709 28.0262 120.513 29.0308Z" fill="#9F9F9F"/>
<path d="M112.232 25.736C111.753 26.2803 111.481 27.0074 111.53 27.7868C111.63 29.3456 112.979 30.533 114.537 30.4337C116.097 30.3348 117.284 28.9857 117.184 27.4267C117.085 25.8678 115.736 24.6805 114.177 24.7797C113.398 24.8292 112.711 25.1914 112.232 25.736ZM115.269 28.409C115.063 28.6424 114.769 28.7976 114.434 28.8189C113.766 28.8613 113.188 28.3521 113.145 27.6837C113.102 27.0153 113.612 26.4369 114.28 26.3941C114.948 26.3518 115.527 26.8609 115.57 27.5293C115.591 27.8634 115.474 28.1756 115.269 28.409Z" fill="#9F9F9F"/>
<path d="M105.53 25.0342C105.051 25.5788 104.779 26.3056 104.828 27.0852C104.876 27.8404 105.216 28.5317 105.783 29.0314C106.352 29.5315 107.08 29.7802 107.835 29.7321C109.394 29.6324 110.582 28.2837 110.482 26.7249C110.434 25.9701 110.095 25.2786 109.527 24.7787C108.959 24.2788 108.23 24.0299 107.475 24.0782C106.696 24.1276 106.009 24.4898 105.53 25.0342ZM108.567 27.7072C108.361 27.9407 108.067 28.0958 107.732 28.1171C107.409 28.1377 107.096 28.0311 106.853 27.8166C106.609 27.6023 106.464 27.306 106.443 26.9821C106.401 26.3141 106.91 25.7356 107.578 25.6925C107.902 25.6719 108.215 25.7788 108.458 25.993C108.702 26.2075 108.847 26.5037 108.867 26.8273C108.889 27.1618 108.772 27.4738 108.567 27.7072Z" fill="#9F9F9F"/>
<path d="M110.826 21.8772C110.484 22.1646 110.439 22.6747 110.727 23.017C111.014 23.3593 111.524 23.4038 111.867 23.1165C112.38 22.6858 113.147 22.7527 113.578 23.2658C113.865 23.6081 114.376 23.6526 114.718 23.3653C115.06 23.0779 115.105 22.5677 114.817 22.2254C113.813 21.029 112.023 20.8726 110.826 21.8772Z" fill="#9F9F9F"/>
<path d="M132.001 126.458C131.039 126.073 129.93 126.054 128.904 126.495C126.852 127.375 125.899 129.76 126.779 131.812C127.658 133.864 130.044 134.817 132.096 133.937C134.147 133.057 135.101 130.672 134.221 128.62C133.781 127.593 132.964 126.842 132.001 126.458ZM129.856 131.827C129.443 131.662 129.093 131.34 128.904 130.9C128.527 130.02 128.936 128.997 129.815 128.619C130.695 128.242 131.718 128.651 132.096 129.531C132.473 130.411 132.064 131.433 131.184 131.811C130.744 131.999 130.268 131.992 129.856 131.827Z" fill="#9F9F9F"/>
<path d="M129.738 117.096C128.775 116.711 127.666 116.693 126.64 117.133C125.645 117.559 124.877 118.347 124.476 119.351C124.074 120.356 124.088 121.456 124.515 122.45C125.395 124.501 127.78 125.455 129.832 124.574C130.825 124.149 131.594 123.36 131.995 122.356C132.397 121.352 132.383 120.252 131.957 119.258C131.517 118.232 130.7 117.481 129.738 117.096ZM127.592 122.465C127.179 122.3 126.829 121.978 126.64 121.538C126.458 121.112 126.452 120.64 126.624 120.209C126.796 119.779 127.125 119.441 127.552 119.258C128.431 118.881 129.454 119.29 129.832 120.17C130.015 120.596 130.02 121.068 129.848 121.498C129.676 121.929 129.347 122.267 128.921 122.449C128.481 122.638 128.005 122.63 127.592 122.465Z" fill="#9F9F9F"/>
<path d="M136.525 122.717C135.974 122.393 135.266 122.578 134.942 123.129C134.619 123.68 134.803 124.388 135.354 124.711C136.18 125.196 136.457 126.262 135.973 127.088C135.649 127.639 135.834 128.347 136.384 128.67C136.935 128.994 137.644 128.81 137.967 128.259C139.097 126.333 138.451 123.847 136.525 122.717Z" fill="#9F9F9F"/>
<path d="M99.5873 145.466C98.6247 145.081 97.5153 145.063 96.4895 145.503C94.4377 146.383 93.4845 148.768 94.3645 150.82C95.2443 152.873 97.6295 153.826 99.6815 152.945C101.733 152.065 102.687 149.68 101.806 147.628C101.367 146.602 100.55 145.851 99.5873 145.466ZM97.4413 150.835C97.0286 150.67 96.6786 150.348 96.4899 149.908C96.1128 149.028 96.5215 148.006 97.4012 147.628C98.2812 147.251 99.3038 147.66 99.6815 148.539C100.059 149.419 99.6498 150.442 98.7702 150.819C98.3303 151.008 97.8541 151 97.4413 150.835Z" fill="#9F9F9F"/>
<path d="M97.3236 136.104C96.3606 135.719 95.2516 135.701 94.2254 136.141C93.2313 136.567 92.4629 137.356 92.0618 138.359C91.6602 139.364 91.6742 140.464 92.1004 141.458C92.9811 143.51 95.366 144.463 97.4175 143.583C98.4111 143.157 99.1799 142.369 99.5812 141.365C99.9826 140.36 99.969 139.26 99.5424 138.266C99.1026 137.24 98.2861 136.489 97.3236 136.104ZM95.1776 141.474C94.7649 141.309 94.4149 140.986 94.2262 140.546C94.0434 140.12 94.0376 139.649 94.2097 139.218C94.3817 138.787 94.7111 138.449 95.1374 138.267C96.0167 137.89 97.0396 138.298 97.4176 139.178C97.6005 139.604 97.6061 140.076 97.4341 140.506C97.2619 140.937 96.9327 141.275 96.5066 141.457C96.0664 141.646 95.5904 141.639 95.1776 141.474Z" fill="#9F9F9F"/>
<path d="M104.111 141.725C103.56 141.402 102.852 141.586 102.528 142.137C102.205 142.688 102.389 143.396 102.94 143.72C103.766 144.204 104.043 145.271 103.558 146.096C103.235 146.647 103.419 147.356 103.97 147.679C104.521 148.002 105.23 147.818 105.553 147.267C106.683 145.342 106.037 142.856 104.111 141.725Z" fill="#9F9F9F"/>
<path d="M39.84 95.6638C38.8774 95.2791 37.768 95.2606 36.7423 95.7009C34.6905 96.581 33.7372 98.9661 34.6173 101.018C35.497 103.071 37.8822 104.023 39.9342 103.143C41.986 102.263 42.9393 99.8777 42.0592 97.8259C41.6192 96.7993 40.8029 96.0486 39.84 95.6638ZM37.694 101.033C37.2813 100.868 36.9313 100.546 36.7426 100.106C36.3655 99.226 36.7742 98.2033 37.6539 97.8256C38.5339 97.4486 39.5566 97.8573 39.9342 98.737C40.3113 99.6169 39.9026 100.64 39.0229 101.017C38.583 101.206 38.1068 101.198 37.694 101.033Z" fill="#9F9F9F"/>
<path d="M37.5763 86.3021C36.6133 85.9172 35.5044 85.8989 34.4781 86.339C33.484 86.7651 32.7156 87.5534 32.3145 88.5571C31.913 89.5618 31.9269 90.6622 32.3532 91.656C33.2338 93.7075 35.6187 94.6612 37.6703 93.7805C38.6638 93.3547 39.4326 92.5666 39.8339 91.5624C40.2353 90.5582 40.2217 89.4579 39.7951 88.464C39.3554 87.438 38.5388 86.6867 37.5763 86.3021ZM35.4303 91.6714C35.0176 91.5064 34.6676 91.1843 34.4789 90.7442C34.2961 90.318 34.2903 89.8464 34.4625 89.4156C34.6345 88.9852 34.9638 88.6472 35.3901 88.4643C36.2694 88.0875 37.2923 88.4958 37.6704 89.3757C37.8532 89.8019 37.8588 90.2739 37.6868 90.7043C37.5146 91.1351 37.1854 91.4727 36.7594 91.6551C36.3191 91.8443 35.8431 91.8364 35.4303 91.6714Z" fill="#9F9F9F"/>
<path d="M44.3637 91.9231C43.8128 91.5997 43.1044 91.784 42.781 92.3349C42.4576 92.8857 42.642 93.5941 43.1928 93.9175C44.0185 94.4023 44.2959 95.4683 43.8112 96.294C43.4878 96.8449 43.6721 97.5533 44.223 97.8767C44.7739 98.2001 45.4823 98.0158 45.8056 97.4649C46.936 95.5394 46.2895 93.0537 44.3637 91.9231Z" fill="#9F9F9F"/>
<path d="M130.968 78.8298C130.22 78.5306 129.357 78.5162 128.559 78.8586C126.963 79.5431 126.222 81.398 126.906 82.9937C127.591 84.5901 129.446 85.3311 131.042 84.6463C132.637 83.9619 133.379 82.107 132.694 80.5113C132.352 79.7129 131.717 79.1291 130.968 78.8298ZM129.299 83.0056C128.978 82.8773 128.706 82.6267 128.559 82.2845C128.266 81.6001 128.584 80.8048 129.268 80.5111C129.952 80.2178 130.748 80.5357 131.042 81.2198C131.335 81.9042 131.017 82.6995 130.333 82.9933C129.991 83.1397 129.62 83.1339 129.299 83.0056Z" fill="#9F9F9F"/>
<path d="M129.208 71.549C128.459 71.2497 127.596 71.2354 126.798 71.5777C126.025 71.9091 125.428 72.5221 125.116 73.3028C124.803 74.0841 124.814 74.9399 125.146 75.7128C125.831 77.3083 127.685 78.05 129.281 77.3651C130.054 77.0339 130.651 76.421 130.964 75.64C131.276 74.8591 131.265 74.0033 130.933 73.2304C130.591 72.4324 129.956 71.8482 129.208 71.549ZM127.539 75.7248C127.218 75.5965 126.946 75.3459 126.799 75.0037C126.657 74.6722 126.652 74.3055 126.786 73.9704C126.92 73.6357 127.176 73.3728 127.508 73.2306C128.191 72.9376 128.987 73.2551 129.281 73.9394C129.423 74.2709 129.427 74.6379 129.294 74.9727C129.16 75.3077 128.904 75.5703 128.572 75.7121C128.23 75.8593 127.86 75.8531 127.539 75.7248Z" fill="#9F9F9F"/>
<path d="M134.486 75.9206C134.058 75.6691 133.507 75.8124 133.256 76.2408C133.004 76.6692 133.147 77.2202 133.576 77.4717C134.218 77.8487 134.434 78.6778 134.057 79.3199C133.805 79.7483 133.949 80.2993 134.377 80.5508C134.805 80.8023 135.356 80.6589 135.608 80.2305C136.487 78.7331 135.984 76.7998 134.486 75.9206Z" fill="#9F9F9F"/>
<circle cx="87" cy="87" r="79" transform="rotate(-5.18718 87 87)" stroke="#9F9F9F" stroke-width="2"/>
<circle cx="87" cy="87" r="73" transform="rotate(-5.18718 87 87)" stroke="#9F9F9F" stroke-width="2"/>
<line x1="89.4265" y1="13.033" x2="86.5731" y2="161.006" stroke="#9F9F9F" stroke-width="2"/>
<line x1="24.035" y1="48.1103" x2="150.993" y2="124.174" stroke="#9F9F9F" stroke-width="2"/>
<line x1="20.0199" y1="118.475" x2="153.105" y2="53.7266" stroke="#9F9F9F" stroke-width="2"/>
</svg>
