<svg width="120" height="120" viewBox="0 0 120 120" fill="none" xmlns="http://www.w3.org/2000/svg">
<circle cx="60" cy="60" r="59" stroke="#9F9F9F" stroke-width="2"/>
<path d="M71.5108 44.0078C70.4331 44.7991 69.0538 45.1805 67.6307 44.962C64.7843 44.5258 62.8236 41.8555 63.2598 39.0091C63.6953 36.1618 66.366 34.2016 69.2127 34.6383C72.0591 35.0744 74.0198 37.7448 73.5836 40.5912C73.3658 42.0152 72.5889 43.2162 71.5108 44.0078ZM67.0969 37.9963C66.6347 38.3356 66.3018 38.8509 66.2083 39.4614C66.0216 40.6819 66.8623 41.8269 68.0828 42.0144C69.3034 42.201 70.4484 41.3603 70.6358 40.1399C70.8224 38.9193 69.9817 37.7743 68.7613 37.5868C68.1512 37.4938 67.559 37.6569 67.0969 37.9963Z" fill="#9F9F9F"/>
<path d="M71.708 56.429C70.6298 57.2206 69.251 57.6017 67.8274 57.3835C66.4483 57.1726 65.2343 56.4365 64.4091 55.3126C63.5833 54.1879 63.2453 52.8092 63.4565 51.4307C63.8936 48.5844 66.5636 46.6233 69.4098 47.0603C70.788 47.2711 72.0025 48.0069 72.828 49.1312C73.6535 50.2555 73.992 51.6338 73.7803 53.0127C73.5626 54.4359 72.7856 55.6378 71.708 56.429ZM67.294 50.4175C66.8319 50.7568 66.499 51.2721 66.4055 51.8826C66.3148 52.4738 66.4599 53.0645 66.8141 53.5469C67.1678 54.0287 67.6883 54.3445 68.2796 54.4351C69.4994 54.6216 70.6447 53.7814 70.8327 52.5606C70.9233 51.9693 70.7779 51.3781 70.4241 50.8963C70.0699 50.4139 69.5498 50.0986 68.9588 50.0085C68.348 49.9145 67.7562 50.0781 67.294 50.4175Z" fill="#9F9F9F"/>
<path d="M78.3677 47.2176C77.7843 47.7994 76.8402 47.798 76.2585 47.2146C75.6767 46.6312 75.6781 45.6871 76.2615 45.1054C77.136 44.2334 77.138 42.8126 76.266 41.9381C75.6843 41.3547 75.6856 40.4106 76.2691 39.8288C76.8525 39.2471 77.7966 39.2484 78.3783 39.8318C80.4117 41.871 80.4074 45.1839 78.3677 47.2176Z" fill="#9F9F9F"/>
<path d="M82.161 34.6096C81.6206 34.6096 81.08 34.4039 80.6686 33.9922C79.8455 33.1692 79.8455 31.8301 80.6686 31.0071C81.4916 30.1836 82.8307 30.1839 83.6537 31.0071C84.4767 31.8301 84.4767 33.1692 83.6537 33.9922C83.2421 34.4041 82.7017 34.6096 82.161 34.6096ZM82.161 31.595C81.9293 31.595 81.6975 31.6833 81.521 31.8598C81.1682 32.2128 81.1682 32.787 81.521 33.14C81.874 33.4928 82.4482 33.4928 82.8012 33.14C83.154 32.787 83.154 32.2128 82.8012 31.8598C82.6247 31.6835 82.3927 31.595 82.161 31.595Z" fill="#9F9F9F"/>
<path d="M79.2538 38.7037C78.7132 38.7037 78.1728 38.498 77.7611 38.0864C77.3623 37.6878 77.1429 37.1575 77.1429 36.5939C77.1429 36.0299 77.3625 35.4999 77.7611 35.1012C78.5844 34.2785 79.9235 34.2782 80.7463 35.1015C81.1449 35.4999 81.3646 36.0301 81.3646 36.5939C81.3646 37.1577 81.1451 37.6878 80.7463 38.0864C80.3349 38.498 79.7942 38.7037 79.2538 38.7037ZM79.2538 35.6892C79.0221 35.6892 78.7903 35.7774 78.6138 35.9539C78.4429 36.1249 78.3488 36.3521 78.3488 36.5939C78.3488 36.8356 78.4429 37.0629 78.6138 37.2339C78.9666 37.5865 79.5408 37.5867 79.8941 37.2339C80.065 37.0629 80.1591 36.8356 80.1591 36.5939C80.1591 36.3521 80.065 36.1249 79.8941 35.9542C79.7175 35.7774 79.4856 35.6892 79.2538 35.6892Z" fill="#9F9F9F"/>
<path d="M83.6272 37.2957C83.298 37.3457 82.9907 37.1194 82.9407 36.7902C82.8908 36.4609 83.1171 36.1536 83.4463 36.1037C83.9398 36.0288 84.2804 35.5663 84.2055 35.0728C84.1555 34.7436 84.3818 34.4363 84.711 34.3863C85.0403 34.3364 85.3476 34.5626 85.3975 34.8919C85.5722 36.0427 84.7783 37.121 83.6272 37.2957Z" fill="#9F9F9F"/>
<path d="M85.7046 50.719C85.3613 51.5069 84.7179 52.1646 83.8564 52.5029C82.1335 53.1801 80.181 52.3295 79.5038 50.6066C78.8259 48.8834 79.6769 46.9311 81.4001 46.254C83.123 45.5768 85.0755 46.4275 85.7527 48.1503C86.0918 49.0122 86.048 49.9307 85.7046 50.719ZM81.3091 48.8039C81.1619 49.1418 81.1434 49.5358 81.2886 49.9053C81.5793 50.644 82.4164 51.0087 83.1553 50.7186C83.894 50.428 84.2587 49.5908 83.9686 48.8519C83.678 48.1132 82.8408 47.7485 82.1019 48.0386C81.7327 48.184 81.4563 48.466 81.3091 48.8039Z" fill="#9F9F9F"/>
<path d="M89.8274 57.5587C89.484 58.347 88.8407 59.0043 87.979 59.343C87.1445 59.6714 86.2319 59.6544 85.4102 59.2964C84.5877 58.9381 83.9545 58.2811 83.6265 57.4467C82.9498 55.7236 83.8001 53.7709 85.5232 53.0942C86.3572 52.7661 87.27 52.7826 88.0921 53.1408C88.9141 53.499 89.5476 54.1556 89.8754 54.9904C90.2142 55.8518 90.1707 56.7708 89.8274 57.5587ZM85.4319 55.6437C85.2847 55.9816 85.2662 56.3755 85.4114 56.7451C85.5521 57.103 85.8236 57.3844 86.1763 57.538C86.5286 57.6915 86.9199 57.6989 87.2778 57.5582C88.016 57.2677 88.3811 56.4307 88.0911 55.6915C87.9504 55.3336 87.6786 55.052 87.3263 54.8985C86.9736 54.7449 86.5826 54.7377 86.2251 54.8785C85.8552 55.0236 85.5792 55.3058 85.4319 55.6437Z" fill="#9F9F9F"/>
<path d="M90.5527 50.2875C90.4164 50.7993 89.8913 51.1036 89.3794 50.9673C88.8676 50.831 88.5633 50.3058 88.6996 49.794C88.9039 49.0268 88.446 48.2365 87.6788 48.0322C87.167 47.8959 86.8627 47.3708 86.999 46.859C87.1353 46.3471 87.6605 46.0429 88.1723 46.1791C89.9613 46.6555 91.0292 48.4982 90.5527 50.2875Z" fill="#9F9F9F"/>
<path d="M102.239 53.2384C101.408 53.2384 100.577 52.9223 99.9451 52.2898C98.6803 51.0249 98.6803 48.9671 99.9451 47.7023C101.21 46.4367 103.268 46.4371 104.533 47.7023C105.797 48.9671 105.797 51.0249 104.533 52.2898C103.9 52.9227 103.07 53.2384 102.239 53.2384ZM102.239 48.6058C101.883 48.6058 101.526 48.7414 101.255 49.0127C100.713 49.5552 100.713 50.4376 101.255 50.9801C101.798 51.5223 102.68 51.5223 103.223 50.9801C103.765 50.4376 103.765 49.5552 103.223 49.0127C102.951 48.7418 102.595 48.6058 102.239 48.6058Z" fill="#9F9F9F"/>
<path d="M97.771 59.5302C96.9401 59.5302 96.1097 59.2141 95.4771 58.5815C94.8641 57.9689 94.5269 57.154 94.5269 56.288C94.5269 55.4212 94.8645 54.6066 95.4771 53.994C96.7422 52.7296 98.8001 52.7292 100.065 53.9944C100.677 54.6066 101.015 55.4215 101.015 56.288C101.015 57.1544 100.677 57.9689 100.065 58.5815C99.4323 59.2141 98.6015 59.5302 97.771 59.5302ZM97.771 54.8975C97.4149 54.8975 97.0587 55.0332 96.7874 55.3044C96.5247 55.5672 96.3802 55.9163 96.3802 56.288C96.3802 56.6593 96.5247 57.0087 96.7874 57.2715C97.3296 57.8133 98.212 57.8137 98.7549 57.2715C99.0176 57.0087 99.1622 56.6593 99.1622 56.288C99.1622 55.9163 99.0176 55.5672 98.7549 55.3048C98.4836 55.0332 98.1271 54.8975 97.771 54.8975Z" fill="#9F9F9F"/>
<path d="M104.492 57.3665C103.986 57.4433 103.514 57.0955 103.437 56.5895C103.36 56.0835 103.708 55.6113 104.214 55.5345C104.972 55.4194 105.496 54.7088 105.381 53.9503C105.304 53.4443 105.652 52.9721 106.158 52.8953C106.663 52.8185 107.136 53.1663 107.212 53.6723C107.481 55.4408 106.261 57.098 104.492 57.3665Z" fill="#9F9F9F"/>
<path d="M95.8107 35.2065C94.5951 35.2065 93.379 34.7439 92.4537 33.818C90.6024 31.9667 90.6024 28.9547 92.4537 27.1034C94.3049 25.2511 97.317 25.2516 99.1682 27.1034C101.019 28.9547 101.019 31.9667 99.1682 33.818C98.2423 34.7444 97.0268 35.2065 95.8107 35.2065ZM95.8107 28.4258C95.2894 28.4258 94.7682 28.6243 94.3711 29.0214C93.5776 29.8155 93.5776 31.107 94.3711 31.9011C95.1652 32.6946 96.4567 32.6946 97.2508 31.9011C98.0443 31.107 98.0443 29.8155 97.2508 29.0214C96.8537 28.6249 96.3319 28.4258 95.8107 28.4258Z" fill="#9F9F9F"/>
<path d="M89.2714 44.4156C88.0553 44.4156 86.8398 43.9529 85.9139 43.027C85.0167 42.1304 84.5231 40.9377 84.5231 39.67C84.5231 38.4013 85.0172 37.2091 85.9139 36.3125C87.7657 34.4618 90.7777 34.4612 92.6284 36.313C93.525 37.2091 94.0192 38.4019 94.0192 39.67C94.0192 40.9382 93.5256 42.1304 92.6284 43.027C91.703 43.9529 90.487 44.4156 89.2714 44.4156ZM89.2714 37.6349C88.7501 37.6349 88.2289 37.8334 87.8318 38.2305C87.4473 38.615 87.2357 39.126 87.2357 39.67C87.2357 40.2135 87.4473 40.725 87.8318 41.1096C88.6254 41.9026 89.9169 41.9032 90.7115 41.1096C91.0961 40.725 91.3076 40.2135 91.3076 39.67C91.3076 39.126 91.0961 38.615 90.7115 38.231C90.3145 37.8334 89.7927 37.6349 89.2714 37.6349Z" fill="#9F9F9F"/>
<path d="M99.1087 41.2486C98.3681 41.361 97.6769 40.852 97.5645 40.1114C97.4521 39.3708 97.9611 38.6796 98.7017 38.5672C99.8118 38.3987 100.578 37.3586 100.409 36.2485C100.297 35.5079 100.806 34.8167 101.547 34.7043C102.287 34.5919 102.978 35.1009 103.091 35.8415C103.484 38.4301 101.698 40.8556 99.1087 41.2486Z" fill="#9F9F9F"/>
<path d="M74.4594 24.466C74.4119 23.1299 74.873 21.7751 75.8546 20.7218C77.8172 18.6146 81.128 18.497 83.2352 20.4596C85.3435 22.4222 85.4606 25.733 83.4974 27.8402C81.5348 29.9473 78.224 30.065 76.1168 28.1024C75.0623 27.1208 74.5069 25.8027 74.4594 24.466ZM81.9127 24.2012C81.8923 23.6283 81.6538 23.0631 81.2018 22.6421C80.298 21.8009 78.8784 21.8513 78.0365 22.7546C77.1953 23.6584 77.2457 25.078 78.149 25.9199C79.0528 26.7611 80.4724 26.7107 81.3143 25.8074C81.7346 25.3555 81.933 24.7742 81.9127 24.2012Z" fill="#9F9F9F"/>
<path d="M64.0816 17.6378C64.0341 16.3011 64.4952 14.9469 65.4768 13.893C66.4273 12.8718 67.7191 12.2827 69.1124 12.2332C70.507 12.1837 71.8367 12.6803 72.8573 13.6308C74.9639 15.594 75.0821 18.9048 73.1189 21.0114C72.169 22.0319 70.8772 22.6216 69.4832 22.6712C68.0893 22.7207 66.7595 22.2247 65.7389 21.2735C64.6851 20.2926 64.129 18.9739 64.0816 17.6378ZM71.5348 17.373C71.5145 16.8001 71.2759 16.2348 70.824 15.8139C70.3862 15.4062 69.8164 15.1936 69.2183 15.2149C68.6209 15.2361 68.067 15.4886 67.6593 15.9263C66.8186 16.8296 66.8684 18.2492 67.7717 19.0916C68.2095 19.4993 68.7799 19.7119 69.3773 19.6907C69.9754 19.6694 70.5287 19.417 70.9358 18.9792C71.3574 18.5273 71.5552 17.946 71.5348 17.373Z" fill="#9F9F9F"/>
<path d="M67.9468 28.3271C67.7943 27.5174 68.3269 26.7378 69.1365 26.5853C69.9462 26.4329 70.7258 26.9654 70.8782 27.775C71.1068 28.9887 72.28 29.79 73.4936 29.5615C74.3033 29.409 75.0829 29.9415 75.2354 30.7512C75.3878 31.5608 74.8553 32.3404 74.0457 32.4929C71.2157 33.0259 68.4799 31.1577 67.9468 28.3271Z" fill="#9F9F9F"/>
<path d="M78.2566 80.5621C78.7372 79.495 79.6241 78.6105 80.8027 78.1642C83.1596 77.271 85.8036 78.4618 86.6968 80.8187C87.5909 83.1761 86.3997 85.8199 84.0423 86.7129C81.6853 87.606 79.0413 86.4153 78.1481 84.0583C77.7009 82.8793 77.7758 81.6296 78.2566 80.5621ZM84.2088 83.2428C84.4149 82.7852 84.4467 82.2491 84.2551 81.7436C83.8718 80.7331 82.7381 80.2225 81.7273 80.6052C80.7168 80.9885 80.2062 82.1222 80.5889 83.133C80.9722 84.1435 82.1059 84.6541 83.1167 84.2715C83.6217 84.0797 84.0027 83.7003 84.2088 83.2428Z" fill="#9F9F9F"/>
<path d="M72.758 71.1811C73.2387 70.1136 74.1254 69.2295 75.3042 68.7828C76.446 68.3497 77.6881 68.388 78.8009 68.8891C79.9146 69.3907 80.7658 70.2958 81.1984 71.4373C82.0909 73.7945 80.9006 76.4387 78.5434 77.3312C77.4023 77.764 76.1599 77.7262 75.0467 77.2249C73.9335 76.7235 73.0821 75.8189 72.6497 74.6769C72.2028 73.4986 72.2774 72.2482 72.758 71.1811ZM78.7102 73.8618C78.9162 73.4042 78.9481 72.8682 78.7565 72.3627C78.5709 71.8731 78.206 71.4854 77.7285 71.2703C77.2514 71.0554 76.7188 71.0389 76.2291 71.2244C75.2193 71.6075 74.7083 72.741 75.0907 73.7523C75.2762 74.2419 75.6416 74.6298 76.1187 74.8447C76.5963 75.0597 77.1284 75.0761 77.6176 74.8903C78.1235 74.6989 78.5041 74.3194 78.7102 73.8618Z" fill="#9F9F9F"/>
<path d="M71.6489 81.0684C71.8431 80.3738 72.5631 79.9684 73.2577 80.1625C73.9522 80.3566 74.3577 81.0767 74.1636 81.7712C73.8726 82.8122 74.4828 83.8959 75.5239 84.1868C76.2184 84.381 76.6239 85.101 76.4298 85.7956C76.2357 86.4901 75.5156 86.8956 74.8211 86.7015C72.3935 86.023 70.9703 83.4965 71.6489 81.0684Z" fill="#9F9F9F"/>
<path d="M42.4125 89.1335C42.893 88.0665 43.78 87.1819 44.9586 86.7356C47.3155 85.8425 49.9595 87.0332 50.8527 89.3902C51.7468 91.7475 50.5556 94.3913 48.1981 95.2843C45.8412 96.1775 43.1972 94.9867 42.304 92.6298C41.8568 91.4508 41.9317 90.201 42.4125 89.1335ZM48.3647 91.8142C48.5708 91.3566 48.6026 90.8206 48.411 90.3151C48.0277 89.3045 46.894 88.794 45.8832 89.1766C44.8727 89.56 44.3621 90.6937 44.7447 91.7044C45.1281 92.715 46.2618 93.2256 47.2726 92.8429C47.7776 92.6511 48.1586 92.2718 48.3647 91.8142Z" fill="#9F9F9F"/>
<path d="M36.9138 79.7526C37.3946 78.6851 38.2813 77.801 39.4601 77.3542C40.6019 76.9212 41.844 76.9594 42.9568 77.4606C44.0705 77.9621 44.9217 78.8672 45.3542 80.0087C46.2467 82.3659 45.0564 85.0102 42.6992 85.9027C41.5582 86.3355 40.3158 86.2977 39.2026 85.7963C38.0894 85.295 37.238 84.3903 36.8056 83.2483C36.3587 82.07 36.4333 80.8196 36.9138 79.7526ZM42.8661 82.4333C43.0721 81.9757 43.1039 81.4396 42.9124 80.9341C42.7268 80.4445 42.3619 80.0568 41.8844 79.8417C41.4073 79.6269 40.8746 79.6103 40.385 79.7959C39.3752 80.179 38.8641 81.3124 39.2466 82.3237C39.4321 82.8133 39.7975 83.2012 40.2746 83.4161C40.7522 83.6312 41.2843 83.6475 41.7734 83.4617C42.2794 83.2704 42.66 82.8908 42.8661 82.4333Z" fill="#9F9F9F"/>
<path d="M35.8048 89.6398C35.9989 88.9452 36.719 88.5397 37.4136 88.7339C38.1081 88.928 38.5136 89.648 38.3195 90.3426C38.0285 91.3836 38.6387 92.4673 39.6798 92.7582C40.3743 92.9523 40.7798 93.6724 40.5857 94.3669C40.3916 95.0615 39.6715 95.467 38.977 95.2728C36.5494 94.5944 35.1262 92.0679 35.8048 89.6398Z" fill="#9F9F9F"/>
<path d="M22.9072 49.115C21.7326 48.4763 20.3144 48.2844 18.9338 48.6928C16.1723 49.5089 14.5897 52.4193 15.4058 55.1809C16.2213 57.9434 19.132 59.5255 21.8938 58.7089C24.6553 57.8928 26.2379 54.9823 25.4218 52.2208C25.0139 50.8392 24.0822 49.7539 22.9072 49.115ZM19.3444 55.6669C18.8407 55.393 18.4413 54.9273 18.2663 54.3351C17.9168 53.1508 18.5953 51.9029 19.7794 51.5525C20.9636 51.203 22.2115 51.8816 22.5619 53.0656C22.9114 54.2498 22.2329 55.4978 21.0488 55.8481C20.4569 56.0226 19.8481 55.9408 19.3444 55.6669Z" fill="#9F9F9F"/>
<path d="M21.4272 36.7807C20.2522 36.1417 18.8345 35.9501 17.4534 36.3583C16.1154 36.7532 15.0117 37.6464 14.3457 38.8713C13.6791 40.0972 13.5301 41.5088 13.9254 42.8463C14.7423 45.6075 17.6524 47.1907 20.4137 46.3737C21.7508 45.979 22.855 45.0861 23.5213 43.8607C24.1877 42.6354 24.3372 41.224 23.9414 39.8863C23.5337 38.5054 22.6018 37.4193 21.4272 36.7807ZM17.8645 43.3326C17.3608 43.0587 16.9614 42.593 16.7864 42.0008C16.6168 41.4271 16.6809 40.8222 16.9668 40.2965C17.2523 39.7714 17.7255 39.3883 18.2991 39.2188C19.4826 38.8695 20.7308 39.5475 21.0817 40.7318C21.2512 41.3055 21.1869 41.9109 20.9013 42.436C20.6154 42.9617 20.1426 43.3443 19.5692 43.5133C18.9766 43.6889 18.3681 43.6065 17.8645 43.3326Z" fill="#9F9F9F"/>
<path d="M29.2686 45.0096C28.612 44.5118 27.6767 44.6405 27.179 45.2971C26.6812 45.9536 26.8099 46.8889 27.4665 47.3866C28.4506 48.1327 28.6442 49.5403 27.8982 50.5244C27.4004 51.1809 27.5291 52.1162 28.1856 52.6139C28.8422 53.1117 29.7775 52.983 30.2752 52.3265C32.015 50.0316 31.5639 46.7497 29.2686 45.0096Z" fill="#9F9F9F"/>
<path d="M37.4726 39.601C36.9371 39.6738 36.4291 39.9506 36.077 40.4139C35.3725 41.3404 35.5531 42.6673 36.4796 43.3718C37.4062 44.0767 38.733 43.8959 39.4375 42.9692C40.142 42.0426 39.9614 40.7158 39.0349 40.0113C38.5714 39.6587 38.0083 39.528 37.4726 39.601ZM37.8791 42.5879C37.6495 42.6192 37.408 42.563 37.2093 42.4119C36.8121 42.1097 36.7347 41.5408 37.0366 41.1434C37.3388 40.7462 37.9078 40.6687 38.3051 40.9707C38.7023 41.2729 38.7798 41.8418 38.4778 42.2392C38.3267 42.4377 38.1088 42.5567 37.8791 42.5879Z" fill="#9F9F9F"/>
<path d="M34.0397 35.9363C33.504 36.0092 32.9963 36.2859 32.644 36.7493C32.3025 37.1981 32.1566 37.7531 32.2326 38.3115C32.3087 38.8704 32.5979 39.366 33.0466 39.7072C33.9733 40.4114 35.3002 40.231 36.0044 39.3043C36.3456 38.8558 36.4918 38.3008 36.4157 37.7421C36.3397 37.1835 36.0508 36.6879 35.6018 36.3467C35.1387 35.9943 34.5752 35.8634 34.0397 35.9363ZM34.4463 38.9233C34.2167 38.9546 33.9752 38.8984 33.7765 38.7473C33.584 38.6009 33.4602 38.3885 33.4276 38.1489C33.395 37.9095 33.4575 37.6714 33.6038 37.479C33.9059 37.0821 34.4747 37.0044 34.8724 37.3063C35.0648 37.4527 35.1887 37.6653 35.2213 37.9047C35.2539 38.1444 35.1914 38.3821 35.045 38.5744C34.8939 38.7733 34.676 38.8921 34.4463 38.9233Z" fill="#9F9F9F"/>
<path d="M38.5631 36.7415C38.2301 36.7364 37.9562 37.0021 37.9511 37.3351C37.9459 37.6681 38.2116 37.942 38.5446 37.9471C39.0437 37.9548 39.4435 38.367 39.4359 38.8661C39.4307 39.1991 39.6964 39.4731 40.0294 39.4782C40.3624 39.4833 40.6363 39.2176 40.6414 38.8846C40.6593 37.7208 39.7272 36.7594 38.5631 36.7415Z" fill="#9F9F9F"/>
<path d="M85.005 93.3671C84.4695 93.44 83.9616 93.7167 83.6095 94.18C82.905 95.1066 83.0856 96.4334 84.0121 97.1379C84.9386 97.8429 86.2655 97.662 86.9699 96.7353C87.6744 95.8088 87.4938 94.4819 86.5673 93.7774C86.1039 93.4248 85.5407 93.2941 85.005 93.3671ZM85.4116 96.3541C85.182 96.3853 84.9404 96.3291 84.7417 96.178C84.3445 95.8758 84.2671 95.3069 84.569 94.9095C84.8713 94.5123 85.4402 94.4349 85.8376 94.7368C86.2348 95.039 86.3122 95.608 86.0103 96.0053C85.8591 96.2038 85.6412 96.3228 85.4116 96.3541Z" fill="#9F9F9F"/>
<path d="M81.5722 89.7026C81.0365 89.7755 80.5288 90.0522 80.1764 90.5156C79.835 90.9643 79.689 91.5194 79.7651 92.0778C79.8411 92.6366 80.1303 93.1322 80.579 93.4734C81.5057 94.1776 82.8326 93.9973 83.5368 93.0705C83.8781 92.6221 84.0242 92.067 83.9482 91.5084C83.8721 90.9497 83.5832 90.4541 83.1342 90.1129C82.6711 89.7606 82.1076 89.6297 81.5722 89.7026ZM81.9788 92.6895C81.7492 92.7208 81.5076 92.6646 81.3089 92.5135C81.1164 92.3672 80.9926 92.1548 80.96 91.9151C80.9274 91.6757 80.9899 91.4377 81.1363 91.2452C81.4383 90.8483 82.0072 90.7706 82.4048 91.0725C82.5973 91.2189 82.7211 91.4315 82.7537 91.6709C82.7863 91.9106 82.7238 92.1484 82.5774 92.3406C82.4263 92.5395 82.2084 92.6583 81.9788 92.6895Z" fill="#9F9F9F"/>
<path d="M86.0955 90.5077C85.7625 90.5026 85.4886 90.7683 85.4835 91.1013C85.4784 91.4342 85.7441 91.7082 86.077 91.7133C86.5761 91.7209 86.976 92.1332 86.9683 92.6323C86.9632 92.9653 87.2289 93.2392 87.5618 93.2444C87.8948 93.2495 88.1688 92.9838 88.1739 92.6508C88.1917 91.4869 87.2596 90.5256 86.0955 90.5077Z" fill="#9F9F9F"/>
<path d="M67.8621 68.4321C67.3267 68.505 66.8187 68.7817 66.4666 69.2451C65.7621 70.1716 65.9427 71.4984 66.8692 72.2029C67.7958 72.9079 69.1226 72.727 69.8271 71.8003C70.5316 70.8738 70.351 69.547 69.4244 68.8425C68.961 68.4899 68.3978 68.3592 67.8621 68.4321ZM68.2687 71.4191C68.0391 71.4503 67.7976 71.3942 67.5989 71.2431C67.2017 70.9408 67.1242 70.3719 67.4262 69.9745C67.7284 69.5773 68.2973 69.4999 68.6947 69.8018C69.0919 70.1041 69.1694 70.673 68.8674 71.0704C68.7163 71.2689 68.4983 71.3878 68.2687 71.4191Z" fill="#9F9F9F"/>
<path d="M64.4294 64.7674C63.8937 64.8404 63.3859 65.1171 63.0336 65.5804C62.6921 66.0292 62.5462 66.5842 62.6222 67.1426C62.6983 67.7015 62.9875 68.1971 63.4362 68.5383C64.3629 69.2425 65.6898 69.0621 66.394 68.1354C66.7352 67.6869 66.8814 67.1319 66.8054 66.5732C66.7293 66.0146 66.4404 65.519 65.9914 65.1778C65.5283 64.8254 64.9648 64.6945 64.4294 64.7674ZM64.8359 67.7544C64.6063 67.7857 64.3648 67.7295 64.1661 67.5784C63.9736 67.432 63.8498 67.2196 63.8172 66.98C63.7846 66.7406 63.8471 66.5026 63.9934 66.3101C64.2955 65.9132 64.8644 65.8355 65.262 66.1374C65.4545 66.2838 65.5783 66.4964 65.6109 66.7358C65.6435 66.9755 65.581 67.2132 65.4346 67.4055C65.2835 67.6044 65.0656 67.7232 64.8359 67.7544Z" fill="#9F9F9F"/>
<path d="M68.9527 65.5727C68.6197 65.5675 68.3457 65.8332 68.3406 66.1662C68.3355 66.4992 68.6012 66.7731 68.9342 66.7782C69.4333 66.7859 69.8331 67.1982 69.8254 67.6973C69.8203 68.0302 70.086 68.3042 70.419 68.3093C70.752 68.3144 71.0259 68.0487 71.031 67.7158C71.0489 66.5519 70.1168 65.5905 68.9527 65.5727Z" fill="#9F9F9F"/>
<path d="M31.2388 88.6918C30.7033 88.7647 30.1954 89.0414 29.8432 89.5048C29.1387 90.4313 29.3194 91.7581 30.2459 92.4626C31.1724 93.1676 32.4992 92.9867 33.2037 92.06C33.9082 91.1335 33.7276 89.8066 32.8011 89.1021C32.3377 88.7495 31.7745 88.6189 31.2388 88.6918ZM31.6454 91.6788C31.4158 91.71 31.1742 91.6538 30.9755 91.5027C30.5783 91.2005 30.5009 90.6316 30.8028 90.2342C31.1051 89.837 31.674 89.7596 32.0714 90.0615C32.4686 90.3637 32.546 90.9327 32.2441 91.3301C32.0929 91.5285 31.875 91.6475 31.6454 91.6788Z" fill="#9F9F9F"/>
<path d="M27.806 85.0272C27.2703 85.1001 26.7626 85.3769 26.4102 85.8402C26.0688 86.289 25.9228 86.844 25.9989 87.4024C26.0749 87.9613 26.3641 88.4569 26.8128 88.7981C27.7395 89.5023 29.0664 89.3219 29.7706 88.3952C30.1119 87.9467 30.258 87.3917 30.182 86.833C30.1059 86.2744 29.817 85.7788 29.368 85.4376C28.9049 85.0852 28.3414 84.9543 27.806 85.0272ZM28.2126 88.0142C27.9829 88.0455 27.7414 87.9893 27.5427 87.8382C27.3502 87.6918 27.2264 87.4794 27.1938 87.2398C27.1612 87.0004 27.2237 86.7624 27.3701 86.5699C27.6721 86.173 28.241 86.0953 28.6386 86.3972C28.8311 86.5436 28.9549 86.7562 28.9875 86.9956C29.0201 87.2353 28.9576 87.473 28.8112 87.6653C28.6601 87.8642 28.4422 87.983 28.2126 88.0142Z" fill="#9F9F9F"/>
<path d="M32.3293 85.8324C31.9963 85.8273 31.7224 86.093 31.7173 86.426C31.7121 86.7589 31.9778 87.0329 32.3108 87.038C32.8099 87.0457 33.2097 87.4579 33.2021 87.957C33.1969 88.29 33.4626 88.564 33.7956 88.5691C34.1286 88.5742 34.4025 88.3085 34.4076 87.9755C34.4255 86.8117 33.4934 85.8503 32.3293 85.8324Z" fill="#9F9F9F"/>
<path d="M48.3816 101.939C47.8462 102.011 47.3382 102.288 46.9861 102.752C46.2816 103.678 46.4622 105.005 47.3887 105.709C48.3153 106.414 49.6421 106.234 50.3466 105.307C51.0511 104.38 50.8705 103.053 49.9439 102.349C49.4805 101.996 48.9173 101.866 48.3816 101.939ZM48.7882 104.926C48.5586 104.957 48.3171 104.901 48.1184 104.75C47.7212 104.447 47.6437 103.878 47.9457 103.481C48.2479 103.084 48.8168 103.006 49.2142 103.308C49.6114 103.611 49.6889 104.179 49.3869 104.577C49.2358 104.775 49.0179 104.894 48.7882 104.926Z" fill="#9F9F9F"/>
<path d="M44.9488 98.2739C44.4131 98.3469 43.9054 98.6236 43.5531 99.0869C43.2116 99.5357 43.0657 100.091 43.1417 100.649C43.2178 101.208 43.5069 101.704 43.9557 102.045C44.8824 102.749 46.2093 102.569 46.9135 101.642C47.2547 101.193 47.4009 100.638 47.3248 100.08C47.2488 99.5211 46.9599 99.0255 46.5109 98.6843C46.0477 98.3319 45.4843 98.201 44.9488 98.2739ZM45.3554 101.261C45.1258 101.292 44.8843 101.236 44.6856 101.085C44.4931 100.939 44.3693 100.726 44.3366 100.486C44.3041 100.247 44.3666 100.009 44.5129 99.8166C44.8149 99.4197 45.3838 99.342 45.7815 99.6439C45.9739 99.7903 46.0978 100.003 46.1304 100.242C46.163 100.482 46.1004 100.72 45.9541 100.912C45.803 101.111 45.585 101.23 45.3554 101.261Z" fill="#9F9F9F"/>
<path d="M49.4721 99.0792C49.1392 99.074 48.8652 99.3397 48.8601 99.6727C48.855 100.006 49.1207 100.28 49.4536 100.285C49.9528 100.292 50.3526 100.705 50.3449 101.204C50.3398 101.537 50.6055 101.811 50.9385 101.816C51.2714 101.821 51.5454 101.555 51.5505 101.222C51.5683 100.058 50.6362 99.097 49.4721 99.0792Z" fill="#9F9F9F"/>
<path d="M38.2518 52.8477C37.7163 52.9206 37.2083 53.1973 36.8562 53.6607C36.1517 54.5872 36.3323 55.914 37.2588 56.6185C38.1854 57.3235 39.5122 57.1426 40.2167 56.2159C40.9212 55.2894 40.7406 53.9625 39.8141 53.258C39.3506 52.9055 38.7875 52.7748 38.2518 52.8477ZM38.6583 55.8347C38.4287 55.8659 38.1872 55.8097 37.9885 55.6586C37.5913 55.3564 37.5139 54.7875 37.8158 54.3901C38.118 53.9929 38.687 53.9155 39.0843 54.2174C39.4815 54.5197 39.559 55.0886 39.257 55.486C39.1059 55.6844 38.888 55.8034 38.6583 55.8347Z" fill="#9F9F9F"/>
<path d="M34.8189 49.1831C34.2832 49.256 33.7755 49.5327 33.4232 49.9961C33.0817 50.4449 32.9358 50.9999 33.0118 51.5583C33.0879 52.1172 33.3771 52.6127 33.8258 52.9539C34.7525 53.6582 36.0794 53.4778 36.7836 52.5511C37.1248 52.1026 37.271 51.5475 37.195 50.9889C37.1189 50.4302 36.83 49.9346 36.381 49.5935C35.9179 49.2411 35.3544 49.1102 34.8189 49.1831ZM35.2255 52.1701C34.9959 52.2013 34.7544 52.1451 34.5557 51.994C34.3632 51.8477 34.2394 51.6353 34.2068 51.3956C34.1742 51.1562 34.2367 50.9182 34.383 50.7257C34.6851 50.3288 35.2539 50.2511 35.6516 50.5531C35.844 50.6994 35.9679 50.9121 36.0005 51.1515C36.0331 51.3911 35.9706 51.6289 35.8242 51.8211C35.6731 52.0201 35.4552 52.1388 35.2255 52.1701Z" fill="#9F9F9F"/>
<path d="M39.3423 49.9882C39.0093 49.9831 38.7354 50.2488 38.7303 50.5818C38.7251 50.9148 38.9908 51.1887 39.3238 51.1938C39.8229 51.2015 40.2227 51.6137 40.2151 52.1128C40.21 52.4458 40.4756 52.7198 40.8086 52.7249C41.1416 52.73 41.4155 52.4643 41.4206 52.1313C41.4385 50.9675 40.5064 50.0061 39.3423 49.9882Z" fill="#9F9F9F"/>
<path d="M29.3614 31.2413C28.915 30.5068 28.1888 29.942 27.2895 29.7229C25.491 29.2843 23.6711 30.3905 23.2325 32.189C22.7932 33.9879 23.8997 35.8076 25.6985 36.246C27.497 36.6847 29.3169 35.5784 29.7556 33.78C29.9753 32.8803 29.8081 31.9761 29.3614 31.2413ZM25.2644 33.7317C25.073 33.4167 25.0015 33.0288 25.0956 32.6431C25.2839 31.872 26.0643 31.3977 26.8355 31.5855C27.6066 31.7738 28.081 32.5542 27.8931 33.3254C27.7048 34.0966 26.9244 34.5709 26.1532 34.3831C25.7678 34.2888 25.4559 34.0466 25.2644 33.7317Z" fill="#9F9F9F"/>
<path d="M32.5241 23.908C32.0774 23.1732 31.3514 22.6087 30.4519 22.3893C29.5807 22.1765 28.6787 22.3163 27.9128 22.7819C27.1462 23.2479 26.6073 23.9843 26.3949 24.8553C25.9568 26.654 27.0627 28.4741 28.8613 28.9122C29.732 29.1248 30.6342 28.9853 31.4004 28.5196C32.1667 28.0538 32.7058 27.3177 32.918 26.4463C33.1376 25.5471 32.9705 24.6424 32.5241 23.908ZM28.427 26.3983C28.2356 26.0834 28.1641 25.6955 28.2582 25.3098C28.3493 24.9362 28.5803 24.6207 28.9091 24.4209C29.2374 24.2213 29.6242 24.1613 29.9978 24.2524C30.7684 24.4406 31.2431 25.2207 31.0554 25.9923C30.9643 26.3659 30.7329 26.6816 30.4046 26.8812C30.0758 27.081 29.6894 27.1409 29.3161 27.0496C28.9301 26.9557 28.6185 26.7133 28.427 26.3983Z" fill="#9F9F9F"/>
<path d="M34.2235 31.0149C34.0194 30.5261 33.458 30.2954 32.9692 30.4995C32.4804 30.7036 32.2498 31.265 32.4539 31.7538C32.7598 32.4864 32.4126 33.3312 31.68 33.6371C31.1912 33.8412 30.9606 34.4026 31.1647 34.8914C31.3687 35.3801 31.9301 35.6108 32.4189 35.4067C34.1273 34.6934 34.9369 32.7236 34.2235 31.0149Z" fill="#9F9F9F"/>
<path d="M48.2302 49.0487C47.4073 49.1607 46.6267 49.5859 46.0855 50.298C45.0029 51.7219 45.2804 53.7609 46.7043 54.8436C48.1282 55.927 50.1672 55.649 51.2498 54.2248C52.3325 52.801 52.0549 50.7619 50.6311 49.6793C49.9189 49.1374 49.0534 48.9366 48.2302 49.0487ZM48.855 53.639C48.5021 53.687 48.131 53.6007 47.8256 53.3685C47.2152 52.904 47.0962 52.0297 47.5602 51.419C48.0247 50.8086 48.899 50.6896 49.5097 51.1537C50.1201 51.6181 50.2391 52.4924 49.775 53.1031C49.5428 53.4081 49.2079 53.591 48.855 53.639Z" fill="#9F9F9F"/>
<path d="M42.9547 43.4169C42.1315 43.529 41.3512 43.9542 40.8097 44.6664C40.285 45.356 40.0608 46.209 40.1776 47.0671C40.2945 47.926 40.7389 48.6875 41.4285 49.2119C42.8526 50.2941 44.8917 50.017 45.974 48.5928C46.4984 47.9036 46.723 47.0506 46.6061 46.1921C46.4893 45.3335 46.0453 44.5719 45.3553 44.0476C44.6435 43.5061 43.7776 43.3049 42.9547 43.4169ZM43.5796 48.0073C43.2267 48.0553 42.8555 47.969 42.5501 47.7368C42.2544 47.5119 42.0641 47.1854 42.0139 46.8171C41.9639 46.4492 42.0599 46.0834 42.2848 45.7877C42.749 45.1777 43.6232 45.0583 44.2343 45.5223C44.5301 45.7472 44.7204 46.074 44.7705 46.4419C44.8206 46.8102 44.7245 47.1756 44.4996 47.471C44.2674 47.7768 43.9325 47.9593 43.5796 48.0073Z" fill="#9F9F9F"/>
<path d="M49.906 44.6544C49.3943 44.6466 48.9733 45.0549 48.9655 45.5666C48.9576 46.0783 49.3659 46.4993 49.8776 46.5071C50.6446 46.5189 51.2591 47.1525 51.2473 47.9195C51.2394 48.4312 51.6477 48.8522 52.1594 48.8601C52.6711 48.8679 53.0921 48.4596 53.1 47.9479C53.1274 46.1593 51.695 44.6819 49.906 44.6544Z" fill="#9F9F9F"/>
<path d="M46.7122 25.7873C45.5077 25.9513 44.3651 26.5738 43.5731 27.616C41.9885 29.7001 42.3947 32.6846 44.4788 34.2692C46.5629 35.855 49.5474 35.4482 51.132 33.3636C52.7166 31.2796 52.3104 28.295 50.2263 26.7104C49.1839 25.9173 47.9172 25.6233 46.7122 25.7873ZM47.6267 32.5061C47.1102 32.5764 46.567 32.45 46.12 32.1102C45.2266 31.4303 45.0524 30.1507 45.7316 29.2568C46.4114 28.3634 47.6911 28.1892 48.585 28.8684C49.4784 29.5482 49.6526 30.8279 48.9734 31.7218C48.6334 32.1682 48.1432 32.4358 47.6267 32.5061Z" fill="#9F9F9F"/>
<path d="M38.9906 17.5444C37.7856 17.7085 36.6436 18.3309 35.851 19.3732C35.083 20.3826 34.7548 21.631 34.9258 22.8871C35.0969 24.1442 35.7473 25.2589 36.7567 26.0264C38.8412 27.6104 41.8258 27.2047 43.4098 25.1202C44.1774 24.1114 44.5061 22.8629 44.3351 21.6063C44.164 20.3497 43.5141 19.235 42.5042 18.4675C41.4625 17.6749 40.1951 17.3805 38.9906 17.5444ZM39.9052 24.2632C39.3887 24.3335 38.8454 24.2071 38.3984 23.8672C37.9655 23.538 37.687 23.0603 37.6136 22.5212C37.5403 21.9827 37.6809 21.4473 38.0101 21.0144C38.6895 20.1216 39.9691 19.9469 40.8635 20.626C41.2964 20.9552 41.575 21.4335 41.6483 21.972C41.7217 22.5111 41.581 23.0459 41.2517 23.4783C40.9119 23.9258 40.4217 24.1929 39.9052 24.2632Z" fill="#9F9F9F"/>
<path d="M49.1651 19.3557C48.4161 19.3443 47.7999 19.9418 47.7884 20.6908C47.777 21.4398 48.3745 22.056 49.1235 22.0675C50.2462 22.0847 51.1455 23.0121 51.1283 24.1347C51.1168 24.8837 51.7144 25.4999 52.4634 25.5114C53.2123 25.5229 53.8285 24.9253 53.84 24.1763C53.8802 21.5584 51.7836 19.3959 49.1651 19.3557Z" fill="#9F9F9F"/>
<path d="M24.2009 71.3455C24.3341 72.6758 24.9737 73.956 26.0884 74.8673C28.3173 76.6905 31.6137 76.3605 33.4369 74.1316C35.2613 71.9026 34.9307 68.6063 32.7012 66.7831C30.4723 64.9599 27.176 65.2899 25.3527 67.5188C24.4403 68.6336 24.0677 70.0146 24.2009 71.3455ZM31.6218 70.6026C31.6789 71.173 31.5188 71.7653 31.1277 72.2433C30.3456 73.1988 28.9322 73.3403 27.9762 72.5588C27.0207 71.7767 26.8792 70.3633 27.6607 69.4072C28.4428 68.4518 29.8562 68.3103 30.8122 69.0917C31.2897 69.4828 31.5647 70.0321 31.6218 70.6026Z" fill="#9F9F9F"/>
<path d="M14.8389 79.5111C14.9722 80.842 15.6117 82.1216 16.7265 83.0335C17.806 83.9171 19.1655 84.3266 20.5528 84.1877C21.9412 84.0487 23.1919 83.3773 24.0749 82.2978C25.8975 80.0684 25.5681 76.7719 23.3387 74.9494C22.2598 74.0663 20.9002 73.6562 19.5124 73.7951C18.1245 73.9341 16.8738 74.6049 15.9908 75.685C15.0789 76.7992 14.7057 78.1808 14.8389 79.5111ZM22.2598 78.7682C22.3169 79.3386 22.1568 79.9309 21.7657 80.4089C21.387 80.8719 20.851 81.1594 20.2556 81.219C19.6608 81.2785 19.0778 81.1031 18.6148 80.7243C17.66 79.9427 17.5179 78.5294 18.2993 77.5728C18.678 77.1098 19.2146 76.8222 19.8094 76.7627C20.4048 76.7031 20.9872 76.8786 21.4496 77.2574C21.9283 77.6484 22.2027 78.1977 22.2598 78.7682Z" fill="#9F9F9F"/>
<path d="M17.2271 68.3981C17.1852 69.221 17.818 69.9216 18.6408 69.9635C19.4637 70.0054 20.1643 69.3726 20.2062 68.5498C20.269 67.3164 21.3234 66.3641 22.5567 66.4269C23.3796 66.4688 24.0802 65.836 24.1221 65.0131C24.164 64.1903 23.5312 63.4897 22.7084 63.4478C19.8323 63.3014 17.3735 65.5215 17.2271 68.3981Z" fill="#9F9F9F"/>
<path d="M97.4477 75.2416C97.5809 76.5719 98.2205 77.8521 99.3352 78.7634C101.564 80.5866 104.86 80.2566 106.684 78.0277C108.508 75.7988 108.177 72.5024 105.948 70.6793C103.719 68.856 100.423 69.1861 98.5995 71.4149C97.687 72.5297 97.3145 73.9107 97.4477 75.2416ZM104.869 74.4987C104.926 75.0692 104.766 75.6614 104.375 76.1394C103.592 77.0949 102.179 77.2364 101.223 76.4549C100.267 75.6728 100.126 74.2594 100.907 73.3034C101.69 72.3479 103.103 72.2064 104.059 72.9879C104.536 73.379 104.811 73.9282 104.869 74.4987Z" fill="#9F9F9F"/>
<path d="M88.0856 83.4072C88.2189 84.7381 88.8584 86.0177 89.9732 86.9295C91.0527 87.8132 92.4122 88.2227 93.7995 88.0838C95.188 87.9448 96.4386 87.2734 97.3216 86.1939C99.1442 83.9645 98.8148 80.668 96.5854 78.8455C95.5065 77.9624 94.1469 77.5523 92.7591 77.6912C91.3712 77.8302 90.1205 78.501 89.2375 79.5811C88.3256 80.6952 87.9524 82.0768 88.0856 83.4072ZM95.5065 82.6642C95.5636 83.2347 95.4035 83.8269 95.0124 84.305C94.6337 84.768 94.0977 85.0555 93.5023 85.1151C92.9075 85.1746 92.3245 84.9992 91.8615 84.6204C90.9067 83.8388 90.7646 82.4255 91.546 81.4689C91.9247 81.0059 92.4613 80.7183 93.0561 80.6588C93.6515 80.5991 94.2339 80.7747 94.6963 81.1535C95.175 81.5445 95.4494 82.0938 95.5065 82.6642Z" fill="#9F9F9F"/>
<path d="M90.4738 72.2942C90.432 73.1171 91.0648 73.8177 91.8876 73.8596C92.7104 73.9015 93.4111 73.2687 93.4529 72.4458C93.5157 71.2125 94.5701 70.2602 95.8035 70.323C96.6263 70.3648 97.327 69.732 97.3688 68.9092C97.4107 68.0864 96.7779 67.3857 95.9551 67.3439C93.0791 67.1975 90.6202 69.4176 90.4738 72.2942Z" fill="#9F9F9F"/>
<path d="M51.2109 73.7022C50.287 73.2321 49.1839 73.1134 48.1225 73.4591C45.9995 74.1501 44.8345 76.4392 45.5255 78.5622C46.216 80.686 48.5053 81.8505 50.6285 81.1592C52.7515 80.4682 53.9165 78.1791 53.2255 76.0561C52.8802 74.9939 52.1351 74.1726 51.2109 73.7022ZM48.5883 78.8555C48.1921 78.6539 47.8727 78.3014 47.7245 77.8461C47.4286 76.9357 47.9281 75.9542 48.8383 75.6576C49.7488 75.3616 50.7303 75.8611 51.0269 76.7714C51.3228 77.6818 50.8233 78.6633 49.9131 78.9599C49.458 79.1077 48.9844 79.0572 48.5883 78.8555Z" fill="#9F9F9F"/>
<path d="M49.8028 64.1741C48.8786 63.7038 47.7758 63.5853 46.714 63.9308C45.6854 64.2653 44.849 64.9809 44.3587 65.9443C43.868 66.9085 43.7824 68.0057 44.117 69.0339C44.8086 71.1567 47.0975 72.322 49.2203 71.6305C50.2483 71.2962 51.0852 70.5809 51.5756 69.6171C52.0661 68.6533 52.1521 67.5563 51.8171 66.5278C51.4719 65.4663 50.7266 64.6443 49.8028 64.1741ZM47.1802 69.3275C46.7841 69.1259 46.4647 68.7734 46.3165 68.318C46.173 67.877 46.2098 67.4069 46.4202 66.9934C46.6305 66.5804 46.9891 66.2734 47.4301 66.1299C48.3399 65.8341 49.3216 66.3332 49.6186 67.2437C49.7622 67.6847 49.7251 68.1553 49.5149 68.5683C49.3045 68.9818 48.9461 69.2883 48.5053 69.4314C48.0497 69.58 47.5764 69.5291 47.1802 69.3275Z" fill="#9F9F9F"/>
<path d="M56.0542 70.3858C55.5348 70.014 54.8127 70.1335 54.4408 70.6529C54.0689 71.1723 54.1885 71.8944 54.7078 72.2663C55.4863 72.8237 55.6662 73.9105 55.1088 74.689C54.7369 75.2083 54.8565 75.9305 55.3758 76.3024C55.8952 76.6742 56.6174 76.5547 56.9892 76.0353C58.289 74.22 57.87 71.6859 56.0542 70.3858Z" fill="#9F9F9F"/>
<path d="M71.4706 98.6373C70.5468 98.1671 69.4436 98.0484 68.3822 98.3942C66.2592 99.0851 65.0943 101.374 65.7852 103.497C66.4757 105.621 68.7651 106.786 70.8883 106.094C73.0112 105.403 74.1762 103.114 73.4853 100.991C73.1399 99.929 72.3948 99.1076 71.4706 98.6373ZM68.848 103.791C68.4518 103.589 68.1325 103.237 67.9843 102.781C67.6883 101.871 68.1878 100.889 69.0981 100.593C70.0085 100.297 70.99 100.796 71.2866 101.706C71.5826 102.617 71.0831 103.598 70.1728 103.895C69.7177 104.043 69.2442 103.992 68.848 103.791Z" fill="#9F9F9F"/>
<path d="M70.0626 89.1092C69.1384 88.6389 68.0356 88.5204 66.9738 88.8659C65.9452 89.2004 65.1087 89.916 64.6184 90.8793C64.1277 91.8436 64.0422 92.9408 64.3768 93.969C65.0684 96.0917 67.3573 97.2571 69.4801 96.5656C70.508 96.2313 71.3449 95.516 71.8354 94.5522C72.3259 93.5883 72.4119 92.4913 72.0768 91.4629C71.7317 90.4013 70.9864 89.5794 70.0626 89.1092ZM67.44 94.2626C67.0438 94.0609 66.7245 93.7085 66.5763 93.2531C66.4327 92.8121 66.4696 92.342 66.68 91.9285C66.8902 91.5155 67.2488 91.2085 67.6898 91.065C68.5997 90.7692 69.5814 91.2683 69.8784 92.1788C70.0219 92.6198 69.9849 93.0903 69.7747 93.5034C69.5642 93.9169 69.2058 94.2234 68.765 94.3665C68.3095 94.5151 67.8362 94.4642 67.44 94.2626Z" fill="#9F9F9F"/>
<path d="M76.3139 95.3209C75.7946 94.949 75.0724 95.0685 74.7005 95.5879C74.3287 96.1073 74.4482 96.8294 74.9676 97.2013C75.7461 97.7587 75.9259 98.8455 75.3685 99.624C74.9967 100.143 75.1162 100.866 75.6356 101.237C76.1549 101.609 76.8771 101.49 77.249 100.97C78.5488 99.155 78.1297 96.6209 76.3139 95.3209Z" fill="#9F9F9F"/>
<circle cx="60" cy="60" r="53" stroke="#9F9F9F" stroke-width="2"/>
<line x1="61" y1="7.013" x2="61" y2="112.987" stroke="#9F9F9F" stroke-width="2"/>
<line y1="-1" x2="105.974" y2="-1" transform="matrix(1 0 0 -1 7.79221 60)" stroke="#9F9F9F" stroke-width="2"/>
</svg>
