<svg width="26" height="26" viewBox="0 0 26 26" fill="none" xmlns="http://www.w3.org/2000/svg">
<path d="M5.07361 18.6191C6.41128 17.2134 5.80562 16.5772 7.1433 15.1715C8.48098 13.7657 9.08659 14.4018 10.4247 12.996C11.7628 11.5902 11.1576 10.9532 12.4961 9.54698C13.8347 8.14074 14.4394 8.77728 15.7775 7.37105C17.1156 5.96482 16.5109 5.32782 17.8495 3.91935C19.1781 2.52474 19.7241 3.18734 21.0394 1.82274L19.2758 0C17.9368 1.40715 17.3953 0.72084 16.0563 2.12753C14.7173 3.53422 15.3229 4.17076 13.9844 5.57923C12.6459 6.9877 12.0407 6.34755 10.703 7.75516C9.36533 9.16276 9.97009 9.79794 8.63154 11.2042C7.293 12.6104 6.68825 11.9739 5.35016 13.3796C4.01207 14.7854 4.61723 15.4207 3.28047 16.826C1.9437 18.2313 1.33768 17.4218 0 18.8276L1.7353 20.6785L1.79314 20.6207C3.13077 19.2149 3.73593 20.0245 5.07361 18.6191Z" fill="#F5A9A2"/>
<path d="M24.1254 5.0117C22.8469 6.305 22.2982 5.68141 20.9874 7.05854C19.6489 8.46569 20.2541 9.10178 18.9155 10.5102C17.577 11.9187 16.9718 11.2786 15.6341 12.6862C14.2965 14.0938 14.9012 14.7289 13.5627 16.1352C12.2241 17.5414 11.6194 16.9049 10.2813 18.3107C8.94319 19.7164 9.54835 20.3517 8.21159 21.757C6.87482 23.1623 6.26875 22.3527 4.93112 23.7585L4.77197 23.9177L6.72421 26C8.06189 24.5942 8.60337 25.2308 9.94105 23.825C11.2787 22.4192 10.6731 21.7831 12.0107 20.3778C13.3484 18.9724 13.954 19.6081 15.2921 18.2018C16.6302 16.7956 16.0246 16.159 17.3631 14.7528C18.7017 13.3466 19.3064 13.9831 20.6445 12.5769C21.9826 11.1707 21.3779 10.5337 22.7169 9.12519C24.0559 7.71672 24.6611 8.35595 26.0001 6.94835L24.1254 5.0117Z" fill="#F5A9A2"/>
<path d="M8.21159 21.7571C9.54926 20.3513 8.9436 19.7152 10.2813 18.3094C11.619 16.9036 12.2246 17.5397 13.5627 16.1339C14.9007 14.7281 14.2956 14.0911 15.6341 12.6849C16.9727 11.2787 17.5774 11.9152 18.9155 10.509C20.2536 9.10274 19.6489 8.46574 20.9874 7.05727C22.2982 5.68019 22.8469 6.30373 24.1254 5.01044L21.0394 1.82274C19.7242 3.18729 19.1782 2.52474 17.8495 3.92067C16.511 5.32782 17.1161 5.9639 15.7776 7.37237C14.439 8.78084 13.8339 8.14069 12.4962 9.5483C11.1585 10.9559 11.7633 11.5911 10.4247 12.9973C9.08619 14.4035 8.48144 13.767 7.14335 15.1728C5.80526 16.5786 6.41043 17.2138 5.07366 18.6191C3.73689 20.0244 3.13082 19.2149 1.79319 20.6206L1.73535 20.6785L4.77197 23.9177L4.93112 23.7586C6.26874 22.3528 6.87391 23.1624 8.21159 21.7571Z" fill="#E68783"/>
<path d="M5.07361 18.6191C5.99661 17.6491 5.99483 17.0452 6.34446 16.3024C5.35107 16.4517 4.36846 16.579 3.40554 16.6871C3.36431 16.7319 3.32622 16.7767 3.28047 16.826C1.94284 18.2314 1.33768 17.4218 0 18.8276L1.7353 20.6785L1.79314 20.6207C3.13077 19.2149 3.73593 20.0244 5.07361 18.6191Z" fill="#F0A09C"/>
<path d="M13.5627 16.1339C12.2246 17.5397 11.6194 16.9036 10.2813 18.3094C8.94319 19.7151 9.54835 20.3517 8.21159 21.757C6.87482 23.1624 6.26875 22.3528 4.93112 23.7586L4.77197 23.9177L6.72421 26C8.06189 24.5942 8.60337 25.2307 9.94105 23.825C11.2787 22.4192 10.6731 21.783 12.0107 20.3777C13.3484 18.9724 13.954 19.608 15.2921 18.2018C16.6302 16.7956 16.0246 16.159 17.3631 14.7528C18.7017 13.3466 19.3064 13.9831 20.6445 12.5769C20.8547 12.3599 21.0439 12.1232 21.2094 11.8699C19.0837 12.9678 16.8561 13.8553 14.5583 14.5202C14.3565 15.128 14.0154 15.6807 13.5627 16.1339Z" fill="#F0A09C"/>
<path d="M8.21159 21.7571C9.54926 20.3513 8.9436 19.7152 10.2813 18.3094C11.619 16.9036 12.2246 17.5397 13.5627 16.1339C14.0154 15.6807 14.3566 15.128 14.5583 14.5201C11.865 15.3041 9.12067 15.8999 6.34451 16.3025C5.99483 17.0453 5.99666 17.6473 5.07366 18.6192C3.73598 20.0245 3.13082 19.215 1.79319 20.6207L1.73535 20.6786L4.77197 23.9178L4.93112 23.7587C6.26875 22.3528 6.87391 23.1624 8.21159 21.7571Z" fill="#DE7C78"/>
</svg>
