<svg width="22" height="26" viewBox="0 0 22 26" fill="none" xmlns="http://www.w3.org/2000/svg">
<path d="M7.09138 6.56569C5.26901 4.74036 5.19969 1.70734 5.24893 0.530932C5.26077 0.247951 5.48701 0.0217162 5.76999 0.00977557C6.94513 -0.0394662 9.97213 0.0303807 11.794 1.85528C14.0915 4.15665 13.6027 8.37738 13.6027 8.37738C13.6027 8.37738 9.38883 8.86695 7.09138 6.56569Z" fill="#98DB7C"/>
<path d="M8.89282 4.72578C7.57438 3.40513 7.17411 1.45343 7.07193 0.029009C6.54263 -0.00755246 6.08815 -0.00311285 5.76977 0.0100958C5.48689 0.021825 5.26076 0.248379 5.24893 0.531149C5.19969 1.70788 5.26922 4.74047 7.09137 6.56559C9.38893 8.86695 13.6027 8.37728 13.6027 8.37728C13.6027 8.37728 13.6908 7.6097 13.6149 6.55206C12.1901 6.45358 10.2216 6.05679 8.89282 4.72578Z" fill="#82D361"/>
<path d="M10.6156 13.1374C10.4419 13.1374 10.2669 13.0824 10.1183 12.9685C9.7598 12.6935 9.69217 12.18 9.96702 11.8215L17.4043 2.12474C17.5284 1.95165 17.6591 1.78121 17.797 1.61372C18.0808 1.26903 18.5884 1.21588 18.9375 1.49316C19.2869 1.77085 19.3493 2.27732 19.0777 2.63153L18.7245 3.09193C16.3605 6.41279 16.8578 11.0446 16.8633 11.0931C16.9146 11.5415 16.5931 11.9474 16.1447 11.9993C15.6954 12.0524 15.2906 11.7307 15.2381 11.2823C15.2236 11.1584 15.0468 9.54851 15.3552 7.48501L11.2653 12.8174C11.1043 13.0272 10.8614 13.1374 10.6156 13.1374Z" fill="#994E37"/>
<path d="M16.0508 24.2005C18.8371 24.2005 21.0959 21.1431 21.0959 17.3716C21.0959 13.6001 18.8371 10.5427 16.0508 10.5427C13.2644 10.5427 11.0056 13.6001 11.0056 17.3716C11.0056 21.1431 13.2644 24.2005 16.0508 24.2005Z" fill="#505050"/>
<path d="M12.0854 19.8902C13.7707 16.5158 13.1146 12.7703 10.6199 11.5244C8.12531 10.2785 4.73681 12.0039 3.05151 15.3783C1.36621 18.7526 2.0223 22.4981 4.51694 23.7441C7.01157 24.99 10.4001 23.2645 12.0854 19.8902Z" fill="#505050"/>
<path d="M10.6116 11.5156C10.331 11.3746 10.0422 11.2661 9.74836 11.1871C11.0573 12.793 11.2572 15.3874 9.74794 18.3986C8.00926 21.8677 5.35856 23.1847 3.04346 22.5628C3.4339 23.0418 3.92188 23.4339 4.49397 23.7216C6.98417 24.9737 10.1022 23.7953 12.0617 19.8859C14.0211 15.9765 13.1018 12.7678 10.6116 11.5156Z" fill="#404240"/>
<path d="M16.0509 10.5427C15.5385 10.5427 15.0443 10.6264 14.5784 10.7891C16.6463 11.511 18.151 13.8015 18.151 17.3716C18.151 20.9416 16.6463 23.2322 14.5784 23.9541C15.0443 24.1168 15.5386 24.2005 16.0509 24.2005C18.8373 24.2005 21.096 21.7461 21.096 17.3716C21.096 12.9971 18.8373 10.5427 16.0509 10.5427Z" fill="#404240"/>
<path d="M6.46018 22.3973C6.91794 22.3973 7.3795 22.2017 7.59264 21.7763C7.93891 21.0853 7.4764 20.2486 6.468 19.7418C5.76235 19.3868 4.59883 19.1875 4.16421 20.0548C3.81793 20.7458 4.28044 21.5824 5.28884 22.0894C5.69271 22.2925 6.09911 22.3973 6.46018 22.3973Z" fill="#454644"/>
<path d="M16.0255 19.7415C14.8963 19.7415 14.1077 20.2818 14.1077 21.0554C14.1077 21.8289 14.8963 22.3692 16.0255 22.3692C17.1546 22.3692 17.9432 21.8289 17.9432 21.0554C17.9432 20.2817 17.1546 19.7415 16.0255 19.7415Z" fill="#454644"/>
</svg>
