<svg width="29" height="26" viewBox="0 0 29 26" fill="none" xmlns="http://www.w3.org/2000/svg">
<path d="M21.5915 3.83709C24.4701 5.49904 26.7275 7.4651 28.2679 9.60291L0.00537109 16.3333L11.6383 0C15.4757 0.9197 18.8212 2.23764 21.5915 3.83709Z" fill="#FFE577"/>
<path d="M21.5915 3.83709C24.4701 5.49904 26.7275 7.4651 28.2679 9.60291L0.00537109 16.3333L11.6383 0C15.4757 0.9197 18.8212 2.23764 21.5915 3.83709Z" fill="#FFE577"/>
<path d="M28.2679 9.60292L28.2626 19.212L0 26L0.00535544 16.3333L28.2679 9.60292Z" fill="#FEDA44"/>
<path d="M28.2626 9.59801L0.00533311 16.3333L0.00439453 26L28.2626 19.213L28.2635 9.60397L28.2573 9.60546L28.2626 9.59801Z" fill="#FEDA44"/>
<path d="M12.0976 2.45242C11.5752 2.74559 11.5633 3.22934 12.0711 3.53295C12.5789 3.83655 13.4142 3.845 13.9366 3.55183C14.4591 3.25866 14.471 2.7749 13.9631 2.4713C13.4553 2.16764 12.6201 2.15925 12.0976 2.45242Z" fill="#FEDA44"/>
<path d="M10.9044 4.87429C10.1035 5.3237 10.0853 6.0653 10.8638 6.53072C11.6423 6.99609 12.9227 7.00901 13.7236 6.55965C14.5245 6.11029 14.5427 5.36865 13.7642 4.90322C12.9858 4.43785 11.7054 4.42493 10.9044 4.87429Z" fill="#FEDA44"/>
<path d="M20.0491 7.82977C19.4772 8.15066 19.4643 8.68018 20.0201 9.0125C20.576 9.34481 21.4902 9.35403 22.0621 9.03314C22.634 8.71226 22.6469 8.18273 22.0911 7.85042C21.5352 7.51816 20.621 7.50889 20.0491 7.82977Z" fill="#FEDA44"/>
<path d="M5.15252 12.1166C4.55094 12.4541 4.53731 13.0111 5.12204 13.3607C5.70678 13.7103 6.6685 13.72 7.27007 13.3824C7.87165 13.0448 7.88528 12.4878 7.30055 12.1383C6.71581 11.7887 5.75415 11.7789 5.15252 12.1166Z" fill="#FEDA44"/>
<path d="M23.2418 8.01015C22.8413 8.23485 22.8323 8.6057 23.2215 8.83836C23.6108 9.07102 24.2509 9.07753 24.6514 8.85277C25.0519 8.62806 25.061 8.25721 24.6717 8.02456C24.2825 7.7919 23.6423 7.78544 23.2418 8.01015Z" fill="#FEDA44"/>
<path d="M18.5442 11.9184C18.5438 11.9175 18.5432 11.9166 18.5427 11.9156C18.5429 11.9153 18.543 11.9149 18.5431 11.9146L18.5422 11.9148C18.4598 11.7476 18.3077 11.5893 18.0852 11.4555C17.3633 11.0217 16.1762 11.0097 15.4336 11.4286C14.815 11.7776 14.7006 12.3153 15.0968 12.736L15.0825 12.7394C15.0767 12.8124 15.0737 12.8847 15.0739 12.956C15.0772 14.1196 15.901 14.589 16.9136 14.0044C17.6244 13.594 18.2387 12.7738 18.5414 11.9191L18.5442 11.9184Z" fill="#FED322"/>
<path d="M7.9816 17.0731C7.36407 17.4296 6.86496 18.2942 6.86695 19.0041C6.86899 19.7137 7.37135 20 7.98883 19.6435C8.60669 19.2867 9.10585 18.4222 9.10381 17.7126C9.10188 17.0027 8.59946 16.7164 7.9816 17.0731Z" fill="#FECE00"/>
<path d="M11.4054 19.1523C10.933 19.425 10.5513 20.0862 10.5529 20.6292C10.5544 21.1719 10.9386 21.3909 11.4109 21.1182C11.8835 20.8454 12.2652 20.1841 12.2637 19.6414C12.2621 19.0984 11.8779 18.8795 11.4054 19.1523Z" fill="#FECE00"/>
<path d="M25.6363 14.6756C25.2604 14.8926 24.9567 15.4187 24.9579 15.8508C24.9591 16.2827 25.2649 16.4569 25.6407 16.2399C26.0167 16.0229 26.3205 15.4967 26.3192 15.0648C26.3181 14.6328 26.0123 14.4585 25.6363 14.6756Z" fill="#FECE00"/>
<path d="M0.00463867 24.8068C0.0815472 24.7769 0.160333 24.7392 0.24072 24.6928C1.04503 24.2284 1.6948 23.103 1.69215 22.1793C1.68956 21.255 1.03553 20.8823 0.231223 21.3468C0.154204 21.3913 0.0786762 21.4418 0.00496994 21.4977L0.00463867 24.8068Z" fill="#FECE00"/>
<path d="M23.2854 12.9102C22.6388 13.2835 22.1161 14.1888 22.1182 14.9323C22.1203 15.6753 22.6464 15.9752 23.2931 15.6018C23.9401 15.2282 24.4627 14.3229 24.4607 13.5798C24.4585 12.8364 23.9324 12.5366 23.2854 12.9102Z" fill="#FECE00"/>
</svg>
