<svg width="24" height="26" viewBox="0 0 24 26" fill="none" xmlns="http://www.w3.org/2000/svg">
<path d="M14.1336 5.43349L15.0332 0H10.7653L9.78918 5.43349H14.1336Z" fill="#B38A65"/>
<path d="M22.8615 8.11987C22.3042 7.11684 21.4549 6.35466 20.3369 5.85416L20.191 5.78119H20.1648L20.056 5.73569C18.6313 5.17613 17.2536 5.20508 16.9618 5.21889C16.521 5.19721 13.6442 5.13952 11.7992 7.10613C10.5444 8.4436 10.0763 10.3648 10.408 12.8161C10.949 16.8159 11.4528 19.7327 12.2914 21.9123C13.3261 24.6014 14.8463 25.9382 16.939 25.9991L16.9612 25.9998L16.9833 25.9991C18.0492 25.9681 18.9865 25.5923 19.7694 24.8821C20.8144 23.9342 21.5911 22.4114 22.2137 20.0899C22.7441 18.1119 23.1173 15.7515 23.5144 12.8161C23.7687 10.937 23.549 9.35695 22.8615 8.11987Z" fill="#009100"/>
<path d="M12.5568 8.11987C11.9994 7.11684 11.1501 6.35466 10.0322 5.85416L9.88623 5.78119H9.86002L9.75125 5.73569C8.32658 5.17613 6.94879 5.20508 6.6571 5.21889C6.21622 5.19721 3.33951 5.13952 1.49453 7.10613C0.239671 8.4436 -0.22838 10.3648 0.103272 12.8161C0.644346 16.8159 1.14815 19.7327 1.98675 21.9123C3.02142 24.6014 4.54165 25.9382 6.6343 25.9991L6.65644 25.9998L6.67863 25.9991C7.74453 25.9681 8.68185 25.5923 9.46469 24.8821C10.5097 23.9342 11.2863 22.4114 11.9089 20.0899C12.4394 18.112 12.8126 15.7516 13.2097 12.8161C13.4639 10.937 13.2442 9.35695 12.5568 8.11987Z" fill="#00AD00"/>
<path d="M18.5915 12.3208C18.1787 15.3712 17.7907 17.8239 17.2398 19.8784C16.5944 22.2859 15.7895 23.8646 14.7079 24.8457C13.8995 25.579 12.9316 25.967 11.8312 25.999L11.8088 26L11.7865 25.999C9.6248 25.936 8.05312 24.5528 6.9827 21.77C6.1118 19.5073 5.5883 16.4767 5.02615 12.3208C4.68287 9.78184 5.16681 7.79329 6.46473 6.41001C8.37609 4.37272 11.3574 4.43569 11.8088 4.45752H11.8094C12.1074 4.44331 13.5364 4.41182 15.0151 4.99276L15.1329 5.04202H15.1411L15.2822 5.10498L15.4122 5.15932L15.4209 5.16795C16.5203 5.68592 17.3591 6.45577 17.9162 7.45763C18.6276 8.73777 18.8546 10.3739 18.5915 12.3208Z" fill="#2DD729"/>
<path d="M18.5917 12.3208C18.1788 15.3712 17.7908 17.8238 17.2399 19.8784C16.5945 22.2859 15.7896 23.8646 14.708 24.8457C13.8996 25.579 12.9317 25.967 11.8313 25.999L11.809 26V4.45747H11.8095C12.1076 4.44325 13.5365 4.41176 15.0152 4.9927L15.133 5.04196H15.1412L15.2823 5.10493L15.4123 5.15926L15.421 5.1679C16.5204 5.68586 17.3592 6.45571 17.9163 7.45757C18.6277 8.73777 18.8547 10.3739 18.5917 12.3208Z" fill="#00AD00"/>
</svg>
