<svg width="30" height="26" viewBox="0 0 30 26" fill="none" xmlns="http://www.w3.org/2000/svg">
<path d="M13.9408 15.5834C13.3059 15.4946 12.8016 15.3934 12.1968 15.2799C12.0141 15.2456 11.8868 15.0773 11.9027 14.892C11.9795 13.9961 12.195 13.0236 12.5241 12.2267C11.6618 12.2267 11.0838 12.2267 10.1336 12.2267L8.66016 21.7105C8.55756 22.0283 8.50146 22.3671 8.50146 22.7191C8.50146 24.5311 9.97041 26 11.7824 26C14.0019 26 15.5899 23.8332 14.9046 21.7105L13.9408 15.5834Z" fill="#E0B377"/>
<path d="M9.66895 22.7191C9.66895 22.3671 9.72499 22.0283 9.82759 21.7105L11.3011 12.2267C10.9488 12.2267 10.5829 12.2267 10.1336 12.2267L8.66011 21.7105C8.5575 22.0283 8.50146 22.3671 8.50146 22.7191C8.50146 24.5311 9.97041 26 11.7824 26C11.9839 26 12.1801 25.9819 12.3699 25.9479C10.8347 25.6738 9.66895 24.3331 9.66895 22.7191Z" fill="#CC9A5E"/>
<path d="M22.6779 22.8649L21.601 16.0189C20.7289 16.0189 20.0629 16.0189 19.1909 16.0189L18.114 22.8649C17.6136 24.4149 18.7722 25.9999 20.3959 25.9999C22.0181 25.9999 23.1788 24.4163 22.6779 22.8649Z" fill="#E0B377"/>
<path d="M19.2815 22.8649L20.3584 16.0189C19.9863 16.0189 19.6127 16.0189 19.1909 16.0189L18.114 22.8649C17.6136 24.4149 18.7721 25.9999 20.3959 25.9999C20.5985 25.9999 20.7938 25.9752 20.9796 25.9291C19.6764 25.6049 18.8436 24.2215 19.2815 22.8649Z" fill="#CC9A5E"/>
<path d="M22.716 7.31449C20.9432 3.02138 16.716 0 11.7827 0C5.59687 0 0.520712 4.75009 0.00219431 10.8017C-0.0195287 11.0552 0.154596 11.2854 0.404666 11.3323C4.32554 12.0686 8.41991 12.3799 12.4078 12.3432C14.0581 8.34806 18.4486 6.12777 22.716 7.31449Z" fill="#A06E4B"/>
<path d="M1.26262 11.0562C1.76355 5.07225 6.51812 0.332085 12.4174 0.0171857C12.2071 0.00606892 11.9955 0 11.7824 0C5.59645 0 0.520346 4.75009 0.0018281 10.8017C-0.019895 11.0552 0.15423 11.2854 0.4043 11.3323C0.761851 11.3995 1.12127 11.4619 1.48149 11.522C1.33544 11.4217 1.24679 11.2455 1.26262 11.0562Z" fill="#93603E"/>
<path d="M26.2885 9.27819C21.0288 4.40332 12.373 7.69649 11.7567 14.8895C11.7394 15.0912 11.8761 15.2713 12.0746 15.3085C17.3642 16.3018 23.4718 16.2994 28.7586 15.3007C28.9325 15.2678 29.0527 15.1092 29.0384 14.9316C28.8635 12.7674 27.8869 10.7597 26.2885 9.27819Z" fill="#93603E"/>
<path d="M12.9553 15.2344C13.351 10.4157 17.0599 7.27462 21.0565 6.98864C16.6322 6.67907 12.192 9.81247 11.757 14.8895C11.7397 15.0912 11.8764 15.2713 12.0748 15.3085C12.382 15.3662 12.6923 15.4202 13.0047 15.4712C12.967 15.4016 12.9483 15.32 12.9553 15.2344Z" fill="#7F573C"/>
<path d="M6.29183 3.57205C4.25707 5.26225 3.19587 7.40688 2.66391 8.90832C2.21561 10.1736 2.05805 11.1938 2.00842 11.6079C2.29666 11.6532 2.58576 11.6959 2.87536 11.7369C2.96792 10.9571 3.5925 6.95268 6.85142 4.24564C7.0374 4.09114 7.06292 3.81515 6.90842 3.62911C6.75392 3.44308 6.47787 3.41755 6.29183 3.57205Z" fill="#93603E"/>
<path d="M5.85481 9.29543C5.63729 9.18988 5.37537 9.28074 5.26982 9.49831C5.25274 9.53353 4.86473 10.3476 4.62561 11.9574C4.91589 11.9896 5.20646 12.0201 5.49743 12.0481C5.71386 10.6195 6.05099 9.89466 6.0582 9.87928C6.1629 9.66194 6.07204 9.40075 5.85481 9.29543Z" fill="#93603E"/>
<path d="M26.4311 12.8229C26.3334 12.602 26.0754 12.5022 25.8544 12.5996C25.6333 12.697 25.533 12.9553 25.63 13.1764C25.635 13.1878 26.0941 14.2499 26.1906 15.7002C26.4822 15.664 26.7719 15.6245 27.0601 15.5827C26.9457 14.0039 26.4538 12.8742 26.4311 12.8229Z" fill="#7F573C"/>
</svg>
