<svg width="27" height="26" viewBox="0 0 27 26" fill="none" xmlns="http://www.w3.org/2000/svg">
<path d="M17.4889 25.989C17.37 25.989 17.256 25.9417 17.172 25.8577C17.088 25.7737 17.0408 25.6597 17.0408 25.5409V23.3004C17.0408 23.1816 17.088 23.0676 17.172 22.9836C17.256 22.8996 17.37 22.8524 17.4889 22.8524C17.6077 22.8524 17.7217 22.8996 17.8057 22.9836C17.8897 23.0676 17.9369 23.1816 17.9369 23.3004V25.5409C17.9369 25.6597 17.8897 25.7737 17.8057 25.8577C17.7217 25.9417 17.6077 25.989 17.4889 25.989Z" fill="#BF38A7"/>
<path d="M14.8003 25.5409C14.73 25.5417 14.6607 25.5248 14.5987 25.4916C14.4932 25.4379 14.4132 25.3446 14.3762 25.232C14.3393 25.1195 14.3484 24.997 14.4015 24.8911L15.3784 22.933C15.4034 22.8785 15.4392 22.8295 15.4835 22.7891C15.5278 22.7486 15.5798 22.7175 15.6364 22.6975C15.693 22.6775 15.753 22.6691 15.8129 22.6728C15.8728 22.6765 15.9313 22.6921 15.985 22.7188C16.0388 22.7455 16.0866 22.7828 16.1257 22.8283C16.1647 22.8739 16.1943 22.9268 16.2125 22.984C16.2307 23.0411 16.2373 23.1014 16.2318 23.1611C16.2263 23.2209 16.2088 23.2789 16.1804 23.3318L15.1991 25.2944C15.1619 25.3683 15.1049 25.4305 15.0345 25.474C14.9642 25.5175 14.8831 25.5406 14.8003 25.5409Z" fill="#BF38A7"/>
<path d="M19.7293 25.0928C19.6316 25.0979 19.5349 25.0709 19.454 25.0158C19.3731 24.9608 19.3124 24.8808 19.2812 24.7881L18.7749 23.2646C18.7563 23.2087 18.749 23.1497 18.7533 23.0909C18.7575 23.0322 18.7733 22.9749 18.7997 22.9222C18.8262 22.8696 18.8627 22.8227 18.9072 22.7842C18.9518 22.7457 19.0035 22.7163 19.0594 22.6978C19.1153 22.6792 19.1743 22.6719 19.233 22.6762C19.2918 22.6804 19.3491 22.6962 19.4017 22.7226C19.4544 22.7491 19.5013 22.7856 19.5398 22.8301C19.5783 22.8747 19.6077 22.9264 19.6262 22.9823L20.1774 24.5013C20.1995 24.56 20.2091 24.6226 20.2055 24.6853C20.2019 24.7479 20.1852 24.809 20.1565 24.8648C20.1278 24.9205 20.0877 24.9696 20.0388 25.0089C19.9899 25.0482 19.9333 25.0768 19.8727 25.0928C19.8251 25.0989 19.7769 25.0989 19.7293 25.0928Z" fill="#BF38A7"/>
<path d="M20.6255 0.448085V0H14.3523V0.448085C14.3067 3.90381 13.0743 7.23879 10.8617 9.89373C9.84817 11.1513 9.21331 12.6713 9.03121 14.2762C8.84912 15.8811 9.12731 17.5046 9.83331 18.9573C10.5393 20.41 11.644 21.632 13.0184 22.4804C14.3928 23.3289 15.9801 23.7688 17.5952 23.749C19.2102 23.7291 20.7863 23.2503 22.1394 22.3683C23.4926 21.4863 24.5669 20.2376 25.237 18.768C25.907 17.2984 26.1452 15.6685 25.9238 14.0686C25.7023 12.4686 25.0302 10.9647 23.9861 9.73242C21.8021 7.13309 20.6112 3.84313 20.6255 0.448085Z" fill="#D988CA"/>
<path d="M20.0877 21.9024C18.576 21.7256 17.1394 21.1469 15.9274 20.2264C14.7154 19.3059 13.7722 18.0774 13.1962 16.6687C12.6202 15.2599 12.4323 13.7226 12.6522 12.2166C12.872 10.7106 13.4916 9.29112 14.4463 8.10587C16.3417 5.76238 16.2252 2.96633 16.1445 0H14.3522V0.448085C14.3066 3.90382 13.0741 7.23879 10.8616 9.89373C9.56079 11.5431 8.91571 13.6152 9.05036 15.7114C9.18501 17.8077 10.0899 19.7802 11.591 21.2496C13.0921 22.7191 15.0835 23.5816 17.1821 23.6715C19.2808 23.7614 21.3386 23.0723 22.9599 21.7366C22.0186 21.9528 21.0476 22.0089 20.0877 21.9024Z" fill="#BF38A7"/>
<path d="M21.768 9.7369C20.2637 6.87493 19.5026 3.68089 19.5544 0.448085V0H19.1377V0.448085C19.0949 3.63133 19.7049 6.78958 20.9301 9.72793C21.5708 11.2021 22.8658 13.1379 22.8658 15.2349C22.8658 19.9398 20.0742 23.7485 17.4888 23.7485C20.7105 23.7485 24.2101 19.9398 24.2101 15.2349C24.2101 13.1379 22.5969 11.2021 21.768 9.7369Z" fill="#BF38A7"/>
<path d="M16.969 23.6948C14.8989 23.2467 12.3358 20.0384 12.1342 16.0773C12.0132 13.7204 13.2947 11.5427 14.0027 9.88028C15.2311 6.88814 15.8555 3.68254 15.8399 0.448085V0H15.4187V0.448085C15.4299 3.73647 14.641 6.97823 13.12 9.89373C12.2238 11.5561 10.6331 13.7338 10.7855 16.0907C11.0409 20.0339 14.2447 23.2601 16.8391 23.7082C17.0541 23.7401 17.2715 23.7536 17.4888 23.7485C17.3142 23.749 17.1399 23.731 16.969 23.6948Z" fill="#BF38A7"/>
<path d="M17.332 23.6948C16.7136 23.2467 15.3156 20.0384 15.2529 16.0773C15.217 13.7204 16.2297 11.5427 16.4403 9.88028C16.8183 6.75059 17.0024 3.60051 16.9914 0.448085V0H16.6957V0.448085C16.7078 3.61842 16.4076 6.78223 15.7995 9.89373C15.4724 11.5606 13.8504 13.7383 13.9041 16.0952C14.0027 20.0384 16.2387 23.2646 17.2334 23.7127C17.3151 23.7423 17.4021 23.7545 17.4888 23.7485C17.4322 23.7476 17.3773 23.7288 17.332 23.6948Z" fill="#BF38A7"/>
<path d="M19.1288 9.7369C18.5335 6.67717 18.2498 3.56501 18.2819 0.448085V0H17.9861V0.448085C17.9666 3.54942 18.1432 6.64889 18.5149 9.72793C18.712 11.2021 19.7292 13.1379 19.7292 15.2349C19.7292 19.9443 18.3401 23.7485 17.4888 23.7485C18.833 23.7485 21.0735 19.9488 21.0735 15.2349C21.0735 13.1379 19.4469 11.2021 19.1288 9.7369Z" fill="#BF38A7"/>
<path d="M17.5651 23.7485H17.6099C19.0582 23.6407 20.4159 23.0025 21.4231 21.9562C21.1574 21.9699 20.8912 21.9699 20.6255 21.9562C19.7293 23.045 18.627 23.7172 17.5651 23.7485Z" fill="#7F256F"/>
<path d="M12.1342 16.0952C12.1098 15.1362 12.2617 14.1809 12.5823 13.2768C12.6125 11.3917 13.2735 9.57118 14.4598 8.10587C14.5942 7.93559 14.7197 7.76532 14.8362 7.59057C15.5105 5.26997 15.8485 2.86466 15.8399 0.448085V0H15.4187V0.448085C15.4299 3.73647 14.641 6.97823 13.12 9.89373C12.2238 11.5561 10.6331 13.7338 10.7855 16.0907C11.0409 20.0339 14.2447 23.2601 16.8391 23.7082L17.1348 23.744H17.2648H17.4485C17.286 23.7394 17.1241 23.7215 16.9646 23.6903C14.8989 23.2512 12.3358 20.0384 12.1342 16.0952Z" fill="#7F256F"/>
<path d="M15.7682 20.0877C15.191 19.6256 14.6759 19.091 14.2357 18.497C14.9078 21.2796 16.4537 23.3453 17.2379 23.6948C17.3167 23.7304 17.4023 23.7488 17.4888 23.7485C17.4357 23.7473 17.3842 23.7302 17.3409 23.6992C16.9422 23.417 16.2476 22.0458 15.7682 20.0877Z" fill="#7F256F"/>
<path d="M19.5142 21.8083C19.2753 21.7679 19.039 21.714 18.8062 21.647C18.385 22.9375 17.8921 23.7485 17.5112 23.7485C18.1117 23.7485 18.86 23.0092 19.5142 21.8083Z" fill="#7F256F"/>
<path d="M7.63088 25.989C11.8379 25.989 15.2483 22.5785 15.2483 18.3715C15.2483 14.1645 11.8379 10.7541 7.63088 10.7541C3.42388 10.7541 0.0134277 14.1645 0.0134277 18.3715C0.0134277 22.5785 3.42388 25.989 7.63088 25.989Z" fill="#FFE2DD"/>
<path d="M10.3194 22.8524C9.04034 22.851 7.78219 22.5275 6.66104 21.9118C5.53988 21.2961 4.59182 20.408 3.9043 19.3293C3.21678 18.2507 2.81193 17.0164 2.7271 15.7401C2.64227 14.4638 2.88019 13.1867 3.41892 12.0266C2.43587 12.676 1.61685 13.5445 1.02624 14.564C0.435638 15.5834 0.0895499 16.7259 0.0151888 17.9018C-0.0591723 19.0776 0.14022 20.2546 0.597691 21.3403C1.05516 22.4261 1.75824 23.3909 2.65165 24.1589C3.54506 24.927 4.60444 25.4773 5.74651 25.7667C6.88859 26.056 8.08222 26.0765 9.23356 25.8266C10.3849 25.5766 11.4626 25.063 12.3818 24.3261C13.3011 23.5892 14.0369 22.6492 14.5314 21.5798C13.2842 22.4113 11.8184 22.8541 10.3194 22.8524Z" fill="#D988CA"/>
<path d="M7.63095 23.3004C6.16449 23.2991 4.75248 22.7448 3.67683 21.748C2.60118 20.7513 1.94105 19.3855 1.82825 17.9234V18.3715C1.82825 19.9164 2.44196 21.3981 3.53438 22.4905C4.6268 23.5829 6.10844 24.1966 7.65336 24.1966C9.19827 24.1966 10.6799 23.5829 11.7723 22.4905C12.8648 21.3981 13.4785 19.9164 13.4785 18.3715C13.4785 18.2192 13.4785 18.0713 13.4785 17.9234C13.3651 19.3933 12.6986 20.7655 11.6135 21.7633C10.5283 22.7612 9.10514 23.3105 7.63095 23.3004Z" fill="#D988CA"/>
<path d="M8.97519 14.5762C9.6919 15.0578 10.2351 15.7568 10.5248 16.5702C10.8146 17.3837 10.8356 18.2686 10.5847 19.0949C10.3339 19.9212 9.82447 20.6451 9.13141 21.1602C8.43835 21.6753 7.59826 21.9543 6.73476 21.9562C6.27634 21.9551 5.82156 21.8747 5.3905 21.7187C5.86536 22.0441 6.40436 22.264 6.97129 22.3637C7.53821 22.4634 8.11991 22.4406 8.67728 22.2968C9.23466 22.153 9.75479 21.8916 10.2027 21.5301C10.6507 21.1685 11.016 20.7153 11.2742 20.2008C11.5324 19.6864 11.6775 19.1226 11.6997 18.5474C11.7219 17.9722 11.6207 17.3989 11.4029 16.8661C11.1851 16.3333 10.8557 15.8532 10.437 15.4583C10.0183 15.0633 9.51982 14.7625 8.97519 14.5762Z" fill="#D988CA"/>
<path d="M8.52709 19.7158C7.93289 19.7158 7.36303 19.4797 6.94286 19.0596C6.5227 18.6394 6.28666 18.0695 6.28666 17.4753C6.28863 17.1031 6.38581 16.7375 6.56895 16.4134C6.25621 16.5755 5.9861 16.809 5.78055 17.0951C5.57499 17.3811 5.43977 17.7116 5.38588 18.0597C5.33198 18.4078 5.36093 18.7637 5.47036 19.0985C5.57979 19.4333 5.76663 19.7376 6.0157 19.9867C6.26478 20.2358 6.56908 20.4226 6.9039 20.5321C7.23871 20.6415 7.59462 20.6704 7.94272 20.6165C8.29082 20.5626 8.62131 20.4274 8.90736 20.2219C9.19341 20.0163 9.42696 19.7462 9.58905 19.4335C9.26494 19.6166 8.89936 19.7138 8.52709 19.7158Z" fill="#D988CA"/>
<path d="M1.82825 17.9234V18.3715C1.82975 19.4874 2.15173 20.5793 2.75588 21.5175C3.36004 22.4557 4.22095 23.2006 5.23622 23.6636C6.25149 24.1266 7.37839 24.2883 8.48289 24.1294C9.58739 23.9705 10.623 23.4977 11.4666 22.7672C11.0871 22.8263 10.7035 22.8548 10.3195 22.8524C10.1806 22.8524 10.0461 22.8524 9.91171 22.8524C9.06066 23.2101 8.13677 23.3604 7.21621 23.2909C6.29565 23.2215 5.40478 22.9342 4.61705 22.4528C3.82932 21.9714 3.16729 21.3097 2.68553 20.5222C2.20377 19.7347 1.91607 18.844 1.84617 17.9234H1.82825Z" fill="#BF38A7"/>
<path d="M5.3905 21.7187C6.05194 22.1662 6.83236 22.405 7.63093 22.4043H7.74743C7.39934 22.28 7.06087 22.1302 6.73476 21.9562C6.27634 21.9551 5.82156 21.8747 5.3905 21.7187Z" fill="#BF38A7"/>
<path d="M7.631 22.8524C6.74477 22.8524 5.87845 22.5896 5.14157 22.0972C4.4047 21.6048 3.83038 20.905 3.49123 20.0863C3.15209 19.2675 3.06335 18.3665 3.23625 17.4973C3.40914 16.6281 3.8359 15.8297 4.46256 15.2031C5.08922 14.5764 5.88763 14.1496 6.75683 13.9767C7.62603 13.8039 8.52698 13.8926 9.34575 14.2317C10.1645 14.5709 10.8643 15.1452 11.3567 15.8821C11.8491 16.6189 12.1119 17.4853 12.1119 18.3715C12.1119 18.4903 12.0646 18.6043 11.9806 18.6884C11.8966 18.7724 11.7826 18.8196 11.6638 18.8196C11.5449 18.8196 11.431 18.7724 11.3469 18.6884C11.2629 18.6043 11.2157 18.4903 11.2157 18.3715C11.215 17.5422 10.9269 16.7388 10.4003 16.0981C9.87369 15.4575 9.14126 15.0192 8.32778 14.858C7.5143 14.6968 6.67009 14.8227 5.93898 15.2141C5.20788 15.6055 4.63511 16.2384 4.31827 17.0047C4.00142 17.7711 3.9601 18.6237 4.20135 19.4171C4.44259 20.2105 4.95147 20.8958 5.64129 21.3561C6.33111 21.8164 7.15919 22.0233 7.98445 21.9415C8.80971 21.8598 9.58109 21.4944 10.1672 20.9077C10.2073 20.8608 10.2568 20.8227 10.3124 20.7958C10.368 20.7689 10.4285 20.7538 10.4902 20.7514C10.5519 20.749 10.6135 20.7594 10.671 20.7819C10.7285 20.8044 10.7807 20.8386 10.8244 20.8823C10.868 20.926 10.9022 20.9782 10.9247 21.0357C10.9472 21.0932 10.9576 21.1547 10.9553 21.2164C10.9529 21.2781 10.9378 21.3387 10.9109 21.3943C10.884 21.4499 10.8459 21.4993 10.799 21.5395C10.384 21.957 9.89034 22.288 9.34655 22.5134C8.80275 22.7387 8.21965 22.854 7.631 22.8524Z" fill="#BF38A7"/>
<path d="M7.6309 21.06C6.91786 21.06 6.23402 20.7768 5.72983 20.2726C5.22564 19.7684 4.94238 19.0845 4.94238 18.3715C4.94238 18.2527 4.98959 18.1387 5.07362 18.0547C5.15766 17.9706 5.27163 17.9234 5.39047 17.9234C5.50931 17.9234 5.62328 17.9706 5.70731 18.0547C5.79134 18.1387 5.83855 18.2527 5.83855 18.3715C5.83855 18.726 5.94367 19.0725 6.14062 19.3673C6.33756 19.662 6.61749 19.8918 6.945 20.0274C7.2725 20.1631 7.63288 20.1986 7.98056 20.1294C8.32824 20.0603 8.64761 19.8896 8.89827 19.6389C9.14894 19.3882 9.31964 19.0689 9.3888 18.7212C9.45796 18.3735 9.42246 18.0131 9.2868 17.6856C9.15115 17.3581 8.92142 17.0782 8.62667 16.8812C8.33192 16.6843 7.98539 16.5792 7.6309 16.5792C7.51206 16.5792 7.39808 16.532 7.31405 16.4479C7.23002 16.3639 7.18281 16.2499 7.18281 16.1311C7.18281 16.0122 7.23002 15.8983 7.31405 15.8142C7.39808 15.7302 7.51206 15.683 7.6309 15.683C8.34393 15.683 9.02777 15.9663 9.53196 16.4704C10.0362 16.9746 10.3194 17.6585 10.3194 18.3715C10.3194 19.0845 10.0362 19.7684 9.53196 20.2726C9.02777 20.7768 8.34393 21.06 7.6309 21.06Z" fill="#BF38A7"/>
<path d="M2.20019 20.9211C2.11379 20.9165 2.03058 20.8869 1.96061 20.8361C1.89064 20.7852 1.8369 20.7151 1.80587 20.6343C1.4689 19.7607 1.33179 18.8226 1.40462 17.889C1.47745 16.9554 1.75836 16.05 2.22674 15.2391C2.69513 14.4283 3.3391 13.7326 4.11142 13.203C4.88374 12.6735 5.76482 12.3236 6.69 12.179C6.80884 12.1611 6.9299 12.1913 7.02653 12.2627C7.12317 12.3341 7.18748 12.441 7.2053 12.5598C7.22313 12.6787 7.19302 12.7997 7.12159 12.8964C7.05016 12.993 6.94327 13.0573 6.82443 13.0751C5.55293 13.2606 4.39089 13.8981 3.55141 14.8709C2.71193 15.8437 2.25129 17.0866 2.25396 18.3715C2.25353 19.0341 2.37819 19.6909 2.62139 20.3072C2.64309 20.3622 2.6537 20.421 2.6526 20.4801C2.65149 20.5392 2.6387 20.5975 2.61496 20.6517C2.59122 20.7058 2.557 20.7547 2.51426 20.7956C2.47153 20.8365 2.42114 20.8685 2.36598 20.8898C2.31269 20.9088 2.25675 20.9194 2.20019 20.9211Z" fill="#BF38A7"/>
<path d="M7.63099 24.6447C6.69387 24.6444 5.76873 24.4341 4.92354 24.0294C4.07834 23.6246 3.33457 23.0356 2.74686 22.3057C2.70979 22.2598 2.68212 22.2071 2.66543 22.1505C2.64875 22.0939 2.64337 22.0345 2.64962 21.9759C2.65586 21.9172 2.67359 21.8603 2.70181 21.8085C2.73003 21.7567 2.76817 21.711 2.81407 21.6739C2.85997 21.6368 2.91272 21.6092 2.96931 21.5925C3.0259 21.5758 3.08522 21.5704 3.14389 21.5767C3.20256 21.5829 3.25943 21.6006 3.31124 21.6288C3.36305 21.6571 3.4088 21.6952 3.44587 21.7411C3.99249 22.424 4.69745 22.9632 5.4996 23.312C6.30175 23.6607 7.17688 23.8086 8.04909 23.7426C8.9213 23.6766 9.76424 23.3989 10.5048 22.9335C11.2454 22.468 11.8613 21.8289 12.299 21.0716C12.7367 20.3143 12.9831 19.4617 13.0167 18.5876C13.0503 17.7136 12.8702 16.8445 12.492 16.0558C12.1138 15.2671 11.5489 14.5826 10.8462 14.0616C10.1436 13.5407 9.32451 13.199 8.45995 13.0662C8.34111 13.0483 8.23422 12.984 8.16279 12.8874C8.09136 12.7908 8.06125 12.6697 8.07908 12.5509C8.0969 12.432 8.16121 12.3251 8.25785 12.2537C8.35448 12.1823 8.47554 12.1522 8.59438 12.17C10.1595 12.4086 11.5765 13.2302 12.5612 14.47C13.5458 15.7098 14.0253 17.276 13.9034 18.8546C13.7815 20.4331 13.0672 21.9071 11.9039 22.981C10.7406 24.0549 9.21421 24.6492 7.63099 24.6447Z" fill="#BF38A7"/>
<path d="M7.63093 22.8524C8.02125 22.8517 8.40983 22.8005 8.78699 22.7C7.89995 22.5186 7.05293 22.1786 6.28668 21.6963C5.5602 21.4037 4.94955 20.8811 4.54811 20.2087C3.94868 19.5201 3.48088 18.7273 3.168 17.8696C3.15298 18.0365 3.14699 18.204 3.15008 18.3715C3.15008 19.5599 3.62217 20.6996 4.46249 21.5399C5.30281 22.3803 6.44254 22.8524 7.63093 22.8524Z" fill="#7F256F"/>
<path d="M1.80583 20.6343C1.83832 20.7185 1.89549 20.791 1.96985 20.8422C2.04421 20.8933 2.13229 20.9208 2.22255 20.9211C2.27911 20.9194 2.33505 20.9088 2.38834 20.8897C2.4435 20.8684 2.49389 20.8364 2.53662 20.7956C2.57936 20.7547 2.61358 20.7058 2.63732 20.6517C2.66106 20.5975 2.67386 20.5392 2.67496 20.4801C2.67606 20.421 2.66545 20.3622 2.64375 20.3072C2.39289 19.6923 2.26062 19.0356 2.25391 18.3715C2.25253 17.5866 2.42386 16.811 2.75577 16.0997C2.71988 15.8128 2.70192 15.524 2.702 15.2349C2.70328 14.9655 2.71824 14.6963 2.74681 14.4284C2.05873 15.289 1.60949 16.3157 1.44431 17.4052C1.27912 18.4946 1.40381 19.6084 1.80583 20.6343Z" fill="#7F256F"/>
<path d="M3.44587 21.7411C3.4088 21.6952 3.36305 21.6571 3.31124 21.6288C3.25943 21.6006 3.20256 21.5829 3.14389 21.5767C3.08522 21.5704 3.0259 21.5758 2.96931 21.5925C2.91272 21.6092 2.85997 21.6368 2.81407 21.6739C2.76817 21.711 2.73003 21.7567 2.70181 21.8085C2.67359 21.8603 2.65586 21.9172 2.64962 21.9759C2.64337 22.0345 2.64875 22.0939 2.66543 22.1505C2.68212 22.2071 2.70979 22.2598 2.74686 22.3057C3.31454 23.0075 4.027 23.5785 4.83557 23.9798C5.64414 24.381 6.52978 24.6031 7.43202 24.6307C8.33425 24.6584 9.23183 24.491 10.0635 24.14C10.8951 23.789 11.6412 23.2627 12.2508 22.597C11.7163 22.7388 11.1678 22.8214 10.6152 22.8434C9.49825 23.5876 8.14332 23.8872 6.8167 23.6832C5.49008 23.4792 4.28771 22.7865 3.44587 21.7411Z" fill="#7F256F"/>
</svg>
