<svg width="30" height="26" viewBox="0 0 30 26" fill="none" xmlns="http://www.w3.org/2000/svg">
<path d="M22 26H21C16.5817 26 13 22.4183 13 18C13 13.5817 16.5817 10 21 10H22C26.4182 10 30 13.5817 30 18C30 22.4183 26.4183 26 22 26Z" fill="#D7322D"/>
<path d="M21 26C25.4183 26 29 22.4183 29 18C29 13.5817 25.4183 10 21 10C16.5817 10 13 13.5817 13 18C13 22.4183 16.5817 26 21 26Z" fill="#F04B37"/>
<path d="M15 16H14C9.58175 16 6 12.4183 6 8C6 3.58175 9.58169 0 14 0H15C19.4182 0 23 3.58169 23 8C23 12.4183 19.4183 16 15 16Z" fill="#D7322D"/>
<path d="M14 16C18.4183 16 22 12.4183 22 8C22 3.58172 18.4183 0 14 0C9.58172 0 6 3.58172 6 8C6 12.4183 9.58172 16 14 16Z" fill="#F04B37"/>
<path d="M9 26H8C3.58175 26 0 22.4183 0 18C0 13.5817 3.58169 10 8 10H9C13.4182 10 17 13.5817 17 18C17 22.4183 13.4183 26 9 26Z" fill="#D7322D"/>
<path d="M8 26C12.4183 26 16 22.4183 16 18C16 13.5817 12.4183 10 8 10C3.58172 10 0 13.5817 0 18C0 22.4183 3.58172 26 8 26Z" fill="#F04B37"/>
<path d="M13.6666 20.3333C14.2189 20.3333 14.6666 19.8856 14.6666 19.3333C14.6666 18.781 14.2189 18.3333 13.6666 18.3333C13.1143 18.3333 12.6666 18.781 12.6666 19.3333C12.6666 19.8856 13.1143 20.3333 13.6666 20.3333Z" fill="#FF8773"/>
<path d="M20.3333 23.8333C20.8855 23.8333 21.3333 23.3856 21.3333 22.8333C21.3333 22.281 20.8855 21.8333 20.3333 21.8333C19.781 21.8333 19.3333 22.281 19.3333 22.8333C19.3333 23.3856 19.781 23.8333 20.3333 23.8333Z" fill="#FF8773"/>
<path d="M2.5 18.8333C3.05228 18.8333 3.5 18.3856 3.5 17.8333C3.5 17.281 3.05228 16.8333 2.5 16.8333C1.94772 16.8333 1.5 17.281 1.5 17.8333C1.5 18.3856 1.94772 18.8333 2.5 18.8333Z" fill="#FF8773"/>
<path d="M17 9.5C17.5523 9.5 18 9.05228 18 8.5C18 7.94772 17.5523 7.5 17 7.5C16.4477 7.5 16 7.94772 16 8.5C16 9.05228 16.4477 9.5 17 9.5Z" fill="#FF8773"/>
<path d="M12.4166 16.8333C12.5547 16.8333 12.6666 16.7214 12.6666 16.5833C12.6666 16.4452 12.5547 16.3333 12.4166 16.3333C12.2786 16.3333 12.1666 16.4452 12.1666 16.5833C12.1666 16.7214 12.2786 16.8333 12.4166 16.8333Z" fill="#FF8773"/>
<path d="M20.1666 17.1667C20.3047 17.1667 20.4166 17.0548 20.4166 16.9167C20.4166 16.7786 20.3047 16.6667 20.1666 16.6667C20.0286 16.6667 19.9166 16.7786 19.9166 16.9167C19.9166 17.0548 20.0286 17.1667 20.1666 17.1667Z" fill="#FF8773"/>
<path d="M12.8334 9.41669C12.9714 9.41669 13.0834 9.30476 13.0834 9.16669C13.0834 9.02862 12.9714 8.91669 12.8334 8.91669C12.6953 8.91669 12.5834 9.02862 12.5834 9.16669C12.5834 9.30476 12.6953 9.41669 12.8334 9.41669Z" fill="#FF8773"/>
<path d="M5.91663 22.5C6.0547 22.5 6.16663 22.3881 6.16663 22.25C6.16663 22.1119 6.0547 22 5.91663 22C5.77855 22 5.66663 22.1119 5.66663 22.25C5.66663 22.3881 5.77855 22.5 5.91663 22.5Z" fill="#FF8773"/>
<path d="M7.24994 18.3333C7.57209 18.3333 7.83325 18.0722 7.83325 17.75C7.83325 17.4278 7.57209 17.1667 7.24994 17.1667C6.92778 17.1667 6.66663 17.4278 6.66663 17.75C6.66663 18.0722 6.92778 18.3333 7.24994 18.3333Z" fill="#FF8773"/>
<path d="M27.3333 20.5833C27.6555 20.5833 27.9166 20.3222 27.9166 20C27.9166 19.6778 27.6555 19.4167 27.3333 19.4167C27.0112 19.4167 26.75 19.6778 26.75 20C26.75 20.3222 27.0112 20.5833 27.3333 20.5833Z" fill="#FF8773"/>
<path d="M23.9167 15.8333C24.2388 15.8333 24.5 15.5722 24.5 15.25C24.5 14.9278 24.2388 14.6667 23.9167 14.6667C23.5945 14.6667 23.3334 14.9278 23.3334 15.25C23.3334 15.5722 23.5945 15.8333 23.9167 15.8333Z" fill="#FF8773"/>
<path d="M11.9999 4.41662C12.3221 4.41662 12.5833 4.15547 12.5833 3.83331C12.5833 3.51116 12.3221 3.25 11.9999 3.25C11.6778 3.25 11.4166 3.51116 11.4166 3.83331C11.4166 4.15547 11.6778 4.41662 11.9999 4.41662Z" fill="#FF8773"/>
<path d="M9.24994 13.5C9.57209 13.5 9.83325 13.2388 9.83325 12.9167C9.83325 12.5945 9.57209 12.3334 9.24994 12.3334C8.92778 12.3334 8.66663 12.5945 8.66663 12.9167C8.66663 13.2388 8.92778 13.5 9.24994 13.5Z" fill="#FF8773"/>
</svg>
