<svg width="23" height="26" viewBox="0 0 23 26" fill="none" xmlns="http://www.w3.org/2000/svg">
<path d="M22.4242 24.2266C22.665 23.7601 22.7483 23.3253 22.7588 22.9654C22.7769 22.3602 22.3153 21.8502 21.7111 21.8112C21.2284 21.7798 20.7821 21.855 20.4029 21.9679C19.588 22.2107 19.1389 23.0801 19.4124 23.8851C19.5398 24.2598 19.7367 24.6672 20.0416 25.0427C20.4233 25.5128 21.1061 25.5942 21.5895 25.2294C21.8765 25.0126 22.1832 24.693 22.4242 24.2266Z" fill="#A82B2B"/>
<path d="M4.1171 0C3.59203 0 3.16753 0.125763 2.84301 0.281281C2.29711 0.543122 2.0559 1.18741 2.2985 1.74204C2.4921 2.18518 2.76386 2.5474 3.0382 2.83245C3.62774 3.445 4.60647 3.445 5.19621 2.83245C5.47055 2.5474 5.74211 2.18518 5.93591 1.74204C6.17831 1.18741 5.9371 0.543122 5.3912 0.281281C5.06668 0.125763 4.64218 0 4.1171 0V0Z" fill="#A82B2B"/>
<path d="M5.90218 1.81563C5.71155 2.22545 5.45507 2.56346 5.1962 2.83245C4.60626 3.4448 3.62773 3.4448 3.03839 2.83245C2.8196 2.60532 2.60298 2.32959 2.42664 2.00308C3.51724 1.4917 4.76595 1.46095 5.90218 1.81563Z" fill="#8E2424"/>
<path d="M21.6848 21.8102C21.6979 23.1458 21.1688 24.374 20.2939 25.2716C20.2006 25.2103 20.1153 25.134 20.0415 25.0429C19.737 24.6672 19.5397 24.2594 19.4125 23.8853C19.1388 23.0799 19.5879 22.2107 20.4028 21.9679C20.7753 21.8574 21.2123 21.7826 21.6848 21.8102Z" fill="#8E2424"/>
<path d="M17.1302 16.9635C15.5901 16.595 14.1934 16.0965 12.9187 15.1122C10.868 13.5285 9.70007 11.1584 9.32258 8.62469C9.07879 6.98898 9.30731 5.59428 8.17822 4.21406C6.71984 2.43116 3.94214 1.84856 2.0065 3.227C-0.582153 5.07059 -0.103103 9.04721 0.388047 11.7344C1.11485 15.7123 3.1106 19.3943 6.337 21.8889C7.66584 22.9165 9.10954 23.7996 10.6393 24.4946C12.3974 25.2935 14.3896 26.1139 16.357 25.9869C18.8808 25.8239 20.7944 23.6458 20.6313 21.122C20.5014 19.1104 19.0299 17.418 17.1302 16.9635Z" fill="#EA4444"/>
<path d="M16.7051 25.9516C18.2454 25.1326 19.2455 23.4651 19.1261 21.6114C18.9964 19.5998 18.1236 18.5096 16.224 18.0553C14.6837 17.687 12.688 16.5858 11.4131 15.6016C9.3628 14.018 8.19463 11.6484 7.81734 9.11425C7.57355 7.47894 7.80227 6.08364 6.67278 4.70362C5.64644 3.44797 3.9655 2.78821 2.38513 2.98856C4.28943 1.92771 6.81243 2.54423 8.17837 4.21426C9.30726 5.59428 9.07914 6.98898 9.32233 8.62449C9.70022 11.1584 10.8678 13.5287 12.9189 15.1122C14.1932 16.0967 15.5899 16.5948 17.1302 16.9637C19.0299 17.418 20.5014 19.1104 20.6313 21.1222C20.7866 23.5284 19.0545 25.6208 16.7051 25.9516Z" fill="#D93131"/>
<path d="M7.3326 7.47477C7.56766 8.03436 7.30483 8.67864 6.74524 8.91371L3.7539 10.1709C3.19452 10.4062 2.55023 10.1432 2.31497 9.58358C2.07991 9.024 2.34274 8.37971 2.90233 8.14465L5.89366 6.88741C6.45305 6.65215 7.09734 6.91518 7.3326 7.47477Z" fill="#F89696"/>
<path d="M8.55351 12.4846C8.78063 13.0476 8.50868 13.6881 7.94572 13.9152L4.93692 15.1298C4.37416 15.357 3.73365 15.0848 3.50652 14.522C3.27919 13.9591 3.55135 13.3188 4.11431 13.0914L7.1231 11.8771C7.68586 11.6497 8.32638 11.9219 8.55351 12.4846Z" fill="#F89696"/>
<path d="M11.4432 16.3218C11.6989 16.8723 11.4599 17.5257 10.9094 17.7814L7.96651 19.1481C7.41605 19.4038 6.76244 19.1648 6.50695 18.6143C6.25126 18.0638 6.49028 17.4102 7.04075 17.1545L9.98368 15.7878C10.5341 15.5323 11.1876 15.7713 11.4432 16.3218Z" fill="#F89696"/>
<path d="M15.2511 19.6337C15.5371 20.1691 15.335 20.835 14.7996 21.1208L11.9376 22.6496C11.4022 22.9357 10.7363 22.7335 10.4505 22.1982C10.1644 21.6628 10.3665 20.9969 10.9019 20.711L13.7639 19.1822C14.2993 18.8962 14.965 19.0983 15.2511 19.6337Z" fill="#F89696"/>
</svg>
