<svg width="26" height="26" viewBox="0 0 26 26" fill="none" xmlns="http://www.w3.org/2000/svg">
<path d="M15.7513 10.4479L14.7931 14.1402L18.3031 15.1331C18.6845 15.2405 19.084 15.2681 19.4766 15.2142C19.8691 15.1603 20.2464 15.026 20.5847 14.8197L24.2586 12.6001C25.0645 12.1052 25.6453 11.3152 25.8772 10.3983C26.3795 8.46311 25.2952 6.47243 23.4555 5.95209C23.0172 5.82866 22.5582 5.79692 22.1071 5.85888C21.6561 5.92083 21.2226 6.07514 20.8338 6.31217L17.1599 8.53181C16.4586 8.96251 15.9531 9.65003 15.7513 10.4479Z" fill="#5F8C46"/>
<path d="M16.0004 10.2487L12.3081 11.2069L11.3152 7.6969C11.2078 7.31549 11.1802 6.91601 11.2341 6.52344C11.288 6.13087 11.4223 5.75363 11.6286 5.41529L13.8482 1.74139C14.3431 0.935483 15.1331 0.354694 16.05 0.122779C17.9852 -0.379458 19.9758 0.704809 20.4962 2.54448C20.6196 2.98275 20.6513 3.44176 20.5894 3.89285C20.5274 4.34394 20.3731 4.7774 20.1361 5.16616L17.9165 8.84012C17.4858 9.54143 16.7982 10.0469 16.0004 10.2487Z" fill="#5F8C46"/>
<path d="M23.9743 10.5334C23.689 10.6295 23.3818 10.6405 23.0903 10.5651C22.7988 10.4897 22.5355 10.3312 22.3325 10.1088L24.2923 8.92478L23.8287 8.15739L21.891 9.328C21.7229 8.46356 22.5781 7.75018 22.6202 7.71567L22.0573 7.01787C21.4813 7.48256 20.6482 8.59602 21.0936 9.8099L14.5613 13.7565L15.0249 14.5239L21.5524 10.5803C22.1499 11.2959 22.8913 11.508 23.4928 11.508C23.7656 11.5105 24.0367 11.4642 24.2933 11.3714L23.9743 10.5334Z" fill="#6A9C46"/>
<path d="M17.0345 5.38066C18.2561 5.38066 19.484 4.4404 19.5508 4.38834L19.0013 3.68023C18.6279 3.96892 17.6529 4.55998 16.8978 4.47693L18.291 2.171L17.5236 1.70743L16.1233 4.02507C15.551 3.33708 15.6835 2.31669 15.6851 2.30481L15.2414 2.24138L14.7978 2.17638C14.7873 2.24855 14.5722 3.82576 15.6427 4.82059L11.9244 10.9751L12.6918 11.4387L16.4083 5.28713C16.6109 5.35064 16.8222 5.38219 17.0345 5.38066Z" fill="#6A9C46"/>
<path d="M23.7698 12.5741C25.7977 13.6376 26.5869 16.1574 25.5324 18.2025C25.283 18.6876 24.9403 19.1188 24.5241 19.4713C24.1079 19.8238 23.6262 20.0908 23.1067 20.2569L18.2709 21.7969C17.82 21.9405 17.345 21.9931 16.8735 21.9518C16.4021 21.9104 15.9435 21.7759 15.5245 21.5559L13.3749 20.5759C12.8419 20.3329 12.2422 20.2776 11.6737 20.419L11.6552 20.4236C9.28835 21.1455 7.08978 22.3335 5.18881 23.9177L3.23147 25.5484C2.88133 25.8402 2.43998 26 1.9842 26H1.94795C1.66149 26.0003 1.37851 25.9373 1.11925 25.8154C0.859986 25.6936 0.630854 25.516 0.448242 25.2953L1.79307 24.2069C1.79307 24.2069 1.8491 24.4125 4.09048 22.6194C5.76278 21.2815 8.4113 19.537 11.3319 18.6073C11.7969 18.4614 12.1912 18.1482 12.4386 17.7283L13.6671 15.625C13.8841 15.2028 14.1823 14.8276 14.5446 14.5208C14.9068 14.214 15.326 13.9817 15.7782 13.8371L20.6139 12.2971C21.1321 12.1321 21.6779 12.0716 22.2196 12.1191C22.7614 12.1667 23.2883 12.3214 23.7698 12.5741Z" fill="#6A9C46"/>
<path d="M13.4259 2.23018C12.3624 0.202231 9.84257 -0.586902 7.79748 0.467611C7.31238 0.717009 6.88124 1.05963 6.52872 1.47586C6.1762 1.89209 5.90923 2.37375 5.74309 2.89329L4.20315 7.72906C4.05952 8.18001 4.00686 8.65498 4.04823 9.12643C4.08959 9.59789 4.22414 10.0564 4.4441 10.4755L5.42414 12.6251C5.66714 13.1581 5.72244 13.7577 5.58103 14.3262L5.57644 14.3448C4.85456 16.7116 3.66665 18.9102 2.08258 20.8112L0.451583 22.7685C0.159803 23.1186 9.30607e-06 23.56 9.39214e-07 24.0158V24.052C-0.000280627 24.3385 0.0627492 24.6215 0.184582 24.8807C0.306414 25.14 0.484038 25.3691 0.704747 25.5517L1.7931 24.2069C1.7931 24.2069 1.58751 24.1509 3.38062 21.9095C4.7185 20.2372 6.46296 17.5887 7.39269 14.668C7.53858 14.203 7.85182 13.8087 8.27175 13.5614L10.375 12.3329C10.7972 12.1158 11.1724 11.8176 11.4792 11.4554C11.786 11.0932 12.0183 10.674 12.1629 10.2218L13.7029 5.38604C13.8679 4.86786 13.9284 4.32207 13.8809 3.78032C13.8333 3.23858 13.6786 2.71168 13.4259 2.23018Z" fill="#6A9C46"/>
<path d="M9.5232 5.89864C10.8495 5.89864 11.7407 4.86587 12.056 4.23497L11.2541 3.83399C11.1066 4.09905 10.915 4.337 10.6874 4.53762C10.3149 4.86357 9.90295 5.01772 9.45848 5.00007C9.74841 3.23661 9.85201 1.93969 9.86064 1.82745L8.96667 1.7587C8.96465 1.78537 8.86463 3.03432 8.58463 4.75654C7.64588 4.24663 7.62083 3.18713 7.62055 3.13569L7.17245 3.13793H6.72417C6.72417 3.81158 7.09254 5.12256 8.42577 5.67271C8.26994 6.51681 8.07421 7.4318 7.83085 8.34835C7.55987 8.20294 7.32211 7.96412 7.12 7.63318C6.93481 7.32316 6.79831 6.98654 6.71526 6.6351L5.8363 6.81205C5.97958 7.52834 6.51113 8.7518 7.58363 9.22154C7.35692 9.98833 7.08278 10.7403 6.76278 11.4731L7.58211 11.8373C7.92696 11.0482 8.22184 10.2383 8.46499 9.41222C8.48253 9.41261 8.49957 9.41385 8.51727 9.41385C10.6094 9.41385 11.1614 7.82992 11.1839 7.76251L10.3334 7.47898C10.3301 7.48884 10.0035 8.41996 8.71894 8.50968C8.95709 7.6087 9.14929 6.71512 9.3031 5.8881C9.37757 5.89432 9.45126 5.89864 9.5232 5.89864Z" fill="#79AD54"/>
<path d="M15.6034 6.27586C15.0623 6.27586 14.5264 6.38245 14.0265 6.58953C13.5265 6.79662 13.0723 7.10015 12.6896 7.48279L9.05584 11.1166C8.74296 11.4295 8.49477 11.8009 8.32544 12.2097C8.15611 12.6185 8.06896 13.0567 8.06896 13.4992V16.5862L4.07813 20.577C3.15475 21.5004 2.14241 22.3304 1.05586 23.0547L0.650168 23.3252C0.450175 23.4585 0.286191 23.6391 0.172771 23.8511C0.0593514 24.063 5.03926e-06 24.2996 1.07541e-09 24.54C-7.35766e-06 24.7317 0.0377507 24.9216 0.111118 25.0987C0.184486 25.2758 0.292026 25.4368 0.427598 25.5724C0.56317 25.7079 0.724119 25.8155 0.901256 25.8889C1.07839 25.9622 1.26825 26 1.45998 26C1.70032 26 1.93695 25.9407 2.14886 25.8273C2.36077 25.7139 2.54141 25.55 2.67475 25.35L2.94523 24.9443C3.66959 23.8578 4.49951 22.8454 5.4229 21.922L9.41379 17.931H12.5008C12.9433 17.931 13.3815 17.8439 13.7903 17.6746C14.1991 17.5052 14.5705 17.257 14.8834 16.9442L18.5172 13.3104C18.8999 12.9277 19.2034 12.4735 19.4105 11.9735C19.6175 11.4736 19.7241 10.9377 19.7241 10.3966C19.7241 9.3037 19.29 8.25559 18.5172 7.48281C17.7444 6.71003 16.6963 6.27588 15.6034 6.27586Z" fill="#79AD54"/>
<path d="M17.4022 11.7187C17.3843 11.7293 15.7354 12.6937 14.6323 12.0016L17.3514 9.2825L16.7175 8.64853L14.0446 11.3214C13.5641 10.2294 14.4208 8.76396 14.4309 8.74709L14.0461 8.51735L13.6617 8.28671C13.4099 8.73086 13.2225 9.2085 13.105 9.70534C12.9003 10.5921 12.9973 11.3686 13.3821 11.9841L11.355 14.0113C10.8745 12.9193 11.7311 11.4538 11.7412 11.437L11.3564 11.2072L10.972 10.9766C10.7203 11.4207 10.5328 11.8984 10.4153 12.3952C10.2106 13.282 10.3076 14.0585 10.6925 14.674L9.54517 15.8213L10.1791 16.4552L11.2987 15.3357C11.7394 15.6695 12.2751 15.8395 12.8838 15.8395C13.1771 15.8376 13.4692 15.8024 13.7546 15.7345C14.2514 15.617 14.7291 15.4296 15.1733 15.1778L14.7127 14.4086C14.6947 14.4193 13.0459 15.3836 11.9428 14.6916L13.9883 12.6464C14.4291 12.9801 14.9647 13.1501 15.5735 13.1501C15.8668 13.1482 16.1589 13.113 16.4442 13.0452C16.9411 12.9277 17.4188 12.7402 17.8629 12.4885L17.4022 11.7187Z" fill="#89BA66"/>
<path d="M20.6235 16.8846C21.7483 16.5358 22.8657 16.253 23.8142 16.1345L23.7031 15.2449C22.7584 15.3629 21.6718 15.6288 20.5777 15.959C20.729 15.2904 21.1411 14.6213 21.3424 14.3538L20.6275 13.8128C20.4033 14.1216 20.2083 14.4506 20.045 14.7955C19.7954 15.3215 19.6568 15.8113 19.6287 16.2599C18.9244 16.4934 18.2335 16.7437 17.5921 16.9883C17.7378 16.3098 18.1589 15.6247 18.3633 15.3531L17.6483 14.8122C17.4241 15.1209 17.2291 15.4499 17.0658 15.7948C16.7977 16.3599 16.6575 16.8835 16.6452 17.3588C15.2525 17.9172 14.2548 18.3754 14.157 18.4205L14.5327 19.2346C14.5558 19.224 15.4897 18.7952 16.824 18.2568C17.0453 18.6503 17.5109 19.016 18.2361 19.3663C18.6363 19.5575 19.0495 19.7205 19.4724 19.8541L19.7326 18.9961C18.915 18.7482 17.9828 18.2867 17.6737 17.9209C18.3243 17.6695 19.0327 17.4088 19.7558 17.1653C19.9533 17.594 20.4335 17.9894 21.2153 18.367C21.6155 18.5581 22.0286 18.721 22.4516 18.8545L22.7117 17.9965C21.8665 17.7405 20.8983 17.2558 20.6235 16.8846Z" fill="#79AD54"/>
</svg>
