<svg width="256" height="161" viewBox="0 0 256 161" fill="none" xmlns="http://www.w3.org/2000/svg">
<path d="M245.385 121.074H57.4452V84.8066C57.4452 82.4608 59.3456 80.5605 61.6913 80.5605H245.385C247.73 80.5605 249.631 82.4608 249.631 84.8066V116.83C249.631 119.174 247.73 121.074 245.385 121.074Z" fill="#D1A190"/>
<path d="M245.385 121.074H235.101V80.5605H245.385C247.73 80.5605 249.631 82.4608 249.631 84.8066V116.83C249.631 119.174 247.73 121.074 245.385 121.074Z" fill="#C78E7A"/>
<path d="M173.402 95.871H133.674C132.072 95.871 130.609 95.1269 129.908 93.9569L121.877 80.5605H185.199L177.168 93.9569C176.467 95.1269 175.004 95.871 173.402 95.871Z" fill="#F9EFEF"/>
<path d="M185.199 80.5624L177.166 93.9569C176.465 95.1269 175.004 95.871 173.404 95.871H163.004C164.603 95.871 166.064 95.1269 166.765 93.9569L174.799 80.5624H185.199Z" fill="#E1D3CE"/>
<path d="M251.756 81.0273H68.0585C65.7167 81.0273 63.8163 79.1269 63.8163 76.7832V44.7578C63.8163 42.414 65.7167 40.5136 68.0604 40.5136H251.756C254.1 40.5136 256 42.414 256 44.7578V76.7812C256 79.1269 254.1 81.0273 251.756 81.0273Z" fill="#D1A190"/>
<path d="M251.756 81.0273H241.472V40.5136H251.756C254.099 40.5136 256 42.414 256 44.7578V76.7812C256 79.1269 254.099 81.0273 251.756 81.0273Z" fill="#C78E7A"/>
<path d="M179.773 55.8222H140.043C138.441 55.8222 136.98 55.08 136.277 53.9101L128.246 40.5136H191.568L183.537 53.9101C182.836 55.08 181.375 55.8222 179.773 55.8222Z" fill="#F9EFEF"/>
<path d="M191.57 40.5136L183.537 53.9082C182.836 55.0781 181.375 55.8222 179.775 55.8222H169.373C170.972 55.8222 172.433 55.0781 173.136 53.9082L181.168 40.5136H191.57Z" fill="#E1D3CE"/>
<path d="M230.858 40.5137H47.1621C44.8184 40.5137 42.918 38.6133 42.918 36.2696V4.2461C42.918 1.90039 44.8184 0 47.1621 0H230.858C233.201 0 235.102 1.90039 235.102 4.2461V36.2696C235.102 38.6133 233.201 40.5137 230.858 40.5137Z" fill="#D1A190"/>
<path d="M230.857 40.5137H220.574V0H230.857C233.201 0 235.102 1.90039 235.102 4.2461V36.2696C235.102 38.6133 233.201 40.5137 230.857 40.5137Z" fill="#C78E7A"/>
<path d="M158.875 15.3086H119.144C117.543 15.3086 116.082 14.5664 115.381 13.3965L107.347 0H170.672L162.64 13.3965C161.937 14.5664 160.476 15.3086 158.875 15.3086Z" fill="#F9EFEF"/>
<path d="M170.672 0L162.638 13.3965C161.937 14.5664 160.476 15.3106 158.877 15.3106H148.474C150.074 15.3106 151.537 14.5664 152.238 13.3965L160.271 0H170.672Z" fill="#E1D3CE"/>
<path d="M171.959 117.945C171.959 120.637 170.947 123.322 168.949 125.389C160.01 134.641 142.695 150.453 122.383 158.152C116.541 160.363 110.272 161.213 104.051 160.682C90.8516 159.566 65.0449 156.299 53.3145 147.422V138.224C65.0449 147.109 90.8516 150.369 104.051 151.492C110.272 152.016 116.541 151.174 122.383 148.957C142.695 141.258 160.01 125.449 168.949 116.197C169.781 115.338 170.44 114.377 170.92 113.351C171.611 114.803 171.959 116.377 171.959 117.945Z" fill="#FFBFAB"/>
<path d="M169.455 111.066C166.486 107.523 161.582 106.285 157.289 107.994L130.117 118.805C126.121 120.394 121.699 120.56 117.594 119.273L109.43 116.713C107.904 116.234 107.699 114.162 109.1 113.394L116.381 109.398C120.607 107.08 122.195 101.803 119.951 97.535C117.992 93.8085 113.676 91.9823 109.635 93.1698L77.6405 102.578C71.8788 104.271 65.9061 105.131 59.9003 105.131H53.3143L50.5624 104.844V147.422H53.3143V147.42C65.0468 156.299 90.8515 159.562 104.049 160.682C110.273 161.209 116.541 160.365 122.383 158.15C142.695 150.451 160.01 134.641 168.947 125.389C172.756 121.445 172.977 115.267 169.455 111.066Z" fill="#FFCEBF"/>
<path d="M51.3475 151.642H37.1698V102.689H51.3475C52.4335 102.689 53.3143 103.57 53.3143 104.656V149.676C53.3143 150.762 52.4335 151.642 51.3475 151.642Z" fill="#F9EFEF"/>
<path d="M51.3475 151.642H37.1698V133.611H53.3143V149.676C53.3143 150.762 52.4335 151.642 51.3475 151.642Z" fill="#EFE2DD"/>
<path d="M37.3223 156.4H2.05469C0.919923 156.4 0 155.48 0 154.344V99.9882C0 98.8534 0.919923 97.9335 2.05469 97.9335H37.3203C38.4571 97.9335 39.377 98.8534 39.377 99.9882V154.344C39.377 155.478 38.4571 156.4 37.3223 156.4Z" fill="#E02041"/>
<path d="M37.3223 156.4H2.05469C0.919923 156.4 0 155.48 0 154.344V135.844H39.377V154.344C39.377 155.478 38.4571 156.4 37.3223 156.4Z" fill="#E02041"/>
</svg>
