<svg width="40" height="47" viewBox="0 0 40 47" fill="none" xmlns="http://www.w3.org/2000/svg">
<path d="M19.5834 41.7778C29.0578 41.7778 36.5556 36.5555 38.7737 39.1667C39.0309 39.5884 39.1667 40.0244 39.1667 40.4722C39.1667 43.0833 30.3986 47 19.5834 47C8.76812 47 0 43.0833 0 40.4722C0 40.0244 0.135778 39.5884 0.392973 39.1667C2.61111 36.5555 10.1089 41.7778 19.5834 41.7778Z" fill="#F4900C"/>
<path d="M19.5833 43.0834C11.4719 43.0834 5.72354 40.7203 3.56024 39.6654C2.93749 39.3612 2.85654 38.5688 3.01843 37.9969C3.18032 37.4251 16.9722 2.61111 16.9722 2.61111C16.9722 2.61111 18.142 -3.45707e-06 19.5833 -3.45707e-06C21.0247 -3.45707e-06 22.1945 2.61111 22.1945 2.61111L36.1691 38.1497C36.1691 38.1497 36.4472 39.249 35.4263 39.7542C33.1507 40.8783 27.478 43.0834 19.5833 43.0834Z" fill="#FFCC4D"/>
<path d="M19.5834 6.52785C19.5834 9.41052 17.2451 11.7501 14.3611 11.7501C14.0295 11.7501 13.7084 11.7122 13.3937 11.6522L16.9723 2.61118C16.9723 2.61118 17.065 2.42841 17.2203 2.16468C18.6421 3.09816 19.5834 4.70138 19.5834 6.52785ZM18.2778 20.889C18.2778 23.773 15.9383 26.1112 13.0556 26.1112C11.1939 26.1112 9.56975 25.1294 8.64542 23.662L11.7291 15.8574C12.1561 15.7451 12.5947 15.6668 13.0556 15.6668C15.9383 15.6668 18.2778 18.0063 18.2778 20.889Z" fill="#BE1931"/>
<path d="M16.9722 31.3334C19.8564 31.3334 22.1944 33.6714 22.1944 36.5556C22.1944 39.4398 19.8564 41.7778 16.9722 41.7778C14.088 41.7778 11.75 39.4398 11.75 36.5556C11.75 33.6714 14.088 31.3334 16.9722 31.3334Z" fill="#BE1931"/>
<path d="M28.7222 35.25C25.8396 35.25 23.5 32.9118 23.5 30.0278C23.5 27.1438 25.8396 24.8056 28.7222 24.8056C29.6126 24.8056 30.439 25.0497 31.1728 25.4427L33.6403 31.7172C32.9353 33.7682 31.0096 35.25 28.7222 35.25ZM20.8889 14.3611C20.8889 11.9223 22.5705 9.88957 24.8304 9.31643L28.6074 18.9214C27.8632 19.3301 27.0211 19.5833 26.1111 19.5833C23.2285 19.5833 20.8889 17.2438 20.8889 14.3611ZM9.13889 31.3333C9.13889 34.2173 6.80063 36.5556 3.91666 36.5556C3.80307 36.5556 3.69602 36.5295 3.58374 36.5216C4.3018 34.6782 5.63999 31.2785 7.20666 27.3083C8.37644 28.2666 9.13889 29.704 9.13889 31.3333Z" fill="#BE1931"/>
</svg>
