<svg width="312" height="174" viewBox="0 0 312 174" fill="none" xmlns="http://www.w3.org/2000/svg">
<path d="M288.068 138.414C287.72 139.163 287.374 139.903 287.028 140.633C286.489 141.766 285.956 142.878 285.431 143.968C285.197 144.45 284.964 144.924 284.736 145.398C282.159 150.667 279.753 155.328 277.71 159.16C275.857 162.635 273.105 165.546 269.741 167.59C266.377 169.633 262.526 170.734 258.592 170.775L213.156 171.27H212.676L208.781 171.312L205.45 171.348L195.242 171.465H194.828L189.627 171.522H189.468L157.41 171.87L128.794 172.17L125.465 172.206L104.792 172.431H104.759L91.3514 172.575H91.2076L48.8125 173.033L36.13 173.171C35.0501 173.184 33.9704 173.13 32.8972 173.009C32.5316 172.967 32.1661 172.919 31.8036 172.862C25.8886 171.949 20.4651 169.034 16.4365 164.603C10.9806 158.569 7.01069 151.582 4.34415 143.968C3.95865 142.87 3.59911 141.758 3.26554 140.633C-5.9655 109.387 5.28793 69.0928 25.5417 42.1352C26.3906 41.0076 27.2535 39.908 28.1303 38.8364L28.1513 38.8124C34.3802 31.1591 41.3642 24.7653 48.8036 20.2189C61.9865 12.1487 76.5926 9.87554 90.959 16.6502C103.114 22.3842 114.464 25.0802 125.465 25.812C126.577 25.8839 127.688 25.9379 128.794 25.9709C154.03 26.7656 177.682 17.6638 205.456 11.7889C206.561 11.5549 207.67 11.324 208.787 11.1051C228.601 7.15849 250.58 5.07722 276.718 9.45268C279.434 9.89673 282.114 10.5382 284.736 11.372C285.888 11.7439 286.999 12.1437 288.068 12.5716C300.543 17.6518 307.348 27.0385 310.239 38.8004C310.513 39.892 310.749 41.0026 310.949 42.1322C316.075 70.4243 301.062 110.556 288.068 138.414Z" fill="#F2F2F2"/>
<path opacity="0.1" d="M148.91 140.633C148.789 141.754 148.602 142.868 148.35 143.968H176.423V140.633H148.91ZM125.465 159.469L128.794 159.442V151.204C127.652 151.153 126.541 151.102 125.465 151.048V159.469ZM55.6797 140.633V143.968H115.153V140.633H55.6797ZM310.254 38.8034H288.083V12.5746C287.014 12.1388 285.903 11.7389 284.751 11.375V38.8154H208.787V11.0961C207.67 11.315 206.561 11.546 205.456 11.7799V38.8034H128.794V25.9619C127.688 25.9289 126.577 25.8749 125.465 25.803V38.8034H48.8036V20.2099C41.3642 24.7563 34.3802 31.1501 28.1513 38.8034H28.1303V38.8274C27.2515 39.907 26.3886 41.0066 25.5417 42.1263H28.1303V140.633H3.26256C3.59413 141.758 3.95366 142.87 4.34116 143.968H28.1273V172.044C29.3241 172.41 30.5457 172.69 31.7826 172.88C32.1451 172.937 32.5107 172.985 32.8762 173.027C33.9495 173.148 35.0291 173.202 36.109 173.189L48.7916 173.051V143.962H125.465V172.215L128.794 172.179V143.968H205.456V171.351L208.787 171.315V143.968H284.736V145.398C284.964 144.924 285.197 144.45 285.431 143.968C285.956 142.88 286.489 141.768 287.028 140.633C287.374 139.903 287.72 139.163 288.068 138.414V42.1472H310.964C310.762 41.0096 310.526 39.895 310.254 38.8034ZM48.8036 140.633V42.1353H125.465V140.633H48.8036ZM128.8 140.633V42.1353H205.456V140.633H128.8ZM284.742 140.633H208.787V42.1353H284.736L284.742 140.633Z" fill="black"/>
<path d="M250.092 105.887C245.941 98.2131 240.057 91.6153 232.909 86.6187C232.398 86.2657 231.809 86.0433 231.192 85.9709C232.034 80.4288 231.857 74.305 228.733 69.6866C221.317 58.7284 183.536 70.0375 183.536 70.0375C157.053 60.8487 134.1 72.5116 134.1 72.5116C134.1 72.5116 104.792 67.9172 91.3754 71.453C85.0476 73.1204 83.5106 79.5801 83.6544 85.9439H83.6334C83.0724 85.9429 82.5184 86.0686 82.0126 86.3116C81.5068 86.5546 81.0623 86.9086 80.7122 87.3474C77.1438 91.8098 66.3638 105.554 66.6574 108.208C67.011 111.39 78.6629 152.74 78.1356 172.71L240.912 170.91C240.912 170.91 243.608 130.724 250.353 108.727C250.645 107.783 250.551 106.762 250.092 105.887Z" fill="#3F3D56"/>
<path opacity="0.1" d="M80.2568 108.388L86.9651 94.9557L92.6128 121.11L92.6787 133.249L80.2568 108.388Z" fill="black"/>
<path opacity="0.1" d="M234.203 108.388L227.495 94.9557L219.714 119.754L221.212 133.849L234.203 108.388Z" fill="black"/>
<path d="M92.1214 120.396L219.726 119.697L221.14 133.834L92.6128 133.48L92.1214 120.396Z" fill="#3F3D56"/>
<path opacity="0.1" d="M92.1214 120.396L219.726 119.697L221.14 133.834L92.6128 133.48L92.1214 120.396Z" fill="black"/>
<path opacity="0.1" d="M218.675 132.458H95.2164C93.484 132.458 92.0795 133.863 92.0795 135.598V144.516C92.0795 146.251 93.484 147.656 95.2164 147.656H218.675C220.407 147.656 221.811 146.251 221.811 144.516V135.598C221.811 133.863 220.407 132.458 218.675 132.458Z" fill="white"/>
<path d="M195.263 81.6134C195.263 81.6134 194.831 81.0136 194.322 81.3375C194.079 81.4964 192.938 82.9359 191.817 84.3994C191.266 85.1162 190.718 85.8389 190.283 86.4147C189.747 87.1225 189.384 87.6143 189.384 87.6143L189.169 88.0192L187.859 90.4693L186.628 92.7725L186.328 93.8581L190.487 95.2736L195.221 93.9811L195.017 93.1024L194.981 92.9524L195.02 90.9311L195.128 85.2331L195.179 82.669V82.3691L195.263 81.6134Z" fill="#FFE09C"/>
<path d="M185.741 95.6605C185.741 95.6605 190.235 97.2649 192.539 96.4252C192.539 96.4252 194.532 95.7894 195.317 95.1747C195.317 95.1747 196.153 94.7368 195.017 93.3093C195.017 93.3093 192.108 95.0937 189.354 94.3919L186.601 93.6872L185.741 95.6605Z" fill="#E7C4C3"/>
<path d="M190.754 93.6305C191.455 93.2193 191.741 92.4041 191.393 91.8096C191.045 91.2152 190.195 91.0666 189.494 91.4777C188.793 91.8889 188.507 92.7041 188.855 93.2986C189.203 93.893 190.053 94.0416 190.754 93.6305Z" fill="#FF7F8E"/>
<path d="M193.743 90.0439C194.444 89.6327 194.73 88.8175 194.382 88.223C194.034 87.6286 193.183 87.48 192.482 87.8911C191.781 88.3023 191.495 89.1175 191.843 89.712C192.191 90.3064 193.042 90.455 193.743 90.0439Z" fill="#FF7F8E"/>
<path d="M195.017 90.9311C194.791 90.8368 194.547 90.7977 194.303 90.817C194.059 90.8363 193.823 90.9135 193.615 91.0421C192.914 91.453 192.626 92.2687 192.977 92.8625C193.327 93.4563 194.175 93.6062 194.873 93.1954C194.921 93.1654 194.969 93.1354 195.014 93.1024L194.978 92.9524L195.017 90.9311Z" fill="#FF7F8E"/>
<path d="M189.933 88.553C189.849 88.4151 189.738 88.2964 189.606 88.2044C189.474 88.1124 189.324 88.0493 189.166 88.0192L187.856 90.4693C188.086 90.5727 188.337 90.618 188.588 90.6013C188.838 90.5846 189.081 90.5063 189.295 90.3733C189.996 89.9625 190.28 89.1468 189.933 88.553Z" fill="#FF7F8E"/>
<path d="M192.845 84.9632C192.737 84.7899 192.586 84.6472 192.407 84.5485C192.229 84.4498 192.027 84.3985 191.823 84.3994C191.272 85.1162 190.724 85.8389 190.289 86.4147L190.307 86.4507C190.655 87.0505 191.506 87.1915 192.207 86.7806C192.908 86.3697 193.187 85.557 192.845 84.9632Z" fill="#FF7F8E"/>
<path d="M195.176 82.666C195.021 82.7049 194.873 82.7654 194.736 82.846C194.034 83.2568 193.75 84.0726 194.097 84.6663C194.206 84.8405 194.358 84.9838 194.538 85.0826C194.718 85.1813 194.92 85.2321 195.125 85.2301L195.176 82.666Z" fill="#FF7F8E"/>
<path d="M188.198 92.4996L187.958 92.0947C188.317 91.9875 188.648 91.8033 188.929 91.5549C188.947 91.5369 188.962 91.5159 188.977 91.498C189.277 91.1201 189.214 91.9058 189.214 91.9058C189.214 91.9058 188.477 92.5326 188.198 92.4996Z" fill="#94CC79"/>
<path d="M191.733 91.8728L191.494 91.465C191.852 91.3571 192.183 91.1729 192.464 90.9252C192.464 90.9072 192.497 90.8892 192.512 90.8682C192.812 90.4933 192.749 91.276 192.749 91.276C192.749 91.276 192.012 91.9058 191.733 91.8728Z" fill="#94CC79"/>
<path d="M191.41 90.1934L191.17 89.7856C191.529 89.6786 191.86 89.4955 192.141 89.2487C192.156 89.2277 192.174 89.2098 192.189 89.1918C192.488 88.8139 192.426 89.5966 192.426 89.5966C192.426 89.5966 191.688 90.2204 191.41 90.1934Z" fill="#94CC79"/>
<path d="M191.838 87.1645L191.599 86.7566C191.957 86.6487 192.288 86.4646 192.569 86.2168C192.569 86.1988 192.602 86.1808 192.617 86.1598C192.917 85.782 192.854 86.5677 192.854 86.5677C192.854 86.5677 192.117 87.1944 191.838 87.1645Z" fill="#94CC79"/>
<path d="M193.867 83.4997L193.63 83.0919C193.988 82.9843 194.318 82.8001 194.598 82.5521C194.615 82.5345 194.631 82.5154 194.646 82.4951C194.945 82.1202 194.885 82.903 194.885 82.903C194.885 82.903 194.145 83.5297 193.867 83.4997Z" fill="#94CC79"/>
<path d="M193.639 87.2394L193.399 86.8316C193.758 86.7253 194.089 86.5421 194.37 86.2948C194.37 86.2738 194.403 86.2558 194.418 86.2378C194.718 85.8599 194.655 86.6426 194.655 86.6426C194.655 86.6426 193.918 87.2724 193.639 87.2394Z" fill="#94CC79"/>
<path d="M185.004 94.3919C185.004 94.3919 184.429 95.8914 185.741 95.6515C186.325 94.9738 186.725 94.1568 186.901 93.2793C186.901 93.2793 189.738 87.0565 190.577 86.4867C190.577 86.4867 194.274 81.4275 194.673 81.3525C194.673 81.3525 194.801 80.8607 193.51 81.9013C192.219 82.9419 189.39 86.9485 189.39 86.9485L186.694 91.348L186.059 93.1024L185.004 94.3919Z" fill="#E7C4C3"/>
<path opacity="0.2" d="M185.004 94.3919C185.004 94.3919 184.429 95.8914 185.741 95.6515C186.325 94.9738 186.725 94.1568 186.901 93.2793C186.901 93.2793 189.738 87.0565 190.577 86.4867C190.577 86.4867 194.274 81.4275 194.673 81.3525C194.673 81.3525 194.801 80.8607 193.51 81.9013C192.219 82.9419 189.39 86.9485 189.39 86.9485L186.694 91.348L186.059 93.1024L185.004 94.3919Z" fill="white"/>
<path d="M140.437 124.852C140.931 126.479 141.54 128.068 142.259 129.609C144.322 129.177 146.351 128.597 148.332 127.875C148.395 127.854 147.196 126.286 147.07 126.157C146.582 125.617 146.001 125.17 145.354 124.837C144.721 124.561 143.942 124.771 143.256 124.807C142.321 124.855 141.382 124.87 140.437 124.852Z" fill="#FBBEBE"/>
<path d="M145.366 127.314C144.335 126.991 143.706 125.95 143.286 124.948C142.867 123.947 142.528 122.849 141.731 122.117C141.58 122.14 141.437 122.201 141.314 122.293C141.192 122.385 141.094 122.506 141.03 122.645C140.906 122.926 140.767 123.2 140.614 123.467C140.284 123.947 139.715 124.18 139.28 124.588C138.846 124.996 138.603 125.617 138.151 126.028C137.582 126.544 136.779 126.673 136.033 126.844C134.877 127.106 133.761 127.52 132.713 128.073C132.327 128.306 131.915 128.491 131.484 128.625C131.011 128.717 130.525 128.734 130.046 128.673L126.751 128.439C126.457 128.401 126.159 128.413 125.87 128.475C125.536 128.597 125.253 128.825 125.063 129.125C124.873 129.425 124.788 129.78 124.821 130.133C124.863 130.486 124.978 130.825 125.157 131.131C125.337 131.437 125.577 131.703 125.864 131.912C126.44 132.321 127.074 132.642 127.745 132.862C130.62 133.95 133.581 134.797 136.596 135.394V136.047C138.692 137.081 140.997 137.619 143.334 137.619C143.506 137.631 143.679 137.601 143.837 137.532C144.054 137.375 144.205 137.145 144.263 136.884C145.056 134.561 145.519 132.138 145.638 129.687C145.697 129.066 145.649 128.44 145.497 127.836C145.318 127.236 145.935 127.491 145.363 127.257" fill="#2F2E41"/>
<path d="M208.679 114.857C198.891 115.457 189.205 112.575 179.419 112.269C178.201 112.192 176.978 112.27 175.779 112.503C174.521 112.784 173.346 113.354 172.184 113.9C166.926 116.347 161.491 118.375 156.059 120.399L149.821 122.726C148.574 123.191 147.283 123.662 145.956 123.581C145.356 123.545 144.628 123.455 144.296 123.95C143.28 125.449 143.76 127.665 144.431 129.348C144.646 129.893 145.03 130.487 145.599 130.547C146.01 130.589 146.393 130.352 146.798 130.247C147.933 129.947 149.066 130.709 150.234 130.832C151.678 130.985 153.018 130.163 154.381 129.66C156.64 128.823 159.112 128.85 161.488 128.46C165.472 127.794 169.164 125.944 172.615 123.836C173.927 123.032 175.258 122.171 176.768 121.877C178.503 121.538 180.285 121.985 181.99 122.477C186.048 123.626 190.042 124.987 193.957 126.556C196.018 127.383 198.067 128.268 200.212 128.841C204.853 130.062 209.761 129.775 214.228 128.022C215.792 127.401 217.497 126.307 217.587 124.615C217.638 123.65 216.889 122.816 216.388 121.976C216.071 121.445 215.75 120.918 215.4 120.408C213.701 117.931 211.652 114.68 208.679 114.857Z" fill="#2F2E41"/>
<path opacity="0.1" d="M208.679 114.857C198.891 115.457 189.205 112.575 179.419 112.269C178.201 112.192 176.978 112.27 175.779 112.503C174.521 112.784 173.346 113.354 172.184 113.9C166.926 116.347 161.491 118.375 156.059 120.399L149.821 122.726C148.574 123.191 147.283 123.662 145.956 123.581C145.356 123.545 144.628 123.455 144.296 123.95C143.28 125.449 143.76 127.665 144.431 129.348C144.646 129.893 145.03 130.487 145.599 130.547C146.01 130.589 146.393 130.352 146.798 130.247C147.933 129.947 149.066 130.709 150.234 130.832C151.678 130.985 153.018 130.163 154.381 129.66C156.64 128.823 159.112 128.85 161.488 128.46C165.472 127.794 169.164 125.944 172.615 123.836C173.927 123.032 175.258 122.171 176.768 121.877C178.503 121.538 180.285 121.985 181.99 122.477C186.048 123.626 190.042 124.987 193.957 126.556C196.018 127.383 198.067 128.268 200.212 128.841C204.853 130.062 209.761 129.775 214.228 128.022C215.792 127.401 217.497 126.307 217.587 124.615C217.638 123.65 216.889 122.816 216.388 121.976C216.071 121.445 215.75 120.918 215.4 120.408C213.701 117.931 211.652 114.68 208.679 114.857Z" fill="black"/>
<path d="M159.229 125.329C160.759 125.851 162.305 126.332 163.867 126.772C164.738 125.338 166.371 124.339 166.743 122.702C166.758 122.666 166.766 122.627 166.766 122.587C166.765 122.548 166.756 122.509 166.739 122.473C166.723 122.438 166.698 122.406 166.669 122.38C166.639 122.354 166.604 122.335 166.566 122.324C165.45 121.705 164.211 121.342 162.938 121.26C161.931 121.197 161.473 122.246 161.014 122.987C160.831 123.284 159.639 125.47 159.229 125.329Z" fill="#FBBEBE"/>
<path d="M161.386 124.282C160.928 124.205 160.492 124.033 160.104 123.778C159.716 123.523 159.385 123.191 159.133 122.801C158.917 122.423 158.686 121.901 158.255 121.94C157.823 121.979 157.656 122.447 157.578 122.84C157.287 124.327 156.865 125.785 156.316 127.197C155.765 128.613 154.832 129.846 153.62 130.76C153.051 131.153 152.421 131.45 151.864 131.864C151.364 132.233 150.929 132.701 150.366 132.985C149.998 133.156 149.617 133.298 149.227 133.411C148.656 133.613 148.109 133.88 147.598 134.206C147.149 134.466 146.768 134.83 146.489 135.268C146.348 135.489 146.265 135.743 146.249 136.005C146.233 136.268 146.283 136.53 146.396 136.767C146.515 136.961 146.673 137.127 146.86 137.256C147.048 137.384 147.26 137.471 147.484 137.511C147.93 137.589 148.385 137.601 148.835 137.547C150.618 137.415 152.4 137.247 154.183 137.097C154.936 137.051 155.685 136.951 156.424 136.797C156.817 136.701 157.197 136.578 157.587 136.476C158.253 136.305 158.936 136.204 159.624 136.176C159.825 136.16 160.028 136.179 160.223 136.23C160.637 136.365 160.927 136.776 161.356 136.86C161.629 136.886 161.905 136.849 162.162 136.752C163.444 136.401 164.795 136.41 166.123 136.338C166.722 136.308 167.393 136.197 167.663 135.672C167.998 135.019 167.441 134.287 167.222 133.573C167.11 133.125 167.048 132.665 167.036 132.203C166.935 131.062 166.601 129.954 166.054 128.949C165.601 128.115 164.981 127.191 165.299 126.295C165.406 125.995 165.622 125.695 165.598 125.395C165.496 123.959 162.198 124.453 161.386 124.282Z" fill="#2F2E41"/>
<path d="M194.001 99.1393C192.269 98.3731 190.881 96.9917 190.107 95.2616C189.942 94.8898 189.807 94.5029 189.651 94.128C189.137 92.8803 188.339 91.7701 187.32 90.8862C187.211 90.7664 187.077 90.6717 186.927 90.6085C186.778 90.5454 186.616 90.5153 186.454 90.5203C186.298 90.5681 186.156 90.6565 186.045 90.7766C185.933 90.8966 185.855 91.0441 185.819 91.204C185.729 91.5453 185.707 91.9008 185.753 92.2507C185.841 93.0749 185.983 93.8924 186.179 94.6978L186.652 96.8601C186.71 97.1934 186.811 97.5179 186.952 97.8257C187.155 98.1902 187.424 98.5136 187.746 98.7794C188.18 99.1813 188.62 99.5681 189.067 99.946C189.689 100.542 190.5 100.903 191.359 100.966C193.3 101.326 195.278 101.847 196.92 103.116C196.899 103.116 196.92 101.664 196.884 101.499C196.809 101.065 196.749 100.633 196.467 100.339C195.823 99.6791 194.777 99.4901 194.001 99.1393Z" fill="#FBBEBE"/>
<path opacity="0.1" d="M194.001 99.1393C192.269 98.3731 190.881 96.9917 190.107 95.2616C189.942 94.8898 189.807 94.5029 189.651 94.128C189.137 92.8803 188.339 91.7701 187.32 90.8862C187.211 90.7664 187.077 90.6717 186.927 90.6085C186.778 90.5454 186.616 90.5153 186.454 90.5203C186.298 90.5681 186.156 90.6565 186.045 90.7766C185.933 90.8966 185.855 91.0441 185.819 91.204C185.729 91.5453 185.707 91.9008 185.753 92.2507C185.841 93.0749 185.983 93.8924 186.179 94.6978L186.652 96.8601C186.71 97.1934 186.811 97.5179 186.952 97.8257C187.155 98.1902 187.424 98.5136 187.746 98.7794C188.18 99.1813 188.62 99.5681 189.067 99.946C189.689 100.542 190.5 100.903 191.359 100.966C193.3 101.326 195.278 101.847 196.92 103.116C196.899 103.116 196.92 101.664 196.884 101.499C196.809 101.065 196.749 100.633 196.467 100.339C195.823 99.6791 194.777 99.4901 194.001 99.1393Z" fill="black"/>
<path d="M213.935 82.5821C215.25 82.5821 216.317 81.5093 216.317 80.1859C216.317 78.8625 215.25 77.7897 213.935 77.7897C212.619 77.7897 211.553 78.8625 211.553 80.1859C211.553 81.5093 212.619 82.5821 213.935 82.5821Z" fill="#2F2E41"/>
<path d="M212.461 78.7374C211.816 78.6654 211.097 78.6145 210.579 79.0103C210.304 79.2524 210.084 79.5511 209.935 79.886C209.402 80.803 208.986 81.7833 208.697 82.804C208.485 83.6797 208.449 84.6034 208.185 85.4551C207.697 87.0505 206.447 88.397 206.304 90.0614C206.241 90.8052 206.366 91.6779 205.821 92.1877C205.688 92.2997 205.546 92.4 205.396 92.4876C205.019 92.7402 204.699 93.0692 204.458 93.4533C204.294 93.7983 204.069 94.1103 203.793 94.3739C203.307 94.7338 202.504 94.6948 202.265 95.2526C202.025 95.8104 202.642 96.4522 202.498 97.052C202.382 97.5438 201.833 97.7687 201.456 98.1046C200.97 98.5335 200.749 99.1782 200.557 99.796C199.761 99.9467 198.942 99.9231 198.156 99.7269C197.369 99.5307 196.635 99.1665 196.003 98.6594C196.665 100.297 196.68 102.105 196.71 103.875C196.71 104.447 196.71 105.092 196.291 105.491C198.187 105.533 200.036 106.046 201.884 106.466C202.693 106.649 203.571 106.808 204.323 106.466C204.748 106.237 205.126 105.932 205.441 105.566C206.447 104.543 207.502 103.431 207.748 102.012C207.886 101.221 207.748 100.405 207.79 99.6131C207.882 98.6185 208.083 97.637 208.389 96.6861C208.922 94.7143 209.28 92.6992 209.458 90.6642C209.566 89.4107 210.657 88.4 211.22 87.2754C212.299 85.1582 213.398 82.9509 213.479 80.5728C213.518 79.7871 213.249 78.8244 212.461 78.7374Z" fill="#2F2E41"/>
<path opacity="0.1" d="M212.461 78.7374C211.816 78.6654 211.097 78.6145 210.579 79.0103C210.304 79.2524 210.084 79.5511 209.935 79.886C209.402 80.803 208.986 81.7833 208.697 82.804C208.485 83.6797 208.449 84.6034 208.185 85.4551C207.697 87.0505 206.447 88.397 206.304 90.0614C206.241 90.8052 206.366 91.6779 205.821 92.1877C205.688 92.2997 205.546 92.4 205.396 92.4876C205.019 92.7402 204.699 93.0692 204.458 93.4533C204.294 93.7983 204.069 94.1103 203.793 94.3739C203.307 94.7338 202.504 94.6948 202.265 95.2526C202.025 95.8104 202.642 96.4522 202.498 97.052C202.382 97.5438 201.833 97.7687 201.456 98.1046C200.97 98.5335 200.749 99.1782 200.557 99.796C199.761 99.9467 198.942 99.9231 198.156 99.7269C197.369 99.5307 196.635 99.1665 196.003 98.6594C196.665 100.297 196.68 102.105 196.71 103.875C196.71 104.447 196.71 105.092 196.291 105.491C198.187 105.533 200.036 106.046 201.884 106.466C202.693 106.649 203.571 106.808 204.323 106.466C204.748 106.237 205.126 105.932 205.441 105.566C206.447 104.543 207.502 103.431 207.748 102.012C207.886 101.221 207.748 100.405 207.79 99.6131C207.882 98.6185 208.083 97.637 208.389 96.6861C208.922 94.7143 209.28 92.6992 209.458 90.6642C209.566 89.4107 210.657 88.4 211.22 87.2754C212.299 85.1582 213.398 82.9509 213.479 80.5728C213.518 79.7871 213.249 78.8244 212.461 78.7374Z" fill="black"/>
<path d="M210.222 116.92C208.185 115.948 206.693 114.14 205.045 112.59C201.899 109.633 198.049 107.539 194.742 104.765C192.548 102.93 190.589 100.789 188.18 99.2502C186.06 97.9013 183.658 97.0598 181.16 96.7911C180.874 96.7402 180.58 96.7545 180.3 96.8331C179.984 96.973 179.709 97.1907 179.5 97.4659C178.433 98.6716 177.484 99.9771 176.666 101.364C172.471 108.487 166.515 114.485 161.58 121.104C161.425 121.261 161.332 121.471 161.321 121.692C161.31 121.913 161.381 122.131 161.521 122.303L162.524 124.27C163.084 125.374 163.986 126.67 165.197 126.439C165.751 126.337 166.191 125.929 166.599 125.539L171.093 121.23L175.818 116.707C178.586 114.059 181.4 111.348 183.206 107.962C184.615 110.409 187.119 112.011 188.836 114.26C189.489 115.112 190.035 116.059 190.604 116.959C191.539 118.405 192.602 119.763 193.663 121.119L199.083 128.043C199.82 128.985 200.581 129.95 201.591 130.589C202.876 131.402 204.437 131.618 205.947 131.753C207.983 131.935 210.027 132.009 212.071 131.975C213.629 131.948 215.235 131.846 216.634 131.153C218.033 130.46 219.181 129.054 219.109 127.47C219.023 126.657 218.756 125.873 218.327 125.176C216.403 121.607 213.872 118.653 210.222 116.92Z" fill="#2F2E41"/>
<path d="M215.4 83.6887C216.411 83.6887 217.23 82.8629 217.23 81.8443C217.23 80.8257 216.411 80 215.4 80C214.389 80 213.569 80.8257 213.569 81.8443C213.569 82.8629 214.389 83.6887 215.4 83.6887Z" fill="#E8E8F0"/>
<path d="M214.995 80.4588C215.407 81.2798 215.479 82.2301 215.196 83.1039C214.913 83.966 214.517 84.7868 214.019 85.545C213.59 86.3278 213.076 87.0609 212.488 87.7313C215.313 87.8692 218.054 86.7596 220.547 85.4131C222.554 84.3335 224.556 82.9959 225.64 80.9746C225.322 81.0519 224.99 81.0612 224.667 81.0017C224.345 80.9423 224.038 80.8156 223.768 80.6297C223.23 80.2537 222.748 79.8034 222.336 79.2922L220.916 77.6938C220.582 77.3464 220.29 76.962 220.044 76.5482C219.736 75.982 219.605 75.3362 219.669 74.6948C219.106 75.2859 218.475 75.8092 217.791 76.2543C216.778 76.9141 215.66 77.3939 214.645 78.0537C214.285 78.2846 213.482 78.6534 213.689 79.1303C213.896 79.6071 214.717 79.955 214.995 80.4588Z" fill="#FBBEBE"/>
<path opacity="0.1" d="M214.995 80.4588C215.407 81.2798 215.479 82.2301 215.196 83.1039C214.913 83.966 214.517 84.7868 214.019 85.545C213.59 86.3278 213.076 87.0609 212.488 87.7313C215.313 87.8692 218.054 86.7596 220.547 85.4131C222.554 84.3335 224.556 82.9959 225.64 80.9746C225.322 81.0519 224.99 81.0612 224.667 81.0017C224.345 80.9423 224.038 80.8156 223.768 80.6297C223.23 80.2537 222.748 79.8034 222.336 79.2922L220.916 77.6938C220.582 77.3464 220.29 76.962 220.044 76.5482C219.736 75.982 219.605 75.3362 219.669 74.6948C219.106 75.2859 218.475 75.8092 217.791 76.2543C216.778 76.9141 215.66 77.3939 214.645 78.0537C214.285 78.2846 213.482 78.6534 213.689 79.1303C213.896 79.6071 214.717 79.955 214.995 80.4588Z" fill="black"/>
<path d="M215.034 80.7377C214.504 81.6374 214.39 82.687 215.034 83.5027C215.115 83.6047 215.412 84.2345 215.541 84.2405C215.665 84.228 215.781 84.1691 215.864 84.0755C216.55 83.4488 217.063 82.648 217.662 81.9373C218.261 81.2265 219.025 80.5818 219.942 80.4378C221.047 80.2669 222.117 80.8517 223.085 81.4185C223.506 81.6239 223.873 81.9248 224.157 82.2972C224.361 82.6664 224.482 83.0758 224.511 83.4968C224.844 86.0189 224.838 88.574 224.829 91.1171C224.829 92.9584 224.829 94.8088 224.469 96.6142C224.289 97.5498 224.02 98.4645 223.891 99.4062C223.798 100.237 223.761 101.074 223.78 101.91V105.413C223.756 106.056 223.801 106.699 223.915 107.332C224.08 108.1 224.442 108.808 224.685 109.555C224.935 110.413 225.107 111.292 225.197 112.182L225.676 115.807C225.826 116.95 225.937 118.207 225.248 119.106C224.948 119.52 224.526 119.853 224.211 120.267C223.013 121.808 223.405 124.013 222.911 125.899C222.522 127.28 221.721 128.509 220.616 129.423C219.768 130.142 218.675 130.706 217.587 130.505C216.116 130.232 215.232 128.706 214.83 127.245C214.429 125.785 214.285 124.216 213.416 122.993C212.706 121.991 211.619 121.361 210.612 120.648C209.605 119.934 208.646 119.013 208.431 117.802C208.335 117.274 208.395 116.731 208.338 116.197C208.26 115.521 208.001 114.878 207.588 114.336C207.176 113.794 206.626 113.373 205.995 113.117C205.243 112.817 204.314 112.719 203.898 112.029C204.994 111.411 205.719 110.268 206.103 109.066C206.486 107.863 206.564 106.586 206.639 105.326L206.891 101.113C207.002 99.2292 207.053 97.3639 207.882 95.6725C208.251 94.9137 208.712 94.206 209.099 93.4593C209.609 92.4085 210.044 91.3232 210.402 90.2114C211.001 88.484 211.601 86.7566 212.14 85.0082C212.355 84.1636 212.675 83.3495 213.093 82.5851C213.518 81.8533 214.183 80.8967 215.034 80.7377Z" fill="#E02041"/>
<path d="M205.686 108.112L206.801 108.151L207.038 106.469C207.068 106.131 207.146 105.8 207.271 105.485C207.456 105.153 207.67 104.839 207.912 104.546C209.009 102.996 208.928 100.948 209.201 99.0553C209.563 96.5422 210.612 94.191 211.649 91.8788L213.818 87.0535C214.247 86.2338 214.454 85.3154 214.417 84.3904C214.438 83.6437 214.657 80.9326 214.678 80.1919C214.678 79.916 214.078 80.069 213.944 79.823C213.674 79.2862 213.302 80.7407 212.796 81.0586C212.29 81.3765 212.008 81.9583 211.795 82.5161C211.328 83.7307 211.043 85.0082 210.597 86.2348C210.151 87.4614 209.557 88.6669 208.578 89.5336C208.134 89.9235 207.625 90.2294 207.205 90.6462C205.86 91.9778 205.728 94.08 205.68 95.9784C205.656 97.091 205.429 108.112 205.686 108.112Z" fill="#2F2E41"/>
<path d="M221.722 78.7254C220.64 79.1513 220.047 80.3269 219.744 81.4545C219.442 82.5821 219.316 83.7876 218.734 84.7983C217.374 87.1645 213.911 87.8542 212.955 90.4123C212.655 91.249 212.655 92.1667 212.568 93.0574C212.395 94.8898 211.792 96.6561 211.616 98.4915C211.521 99.9151 211.554 101.344 211.715 102.762L212.913 117.214C213.09 119.313 213.084 121.541 212.55 123.569C213.776 123.806 215.052 123.488 216.188 122.969C217.323 122.45 218.363 121.736 219.456 121.134C221.338 120.093 223.414 119.358 225.062 117.973C225.361 117.74 225.616 117.457 225.817 117.136C226.147 116.566 226.177 115.873 226.333 115.232C226.475 114.719 226.656 114.217 226.875 113.732C227.479 112.276 228.005 110.788 228.451 109.276C228.757 108.273 228.999 107.251 229.173 106.217C229.305 105.395 229.377 104.561 229.449 103.731C229.536 102.429 229.794 101.145 230.216 99.91C231.268 96.9672 231.866 93.8806 231.986 90.7572C232.02 90.3062 231.989 89.8527 231.893 89.4107C231.709 88.8747 231.463 88.3616 231.162 87.8812C230.659 86.9335 230.356 85.8899 229.883 84.9242C228.81 82.75 226.914 81.0976 224.93 79.7151C223.966 79.0403 222.827 78.2936 221.722 78.7254Z" fill="#2F2E41"/>
<path d="M196.413 102.303C195.553 101.851 194.774 101.258 194.109 100.549C193.81 100.195 193.558 99.796 193.249 99.4482C192.472 98.6163 191.461 98.0392 190.349 97.7927C189.247 97.5504 188.119 97.4407 186.991 97.4659C186.235 97.4177 185.478 97.5092 184.755 97.7358C184.394 97.854 184.069 98.0622 183.81 98.3407C183.551 98.6193 183.367 98.959 183.275 99.3282C183.111 100.228 183.698 101.101 184.402 101.679C185.058 102.215 185.829 102.59 186.655 102.774C187.328 102.891 188.007 102.97 188.689 103.011C192.698 103.431 196.276 105.614 199.775 107.602C202.861 109.352 206.006 110.985 209.21 112.503C209.336 111.541 209.389 110.572 209.369 109.603C209.351 108.88 209.315 107.776 208.632 107.35C207.838 106.856 206.534 106.751 205.635 106.451C203.57 105.773 201.553 104.956 199.598 104.007C198.518 103.477 197.456 102.909 196.413 102.303Z" fill="#FBBEBE"/>
<path d="M221.03 74.4318C222.039 70.5921 219.764 66.6657 215.948 65.6617C212.133 64.6577 208.223 66.9564 207.214 70.796C206.206 74.6356 208.481 78.5622 212.296 79.5661C216.111 80.5701 220.022 78.2714 221.03 74.4318Z" fill="#FBBEBE"/>
<path d="M223.765 86.8766C223.127 87.6203 222.806 88.58 222.378 89.4617C221.497 91.279 220.113 92.8385 219.421 94.7398C218.69 96.7431 218.713 99.1243 217.281 100.699C217.033 100.972 216.733 101.236 216.661 101.598C216.651 101.819 216.626 102.038 216.586 102.255C216.383 102.825 215.448 102.855 215.274 103.437C215.223 103.608 215.25 103.794 215.187 103.962C215.043 104.336 214.549 104.393 214.216 104.621C213.521 105.092 213.662 106.184 213.168 106.865C212.951 107.119 212.67 107.311 212.354 107.421C212.038 107.531 211.698 107.554 211.37 107.488C210.721 107.355 210.096 107.121 209.518 106.796C209.313 106.682 209.087 106.611 208.853 106.589C208.576 106.597 208.308 106.688 208.083 106.85C206.765 107.689 206.145 109.354 206.154 110.925C206.163 112.497 206.702 114.008 207.253 115.478C207.33 115.725 207.454 115.956 207.619 116.155C208.056 116.617 208.817 116.545 209.399 116.287C209.98 116.029 210.507 115.624 211.13 115.511C212.236 115.31 213.317 116.071 214.426 116.008C215.247 115.96 215.975 115.484 216.655 115.022C217.746 114.284 218.854 113.522 219.651 112.479C220.143 111.837 220.502 111.108 220.931 110.421C221.479 109.585 222.079 108.783 222.728 108.022L226.845 102.978C227.258 102.5 227.629 101.988 227.954 101.445C228.328 100.713 228.618 99.9405 228.816 99.1423C229.209 97.7957 229.604 96.4432 229.67 95.0367C229.693 93.8827 229.593 92.7295 229.371 91.5969C229.229 90.468 228.926 89.3652 228.472 88.3221C227.624 86.4507 225.446 84.9123 223.765 86.8766Z" fill="#2F2E41"/>
<path d="M236.217 83.6677C236.546 82.4368 236.579 81.1451 236.313 79.899C236.046 78.6528 235.487 77.4879 234.683 76.5002C235.776 71.8308 233.394 67.1555 229.2 65.4251C229.35 61.0466 226.578 57.028 222.309 55.9004C217.872 54.7338 213.32 57.079 211.406 61.2476C208.709 59.847 205.857 59.997 204.916 61.6434C203.934 63.3648 205.411 66.0729 208.212 67.6893C209.095 68.2058 210.061 68.564 211.067 68.7479C211.499 69.9711 212.182 71.0903 213.073 72.0334C213.963 72.9765 215.04 73.7227 216.236 74.224C216.162 75.9943 216.583 77.7501 217.451 79.2943C218.319 80.8386 219.599 82.11 221.149 82.9659C221.319 84.1965 221.773 85.3704 222.477 86.3937C222.394 86.6085 222.324 86.8277 222.267 87.0505C221.386 90.3943 223.292 93.7952 226.518 94.6439C229.745 95.4926 233.077 93.4713 233.955 90.1274C234.191 89.236 234.232 88.3041 234.075 87.3954C235.11 86.3679 235.85 85.0803 236.217 83.6677Z" fill="#3F3D56"/>
<path opacity="0.1" d="M206.765 62.5131C207.706 60.8667 210.555 60.7137 213.255 62.1172C215.163 57.9487 219.72 55.6005 224.157 56.7701C224.358 56.8211 224.556 56.8841 224.757 56.9501C223.998 56.4816 223.174 56.1279 222.312 55.9004C217.875 54.7338 213.323 57.079 211.409 61.2476C208.712 59.847 205.86 59.997 204.919 61.6434C203.937 63.3648 205.414 66.0729 208.215 67.6893C208.741 67.9921 209.295 68.2432 209.869 68.439C207.19 66.8016 205.806 64.1925 206.765 62.5131Z" fill="black"/>
<path opacity="0.1" d="M224.118 87.9202C224.176 87.6974 224.246 87.4782 224.328 87.2634C223.625 86.239 223.17 85.0641 223.001 83.8326C221.451 82.9775 220.17 81.7066 219.302 80.1628C218.434 78.6191 218.013 76.8636 218.087 75.0937C216.892 74.5924 215.814 73.8462 214.924 72.9031C214.034 71.96 213.351 70.8408 212.919 69.6176C212.332 69.5129 211.759 69.345 211.208 69.1168C211.666 70.2578 212.346 71.2962 213.208 72.1715C214.071 73.0468 215.099 73.7415 216.233 74.215C216.159 75.9853 216.58 77.7411 217.448 79.2853C218.316 80.8295 219.596 82.101 221.146 82.9569C221.316 84.1875 221.77 85.3614 222.474 86.3847C222.391 86.5995 222.321 86.8187 222.264 87.0415C221.386 90.3733 223.277 93.7622 226.485 94.6259C225.457 93.8815 224.679 92.8409 224.256 91.6429C223.833 90.4448 223.785 89.1462 224.118 87.9202Z" fill="black"/>
<path d="M217.203 75.0879C217.687 74.7203 217.68 73.8972 217.189 73.2496C216.697 72.602 215.907 72.3751 215.423 72.7428C214.94 73.1105 214.946 73.9335 215.438 74.5811C215.929 75.2287 216.719 75.4556 217.203 75.0879Z" fill="#FBBEBE"/>
<path d="M129.369 11.7979C132.065 11.7979 134.25 9.61065 134.25 6.91258C134.25 4.21451 132.065 2.02729 129.369 2.02729C126.674 2.02729 124.489 4.21451 124.489 6.91258C124.489 9.61065 126.674 11.7979 129.369 11.7979Z" fill="#3F3D56"/>
<path d="M139.961 35.5076C147.521 35.5076 153.65 27.5589 153.65 17.7538C153.65 7.94864 147.521 0 139.961 0C132.4 0 126.271 7.94864 126.271 17.7538C126.271 27.5589 132.4 35.5076 139.961 35.5076Z" fill="#3F3D56"/>
<path opacity="0.1" d="M139.961 30.1454C133.102 30.1454 127.422 23.6047 126.424 15.0727C126.32 15.9626 126.268 16.8578 126.268 17.7538C126.268 27.5573 132.398 35.5076 139.961 35.5076C147.523 35.5076 153.65 27.5573 153.65 17.7538C153.65 16.8578 153.598 15.9626 153.494 15.0727C152.499 23.6167 146.819 30.1454 139.961 30.1454Z" fill="black"/>
<path d="M169.131 69.7496C168.831 70.9491 167.57 71.9268 166.168 72.6016C163.213 74.0261 159.576 74.4489 156.044 74.5929C155.145 74.6475 154.243 74.6304 153.347 74.5419C151.499 74.323 149.785 73.5343 148.715 72.4096C148.563 72.2869 148.457 72.1153 148.416 71.9238C148.423 71.8089 148.453 71.6966 148.505 71.5936C148.556 71.4906 148.628 71.399 148.715 71.324C150.6 69.2667 153.74 68.0012 156.892 67.1015C159.288 66.4087 163.465 64.6154 166.081 64.8583C168.621 65.0772 169.502 68.2201 169.131 69.7496Z" fill="#3F3D56"/>
<path opacity="0.1" d="M169.131 69.7496C168.831 70.9491 167.57 71.9268 166.168 72.6016C163.213 74.0261 159.576 74.4489 156.044 74.5929C155.145 74.6475 154.243 74.6304 153.347 74.5419C151.499 74.323 149.785 73.5343 148.715 72.4096C148.563 72.2869 148.457 72.1153 148.416 71.9238C148.423 71.8089 148.453 71.6966 148.505 71.5936C148.556 71.4906 148.628 71.399 148.715 71.324C150.6 69.2667 153.74 68.0012 156.892 67.1015C159.288 66.4087 163.465 64.6154 166.081 64.8583C168.621 65.0772 169.502 68.2201 169.131 69.7496Z" fill="black"/>
<path d="M131.601 60.7107C130.703 62.4752 130.54 64.5244 131.149 66.4087C131.77 68.2826 132.932 69.9296 134.49 71.1411C138.316 74.215 143.565 74.6378 148.457 74.5989C152.748 74.5602 157.032 74.2658 161.287 73.7172C162.704 73.5342 164.136 73.3183 165.448 72.7515C167.045 72.0588 168.445 70.7902 169.017 69.1528C169.589 67.5153 169.185 65.4881 167.818 64.3904C166.62 63.4248 164.993 63.2928 163.468 63.1909L154.734 62.666C155.597 61.7903 156.745 61.2955 157.796 60.6627C159.19 59.817 160.115 58.4015 161.131 57.127C162.629 55.2196 164.427 53.5522 166.224 51.8938C166.524 53.5252 167.54 54.8658 168.753 55.9934C169.967 57.121 171.366 58.0267 172.63 59.0973C175.686 61.6944 177.885 65.2211 181.1 67.6203C183.312 67.0382 185.379 66.005 187.173 64.5854L185.924 62.3212C185.821 62.084 185.659 61.8774 185.454 61.7214C185.097 61.5054 184.642 61.6164 184.231 61.5564C183.135 61.3915 182.655 60.1229 182.224 59.1003C181.043 56.2873 178.778 54.107 176.831 51.7499C175.41 50.0121 174.152 48.148 173.071 46.1808C172.42 45.0082 171.827 43.7817 170.943 42.771C170.06 41.7604 168.828 40.9716 167.486 40.9716C166.287 40.9716 165.209 41.5714 164.19 42.1712C161.087 44.0167 158.101 46.0529 155.25 48.2681C153.752 49.4257 152.275 50.6522 150.525 51.363C149.788 51.6629 149.027 51.8668 148.305 52.2297C147.067 52.8685 146.127 53.9481 145.114 54.9048C141.506 58.3206 136.566 60.5338 131.601 60.7107Z" fill="#605D82"/>
<path d="M149.866 36.3893C149.827 37.4345 149.605 38.4649 149.21 39.4332C149.009 39.9143 148.713 40.349 148.337 40.7102C147.962 41.0713 147.516 41.3512 147.028 41.5325C146.334 41.7188 145.606 41.7424 144.901 41.6014C144.285 41.5349 143.692 41.3299 143.166 41.0016C142.348 40.4378 141.941 39.4332 141.791 38.4495C141.641 37.4659 141.71 36.4612 141.614 35.4716C141.521 34.6717 141.369 33.8798 141.159 33.1024C141.096 32.8445 141.03 32.5866 140.964 32.3287C140.898 32.0708 140.841 31.8129 140.784 31.555C140.727 31.297 140.683 31.0721 140.641 30.8262C140.599 30.5803 140.575 30.4124 140.554 30.2054C140.535 29.5871 140.434 28.974 140.254 28.3821C140.083 27.9989 139.869 27.6366 139.616 27.3024C139.508 27.1465 139.403 27.0025 139.316 26.8316C139.037 26.4138 138.908 25.914 138.948 25.4131C138.959 25.3355 138.978 25.2591 139.005 25.1852C139.014 25.1565 139.025 25.1285 139.038 25.1012C139.145 25.0719 139.243 25.0169 139.324 24.9412C139.404 24.8654 139.466 24.7711 139.502 24.6664C139.543 24.4404 139.523 24.2075 139.445 23.9916C139.357 23.69 139.235 23.3993 139.083 23.1249C138.984 22.945 138.645 22.6181 138.642 22.4112C138.642 21.9943 139.451 21.6584 139.781 21.4935C140.787 20.988 141.911 20.7603 143.035 20.8337C143.754 20.8817 144.533 21.1036 144.931 21.7094C145.291 22.2522 145.231 22.957 145.395 23.5897C145.409 23.6821 145.448 23.7691 145.506 23.8417C145.585 23.9129 145.683 23.9579 145.788 23.9706C145.963 24.006 146.143 24.0131 146.321 23.9916C146.369 23.989 146.416 23.982 146.462 23.9706C146.739 23.9193 147.001 23.8066 147.229 23.6407C147.379 23.5987 147.529 23.5688 147.676 23.5418H147.693C148.293 25.4251 148.368 27.4404 148.856 29.3657C149.099 30.3194 149.455 31.2611 149.494 32.2447C149.494 32.2867 149.494 32.3317 149.494 32.3737C149.494 32.6916 149.476 33.0094 149.494 33.3243C149.5 33.4653 149.516 33.6056 149.542 33.7442C149.596 33.9675 149.662 34.1877 149.74 34.404C149.761 34.4729 149.782 34.5419 149.8 34.6139C149.815 34.6642 149.827 34.7152 149.836 34.7668C149.924 35.3034 149.934 35.8498 149.866 36.3893Z" fill="#FBBEBE"/>
<path d="M141.512 24.0696C145.391 24.0696 148.535 20.9223 148.535 17.04C148.535 13.1577 145.391 10.0105 141.512 10.0105C137.634 10.0105 134.49 13.1577 134.49 17.04C134.49 20.9223 137.634 24.0696 141.512 24.0696Z" fill="#FBBEBE"/>
<path d="M186.104 55.3426C185.899 53.4266 185.218 51.5924 184.123 50.0075L184.672 53.2613C184.444 53.3266 184.203 53.3241 183.977 53.2544C183.75 53.1846 183.55 53.0505 183.398 52.8685C183.102 52.4987 182.876 52.078 182.73 51.6269C181.932 49.6445 180.888 47.7705 179.623 46.0489C175.153 45.674 170.731 43.8206 166.8 41.6554C162.869 39.4902 159.187 36.9021 155.304 34.6499C154.63 34.2435 153.93 33.8847 153.206 33.5762C151.993 33.0904 150.63 32.8385 149.479 32.2657L149.248 32.1427C148.988 32.0027 148.741 31.838 148.511 31.6509C148.388 31.5491 148.271 31.4399 148.161 31.324C147.586 30.6559 147.13 29.8941 146.813 29.0718C146.195 27.7043 145.974 26.0519 145.36 24.6843C145.643 24.4203 145.96 24.1954 146.303 24.0156L146.453 23.9406C146.697 23.8265 146.951 23.7342 147.211 23.6647C147.361 23.6227 147.511 23.5927 147.658 23.5657H147.676C148.372 23.4534 149.085 23.51 149.755 23.7307C150.732 24.0636 151.552 24.7233 152.379 25.3501C153.683 26.3368 155.037 27.2664 156.22 28.397C156.898 29.0478 157.518 29.7616 158.246 30.3524C158.853 30.8214 159.493 31.2464 160.16 31.6239L172.007 38.6864C173.343 39.4812 174.683 40.2789 175.989 41.1246C177.975 42.4051 179.884 43.7937 181.801 45.1822L185.184 47.6353C185.554 47.8757 185.879 48.1804 186.143 48.535C186.375 48.9326 186.519 49.3754 186.565 49.8335C186.846 51.6807 186.688 53.5681 186.104 55.3426Z" fill="#FBBEBE"/>
<path d="M151.609 41.6764C151.133 43.8027 148.988 45.0892 147.864 46.9576C146.468 49.2757 147.037 51.9718 147.565 54.6289L144.691 57.106C144.164 57.5588 143.634 58.0057 143.067 58.4165C142.237 58.9753 141.369 59.4764 140.47 59.916L137.929 61.2236C137.141 61.6668 136.306 62.0209 135.439 62.2792C133.768 62.708 131.994 62.4081 130.346 61.9133C130.151 61.8624 129.963 61.7858 129.789 61.6854C129.686 61.6235 129.596 61.542 129.525 61.4455C129.361 61.1532 129.302 60.8135 129.357 60.4828C129.525 57.6998 130.205 54.9737 130.882 52.2687C131.238 50.6442 131.72 49.0499 132.323 47.5004C132.918 46.174 133.602 44.8895 134.37 43.6557C135.269 42.1352 136.167 40.6028 137.366 39.2982C137.878 38.7344 138.45 38.2006 138.756 37.4989C139.178 36.5332 139.014 35.4266 139.101 34.377C139.165 33.5868 139.375 32.8153 139.718 32.1008C139.901 31.7162 140.122 31.3506 140.377 31.0091C140.494 31.279 140.608 31.549 140.724 31.8159L140.949 32.3437C141.048 32.5686 141.144 32.7965 141.249 33.0214C141.528 33.6652 141.806 34.31 142.082 34.9558C142.379 35.7692 142.805 36.5296 143.343 37.208C143.915 37.8557 144.757 38.3266 145.614 38.2336C146.017 38.1664 146.399 38.0105 146.734 37.7771C147.069 37.5437 147.347 37.2386 147.55 36.8841C147.951 36.1739 148.241 35.4062 148.41 34.6079C148.646 33.6364 148.678 32.6266 148.505 31.6419C148.206 29.7436 147.412 27.8063 146.828 26.0429C146.589 25.4554 146.452 24.8319 146.42 24.1985C146.42 24.127 146.427 24.0557 146.441 23.9856V23.9316C146.685 23.8176 146.939 23.7252 147.199 23.6557C147.349 23.6137 147.499 23.5837 147.646 23.5568C148.161 26.3558 148.677 29.1488 149.195 31.9358C149.195 32.0018 149.221 32.0678 149.233 32.1337C149.305 32.5356 149.38 32.9345 149.464 33.3333C149.548 33.7322 149.62 34.0561 149.71 34.413C149.74 34.5329 149.773 34.6559 149.806 34.7758C149.899 35.1057 150 35.4296 150.105 35.7535C150.836 37.7118 152.056 39.6641 151.609 41.6764Z" fill="#E02041"/>
<path d="M180.114 71.5669C180.089 71.9799 180.168 72.3927 180.345 72.7665C180.783 73.5702 181.843 73.7532 182.742 73.8281C188.073 74.268 193.437 74.1051 198.732 73.3423C199.02 73.3213 199.299 73.234 199.547 73.0874C200.299 72.5596 199.847 71.273 199.014 70.8592C198.181 70.4453 197.216 70.5593 196.317 70.3703C195.421 70.1434 194.567 69.7727 193.789 69.2727C191.961 68.2211 190.163 67.1215 188.396 65.9739C187.338 65.2931 186.089 64.5674 184.899 64.9722C181.666 66.0639 180.091 68.0852 180.114 71.5669Z" fill="#2F2E41"/>
<path d="M140.811 31.414L140.784 31.5609L140.739 31.8069C140.593 32.5626 140.41 33.3063 140.203 34.0651C139.631 36.1313 138.867 38.1676 138.106 40.1709L131.991 56.3053C131.475 57.6608 130.963 59.0043 130.379 60.3419C130.184 60.7827 129.983 61.2416 129.78 61.6794C129.064 63.2898 128.374 64.9543 128.147 66.6727C127.997 67.8093 127.847 68.9698 128.072 70.0945C128.297 71.2191 128.971 72.3197 130.052 72.7335C130.574 72.9375 131.32 73.2104 131.176 73.7532C131.101 74.0531 130.762 74.197 130.457 74.245C130.056 74.3097 129.646 74.2849 129.256 74.1724C128.866 74.0599 128.506 73.8624 128.201 73.5942C127.631 73.0904 127.191 72.3017 126.433 72.2177C125.909 72.1607 125.426 72.4756 124.935 72.6945C122.972 73.5942 120.689 72.9645 118.628 72.3257C118.79 71.492 119.629 70.9402 120.459 70.7752C121.289 70.6103 122.152 70.7242 123.002 70.7032C123.275 70.7175 123.545 70.6473 123.775 70.5023C123.984 70.3156 124.133 70.0715 124.204 69.8006C124.75 68.1789 125.156 66.5134 125.417 64.8223C125.693 63.0529 125.807 61.2596 126.196 59.5142C126.496 58.1526 126.969 56.8331 127.371 55.4956C128.15 52.7428 128.789 49.9522 129.285 47.1345C129.537 45.965 129.717 44.7812 129.825 43.5897C129.894 42.6001 129.861 41.6044 129.956 40.6208C130.116 39.3391 130.382 38.073 130.753 36.8361C131.119 35.4836 131.481 34.137 131.847 32.7875C132.386 30.7902 132.965 28.7179 134.331 27.1675C134.805 26.621 135.386 26.178 136.039 25.8658C136.691 25.5537 137.401 25.3792 138.124 25.3531C138.395 25.3519 138.665 25.3811 138.93 25.4401L139.062 25.4731C139.351 25.5477 139.628 25.6628 139.886 25.815C140.308 25.5451 140.521 25.641 140.802 26.0519C141.047 26.4906 141.162 26.9897 141.135 27.4914C141.157 28.8064 141.048 30.1203 140.811 31.414Z" fill="#FBBEBE"/>
<path d="M141.273 33.0064L141.255 33.0244L141.159 33.1204L140.203 34.0771L139.733 32.1038L138.124 25.3441C138.395 25.3429 138.665 25.3721 138.93 25.4311C138.941 25.3534 138.96 25.2771 138.987 25.2032L139.062 25.4641L139.607 27.3204L140.641 30.8442L140.811 31.426L141.273 33.0064Z" fill="#E02041"/>
<path d="M146.639 6.67266H138.591C136.606 6.67266 134.996 8.28387 134.996 10.2714V12.6076C134.996 14.5951 136.606 16.2063 138.591 16.2063H146.639C148.624 16.2063 150.234 14.5951 150.234 12.6076V10.2714C150.234 8.28387 148.624 6.67266 146.639 6.67266Z" fill="#3F3D56"/>
<path d="M151.124 11.7979C153.82 11.7979 156.005 9.61065 156.005 6.91258C156.005 4.21451 153.82 2.02729 151.124 2.02729C148.428 2.02729 146.243 4.21451 146.243 6.91258C146.243 9.61065 148.428 11.7979 151.124 11.7979Z" fill="#3F3D56"/>
<path opacity="0.1" d="M151.007 2.02429H150.827C152.084 2.07833 153.272 2.61617 154.142 3.52558C155.013 4.43499 155.499 5.64571 155.499 6.90508C155.499 8.16445 155.013 9.37517 154.142 10.2846C153.272 11.194 152.084 11.7318 150.827 11.7859H151.007C152.302 11.7859 153.543 11.2712 154.458 10.355C155.374 9.43883 155.888 8.19624 155.888 6.90058C155.888 5.60492 155.374 4.36233 154.458 3.44616C153.543 2.52999 152.302 2.0153 151.007 2.0153V2.02429Z" fill="black"/>
<path opacity="0.1" d="M129.369 2.02429H129.549C128.292 2.07833 127.104 2.61617 126.234 3.52558C125.364 4.43499 124.878 5.64571 124.878 6.90508C124.878 8.16445 125.364 9.37517 126.234 10.2846C127.104 11.194 128.292 11.7318 129.549 11.7859H129.369C128.728 11.7859 128.094 11.6595 127.501 11.414C126.909 11.1685 126.371 10.8086 125.918 10.355C125.465 9.90136 125.105 9.36281 124.86 8.7701C124.615 8.17739 124.489 7.54213 124.489 6.90058C124.489 6.25904 124.615 5.62378 124.86 5.03107C125.105 4.43836 125.465 3.8998 125.918 3.44616C126.371 2.99252 126.909 2.63268 127.501 2.38717C128.094 2.14166 128.728 2.0153 129.369 2.0153V2.02429Z" fill="black"/>
<path opacity="0.1" d="M150.384 15.2497H138.016C137.637 15.2497 137.274 15.0994 137.006 14.8317C136.739 14.5641 136.588 14.201 136.587 13.8222V14.7728C136.588 15.152 136.738 15.5154 137.006 15.7835C137.274 16.0516 137.637 16.2025 138.016 16.2033H150.396C150.775 16.2025 151.138 16.0516 151.406 15.7835C151.674 15.5154 151.824 15.152 151.825 14.7728V13.8222C151.824 14.0107 151.786 14.1972 151.714 14.371C151.641 14.5448 151.534 14.7025 151.4 14.8351C151.267 14.9677 151.108 15.0726 150.933 15.1437C150.759 15.2148 150.572 15.2508 150.384 15.2497Z" fill="black"/>
<path d="M192.342 65.2571C192.342 65.2571 193.115 65.3921 193.24 64.7653C193.303 64.4654 193.091 62.5401 192.848 60.6148C192.731 59.6671 192.605 58.7224 192.503 57.9667C192.381 57.04 192.291 56.4012 192.291 56.4012L192.15 55.9334L191.317 53.1324L190.532 50.4933L189.954 49.4557L185.792 51.483L183.203 55.9604L184.006 56.4672L184.147 56.5572L185.624 58.1046L189.765 62.4531L191.629 64.4114L191.847 64.6394L192.342 65.2571Z" fill="#FFE09C"/>
<path d="M189.07 47.6743C189.07 47.6743 184.51 49.8155 183.413 52.1427C183.413 52.1427 182.388 54.101 182.26 55.1417C182.26 55.1417 181.96 56.0924 183.851 56.3263C183.851 56.3263 184.711 52.8325 187.29 51.315L189.873 49.8006L189.07 47.6743Z" fill="#E7C4C3"/>
<path d="M190.258 53.0496C190.481 52.219 190.091 51.3928 189.388 51.2042C188.685 51.0155 187.935 51.536 187.712 52.3666C187.49 53.1972 187.879 54.0234 188.582 54.2121C189.285 54.4007 190.036 53.8802 190.258 53.0496Z" fill="#FF7F8E"/>
<path d="M189.763 58.4792C189.984 57.6518 189.594 56.8296 188.894 56.6428C188.194 56.456 187.448 56.9754 187.227 57.8028C187.007 58.6302 187.396 59.4524 188.096 59.6392C188.797 59.826 189.543 59.3066 189.763 58.4792Z" fill="#FF7F8E"/>
<path d="M185.624 58.1046C185.863 58.0076 186.076 57.8549 186.244 57.6594C186.412 57.4638 186.532 57.2309 186.592 56.98C186.814 56.1523 186.424 55.3276 185.723 55.1417C185.022 54.9558 184.276 55.4746 184.057 56.3023C184.04 56.3582 184.027 56.4153 184.018 56.4732L184.159 56.5632L185.624 58.1046Z" fill="#FF7F8E"/>
<path d="M191.194 56.1043C191.358 56.1459 191.53 56.1522 191.696 56.1227C191.863 56.0933 192.022 56.0287 192.162 55.9334L191.329 53.1324C191.081 53.2246 190.859 53.3765 190.684 53.5747C190.508 53.7729 190.384 54.0114 190.322 54.269C190.104 55.1057 190.493 55.9184 191.194 56.1043Z" fill="#FF7F8E"/>
<path d="M191.677 60.9507C191.886 61.0001 192.105 60.9953 192.312 60.9365C192.519 60.8777 192.708 60.767 192.86 60.6148C192.743 59.6671 192.617 58.7224 192.515 57.9667H192.476C191.775 57.7778 191.029 58.2996 190.808 59.1273C190.586 59.955 190.978 60.7647 191.677 60.9507Z" fill="#FF7F8E"/>
<path d="M191.629 64.4024C191.715 64.2572 191.78 64.1008 191.823 63.9376C192.045 63.1099 191.656 62.2882 190.954 62.1022C190.742 62.0508 190.52 62.0552 190.31 62.1151C190.1 62.1751 189.909 62.2884 189.756 62.4441L191.629 64.4024Z" fill="#FF7F8E"/>
<path d="M189.57 51.8608L190.05 51.9898C189.861 52.3368 189.75 52.7204 189.723 53.1144C189.722 53.1404 189.722 53.1664 189.723 53.1924C189.786 53.6872 189.244 53.0634 189.244 53.0634C189.244 53.0634 189.337 52.0468 189.57 51.8608Z" fill="#94CC79"/>
<path d="M187.386 54.9558L187.868 55.0847C187.678 55.43 187.567 55.813 187.542 56.2063C187.54 56.2323 187.54 56.2583 187.542 56.2843C187.605 56.7791 187.062 56.1553 187.062 56.1553C187.062 56.1553 187.152 55.1387 187.386 54.9558Z" fill="#94CC79"/>
<path d="M188.878 55.9784L189.357 56.1043C189.169 56.4514 189.058 56.8349 189.031 57.2289C189.029 57.2549 189.029 57.281 189.031 57.3069C189.097 57.8017 188.552 57.178 188.552 57.178C188.552 57.178 188.65 56.1613 188.878 55.9784Z" fill="#94CC79"/>
<path d="M190.796 58.5605L191.278 58.6865C191.088 59.0329 190.977 59.4168 190.951 59.8111C190.95 59.837 190.95 59.8631 190.951 59.889C191.014 60.3839 190.472 59.7601 190.472 59.7601C190.472 59.7601 190.565 58.7434 190.796 58.5605Z" fill="#94CC79"/>
<path d="M191.991 62.81L192.47 62.939C192.282 63.285 192.171 63.6676 192.144 64.0606C192.142 64.0865 192.142 64.1126 192.144 64.1385C192.21 64.6334 191.665 64.0126 191.665 64.0126C191.665 64.0126 191.757 62.9929 191.991 62.81Z" fill="#94CC79"/>
<path d="M189.39 59.838L189.87 59.967C189.68 60.3175 189.571 60.7057 189.549 61.1036C189.548 61.1296 189.548 61.1556 189.549 61.1816C189.612 61.6764 189.07 61.0556 189.07 61.0556C189.07 61.0556 189.16 60.021 189.39 59.838Z" fill="#94CC79"/>
<path d="M190.553 48.0702C190.553 48.0702 189.867 46.5137 189.055 47.6743C189.123 48.6166 189.433 49.5254 189.954 50.3134C189.954 50.3134 192.437 57.076 192.231 58.1106C192.231 58.1106 193.21 64.6423 192.968 65.0082C192.968 65.0082 193.237 65.4701 193.429 63.7337C193.621 61.9973 192.779 56.8961 192.779 56.8961L191.548 51.5939L190.724 49.7946L190.553 48.0702Z" fill="#E7C4C3"/>
<path opacity="0.2" d="M190.553 48.0702C190.553 48.0702 189.867 46.5137 189.055 47.6743C189.123 48.6166 189.433 49.5254 189.954 50.3134C189.954 50.3134 192.437 57.076 192.231 58.1106C192.231 58.1106 193.21 64.6423 192.968 65.0082C192.968 65.0082 193.237 65.4701 193.429 63.7337C193.621 61.9973 192.779 56.8961 192.779 56.8961L191.548 51.5939L190.724 49.7946L190.553 48.0702Z" fill="white"/>
<path d="M182.314 50.6493C182.314 50.6493 183.545 54.2 184.672 53.2553L183.773 48.616L182.314 50.6493Z" fill="#FBBEBE"/>
<path d="M98.0927 65.2331C98.0927 65.2331 108.954 83.5477 111.491 85.9949C111.491 85.9949 122.343 97.2709 116.827 96.4912C116.423 96.4342 108.48 89.7136 108.016 88.61C107.551 87.5063 92.5349 67.9802 92.5349 67.9802L94.6771 66.0069L98.0927 65.2331Z" fill="#A0616A"/>
<path opacity="0.1" d="M98.0927 65.2331C98.0927 65.2331 108.954 83.5477 111.491 85.9949C111.491 85.9949 122.343 97.2709 116.827 96.4912C116.423 96.4342 108.48 89.7136 108.016 88.61C107.551 87.5063 92.5349 67.9802 92.5349 67.9802L94.6771 66.0069L98.0927 65.2331Z" fill="black"/>
<path d="M108.025 125.047C108.025 125.047 104.549 129.396 105.999 131.135C107.45 132.874 114.673 136.2 117.004 136.062C119.467 135.918 127.721 136.362 128.012 132.584C128.012 132.584 128.59 130.844 121.061 130.553C113.532 130.262 115.845 122.435 115.845 122.435L108.025 125.047Z" fill="#2F2E41"/>
<path d="M66.6065 88.2261C66.6065 88.2261 63.131 100.111 73.5575 102.141L84.8529 101.562C84.8529 101.562 100.783 98.3715 105.131 100.693C105.131 100.693 106.868 100.993 106.287 103.302C105.706 105.611 107.156 121.278 107.156 121.278V126.496C107.156 126.496 117.004 126.496 118.164 125.335C118.164 125.335 117.295 120.696 118.164 116.938C119.033 113.18 116.717 101.281 116.717 101.281L116.486 94.14C116.468 93.2552 116.216 92.3909 115.754 91.6362C115.292 90.8814 114.638 90.2634 113.858 89.8455C113.31 89.5552 112.701 89.4 112.082 89.3927C112.082 89.3927 92.3851 86.2048 85.4341 86.7836C78.4831 87.3624 66.6065 88.2261 66.6065 88.2261Z" fill="#605D82"/>
<path d="M86.0124 50.2444C86.0124 50.2444 91.2256 56.3323 91.8039 58.3626C92.3821 60.3928 98.7668 65.602 98.7668 65.602C98.7668 65.602 94.1318 69.0808 95.0007 70.8202C95.8696 72.5596 88.9186 65.0232 88.9186 65.0232L80.7901 53.1444L86.0124 50.2444Z" fill="#E02041"/>
<path opacity="0.1" d="M86.0124 50.2444C86.0124 50.2444 91.2256 56.3323 91.8039 58.3626C92.3821 60.3928 98.7668 65.602 98.7668 65.602C98.7668 65.602 94.1318 69.0808 95.0007 70.8202C95.8696 72.5596 88.9186 65.0232 88.9186 65.0232L80.7901 53.1444L86.0124 50.2444Z" fill="black"/>
<path d="M89.4789 43.2868C89.4789 43.2868 86.8723 51.6839 86.8723 54.8838C86.8723 58.0837 75.8645 54.0141 76.1552 52.2747C76.4458 50.5353 82.5279 44.1565 82.8185 41.5475C83.1091 38.9384 89.4789 43.2868 89.4789 43.2868Z" fill="#A0616A"/>
<path opacity="0.1" d="M80.7901 49.0838C80.7901 49.0838 70.6512 46.4747 69.2041 61.2625C67.757 76.0504 70.3606 77.7868 66.0163 86.7746C61.6719 95.7625 95.561 87.9352 95.561 87.9352C95.561 87.9352 93.8232 85.9049 88.3194 86.7746L85.7127 78.9473C85.7127 78.9473 84.8439 75.4686 89.7695 75.4686C94.6951 75.4686 92.3761 65.3201 92.3761 65.3201C92.3761 65.3201 89.7695 56.6232 88.3194 55.7535C86.8692 54.8838 84.2746 49.6656 80.7901 49.0838Z" fill="black"/>
<path d="M80.7901 48.508C80.7901 48.508 70.6512 45.8989 69.2041 60.6837C67.757 75.4686 70.3606 77.2109 66.0163 86.1988C61.6719 95.1866 95.561 87.3594 95.561 87.3594C95.561 87.3594 93.8232 85.3291 88.3194 86.1988L85.7127 78.3715C85.7127 78.3715 84.8528 74.8988 89.7785 74.8988C94.7041 74.8988 92.3851 64.7503 92.3851 64.7503C92.3851 64.7503 89.7785 56.0534 88.3283 55.1837C86.8782 54.314 84.2746 49.0838 80.7901 48.508Z" fill="#E02041"/>
<path d="M86.8812 48.505C92.1598 48.505 96.4389 44.2219 96.4389 38.9384C96.4389 33.6548 92.1598 29.3717 86.8812 29.3717C81.6027 29.3717 77.3236 33.6548 77.3236 38.9384C77.3236 44.2219 81.6027 48.505 86.8812 48.505Z" fill="#A0616A"/>
<path d="M85.0356 87.9232L109.056 102.294L131.404 81.4515L104.762 72.1637L85.5899 85.2271L85.0356 87.9232Z" fill="#DADAE5"/>
<path d="M113.382 47.6953L105.907 69.9475L130.69 77.082L141.27 46.9905L113.382 47.6953Z" fill="#DADAE5"/>
<path opacity="0.03" d="M111.387 46.0519L113.415 47.9082L141.303 47.2035L141.944 45.3801L111.387 46.0519Z" fill="black"/>
<path opacity="0.03" d="M104.025 68.6669L111.387 46.0519L113.415 47.9082L106.128 69.6026L104.025 68.6669Z" fill="black"/>
<path d="M111.354 45.8389L113.382 47.6953L141.27 46.9905L141.911 45.1672L111.354 45.8389Z" fill="#EFF0F4"/>
<path d="M103.992 68.457L111.354 45.8389L113.382 47.6953L106.095 69.3897L103.992 68.457Z" fill="#EFF0F4"/>
<path opacity="0.03" d="M111.354 45.8389L114.455 48.7419L142.345 48.0372L141.911 45.1672L111.354 45.8389Z" fill="black"/>
<path opacity="0.03" d="M103.992 68.457L111.354 45.8389L114.455 48.7419L107.168 70.4363L103.992 68.457Z" fill="black"/>
<path opacity="0.03" d="M104.04 68.7749L104.717 73.0784L131.523 82.3931L130.741 77.3999L104.04 68.7749Z" fill="black"/>
<path opacity="0.03" d="M84.2237 82.9179L104.04 68.7749L104.906 73.0754L85.4401 87.5663L84.2237 82.9179Z" fill="black"/>
<path d="M103.992 68.457L104.573 72.1667L131.38 81.4815L130.69 77.082L103.992 68.457Z" fill="#EFF0F4"/>
<path d="M84.1728 82.5971L103.992 68.457L104.762 72.1637L85.2963 86.6546L84.1728 82.5971Z" fill="#EFF0F4"/>
<path opacity="0.03" d="M103.992 68.457L104.573 72.1667L131.38 81.4815L130.69 77.082L103.992 68.457Z" fill="black"/>
<path opacity="0.03" d="M84.1728 82.5971L103.992 68.457L104.762 72.1637L85.2963 86.6546L84.1728 82.5971Z" fill="black"/>
<path d="M84.1728 82.5971L85.0686 87.9442L109.023 102.27L108.432 96.7671L84.1728 82.5971Z" fill="#CCCAD6"/>
<path d="M95.0876 81.7514C95.0876 81.7514 94.6712 82.5461 95.3063 82.912C95.6059 83.0859 97.7721 83.5117 99.9473 83.9196C101.014 84.1175 102.084 84.3095 102.943 84.4594C103.992 84.6454 104.717 84.7593 104.717 84.7593H105.268L108.6 84.8223L111.734 84.8823L113.061 84.6094L112.297 79.3972L108.33 75.0337L107.501 75.7355L107.36 75.8554L105.179 76.9171L99.0245 79.916L96.2561 81.2655L95.9325 81.4245L95.0876 81.7514Z" fill="#FFE09C"/>
<path d="M115.302 84.2675C115.302 84.2675 114.556 78.5695 112.405 76.5722C112.405 76.5722 110.637 74.7728 109.55 74.281C109.55 74.281 108.624 73.6242 107.713 75.6035C107.713 75.6035 111.21 77.7448 111.965 81.0766L112.717 84.4084L115.302 84.2675Z" fill="#E7C4C3"/>
<path d="M111.097 82.2337C111.543 81.5358 111.237 80.5436 110.414 80.0175C109.591 79.4914 108.563 79.6307 108.118 80.3286C107.673 81.0265 107.979 82.0188 108.801 82.5448C109.624 83.0709 110.652 82.9316 111.097 82.2337Z" fill="#FF7F8E"/>
<path d="M105.632 80.9962C106.078 80.2983 105.772 79.3061 104.949 78.78C104.126 78.254 103.098 78.3933 102.653 79.0912C102.207 79.7891 102.513 80.7813 103.336 81.3073C104.159 81.8334 105.187 81.6941 105.632 80.9962Z" fill="#FF7F8E"/>
<path d="M105.179 76.9201C105.202 77.215 105.296 77.5001 105.452 77.7511C105.608 78.0022 105.823 78.2119 106.077 78.3625C106.898 78.8874 107.926 78.7494 108.369 78.0627C108.813 77.3759 108.51 76.3743 107.686 75.8494C107.63 75.8136 107.572 75.7805 107.513 75.7505L107.372 75.8704L105.179 76.9201Z" fill="#FF7F8E"/>
<path d="M105.418 83.6647C105.316 83.829 105.25 84.013 105.224 84.2047C105.197 84.3964 105.212 84.5915 105.265 84.7773L108.597 84.8403C108.584 84.5351 108.495 84.238 108.338 83.9761C108.181 83.7142 107.961 83.4958 107.698 83.3408C106.889 82.828 105.862 82.9689 105.418 83.6647Z" fill="#FF7F8E"/>
<path d="M99.9892 82.5161C99.8626 82.7268 99.7922 82.9666 99.7848 83.2124C99.7775 83.4581 99.8334 83.7017 99.9473 83.9196C101.014 84.1175 102.084 84.3095 102.943 84.4594L102.97 84.4204C103.414 83.7247 103.108 82.732 102.287 82.2072C101.466 81.6824 100.436 81.8203 99.9892 82.5161Z" fill="#FF7F8E"/>
<path d="M96.2561 81.2715C96.3844 81.4147 96.5316 81.5398 96.6935 81.6434C97.5145 82.1682 98.5421 82.0303 98.9856 81.3435C99.1131 81.1319 99.1838 80.8909 99.1906 80.6439C99.1974 80.3969 99.1402 80.1523 99.0245 79.934L96.2561 81.2715Z" fill="#FF7F8E"/>
<path d="M110.584 83.3648L110.284 83.8416C109.974 83.5173 109.596 83.2645 109.178 83.1009L109.091 83.0799C108.531 82.9779 109.391 82.6031 109.391 82.6031C109.391 82.6031 110.467 83.0499 110.584 83.3648Z" fill="#94CC79"/>
<path d="M107.98 79.922L107.68 80.4018C107.37 80.0762 106.993 79.8224 106.575 79.6581L106.488 79.6371C105.931 79.5381 106.787 79.1603 106.787 79.1603C106.787 79.1603 107.863 79.6071 107.98 79.922Z" fill="#94CC79"/>
<path d="M106.356 81.1966L106.056 81.6734C105.746 81.349 105.369 81.0963 104.951 80.9326L104.864 80.9117C104.304 80.8097 105.164 80.4348 105.164 80.4348C105.164 80.4348 106.236 80.8757 106.356 81.1966Z" fill="#94CC79"/>
<path d="M102.889 82.3961L102.59 82.876C102.28 82.5504 101.903 82.2965 101.484 82.1322L101.397 82.1112C100.837 82.0123 101.697 81.6344 101.697 81.6344C101.697 81.6344 102.77 82.0692 102.889 82.3961Z" fill="#94CC79"/>
<path d="M97.868 82.2162L97.5684 82.696C97.2571 82.3706 96.8788 82.1168 96.4598 81.9523L96.3729 81.9313C95.8156 81.8323 96.6725 81.4545 96.6725 81.4545C96.6725 81.4545 97.7451 81.8983 97.868 82.2162Z" fill="#94CC79"/>
<path d="M101.988 80.4168L101.688 80.8937C101.378 80.5681 101.001 80.3142 100.582 80.1499L100.496 80.1289C99.9353 80.03 100.795 79.6521 100.795 79.6521C100.795 79.6521 101.868 80.0989 101.988 80.4168Z" fill="#94CC79"/>
<path d="M114.347 85.746C114.347 85.746 116.273 85.536 115.29 84.2675C114.247 84.0125 113.155 84.0311 112.121 84.3215C112.121 84.3215 103.92 84.6873 102.857 84.0995C102.857 84.0995 95.4262 82.9 95.1266 82.5221C95.1266 82.5221 94.5273 82.654 96.349 83.4638C98.1706 84.2735 103.998 85.1192 103.998 85.1192L110.179 85.611L112.402 85.3351L114.347 85.746Z" fill="#E7C4C3"/>
<path opacity="0.2" d="M114.347 85.746C114.347 85.746 116.273 85.536 115.29 84.2675C114.247 84.0125 113.155 84.0311 112.121 84.3215C112.121 84.3215 103.92 84.6873 102.857 84.0995C102.857 84.0995 95.4262 82.9 95.1266 82.5221C95.1266 82.5221 94.5273 82.654 96.349 83.4638C98.1706 84.2735 103.998 85.1192 103.998 85.1192L110.179 85.611L112.402 85.3351L114.347 85.746Z" fill="white"/>
<path d="M108.504 82.804C108.414 83.0845 108.393 83.3825 108.441 83.673C108.49 83.9636 108.607 84.2384 108.783 84.4744C109.346 85.2691 110.35 85.527 111.027 85.0502C111.704 84.5734 111.791 83.5507 111.225 82.741C111.186 82.687 111.144 82.633 111.102 82.5821L110.922 82.642L108.504 82.804Z" fill="#FF7F8E"/>
<path d="M108.432 96.7671L130.69 77.082L131.374 81.4275L109.023 102.27L108.432 96.7671Z" fill="#CCCAD6"/>
<path d="M133.579 78.2036L130.691 77.082L141.911 45.1672L144.05 46.6786L133.579 78.2036Z" fill="#CCCAD6"/>
<g opacity="0.1">
<path opacity="0.1" d="M115.515 124.72C115.538 123.948 115.649 123.181 115.848 122.435L115.701 122.486C115.557 123.222 115.495 123.971 115.515 124.72Z" fill="white"/>
<path opacity="0.1" d="M117.004 135.478C114.673 135.615 107.447 132.287 105.999 130.547C105.808 130.313 105.692 130.027 105.664 129.726C105.621 129.97 105.629 130.221 105.687 130.462C105.744 130.703 105.851 130.93 105.999 131.129C107.447 132.868 114.673 136.194 117.004 136.056C119.467 135.912 127.721 136.356 128.012 132.578C128.032 132.476 128.018 132.371 127.973 132.278C127.308 135.75 119.404 135.343 117.004 135.478Z" fill="white"/>
</g>
<path d="M125.468 65.1162C125.468 65.1162 125.984 64.5164 125.516 64.0846C125.291 63.8746 123.53 63.0709 121.756 62.2852C120.884 61.9013 120.006 61.5234 119.308 61.2236L117.855 60.6028L117.385 60.4828L114.553 59.7601L111.89 59.0793L110.691 59.0463L110.29 63.6617L112.804 68.1841L113.649 67.7523L113.795 67.6773L115.872 67.2095L121.738 65.9019L124.372 65.3021L124.671 65.2331L125.468 65.1162Z" fill="#FFE09C"/>
<path d="M108.714 58.9054C108.714 58.9054 108.208 63.9196 109.643 66.0579C109.643 66.0579 110.793 67.9412 111.62 68.589C111.62 68.589 112.279 69.3327 113.457 67.8272C113.457 67.8272 110.898 65.2961 110.925 62.3002L110.949 59.3012L108.714 58.9054Z" fill="#E7C4C3"/>
<path d="M114.056 63.736C114.576 63.2303 114.514 62.3227 113.918 61.7087C113.321 61.0947 112.417 61.0069 111.897 61.5125C111.377 62.0182 111.439 62.9259 112.036 63.5399C112.632 64.1539 113.537 64.2417 114.056 63.736Z" fill="#FF7F8E"/>
<path d="M118.476 65.8883C118.996 65.3826 118.934 64.475 118.337 63.861C117.741 63.247 116.836 63.1592 116.317 63.6649C115.797 64.1705 115.859 65.0782 116.455 65.6922C117.052 66.3062 117.956 66.394 118.476 65.8883Z" fill="#FF7F8E"/>
<path d="M115.884 67.2125C115.923 66.9572 115.902 66.6962 115.821 66.451C115.739 66.2059 115.601 65.9837 115.416 65.803C114.817 65.2032 113.918 65.1012 113.394 65.608C112.87 66.1148 112.938 67.0205 113.535 67.6353C113.574 67.6776 113.616 67.7176 113.661 67.7553L113.807 67.6803L115.884 67.2125Z" fill="#FF7F8E"/>
<path d="M117.043 61.4035C117.163 61.2836 117.257 61.1396 117.317 60.9808C117.378 60.8221 117.404 60.6524 117.394 60.4828L114.562 59.7601C114.514 60.0206 114.53 60.2892 114.61 60.5419C114.69 60.7947 114.831 61.0237 115.021 61.2086C115.608 61.8263 116.513 61.9133 117.043 61.4035Z" fill="#FF7F8E"/>
<path d="M121.435 63.4788C121.587 63.3231 121.696 63.131 121.752 62.9209C121.809 62.7109 121.81 62.4899 121.756 62.2792C120.884 61.8953 120.006 61.5175 119.308 61.2176L119.275 61.2445C118.757 61.7514 118.82 62.6601 119.416 63.2748C120.012 63.8896 120.917 63.9856 121.435 63.4788Z" fill="#FF7F8E"/>
<path d="M124.372 65.3021C124.292 65.1531 124.191 65.0167 124.072 64.8973C123.473 64.2825 122.574 64.1955 122.053 64.7023C121.9 64.8575 121.791 65.0497 121.735 65.26C121.679 65.4703 121.679 65.6916 121.735 65.9019L124.372 65.3021Z" fill="#FF7F8E"/>
<path d="M112.549 60.6238L112.906 60.2789C113.106 60.618 113.378 60.9096 113.703 61.1336L113.771 61.1696C114.23 61.3675 113.415 61.5145 113.415 61.5145C113.415 61.5145 112.6 60.9177 112.549 60.6238Z" fill="#94CC79"/>
<path d="M114.095 64.1025L114.449 63.7547C114.649 64.0949 114.921 64.3876 115.245 64.6124L115.314 64.6454C115.773 64.8463 114.958 64.9932 114.958 64.9932C114.958 64.9932 114.131 64.3784 114.095 64.1025Z" fill="#94CC79"/>
<path d="M115.734 63.3318L116.09 62.9839C116.291 63.3242 116.563 63.6168 116.887 63.8416L116.956 63.8746C117.415 64.0756 116.6 64.2225 116.6 64.2225C116.6 64.2225 115.773 63.6257 115.734 63.3318Z" fill="#94CC79"/>
<path d="M118.934 63.0079L119.29 62.6601C119.49 62.9997 119.761 63.2922 120.084 63.5177L120.156 63.5537C120.612 63.7517 119.8 63.8986 119.8 63.8986C119.8 63.8986 118.973 63.3018 118.934 63.0079Z" fill="#94CC79"/>
<path d="M123.191 64.1655L123.548 63.8176C123.747 64.1582 124.018 64.451 124.342 64.6753L124.414 64.7083C124.869 64.9093 124.057 65.0562 124.057 65.0562C124.057 65.0562 123.23 64.4564 123.191 64.1655Z" fill="#94CC79"/>
<path d="M119.308 64.8703L119.665 64.5254C119.866 64.8645 120.138 65.1561 120.462 65.3801C120.483 65.395 120.506 65.4071 120.531 65.4161C120.989 65.614 120.174 65.764 120.174 65.764C120.174 65.764 119.347 65.1642 119.308 64.8703Z" fill="#94CC79"/>
<path d="M109.817 57.8317C109.817 57.8317 108.13 57.6248 108.714 58.9054C109.554 59.3346 110.489 59.5411 111.431 59.5052C111.431 59.5052 118.505 60.8427 119.296 61.5564C119.296 61.5564 125.399 64.0696 125.588 64.4594C125.588 64.4594 126.124 64.4594 124.734 63.4068C123.344 62.3542 118.541 60.4498 118.541 60.4498L113.364 58.7854L111.41 58.5725L109.817 57.8317Z" fill="#E7C4C3"/>
<path opacity="0.2" d="M109.817 57.8317C109.817 57.8317 108.13 57.6248 108.714 58.9054C109.554 59.3346 110.489 59.5411 111.431 59.5052C111.431 59.5052 118.505 60.8427 119.296 61.5564C119.296 61.5564 125.399 64.0696 125.588 64.4594C125.588 64.4594 126.124 64.4594 124.734 63.4068C123.344 62.3542 118.541 60.4498 118.541 60.4498L113.364 58.7854L111.41 58.5725L109.817 57.8317Z" fill="white"/>
<path d="M101.191 64.8163C102.051 64.3643 102.83 63.7713 103.495 63.0619C103.794 62.708 104.046 62.3092 104.355 61.9613C105.132 61.1294 106.143 60.5523 107.255 60.3059C108.357 60.0635 109.485 59.9538 110.613 59.979C111.369 59.9308 112.126 60.0223 112.849 60.2489C113.21 60.3671 113.535 60.5753 113.794 60.8538C114.053 61.1324 114.237 61.4722 114.329 61.8413C114.493 62.741 113.906 63.6137 113.202 64.1925C112.546 64.728 111.775 65.1028 110.949 65.2871C110.276 65.4037 109.597 65.4828 108.915 65.524C104.906 65.9439 101.329 68.1271 97.829 70.1154C94.743 71.8638 92.9933 71.7829 89.7905 73.3003C89.6646 72.3407 88.2145 73.0844 88.2355 72.1157C88.2534 71.393 88.2894 70.2894 88.9725 69.8635C89.7665 69.3687 91.0698 69.2637 91.9686 68.9638C94.0337 68.2861 96.0507 67.4695 98.0058 66.5197C99.0864 65.9899 100.148 65.4221 101.191 64.8163Z" fill="#A0616A"/>
<path opacity="0.1" d="M74.717 62.1322L90.0781 76.0474C90.0781 76.0474 92.9754 70.2504 93.8442 70.2504C94.7131 70.2504 83.4177 53.1564 83.4177 53.1564C83.4177 53.1564 80.5205 49.6776 78.7827 51.417C77.045 53.1564 71.8198 51.9838 74.717 62.1322Z" fill="black"/>
<path d="M74.4264 61.5534L89.7785 75.4686C89.7785 75.4686 92.6757 69.6686 93.5446 69.6686C94.4135 69.6686 83.1151 52.5746 83.1151 52.5746C83.1151 52.5746 80.2179 49.0928 78.4801 50.8322C76.7424 52.5716 71.5291 51.405 74.4264 61.5534Z" fill="#E02041"/>
<path d="M99.7017 37.025C100.037 36.6518 100.309 36.2264 100.508 35.7655C101.832 32.7665 99.7316 28.9998 96.1453 27.9682C94.3476 27.4434 92.3342 27.5483 90.5395 26.9905C89.0954 26.5437 87.879 25.698 86.5547 25.0382C84.0661 23.8109 81.3126 23.2195 78.5401 23.3168C75.8286 23.4128 72.8804 24.3665 71.7688 26.4627C70.1449 29.5157 73.1321 33.3603 71.3224 36.3323C69.9921 38.5155 66.7653 39.1603 64.0898 40.1079C61.3198 41.0669 58.7979 42.6312 56.7073 44.6873C54.61 46.7866 53.112 49.6656 54.1666 52.2687C54.7808 53.7952 56.168 54.9887 57.2706 56.3053C59.1101 58.4655 60.1861 61.1729 60.3319 64.0076C60.4776 66.8423 59.6848 69.646 58.0766 71.9838C57.5612 72.7245 56.959 73.4473 56.7463 74.287C56.2369 76.2903 58.2923 78.3056 60.6682 78.6954C63.0441 79.0853 65.5099 78.1976 67.3585 76.8871C69.0652 75.7094 70.4389 74.1102 71.3464 72.2447C73.5425 67.5843 71.9995 62.3482 71.7808 57.3309C71.7538 56.7461 71.7808 56.1103 72.1913 55.6515C72.8265 54.9648 74.0249 54.9827 75.0496 54.8928C77.7011 54.6589 80.143 53.1714 81.2665 51.1201C83.4147 47.1735 80.913 41.6584 84.6671 38.6894C89.392 34.9528 96.1932 40.8607 99.7017 37.025Z" fill="#3F3D56"/>
<path opacity="0.1" d="M96.1452 27.9562H96.1153C97.5175 29.5816 98.0448 31.7769 97.2119 33.6722C97.0134 34.1331 96.7411 34.5585 96.4059 34.9318C92.8974 38.7674 86.0963 32.8595 81.3714 36.5962C77.6172 39.5651 80.119 45.0802 77.9708 49.0268C76.8562 51.0781 74.4054 52.5656 71.7538 52.7995C70.7292 52.8895 69.5307 52.8715 68.8955 53.5582C68.4731 54.0171 68.4581 54.6529 68.4851 55.2376C68.7038 60.2549 70.2468 65.4911 68.0506 70.1514C67.1432 72.017 65.7695 73.6161 64.0628 74.7938C62.2142 76.0983 59.7514 76.998 57.3725 76.6082L57.2077 76.5722C57.6139 77.1403 58.1292 77.6217 58.7233 77.9883C59.3175 78.3549 59.9786 78.5994 60.6682 78.7074C63.0471 79.0943 65.4949 78.1946 67.3585 76.8871C69.0652 75.7094 70.4389 74.1102 71.3464 72.2447C73.5425 67.5843 71.9995 62.3482 71.7808 57.3309C71.7538 56.7461 71.7808 56.1103 72.1913 55.6515C72.8264 54.9647 74.0249 54.9827 75.0496 54.8928C77.7011 54.6589 80.143 53.1714 81.2665 51.1201C83.4147 47.1735 80.913 41.6584 84.6671 38.6894C89.392 34.9528 96.1932 40.8607 99.7016 37.025C100.037 36.6518 100.309 36.2264 100.508 35.7655C101.832 32.7575 99.7316 29.0148 96.1452 27.9562Z" fill="black"/>
</svg>
